<svg width="24" height="24" viewBox="0 0 24 24" fill="none" xmlns="http://www.w3.org/2000/svg">
<path d="M20.3792 8.50055C20.2516 8.59956 17.9986 9.86909 17.9986 12.692C17.9986 15.9571 20.8655 17.1122 20.9513 17.1408C20.9381 17.2112 20.4959 18.7228 19.4397 20.2629C18.4981 21.6183 17.5146 22.9714 16.0184 22.9714C14.5223 22.9714 14.1372 22.1023 12.41 22.1023C10.7269 22.1023 10.1284 23 8.75988 23C7.39134 23 6.43645 21.7459 5.33854 20.2057C4.06681 18.3971 3.03931 15.5875 3.03931 12.9208C3.03931 8.64356 5.82038 6.37514 8.55746 6.37514C10.0118 6.37514 11.2241 7.33003 12.1372 7.33003C13.0063 7.33003 14.3616 6.31793 16.0162 6.31793C16.6433 6.31793 18.8963 6.37514 20.3792 8.50055ZM15.2307 4.50715C15.915 3.69527 16.399 2.56876 16.399 1.44224C16.399 1.28603 16.3858 1.12761 16.3572 1C15.2439 1.0418 13.9194 1.74147 13.1207 2.66777C12.4937 3.38064 11.9084 4.50715 11.9084 5.64907C11.9084 5.82068 11.937 5.9923 11.9502 6.0473C12.0206 6.06051 12.135 6.07591 12.2494 6.07591C13.2483 6.07591 14.5047 5.40704 15.2307 4.50715Z" fill="#1F2723"/>
</svg>
