<svg width="24" height="24" viewBox="0 0 24 24" fill="none" xmlns="http://www.w3.org/2000/svg">
<g clip-path="url(#clip0_2002_1852)">
<path fill-rule="evenodd" clip-rule="evenodd" d="M7.83757 9.51839C13.0743 9.57849 18.7247 9.77019 21.2633 9.86394C22.0909 9.89454 22.7815 10.4481 22.8269 11.2751C22.8387 11.4891 22.8459 11.7302 22.8459 11.9999C22.8459 12.2696 22.8387 12.5108 22.8269 12.7248C22.7815 13.5517 22.0909 14.1053 21.2633 14.1359C18.7247 14.2297 13.0743 14.4214 7.83757 14.4815L9.70867 16.7746C10.1095 17.2658 10.2691 17.9329 9.93967 18.4746C9.81082 18.6865 9.64678 18.9089 9.44112 19.1109C9.23242 19.3159 9.00238 19.4789 8.78382 19.6064C8.23557 19.926 7.56737 19.7639 7.09442 19.3407C4.92122 17.3961 2.74165 14.888 1.53936 13.1342C1.05998 12.4349 1.0149 11.5412 1.47927 10.8319C2.62672 9.07914 4.90768 6.58934 7.09253 4.65689C7.56787 4.23646 8.23557 4.07395 8.78372 4.3937C9.00222 4.52114 9.23222 4.68415 9.44092 4.88919C9.64657 5.09124 9.81073 5.31364 9.93958 5.52544C10.269 6.06709 10.1095 6.73419 9.70862 7.22539L7.83757 9.51839Z" fill="#1F2723"/>
</g>
<defs>
<clipPath id="clip0_2002_1852">
<rect width="24" height="24" fill="white"/>
</clipPath>
</defs>
</svg>
