<svg width="24" height="24" viewBox="0 0 24 24" fill="none" xmlns="http://www.w3.org/2000/svg">
<g clip-path="url(#clip0_2002_1776)">
<path fill-rule="evenodd" clip-rule="evenodd" d="M3.53497 3.44754C5.0583 3.34939 7.4224 3.25 10.75 3.25C14.0776 3.25 16.4417 3.34939 17.965 3.44754C19.5949 3.55256 20.9002 4.7752 21.0422 6.42795C21.0711 6.7651 21.0995 7.14315 21.1255 7.56355L21.3839 7.58975C22.3389 7.68675 23.2739 8.31115 23.4998 9.3914C23.633 10.0282 23.75 10.9024 23.75 12.0079C23.75 13.1105 23.6336 13.9831 23.5009 14.6194C23.2747 15.7036 22.3349 16.3288 21.3762 16.4228L21.1248 16.4473C21.099 16.8634 21.0709 17.2378 21.0422 17.5721C20.9002 19.2248 19.5949 20.4475 17.965 20.5525C16.4417 20.6506 14.0776 20.75 10.75 20.75C7.4224 20.75 5.0583 20.6506 3.53497 20.5525C1.90503 20.4475 0.59983 19.2248 0.457814 17.5721C0.349488 16.3114 0.250001 14.4788 0.25 12C0.25 9.52115 0.349487 7.6886 0.457814 6.42795C0.59983 4.7752 1.90503 3.55256 3.53497 3.44754ZM9.88755 8.025C10.619 7.43985 11.7104 7.8374 11.8941 8.75595L12.2508 10.5393L14.6956 10.2516C15.6939 10.1342 16.222 11.3977 15.4372 12.0257L11.266 15.3625C10.5345 15.9478 9.44305 15.5501 9.25935 14.6316L8.9027 12.8483L6.4579 13.136C5.4596 13.2534 4.93143 11.9899 5.71635 11.3619L9.88755 8.025Z" fill="#1F2723"/>
</g>
<defs>
<clipPath id="clip0_2002_1776">
<rect width="24" height="24" fill="white"/>
</clipPath>
</defs>
</svg>
