<svg width="24" height="24" viewBox="0 0 24 24" fill="none" xmlns="http://www.w3.org/2000/svg">
<g clip-path="url(#clip0_2002_1779)">
<path fill-rule="evenodd" clip-rule="evenodd" d="M3.53497 3.44754C5.0583 3.34939 7.4224 3.25 10.75 3.25C14.0776 3.25 16.4417 3.34939 17.965 3.44754C19.5949 3.55256 20.9002 4.7752 21.0422 6.42795C21.0711 6.7651 21.0995 7.14315 21.1255 7.56355L21.3839 7.58975C22.3389 7.68675 23.2739 8.31115 23.4998 9.3914C23.633 10.0282 23.75 10.9024 23.75 12.0079C23.75 13.1105 23.6336 13.9831 23.5009 14.6194C23.2747 15.7036 22.3349 16.3288 21.3762 16.4228L21.1248 16.4473C21.099 16.8634 21.0709 17.2378 21.0422 17.5721C20.9002 19.2248 19.5949 20.4475 17.965 20.5525C16.4417 20.6506 14.0776 20.75 10.75 20.75C7.4224 20.75 5.0583 20.6506 3.53497 20.5525C1.90503 20.4475 0.59983 19.2248 0.457814 17.5721C0.349488 16.3114 0.250001 14.4788 0.25 12C0.25 9.52115 0.349487 7.6886 0.457814 6.42795C0.59983 4.7752 1.90503 3.55256 3.53497 3.44754ZM8.42475 6.8476C8.47285 6.8946 8.5 6.95905 8.5 7.02635V16.9722C8.5 17.0395 8.47285 17.1039 8.42475 17.151C8.3766 17.198 8.31155 17.2237 8.2443 17.2222C6.9527 17.1926 6.0008 17.1436 5.35515 17.1001C4.60802 17.0498 4.0032 16.5006 3.92144 15.7447C3.83708 14.9648 3.75 13.7385 3.75 11.9993C3.75 10.2601 3.83708 9.0338 3.92144 8.2539C4.0032 7.498 4.60802 6.94875 5.35515 6.8984C6.0008 6.85495 6.9527 6.806 8.2443 6.77645C8.31155 6.7749 8.3766 6.80055 8.42475 6.8476Z" fill="#1F2723"/>
</g>
<defs>
<clipPath id="clip0_2002_1779">
<rect width="24" height="24" fill="white"/>
</clipPath>
</defs>
</svg>
