<svg width="24" height="24" viewBox="0 0 24 24" fill="none" xmlns="http://www.w3.org/2000/svg">
<g clip-path="url(#clip0_2002_1872)">
<path fill-rule="evenodd" clip-rule="evenodd" d="M18.8794 1.76934C18.8918 2.10609 18.9015 2.51084 18.9025 2.96994C19.3495 2.99534 19.7505 3.02179 20.1068 3.04799C21.782 3.17119 23.0995 4.44659 23.2437 6.13234C23.3742 7.65839 23.5043 10.0012 23.5043 13.2782C23.5043 16.5553 23.3742 18.8981 23.2437 20.4241C23.0995 22.1099 21.782 23.3853 20.1068 23.5085C18.4361 23.6313 15.7834 23.76 12 23.76C8.21651 23.76 5.56381 23.6313 3.89321 23.5085C2.21791 23.3853 0.900455 22.1099 0.756255 20.4241C0.625705 18.8981 0.495605 16.5552 0.495605 13.2782C0.495605 10.0012 0.625705 7.65839 0.756255 6.13239C0.900455 4.44659 2.21791 3.17119 3.89321 3.04799C4.24946 3.02179 4.65041 2.99534 5.09746 2.96994C5.09846 2.51084 5.10811 2.10609 5.12051 1.76934C5.14926 0.99034 5.65036 0.30704 6.48921 0.25774C6.67756 0.24669 6.89406 0.23999 7.14256 0.23999C7.39106 0.23999 7.60761 0.24669 7.79591 0.25774C8.63476 0.30704 9.13591 0.99034 9.16461 1.76934C9.1757 2.06939 9.18456 2.42349 9.18706 2.82184C10.0447 2.80584 10.9814 2.79649 12 2.79649C13.0186 2.79649 13.9553 2.80584 14.8129 2.82184C14.8154 2.42349 14.8242 2.06939 14.8353 1.76934C14.864 0.99034 15.3652 0.30704 16.204 0.25774C16.3923 0.24669 16.6089 0.23999 16.8574 0.23999C17.1059 0.23999 17.3224 0.24669 17.5107 0.25774C18.3496 0.30704 18.8507 0.99034 18.8794 1.76934ZM6.37561 9.95479C5.38726 9.95479 4.58606 10.756 4.58606 11.7443C4.58606 12.7327 5.38726 13.5339 6.37561 13.5339C7.36396 13.5339 8.16516 12.7327 8.16516 11.7443C8.16516 10.756 7.36396 9.95479 6.37561 9.95479ZM6.37561 15.5791C5.38726 15.5791 4.58606 16.3803 4.58606 17.3687C4.58606 18.357 5.38726 19.1582 6.37561 19.1582C7.36396 19.1582 8.16516 18.357 8.16516 17.3687C8.16516 16.3803 7.36396 15.5791 6.37561 15.5791ZM15.8348 11.7443C15.8348 10.756 16.636 9.95479 17.6243 9.95479C18.6127 9.95479 19.4139 10.756 19.4139 11.7443C19.4139 12.7327 18.6127 13.5339 17.6243 13.5339C16.636 13.5339 15.8348 12.7327 15.8348 11.7443ZM12 9.95479C11.0116 9.95479 10.2104 10.756 10.2104 11.7443C10.2104 12.7327 11.0116 13.5339 12 13.5339C12.9883 13.5339 13.7895 12.7327 13.7895 11.7443C13.7895 10.756 12.9883 9.95479 12 9.95479ZM10.2104 17.3687C10.2104 16.3803 11.0116 15.5791 12 15.5791C12.9883 15.5791 13.7895 16.3803 13.7895 17.3687C13.7895 18.357 12.9883 19.1582 12 19.1582C11.0116 19.1582 10.2104 18.357 10.2104 17.3687Z" fill="#1F2723"/>
</g>
<defs>
<clipPath id="clip0_2002_1872">
<rect width="24" height="24" fill="white"/>
</clipPath>
</defs>
</svg>
