<svg width="24" height="24" viewBox="0 0 24 24" fill="none" xmlns="http://www.w3.org/2000/svg">
<path fill-rule="evenodd" clip-rule="evenodd" d="M9.32611 1.0874C9.94971 1.04035 10.7726 1 11.76 1C12.7475 1 13.5703 1.04035 14.1939 1.0874C15.2987 1.1707 16.2119 1.8653 16.673 2.81545L17.2944 4.09595C18.3644 4.13445 19.2635 4.1805 19.992 4.22545C21.7169 4.3318 23.0918 5.6549 23.2484 7.3816C23.3831 8.8653 23.52 10.9435 23.52 13.2605C23.52 15.5774 23.3831 17.6556 23.2484 19.1393C23.0918 20.8659 21.717 22.1891 19.992 22.2954C18.2382 22.4035 15.4966 22.5183 11.76 22.5183C8.02346 22.5183 5.28181 22.4035 3.52801 22.2954C1.80306 22.1891 0.428311 20.8659 0.271611 19.1393C0.137011 17.6556 1.14441e-05 15.5774 1.14441e-05 13.2605C1.14441e-05 10.9436 0.137011 8.8653 0.271611 7.3816C0.428261 5.6549 1.80306 4.33175 3.52801 4.22545C4.25656 4.1805 5.15561 4.13445 6.22566 4.09595L6.84706 2.81545C7.30816 1.8653 8.22131 1.1707 9.32611 1.0874ZM7.00596 12.76C7.00596 10.1344 9.13441 8.00595 11.76 8.00595C14.3856 8.00595 16.5141 10.1344 16.5141 12.76C16.5141 15.3856 14.3856 17.514 11.76 17.514C9.13441 17.514 7.00596 15.3856 7.00596 12.76Z" fill="#1F2723"/>
</svg>
