<svg width="24" height="24" viewBox="0 0 24 24" fill="none" xmlns="http://www.w3.org/2000/svg">
<g clip-path="url(#clip0_2002_1838)">
<path d="M12 1.20001C17.928 1.20001 20.5923 2.81995 21.3604 8.74786C23.4001 9.31192 24 10.7641 24 13.2C24 15.636 23.4476 16.9799 21.5996 17.5799V20.2322C21.5995 21.6481 20.448 22.7995 19.0322 22.7996H16.9678C15.552 22.7995 14.4005 21.6481 14.4004 20.2322V17.9998H9.59961V20.2322C9.59949 21.6481 8.44805 22.7995 7.03223 22.7996H4.96777C3.55195 22.7995 2.40051 21.6481 2.40039 20.2322V17.5799C0.552391 16.9799 0 15.744 0 13.2C7.49725e-08 10.6561 0.59988 9.31191 2.63965 8.74786C3.40767 2.81995 6.07203 1.20001 12 1.20001ZM4.2002 11.1004C3.4442 11.1004 2.77211 11.4962 2.41211 12.1082C2.20815 12.4202 2.09961 12.7921 2.09961 13.2C2.09961 13.596 2.20839 13.9564 2.40039 14.2684C2.5563 14.556 2.78391 14.7838 3.05957 14.9637C3.38357 15.1797 3.7802 15.2996 4.2002 15.2996C5.03998 15.2995 5.75994 14.8082 6.08398 14.1004C6.22798 13.8244 6.2998 13.524 6.2998 13.2C6.2998 12.0361 5.3641 11.1005 4.2002 11.1004ZM19.7998 11.1004C18.6359 11.1005 17.7002 12.0361 17.7002 13.2C17.7002 13.524 17.772 13.8244 17.916 14.1004C18.2401 14.8082 18.96 15.2995 19.7998 15.2996C20.2198 15.2996 20.6164 15.1797 20.9404 14.9637C21.2161 14.7838 21.4437 14.556 21.5996 14.2684C21.7916 13.9564 21.9004 13.608 21.9004 13.2C21.9004 12.7921 21.7919 12.4202 21.5879 12.1082C21.2279 11.4962 20.5558 11.1004 19.7998 11.1004ZM14.04 4.7879C14.0759 4.03204 13.2243 3.61227 12.6963 4.11603L8.83203 7.7879C8.64003 7.9679 8.55566 8.17221 8.55566 8.40021C8.55576 8.83214 8.88014 9.26447 9.37207 9.26447H9.94824C10.1161 9.2646 10.272 9.40793 10.2842 9.58771L10.4043 11.7117C10.4403 12.4317 11.2805 12.7685 11.7725 12.2645L15.3477 8.61603C15.4196 8.54409 15.4679 8.47214 15.5039 8.40021C15.7799 7.86021 15.4319 7.15188 14.7959 7.16388H14.292C14.1 7.16387 13.9441 6.99581 13.9561 6.79181L14.04 4.7879Z" fill="#1F2723"/>
</g>
<defs>
<clipPath id="clip0_2002_1838">
<rect width="24" height="24" fill="white"/>
</clipPath>
</defs>
</svg>
