<svg width="24" height="24" viewBox="0 0 24 24" fill="none" xmlns="http://www.w3.org/2000/svg">
<g clip-path="url(#clip0_2002_1841)">
<path fill-rule="evenodd" clip-rule="evenodd" d="M16.2009 0.962807C16.4846 0.679064 16.9447 0.679064 17.2284 0.962807C18.6338 2.36815 18.6338 4.64665 17.2284 6.05202C16.9447 6.33572 16.4846 6.33572 16.2009 6.05202C15.9172 5.76827 15.9172 5.30822 16.2009 5.02447C17.0388 4.18661 17.0388 2.82819 16.2009 1.99033C15.9172 1.70659 15.9172 1.24655 16.2009 0.962807ZM21.0703 3.65628C22.2741 3.65628 23.25 4.63217 23.25 5.83599C23.25 7.03981 22.2741 8.01569 21.0703 8.01569C19.8665 8.01569 18.8906 7.03981 18.8906 5.83599C18.8906 4.63217 19.8665 3.65628 21.0703 3.65628ZM19.3652 10.8C20.2997 10.3525 21.4201 10.7474 21.8676 11.6821C22.0408 12.044 22.4748 12.1969 22.8367 12.0236C23.1986 11.8503 23.3515 11.4165 23.1783 11.0545C22.3842 9.39608 20.3961 8.69533 18.7377 9.48932C18.3757 9.66263 18.2228 10.0965 18.3961 10.4584C18.5693 10.8203 19.0033 10.9733 19.3652 10.8ZM14.8712 5.37398C15.5406 3.65812 14.6923 1.72447 12.9765 1.05506C12.6026 0.909216 12.1813 1.09404 12.0355 1.46787C11.8897 1.84169 12.0744 2.26298 12.4483 2.40882C13.4165 2.78655 13.8952 3.87763 13.5174 4.84583C13.3716 5.21966 13.5564 5.64093 13.9302 5.78677C14.304 5.93262 14.7254 5.74783 14.8712 5.37398ZM10.541 4.20445C9.51696 3.43807 8.08776 3.76752 7.46683 4.85741C7.0133 5.65337 6.58744 6.43802 6.18763 7.2078C7.01941 8.60058 8.44654 10.5602 10.8678 12.9815C13.3525 15.4663 15.3858 16.9387 16.8228 17.797C17.5829 17.4017 18.3574 16.9811 19.1429 16.5335C20.2328 15.9126 20.5623 14.4834 19.7959 13.4593C18.904 12.2675 17.3991 10.381 15.5092 8.49111C13.6194 6.60121 11.7329 5.09632 10.541 4.20445ZM15.3068 18.5617C13.8515 17.6091 12.0007 16.1695 9.84029 14.009C7.74607 11.9148 6.35033 10.1327 5.42391 8.72366C4.56958 10.4725 3.85235 12.1279 3.25332 13.6461C4.0505 14.9331 5.07795 16.3148 6.38158 17.6184C7.68543 18.9222 9.06727 19.9497 10.3544 20.747C11.8812 20.1445 13.5469 19.4225 15.3068 18.5617ZM0.797886 21.2728C1.10396 20.0046 1.66985 17.9308 2.61524 15.3296C3.36266 16.4248 4.26749 17.5593 5.35406 18.6459C6.44082 19.7326 7.57548 20.6376 8.6708 21.3851C6.06959 22.3305 3.99577 22.8964 2.72748 23.2024C1.54561 23.4876 0.512661 22.4547 0.797886 21.2728Z" fill="#1F2723"/>
</g>
<defs>
<clipPath id="clip0_2002_1841">
<rect width="24" height="24" fill="white"/>
</clipPath>
</defs>
</svg>
