<svg width="24" height="24" viewBox="0 0 24 24" fill="none" xmlns="http://www.w3.org/2000/svg">
<g clip-path="url(#clip0_2002_1863)">
<path fill-rule="evenodd" clip-rule="evenodd" d="M0.25 12C0.25 5.51065 5.51065 0.25 12 0.25C18.4893 0.25 23.75 5.51065 23.75 12C23.75 18.4893 18.4893 23.75 12 23.75C9.949 23.75 8.0189 23.2239 6.3393 22.2989C5.14665 22.7315 3.81264 23.1525 2.49287 23.4615C1.31301 23.7377 0.244206 22.7205 0.485467 21.5213C0.76466 20.1335 1.18182 18.7488 1.63064 17.5308C0.749405 15.8819 0.25 13.9983 0.25 12ZM15.7499 9.75C15.7499 11.09 15.0471 12.2659 13.99 12.929C15.3885 13.5619 16.455 14.8416 16.8419 16.4059C17.0229 17.1373 16.4408 17.7804 15.6899 17.8431C14.7783 17.9193 13.4666 18 12 18C10.5334 18 9.22165 17.9193 8.3101 17.8431C7.5592 17.7804 6.97705 17.1373 7.158 16.4059C7.545 14.8417 8.6115 13.562 10.0099 12.9291C8.95275 12.2659 8.2499 11.09 8.2499 9.75C8.2499 7.67895 9.92885 6 11.9999 6C14.071 6 15.7499 7.67895 15.7499 9.75Z" fill="#1F2723"/>
</g>
<defs>
<clipPath id="clip0_2002_1863">
<rect width="24" height="24" fill="white"/>
</clipPath>
</defs>
</svg>
