<svg width="24" height="24" viewBox="0 0 24 24" fill="none" xmlns="http://www.w3.org/2000/svg">
<g clip-path="url(#clip0_2002_1855)">
<g clip-path="url(#clip1_2002_1855)">
<path d="M17.4312 7.69235C16.6814 6.94255 15.4638 6.94255 14.714 7.69235L10.1832 12.2232L9.27957 11.3196C8.52977 10.5698 7.31215 10.5698 6.56235 11.3196C5.81255 12.0694 5.81255 13.287 6.56235 14.0368L8.83097 16.3054C9.58077 17.0552 10.7984 17.0552 11.5482 16.3054L17.4377 10.416C18.1875 9.66619 18.1875 8.44856 17.4377 7.69876L17.4312 7.69235Z" fill="#1F2723"/>
<path fill-rule="evenodd" clip-rule="evenodd" d="M15.6 0H8.4C3 0 0 3 0 8.4V15.6C0 21 3 24 8.4 24H15.6C21 24 24 21 24 15.6V8.4C24 3 21 0 15.6 0ZM8.4 3H15.6C17.7573 3 18.9979 3.59057 19.7037 4.29632C20.4094 5.00207 21 6.24271 21 8.4V15.6C21 17.7573 20.4094 18.9979 19.7037 19.7037C18.9979 20.4094 17.7573 21 15.6 21H8.4C6.24271 21 5.00207 20.4094 4.29632 19.7037C3.59057 18.9979 3 17.7573 3 15.6V8.4C3 6.24271 3.59057 5.00207 4.29632 4.29632C5.00207 3.59057 6.24271 3 8.4 3Z" fill="#1F2723"/>
</g>
</g>
<defs>
<clipPath id="clip0_2002_1855">
<rect width="24" height="24" fill="white"/>
</clipPath>
<clipPath id="clip1_2002_1855">
<rect width="24" height="24" fill="white"/>
</clipPath>
</defs>
</svg>
