<svg width="24" height="24" viewBox="0 0 24 24" fill="none" xmlns="http://www.w3.org/2000/svg">
<g clip-path="url(#clip0_2002_1840)">
<path fill-rule="evenodd" clip-rule="evenodd" d="M13.5 23.0093C12.751 23.6513 11.249 23.6513 10.5 23.0093L4.21696 16.8294C3.50003 16.0093 3.28118 14.8479 4.00003 14.0093C4.71887 13.1706 5.98147 13.0735 6.82012 13.7924C6.82012 13.7924 11.5 18.0093 12 18.0093C12.5 18.0093 17.1799 13.7924 17.1799 13.7924C18.0185 13.0735 19.2811 13.1706 19.9999 14.0093C20.7188 14.8479 20.5 16.0093 19.783 16.8294L13.5 23.0093Z" fill="#1F2723"/>
<path fill-rule="evenodd" clip-rule="evenodd" d="M10.5 0.990764C11.249 0.348782 12.751 0.348782 13.5 0.990764L19.783 7.17067C20.5 7.99076 20.7188 9.15211 20 9.99076C19.2811 10.8294 18.0185 10.9265 17.1799 10.2077C17.1799 10.2077 12.5 5.99076 12 5.99076C11.5 5.99076 6.82015 10.2077 6.82015 10.2077C5.98149 10.9265 4.71889 10.8294 4.00005 9.99076C3.28121 9.15211 3.5 7.99076 4.21698 7.17067L10.5 0.990764Z" fill="#1F2723"/>
</g>
<defs>
<clipPath id="clip0_2002_1840">
<rect width="24" height="24" fill="white"/>
</clipPath>
</defs>
</svg>
