<svg width="24" height="24" viewBox="0 0 24 24" fill="none" xmlns="http://www.w3.org/2000/svg">
<g clip-path="url(#clip0_2002_1746)">
<g clip-path="url(#clip1_2002_1746)">
<path d="M15.8691 5.62598C17.3699 5.63666 18.6447 6.17111 19.5664 7.09473C20.4087 7.9388 20.93 9.08227 21.082 10.3809C22.8443 11.0826 24.001 12.6869 24.001 14.7793C24.0009 16.1525 23.5015 17.3302 22.6357 18.1768C21.7728 19.0204 20.5754 19.5068 19.2227 19.5605C18.2412 19.5995 17.0359 19.625 15.5645 19.625C14.0933 19.625 12.8886 19.5995 11.9072 19.5605C10.5544 19.5068 9.35712 19.0204 8.49414 18.1768C7.99511 17.6889 7.61775 17.0911 7.3877 16.4092C7.38236 16.3934 7.37822 16.3772 7.37305 16.3613C7.35125 16.2944 7.33048 16.2267 7.31152 16.1582C7.3066 16.1404 7.30258 16.1224 7.29785 16.1045C7.28343 16.0499 7.26944 15.995 7.25684 15.9395C7.24815 15.9013 7.24024 15.8628 7.23242 15.8242C7.22152 15.7703 7.21134 15.7159 7.20215 15.6611C7.19724 15.6319 7.19192 15.6027 7.1875 15.5732C7.17933 15.5186 7.17248 15.4636 7.16602 15.4082C7.16244 15.3777 7.15832 15.3472 7.15527 15.3164C7.15063 15.2695 7.14795 15.2222 7.14453 15.1748C7.13515 15.0449 7.12892 14.9131 7.12891 14.7793C7.12891 14.6198 7.13817 14.4633 7.15137 14.3096C7.31111 12.4477 8.41902 11.0292 10.0469 10.3809C10.1134 9.81262 10.251 9.27395 10.4551 8.77734C10.6008 8.42266 10.78 8.08892 10.9922 7.78125C11.0771 7.65818 11.1675 7.53937 11.2627 7.4248C11.3579 7.31026 11.4582 7.2002 11.5635 7.09473C11.6069 7.0512 11.6513 7.00858 11.6963 6.9668C12.606 6.12173 13.8305 5.63613 15.2607 5.62598C15.36 5.62527 15.4612 5.625 15.5645 5.625C15.6679 5.625 15.7697 5.62527 15.8691 5.62598Z" fill="#1F2723"/>
<path d="M7.38379 4.375C8.72838 4.37839 9.89855 4.82832 10.749 5.63867C10.8392 5.72461 10.9247 5.81502 11.0068 5.9082C10.8944 6.00545 10.7843 6.10606 10.6787 6.21191C9.77958 7.11297 9.19151 8.26296 8.92188 9.5293C7.06206 10.5386 5.87891 12.4412 5.87891 14.7793C5.87895 15.5133 5.99714 16.2128 6.22168 16.8594C5.59589 16.85 5.03382 16.8396 4.53125 16.8223C1.97495 16.734 -0.000843835 14.9319 -0.000976562 12.3145C-0.000976562 10.4988 0.957401 9.05317 2.42578 8.32324C2.59375 7.20233 3.09861 6.24328 3.87402 5.54883C4.71605 4.79486 5.84813 4.3782 7.1416 4.375H7.38379Z" fill="#1F2723"/>
</g>
</g>
<defs>
<clipPath id="clip0_2002_1746">
<rect width="24" height="24" fill="white"/>
</clipPath>
<clipPath id="clip1_2002_1746">
<rect width="24" height="24" fill="white"/>
</clipPath>
</defs>
</svg>
