<svg width="24" height="24" viewBox="0 0 24 24" fill="none" xmlns="http://www.w3.org/2000/svg">
<path fill-rule="evenodd" clip-rule="evenodd" d="M3.59136 21.5098C5.29247 21.6256 8.04117 21.75 12.0001 21.75C15.9591 21.75 18.7078 21.6256 20.4089 21.5098C22.0358 21.399 23.3398 20.1795 23.4919 18.531C23.6228 17.1122 23.7501 14.969 23.7501 12C23.7501 11.6761 23.7486 11.362 23.7457 11.0576C21.3247 11.0904 17.4729 11.125 12.0009 11.125C6.52767 11.125 2.67544 11.0904 0.254509 11.0576C0.251638 11.362 0.250122 11.6761 0.250122 12C0.250122 14.969 0.377455 17.1122 0.508337 18.531C0.660412 20.1795 1.96449 21.399 3.59136 21.5098ZM0.395012 6.9416C0.430252 6.38395 0.469136 5.894 0.508337 5.46905C0.660417 3.82054 1.96449 2.60098 3.59136 2.49022C5.29247 2.37441 8.04117 2.25 12.0001 2.25C15.9591 2.25 18.7078 2.37441 20.4089 2.49023C22.0358 2.60098 23.3398 3.82054 23.4919 5.46905C23.5311 5.894 23.57 6.38395 23.6052 6.9416C21.2183 6.90905 17.4255 6.875 12.0009 6.875C6.57512 6.875 2.78184 6.90905 0.395012 6.9416ZM14.7501 16.5C14.7501 16.3166 14.7516 16.1538 14.7541 16.0102C14.7655 15.339 15.2269 14.8162 15.9159 14.7818C16.2837 14.7635 16.794 14.75 17.5001 14.75C18.2062 14.75 18.7166 14.7635 19.0843 14.7818C19.7733 14.8162 20.2348 15.339 20.2462 16.0102C20.2486 16.1538 20.2501 16.3166 20.2501 16.5C20.2501 16.6834 20.2486 16.8462 20.2462 16.9898C20.2348 17.661 19.7733 18.1838 19.0843 18.2181C18.7166 18.2365 18.2062 18.25 17.5001 18.25C16.7836 18.25 16.2685 18.2355 15.8993 18.216C15.2182 18.18 14.7658 17.6621 14.7542 17.0002C14.7517 16.8542 14.7501 16.6881 14.7501 16.5Z" fill="#1F2723"/>
</svg>
