<svg width="24" height="24" viewBox="0 0 24 24" fill="none" xmlns="http://www.w3.org/2000/svg">
<g clip-path="url(#clip0_2002_1833)">
<path fill-rule="evenodd" clip-rule="evenodd" d="M1.0557 1.69079C1.2005 0.83449 1.94805 0.23999 2.80325 0.23999H2.95575C3.02715 0.23999 3.0954 0.26919 3.1447 0.32079C3.194 0.37239 3.22005 0.44189 3.2168 0.51319L2.98475 5.61919C2.96835 5.97964 3.24725 6.28509 3.6077 6.30149C3.96815 6.31789 4.27365 6.03899 4.29005 5.67849L4.5259 0.48944C4.53225 0.34989 4.64725 0.23999 4.78695 0.23999H6.14645C6.28615 0.23999 6.4012 0.34989 6.4075 0.48944L6.6434 5.67849C6.65975 6.03899 6.96525 6.31789 7.3257 6.30149C7.68615 6.28509 7.9651 5.97964 7.9487 5.61919L7.7166 0.51319C7.7134 0.44189 7.7394 0.37239 7.7887 0.32079C7.83805 0.26919 7.9063 0.23999 7.97765 0.23999H8.1299C8.98485 0.23999 9.73235 0.83424 9.8773 1.69029C10.1193 3.11889 10.4581 5.61749 10.4309 8.28939C10.4158 9.77369 9.4223 11.1079 7.86285 11.4574C7.63555 11.5083 7.3965 11.5555 7.1483 11.5961L8.111 20.766C8.25515 22.1393 7.39995 23.5196 5.97635 23.7177C5.7925 23.7433 5.61665 23.76 5.4669 23.76C5.31725 23.76 5.1414 23.7433 4.95755 23.7177C3.53395 23.5196 2.6787 22.1394 2.82285 20.766L3.7856 11.596C3.53745 11.5555 3.2984 11.5083 3.07115 11.4574C1.51165 11.1079 0.51805 9.77359 0.50295 8.28929C0.4757 5.61769 0.81415 3.11949 1.0557 1.69079ZM22.7146 0.68304C16.5084 0.68304 11.4774 5.71414 11.4774 11.9203C11.4774 18.1264 16.5084 23.1576 22.7146 23.1576C23.1476 23.1576 23.4986 22.8065 23.4986 22.3736V19.4589C23.2409 19.4853 22.9793 19.4989 22.7146 19.4989C18.529 19.4989 15.136 16.1058 15.136 11.9203C15.136 7.73474 18.529 4.34169 22.7146 4.34169C22.9793 4.34169 23.2409 4.35524 23.4986 4.38174V1.46704C23.4986 1.03404 23.1476 0.68304 22.7146 0.68304ZM22.7146 17.9309C22.9804 17.9309 23.2421 17.9137 23.4986 17.8803V5.96029C23.2421 5.92689 22.9804 5.90969 22.7146 5.90969C19.395 5.90969 16.704 8.60069 16.704 11.9203C16.704 15.2399 19.395 17.9309 22.7146 17.9309Z" fill="#1F2723"/>
</g>
<defs>
<clipPath id="clip0_2002_1833">
<rect width="24" height="24" fill="white"/>
</clipPath>
</defs>
</svg>
