<svg width="24" height="24" viewBox="0 0 24 24" fill="none" xmlns="http://www.w3.org/2000/svg">
<path fill-rule="evenodd" clip-rule="evenodd" d="M19.4264 1.48509C19.3164 0.707386 18.6214 0.226336 17.8787 0.240286C15.0416 0.293486 12.7316 0.602336 11.1402 1.90474C9.57015 3.18974 8.7589 5.38714 8.7238 9.03494H6.07675C5.3615 9.03494 4.67955 9.48509 4.56995 10.2472C4.48615 10.8297 4.44285 11.6308 4.5741 12.5892C4.68605 13.4066 5.4189 13.9375 6.20505 13.9375H8.7226V22.0883C8.7226 22.8638 9.2431 23.5736 10.0508 23.6754C10.4301 23.7231 10.8871 23.76 11.395 23.76C11.9524 23.76 12.4876 23.7156 12.9339 23.6615C13.7684 23.5602 14.3352 22.8339 14.3352 22.0202V13.9375H17.8367C18.5979 13.9375 19.3243 13.4367 19.4348 12.6345C19.5583 11.737 19.509 10.9211 19.4238 10.3129C19.3135 9.52534 18.6133 9.03494 17.8625 9.03494H14.3364C14.3433 8.32964 14.3808 7.75159 14.4689 7.27624C14.5668 6.74724 14.7246 6.36134 14.9581 6.07314C15.4205 5.50209 16.2494 5.23219 17.8302 5.15699C18.5879 5.12094 19.3197 4.62339 19.4313 3.81184C19.5578 2.89189 19.511 2.08289 19.4264 1.48509Z" fill="#1F2723"/>
</svg>
