<svg width="24" height="24" viewBox="0 0 24 24" fill="none" xmlns="http://www.w3.org/2000/svg">
<g clip-path="url(#clip0_2002_1768)">
<path fill-rule="evenodd" clip-rule="evenodd" d="M18.9346 14.0287C13.3775 13.6592 7.43776 13.4854 1.72139 14.2902C1.25966 13.4465 1 12.457 1 11.3566C1 8.82469 2.38602 6.8482 4.48061 5.91867C5.18382 2.96849 7.64026 1.06685 10.8965 1.05889C10.9518 1.05875 11.0075 1.05869 11.0638 1.05869C11.1201 1.05869 11.1759 1.05875 11.2312 1.05889C13.0068 1.06323 14.5631 1.62957 15.7266 2.6563C16.7456 3.55554 17.4325 4.78105 17.7111 6.2152C19.2027 6.28448 20.4967 6.82793 21.4382 7.76939C22.4481 8.77928 23 10.1949 23 11.8246C23 13.4104 22.4776 14.7938 21.5179 15.7984C21.3592 15.9645 21.1898 16.1189 21.0105 16.2613C21.019 15.0935 20.1151 14.1072 18.9346 14.0287ZM18.733 17.0645C13.1969 16.6964 7.47652 16.5414 2.05212 17.3164C1.60426 17.3803 1.18934 17.0692 1.12536 16.6213C1.06138 16.1734 1.37257 15.7585 1.82043 15.6945C7.41857 14.8948 13.2769 15.0598 18.8417 15.4298C19.2931 15.4599 19.6347 15.8501 19.6047 16.3015C19.5746 16.753 19.1844 17.0946 18.733 17.0645ZM21.948 20.1249C16.5236 19.35 10.8032 19.5049 5.26715 19.873C4.81574 19.9031 4.42547 19.5615 4.39545 19.1101C4.36543 18.6586 4.70704 18.2684 5.15844 18.2383C10.7233 17.8683 16.5816 17.7033 22.1797 18.503C22.6275 18.567 22.9388 18.9819 22.8748 19.4298C22.8108 19.8777 22.3959 20.1889 21.948 20.1249ZM2.05212 22.9334C7.47652 22.1585 13.1969 22.3134 18.733 22.6816C19.1844 22.7116 19.5746 22.37 19.6047 21.9186C19.6347 21.4671 19.2931 21.0769 18.8417 21.0469C13.2769 20.6768 7.41857 20.5118 1.82043 21.3116C1.37257 21.3755 1.06138 21.7905 1.12536 22.2383C1.18934 22.6862 1.60426 22.9974 2.05212 22.9334Z" fill="#1F2723"/>
</g>
<defs>
<clipPath id="clip0_2002_1768">
<rect width="24" height="24" fill="white"/>
</clipPath>
</defs>
</svg>
