<svg width="24" height="24" viewBox="0 0 24 24" fill="none" xmlns="http://www.w3.org/2000/svg">
<g clip-path="url(#clip0_2002_1749)">
<g clip-path="url(#clip1_2002_1749)">
<path fill-rule="evenodd" clip-rule="evenodd" d="M10.9651 17.8742C9.31 17.8693 7.9119 17.8415 6.73915 17.8015C3.08223 17.6768 0.25 15.1313 0.25 11.375C0.25 8.6705 1.73052 6.55925 3.96793 5.56635C4.71908 2.41502 7.343 0.38372 10.8212 0.375217C10.8803 0.375073 10.9398 0.375 11 0.375C11.0602 0.375 11.1197 0.375073 11.1788 0.375217C13.0754 0.379853 14.7379 0.98481 15.9807 2.08154C17.0692 3.04209 17.8029 4.35117 18.1005 5.8831C19.6938 5.9571 21.0761 6.53755 22.0818 7.54325C23.1604 8.622 23.75 10.1341 23.75 11.875C23.75 13.5689 23.192 15.0466 22.1668 16.1196C21.1592 17.1744 19.7488 17.7873 18.1149 17.8662C18.0774 17.872 18.039 17.875 18 17.875H11C10.9883 17.875 10.9767 17.8748 10.9651 17.8742ZM6.25 19.125C6.08896 19.125 5.9424 19.1769 5.8351 19.2253C5.72006 19.2773 5.60524 19.3462 5.49681 19.4206C5.27952 19.5698 5.05188 19.7661 4.84651 19.9715C4.64114 20.1769 4.44474 20.4045 4.2956 20.6218C4.22117 20.7302 4.15231 20.8451 4.10036 20.9601C4.05191 21.0674 4 21.2139 4 21.375C4 21.5361 4.05191 21.6826 4.10036 21.7899C4.15231 21.9049 4.22117 22.0198 4.2956 22.1282C4.44474 22.3455 4.64114 22.5731 4.84651 22.7785C5.05188 22.9839 5.27952 23.1802 5.49681 23.3294C5.60524 23.4038 5.72006 23.4727 5.8351 23.5247C5.9424 23.5731 6.08896 23.625 6.25 23.625C6.41104 23.625 6.5576 23.5731 6.6649 23.5247C6.77994 23.4727 6.89476 23.4038 7.0032 23.3294C7.22045 23.1802 7.4481 22.9839 7.6535 22.7785C7.85885 22.5731 8.05525 22.3455 8.2044 22.1282C8.2788 22.0198 8.3477 21.9049 8.39965 21.7899C8.4481 21.6826 8.5 21.5361 8.5 21.375C8.5 21.2139 8.4481 21.0674 8.39965 20.9601C8.3477 20.8451 8.2788 20.7302 8.2044 20.6218C8.05525 20.4045 7.85885 20.1769 7.6535 19.9715C7.4481 19.7661 7.22045 19.5698 7.0032 19.4206C6.89476 19.3462 6.77994 19.2773 6.6649 19.2253C6.5576 19.1769 6.41104 19.125 6.25 19.125ZM17 19.125C16.8389 19.125 16.6924 19.1769 16.5851 19.2253C16.4701 19.2773 16.3553 19.3462 16.2468 19.4206C16.0296 19.5698 15.8019 19.7661 15.5965 19.9715C15.3912 20.1769 15.1947 20.4045 15.0456 20.6218C14.9712 20.7302 14.9023 20.8451 14.8504 20.9601C14.8019 21.0674 14.75 21.2139 14.75 21.375C14.75 21.5361 14.8019 21.6826 14.8504 21.7899C14.9023 21.9049 14.9712 22.0198 15.0456 22.1282C15.1947 22.3455 15.3912 22.5731 15.5965 22.7785C15.8019 22.9839 16.0296 23.1802 16.2468 23.3294C16.3553 23.4038 16.4701 23.4727 16.5851 23.5247C16.6924 23.5731 16.8389 23.625 17 23.625C17.1611 23.625 17.3076 23.5731 17.4149 23.5247C17.5299 23.4727 17.6448 23.4038 17.7532 23.3294C17.9705 23.1802 18.1981 22.9839 18.4035 22.7785C18.6089 22.5731 18.8052 22.3455 18.9544 22.1282C19.0288 22.0198 19.0977 21.9049 19.1497 21.7899C19.1981 21.6826 19.25 21.5361 19.25 21.375C19.25 21.2139 19.1981 21.0674 19.1497 20.9601C19.0977 20.8451 19.0288 20.7302 18.9544 20.6218C18.8052 20.4045 18.6089 20.1769 18.4035 19.9715C18.1981 19.7661 17.9705 19.5698 17.7532 19.4206C17.6448 19.3462 17.5299 19.2773 17.4149 19.2253C17.3076 19.1769 17.1611 19.125 17 19.125Z" fill="#1F2723"/>
<path d="M11.2351 19.2253C11.3424 19.1769 11.489 19.125 11.65 19.125C11.811 19.125 11.9576 19.1769 12.0649 19.2253C12.1799 19.2773 12.2948 19.3462 12.4032 19.4206C12.6205 19.5698 12.8481 19.7661 13.0535 19.9715C13.2588 20.1769 13.4552 20.4045 13.6044 20.6218C13.6788 20.7302 13.7477 20.8451 13.7997 20.9601C13.8481 21.0674 13.9 21.2139 13.9 21.375C13.9 21.5361 13.8481 21.6826 13.7997 21.7899C13.7477 21.9049 13.6788 22.0198 13.6044 22.1282C13.4552 22.3455 13.2588 22.5731 13.0535 22.7785C12.8481 22.9838 12.6205 23.1802 12.4032 23.3294C12.2948 23.4038 12.1799 23.4727 12.0649 23.5247C11.9576 23.5731 11.811 23.625 11.65 23.625C11.489 23.625 11.3424 23.5731 11.2351 23.5247C11.1201 23.4727 11.0052 23.4038 10.8968 23.3294C10.6795 23.1802 10.4519 22.9838 10.2465 22.7785C10.0411 22.5731 9.84473 22.3455 9.6956 22.1282C9.62117 22.0198 9.55231 21.9049 9.50036 21.7899C9.45191 21.6826 9.4 21.5361 9.4 21.375C9.4 21.2139 9.45191 21.0674 9.50036 20.9601C9.55231 20.8451 9.62117 20.7302 9.6956 20.6218C9.84473 20.4045 10.0411 20.1769 10.2465 19.9715C10.4519 19.7661 10.6795 19.5698 10.8968 19.4206C11.0052 19.3462 11.1201 19.2773 11.2351 19.2253Z" fill="#1F2723"/>
</g>
</g>
<defs>
<clipPath id="clip0_2002_1749">
<rect width="24" height="24" fill="white"/>
</clipPath>
<clipPath id="clip1_2002_1749">
<rect width="24" height="24" fill="white"/>
</clipPath>
</defs>
</svg>
