<svg width="24" height="24" viewBox="0 0 24 24" fill="none" xmlns="http://www.w3.org/2000/svg">
<g clip-path="url(#clip0_2002_1739)">
<g clip-path="url(#clip1_2002_1739)">
<path fill-rule="evenodd" clip-rule="evenodd" d="M10.9998 2.625C10.9998 3.17728 11.4475 3.625 11.9998 3.625C12.5521 3.625 12.9998 3.17728 12.9998 2.625V1.375C12.9998 0.822715 12.5521 0.375 11.9998 0.375C11.4475 0.375 10.9998 0.822715 10.9998 1.375V2.625ZM19.3275 16.1052C19.8091 16.1451 20.1644 16.5707 20.1214 17.052C20.0784 17.5333 19.6534 17.8881 19.1718 17.8482C18.6415 17.8043 18.1111 17.7647 17.5798 17.7324C16.5657 17.671 15.1244 17.6005 13.4191 17.565C10.003 17.4937 5.55241 17.5631 1.36466 18.1174C0.885591 18.1808 0.445827 17.8438 0.38242 17.3648C0.319014 16.8857 0.655976 16.4459 1.13505 16.3825C5.44731 15.8118 9.99676 15.7432 13.4556 15.8153C15.1879 15.8515 16.6528 15.923 17.6856 15.9856C18.2336 16.0188 18.7807 16.0599 19.3275 16.1052ZM10.3934 20.315C13.7443 20.2439 18.1984 20.3129 22.6413 20.8682C23.1208 20.9282 23.5581 20.588 23.6181 20.1085C23.678 19.629 23.3379 19.1917 22.8584 19.1318C18.3012 18.5621 13.7553 18.4932 10.3563 18.5653C8.65476 18.6015 7.23621 18.6731 6.24166 18.7358C5.74431 18.7671 5.35276 18.7962 5.08456 18.8176C4.93254 18.8297 4.79788 18.8412 4.66759 18.8529C4.18628 18.8961 3.8333 19.3252 3.87869 19.8063C3.92408 20.2874 4.35071 20.6386 4.83202 20.5954C4.96251 20.5837 5.09306 20.5725 5.22366 20.562C5.48286 20.5414 5.86471 20.513 6.35171 20.4823C7.32591 20.4209 8.71986 20.3505 10.3934 20.315ZM20.12 22.5665C20.171 22.0859 19.8231 21.652 19.3422 21.6038C19.2242 21.592 19.1019 21.5804 18.9635 21.5682C18.7198 21.5467 18.3625 21.5175 17.9034 21.486C16.9852 21.4232 15.6591 21.3515 14.0191 21.3154C10.7407 21.2431 6.20021 21.3125 1.15202 21.8804C0.671796 21.9345 0.326297 22.3675 0.380319 22.8477C0.434342 23.328 0.867431 23.6735 1.34765 23.6194C6.29946 23.0624 10.759 22.994 13.9806 23.065C15.5906 23.1005 16.8895 23.1708 17.7839 23.232C18.231 23.2626 18.5768 23.2909 18.8097 23.3114C18.9257 23.3216 19.0416 23.3328 19.1575 23.3444C19.6383 23.3925 20.069 23.047 20.12 22.5665ZM5.98921 6.1148C5.59866 6.5053 4.9655 6.5053 4.57497 6.1148L3.69109 5.2309C3.30056 4.84038 3.30056 4.20722 3.69109 3.81669C4.08161 3.42617 4.71478 3.42617 5.10531 3.81669L5.98921 4.70058C6.37971 5.0911 6.37971 5.72425 5.98921 6.1148ZM4.5708 14.089C4.66375 14.4012 4.94205 14.6078 5.24986 14.6242L5.25596 14.6244C5.31856 14.6272 5.38236 14.6222 5.44601 14.6086C6.14091 14.5529 8.62561 14.375 11.9998 14.375C15.4895 14.375 17.9975 14.5653 18.5806 14.6138C18.9506 14.6791 19.319 14.4578 19.4287 14.089C19.6378 13.3865 19.7498 12.6432 19.7498 11.875C19.7498 7.5948 16.28 4.125 11.9998 4.125C7.71956 4.125 4.24976 7.5948 4.24976 11.875C4.24976 12.6432 4.36175 13.3865 4.5708 14.089ZM23.7498 12.1252C23.7498 12.6775 23.3021 13.1252 22.7498 13.1252H21.4998C20.9475 13.1252 20.4998 12.6775 20.4998 12.1252C20.4998 11.573 20.9475 11.1252 21.4998 11.1252H22.7498C23.3021 11.1252 23.7498 11.573 23.7498 12.1252ZM3.49976 12.1252C3.49976 12.6775 3.05204 13.1252 2.49976 13.1252H1.24976C0.697471 13.1252 0.249756 12.6775 0.249756 12.1252C0.249756 11.573 0.697471 11.1252 1.24976 11.1252H2.49976C3.05204 11.1252 3.49976 11.573 3.49976 12.1252ZM19.4247 6.1148C19.0341 6.5053 18.401 6.5053 18.0104 6.1148C17.6199 5.72425 17.6199 5.0911 18.0104 4.70058L18.8943 3.81669C19.2848 3.42617 19.918 3.42617 20.3085 3.81669C20.6991 4.20722 20.6991 4.84038 20.3085 5.2309L19.4247 6.1148Z" fill="#1F2723"/>
</g>
</g>
<defs>
<clipPath id="clip0_2002_1739">
<rect width="24" height="24" fill="white"/>
</clipPath>
<clipPath id="clip1_2002_1739">
<rect width="24" height="24" fill="white"/>
</clipPath>
</defs>
</svg>
