<svg width="24" height="24" viewBox="0 0 24 24" fill="none" xmlns="http://www.w3.org/2000/svg">
<g clip-path="url(#clip0_2002_1761)">
<g clip-path="url(#clip1_2002_1761)">
<path fill-rule="evenodd" clip-rule="evenodd" d="M12 23.75C5.51065 23.75 0.25 18.4893 0.25 12C0.25 5.51065 5.51065 0.25 12 0.25C18.4893 0.25 23.75 5.51065 23.75 12C23.75 18.4893 18.4893 23.75 12 23.75ZM15.5 9.5C15.5 10.7941 14.7977 11.9241 13.7535 12.5297L14.7933 16.7539C14.912 17.2361 14.6525 17.7201 14.1648 17.8137C13.6663 17.9093 12.9447 18 12 18C11.0553 18 10.3337 17.9093 9.83525 17.8137C9.3475 17.7201 9.08805 17.2361 9.20675 16.7539L10.2465 12.5297C9.2023 11.9241 8.5 10.7941 8.5 9.5C8.5 7.567 10.067 6 12 6C13.933 6 15.5 7.567 15.5 9.5Z" fill="#1F2723"/>
</g>
</g>
<defs>
<clipPath id="clip0_2002_1761">
<rect width="24" height="24" fill="white"/>
</clipPath>
<clipPath id="clip1_2002_1761">
<rect width="24" height="24" fill="white"/>
</clipPath>
</defs>
</svg>
