<svg width="24" height="24" viewBox="0 0 24 24" fill="none" xmlns="http://www.w3.org/2000/svg">
<g clip-path="url(#clip0_2002_1773)">
<path d="M11.6426 16.3447C7.25977 16.3447 4.45508 13.2666 4.45508 8.92281V7.23531C4.45508 4.97749 7.47852 3.53999 12.0566 3.53999C16.3926 3.53999 19.3457 4.82906 19.6348 6.89156C21.4316 6.98531 22.5254 8.01656 22.5254 9.64937C22.5254 11.3837 21.3301 12.4384 19.3613 12.4384H18.9395C17.8379 14.8447 15.5332 16.3447 12.4629 16.3447H11.6426ZM12.0566 8.74312C15.0332 8.74312 17.4707 8.00093 17.4707 7.23531C17.4707 6.46187 15.041 5.72749 12.0566 5.72749C9.08008 5.72749 6.64258 6.46187 6.64258 7.23531C6.64258 8.00093 9.08789 8.74312 12.0566 8.74312ZM20.4863 9.64937C20.4863 9.25093 20.2129 9.00093 19.6582 8.93843C19.6582 9.44624 19.6191 9.93062 19.5488 10.3994C20.166 10.3525 20.4863 10.0869 20.4863 9.64937ZM12.002 20.4619C5.39258 20.4619 0.830078 18.5322 0.830078 15.6181C0.830078 14.2119 1.89258 13.0244 3.79883 12.1728C4.93945 15.4462 7.83008 17.5244 11.6426 17.5244H12.4629C15.6895 17.5244 18.252 16.0478 19.6582 13.6103C20.4473 13.5712 21.1504 13.3916 21.7441 13.0791C22.6738 13.7978 23.166 14.665 23.166 15.6181C23.166 18.5322 18.6113 20.4619 12.002 20.4619Z" fill="#1F2723"/>
</g>
<defs>
<clipPath id="clip0_2002_1773">
<rect width="24" height="24" fill="white"/>
</clipPath>
</defs>
</svg>
