<svg width="24" height="24" viewBox="0 0 24 24" fill="none" xmlns="http://www.w3.org/2000/svg">
<g clip-path="url(#clip0_2002_1813)">
<path fill-rule="evenodd" clip-rule="evenodd" d="M12 0.25C6.89135 0.25 2.75 4.39137 2.75 9.5C2.75 12.2268 3.93071 14.6784 5.80635 16.3704C6.0022 17.3725 6.31085 18.4485 6.5268 19.1514C6.76235 19.9183 7.41445 20.5058 8.253 20.5933C8.9795 20.6691 10.1803 20.75 12 20.75C13.8196 20.75 15.0205 20.6691 15.747 20.5933C16.5855 20.5058 17.2376 19.9183 17.4732 19.1514C17.6891 18.4485 17.9978 17.3725 18.1936 16.3704C20.0693 14.6784 21.25 12.2268 21.25 9.5C21.25 4.39137 17.1087 0.25 12 0.25ZM15.2712 8.87715C16.1898 9.06085 16.5873 10.1523 16.0021 10.8837L12.2207 15.6105C11.5928 16.3954 10.3293 15.8672 10.4467 14.8689L10.7803 12.0333L8.72885 11.623C7.8103 11.4393 7.41275 10.3479 7.9979 9.61645L11.7793 4.88969C12.4072 4.10476 13.6707 4.63292 13.5533 5.63125L13.2197 8.46685L15.2712 8.87715ZM15.8768 21.8365C16.0384 21.8197 16.1955 21.7914 16.3475 21.7527C16.2378 22.6236 15.6083 23.4079 14.651 23.5581C14.023 23.6567 13.1298 23.7501 12 23.7501C10.8353 23.7501 9.97955 23.6508 9.40245 23.5466C8.5554 23.3938 7.9988 22.7179 7.8535 21.9646C7.8428 21.909 7.8317 21.8511 7.8203 21.7908C7.91935 21.8104 8.02035 21.8258 8.1232 21.8365C8.89925 21.9175 10.144 22 12 22C13.856 22 15.1007 21.9175 15.8768 21.8365Z" fill="#1F2723"/>
</g>
<defs>
<clipPath id="clip0_2002_1813">
<rect width="24" height="24" fill="white"/>
</clipPath>
</defs>
</svg>
