<svg width="24" height="24" viewBox="0 0 24 24" fill="none" xmlns="http://www.w3.org/2000/svg">
<path fill-rule="evenodd" clip-rule="evenodd" d="M3.94373 0.5C2.35161 0.5 1 1.7413 1 3.38555C1 5.025 2.38816 6.242 3.94373 6.242C5.52445 6.242 6.88745 5.05425 6.88745 3.38555C6.88745 1.71233 5.561 0.5 3.94373 0.5ZM15.8818 8C13.9253 8 11.7077 8.3293 9.95605 9.4761L9.9526 9.4784C9.1617 10.0056 8.5 10.7855 8.5 11.9024V21.0478C8.5 21.9389 8.8215 22.597 9.4191 23.0056C9.97975 23.389 10.7099 23.5 11.4306 23.5C11.5999 23.5 11.7749 23.4971 11.9527 23.4897C13.1762 23.4389 13.9219 22.3608 13.9219 21.2682V14.108C13.9219 13.5104 14.2472 13.043 14.6944 12.9311C15.0626 12.839 15.4403 12.7908 15.8232 12.7908C16.3679 12.7908 16.8193 12.9318 17.123 13.1715C17.4112 13.399 17.6074 13.7459 17.6074 14.2709V21.0478C17.6074 21.9424 17.9195 22.6038 18.5186 23.0128C19.0787 23.3952 19.8111 23.5 20.538 23.5C20.6983 23.5 20.8632 23.4972 21.0306 23.4904C22.2549 23.4403 23 22.3601 23 21.2682V13.6314C23 11.5933 22.0695 10.1577 20.6913 9.2529C19.3377 8.3643 17.577 8 15.8818 8ZM3.38452 7.5239C3.57142 7.50885 3.77635 7.5 4 7.5C4.22365 7.5 4.42858 7.50885 4.61549 7.5239C5.81125 7.6205 6.42 8.6816 6.4426 9.69395C6.4692 10.8889 6.5 12.8447 6.5 15.5C6.5 18.1553 6.4692 20.111 6.4426 21.306C6.42 22.3183 5.81125 23.3795 4.61549 23.4761C4.42858 23.4912 4.22365 23.5 4 23.5C3.77635 23.5 3.57142 23.4912 3.38451 23.4761C2.18875 23.3795 1.57998 22.3183 1.55742 21.306C1.53079 20.111 1.5 18.1553 1.5 15.5C1.5 12.8447 1.53079 10.8889 1.55742 9.69395C1.57998 8.6816 2.18875 7.6205 3.38452 7.5239Z" fill="#1F2723"/>
</svg>
