<svg width="24" height="24" viewBox="0 0 24 24" fill="none" xmlns="http://www.w3.org/2000/svg">
<g clip-path="url(#clip0_2002_1758)">
<path fill-rule="evenodd" clip-rule="evenodd" d="M5.2924 5.98095C5.56235 2.74164 8.27025 0.25 11.5208 0.25H12.4792C15.7298 0.25 18.4376 2.74164 18.7076 5.98095L18.9932 9.4087L19.002 9.4092C20.6033 9.49475 21.9319 10.6638 22.0816 12.3131C22.1733 13.3233 22.25 14.7049 22.25 16.5C22.25 18.2951 22.1733 19.6766 22.0816 20.6869C21.9319 22.3361 20.6033 23.5052 19.002 23.5908C17.5194 23.67 15.2247 23.75 12 23.75C8.7753 23.75 6.4806 23.67 4.99802 23.5908C3.39675 23.5052 2.06811 22.3361 1.91841 20.6868C1.82671 19.6766 1.75 18.2951 1.75 16.5C1.75 14.7049 1.82671 13.3233 1.91841 12.3131C2.06811 10.6638 3.39676 9.49475 4.99802 9.4092L5.00675 9.4087L5.2924 5.98095ZM14.3973 6.51035L14.5595 9.268C13.7817 9.25665 12.9295 9.25 12 9.25C11.0705 9.25 10.2183 9.25665 9.44055 9.268L9.60275 6.51035C9.67745 5.2411 10.7285 4.25 12 4.25C13.2715 4.25 14.3225 5.2411 14.3973 6.51035Z" fill="#1F2723"/>
</g>
<defs>
<clipPath id="clip0_2002_1758">
<rect width="24" height="24" fill="white"/>
</clipPath>
</defs>
</svg>
