<svg width="24" height="24" viewBox="0 0 24 24" fill="none" xmlns="http://www.w3.org/2000/svg">
<g clip-path="url(#clip0_2002_1759)">
<path fill-rule="evenodd" clip-rule="evenodd" d="M5.2924 5.98095C5.56235 2.74164 8.27025 0.25 11.5208 0.25H12.4792C15.7298 0.25 18.4376 2.74164 18.7076 5.98095L18.9932 9.4087L19.002 9.4092C20.6033 9.49475 21.9319 10.6638 22.0816 12.3131C22.1733 13.3233 22.25 14.7049 22.25 16.5C22.25 18.2951 22.1733 19.6766 22.0816 20.6869C21.9319 22.3361 20.6033 23.5052 19.002 23.5908C17.5194 23.67 15.2247 23.75 12 23.75C8.7753 23.75 6.4806 23.67 4.99802 23.5908C3.39675 23.5052 2.06811 22.3361 1.91841 20.6868C1.82671 19.6766 1.75 18.2951 1.75 16.5C1.75 14.7049 1.82671 13.3233 1.91841 12.3131C2.06811 10.6638 3.39676 9.49475 4.99802 9.4092L5.00675 9.4087L5.2924 5.98095ZM14.3973 6.51035L14.5595 9.268C13.7817 9.25665 12.9295 9.25 12 9.25C11.0705 9.25 10.2183 9.25665 9.44055 9.268L9.60275 6.51035C9.67745 5.2411 10.7285 4.25 12 4.25C13.2715 4.25 14.3225 5.2411 14.3973 6.51035ZM16.1329 14.6135C16.4046 14.1996 16.4733 13.6565 16.16 13.2732C15.9277 12.9892 15.6583 12.7707 15.4026 12.6058C14.8677 12.2606 14.204 12.5168 13.8498 13.046C12.2512 15.435 11.4204 16.6688 11.4204 16.6688C11.4204 16.6688 10.8835 16.0985 10.1927 15.3111C9.709 14.7597 8.8936 14.6166 8.3607 15.1206C8.2224 15.2513 8.0822 15.3966 7.9489 15.5546C7.58005 15.9917 7.65455 16.6195 8.0164 17.0625C8.88095 18.1208 9.6588 18.9603 10.2682 19.5763C11.0013 20.3175 12.1485 20.2384 12.7814 19.41C13.5164 18.4477 14.6167 16.9228 16.1329 14.6135Z" fill="#1F2723"/>
</g>
<defs>
<clipPath id="clip0_2002_1759">
<rect width="24" height="24" fill="white"/>
</clipPath>
</defs>
</svg>
