<svg width="24" height="24" viewBox="0 0 24 24" fill="none" xmlns="http://www.w3.org/2000/svg">
<path fill-rule="evenodd" clip-rule="evenodd" d="M13.7516 23.76C11.6398 23.76 9.91033 23.6403 8.68673 23.5166C7.12743 23.359 5.92708 22.1614 5.78853 20.5918C5.73948 20.0363 5.68963 19.3534 5.64523 18.5257C6.40428 19.0793 7.37408 19.187 8.21453 18.8034C9.09608 18.401 9.65703 17.5425 9.72173 16.5742C9.73713 16.3447 9.75278 16.0956 9.76808 15.8306L16.4364 15.5457C17.7214 15.4908 19.1452 14.5982 19.3402 12.9451C19.3734 12.6641 19.3964 12.3452 19.3964 12.0001C19.3964 11.6551 19.3734 11.3362 19.3402 11.0551C19.1452 9.40209 17.7214 8.50954 16.4364 8.45464L9.76818 8.16964C9.75288 7.90444 9.73718 7.65504 9.72178 7.42534C9.65708 6.45679 9.09593 5.59834 8.21433 5.19604C7.37403 4.81254 6.40433 4.92009 5.64528 5.47344C5.68963 4.64614 5.73948 3.96354 5.78853 3.40819C5.92708 1.83859 7.12743 0.64094 8.68673 0.48334C9.91033 0.35969 11.6398 0.23999 13.7516 0.23999C15.8634 0.23999 17.5929 0.35969 18.8165 0.48334C20.3758 0.64094 21.5761 1.83859 21.7147 3.40819C21.8583 5.03439 22.0086 7.75109 22.0086 12C22.0086 16.2489 21.8583 18.9656 21.7147 20.5918C21.5761 22.1614 20.3758 23.359 18.8165 23.5166C17.5929 23.6403 15.8634 23.76 13.7516 23.76ZM7.59088 6.56159C7.23693 6.40004 6.80748 6.44694 6.45803 6.74264C5.96378 7.16084 5.31618 7.74409 4.49968 8.54514C3.15113 9.86834 2.48748 10.8032 2.16903 11.3504C1.93223 11.7572 1.93228 12.2413 2.16908 12.6482C2.48758 13.1952 3.15118 14.13 4.49968 15.4534C5.31633 16.2548 5.96408 16.8382 6.45838 17.2564C6.80773 17.5521 7.23713 17.5989 7.59098 17.4374C7.94228 17.2771 8.19363 16.9235 8.22373 16.4739C8.26298 15.8868 8.30443 15.1699 8.33578 14.389L16.3721 14.0455C17.0898 14.0149 17.7588 13.5345 17.8492 12.769C17.8763 12.5383 17.895 12.2787 17.895 11.9999C17.895 11.7211 17.8763 11.4615 17.8492 11.2308C17.7588 10.4653 17.0898 9.98499 16.3721 9.95429L8.33583 9.61089C8.30448 8.82969 8.26303 8.11249 8.22373 7.52524C8.19368 7.07554 7.94223 6.72189 7.59088 6.56159Z" fill="#1F2723"/>
</svg>
