<svg width="24" height="24" viewBox="0 0 24 24" fill="none" xmlns="http://www.w3.org/2000/svg">
<g clip-path="url(#clip0_2002_1802)">
<path fill-rule="evenodd" clip-rule="evenodd" d="M12 1.25C17.0929 1.25 20.4735 1.382 21.9508 1.4548C22.7558 1.49448 23.5373 2.04703 23.6723 2.95875C23.7161 3.25485 23.75 3.6095 23.75 4C23.75 4.3905 23.7161 4.74515 23.6723 5.04125C23.5373 5.95295 22.7558 6.50555 21.9508 6.5452C20.4735 6.618 17.0929 6.75 12 6.75C6.9071 6.75 3.52642 6.618 2.04916 6.5452C1.24414 6.50555 0.462763 5.95295 0.327742 5.04125C0.28389 4.74515 0.25 4.3905 0.25 4C0.25 3.6095 0.28389 3.25485 0.327742 2.95875C0.462763 2.04703 1.24414 1.49448 2.04916 1.4548C3.52642 1.382 6.9071 1.25 12 1.25ZM12 9.25C17.0929 9.25 20.4735 9.382 21.9508 9.4548C22.7558 9.49445 23.5373 10.047 23.6723 10.9587C23.7161 11.2548 23.75 11.6095 23.75 12C23.75 12.3905 23.7161 12.7452 23.6723 13.0413C23.5373 13.953 22.7558 14.5056 21.9508 14.5452C20.4735 14.618 17.0929 14.75 12 14.75C6.9071 14.75 3.52642 14.618 2.04916 14.5452C1.24414 14.5056 0.462763 13.953 0.327742 13.0413C0.28389 12.7452 0.25 12.3905 0.25 12C0.25 11.6095 0.28389 11.2548 0.327742 10.9587C0.462763 10.047 1.24414 9.49445 2.04916 9.4548C3.52642 9.382 6.9071 9.25 12 9.25ZM21.9508 17.4548C20.4735 17.382 17.0929 17.25 12 17.25C6.9071 17.25 3.52642 17.382 2.04916 17.4548C1.24414 17.4944 0.462763 18.0471 0.327742 18.9587C0.28389 19.2549 0.25 19.6095 0.25 20C0.25 20.3905 0.28389 20.7451 0.327742 21.0413C0.462763 21.9529 1.24414 22.5056 2.04916 22.5452C3.52642 22.618 6.9071 22.75 12 22.75C17.0929 22.75 20.4735 22.618 21.9508 22.5452C22.7558 22.5056 23.5373 21.9529 23.6723 21.0413C23.7161 20.7451 23.75 20.3905 23.75 20C23.75 19.6095 23.7161 19.2549 23.6723 18.9587C23.5373 18.0471 22.7558 17.4944 21.9508 17.4548Z" fill="#1F2723"/>
</g>
<defs>
<clipPath id="clip0_2002_1802">
<rect width="24" height="24" fill="white"/>
</clipPath>
</defs>
</svg>
