<svg width="24" height="24" viewBox="0 0 24 24" fill="none" xmlns="http://www.w3.org/2000/svg">
<g clip-path="url(#clip0_2002_1809)">
<path fill-rule="evenodd" clip-rule="evenodd" d="M17.4095 6.1025C17.665 5.7025 17.9684 5.2942 18.3044 4.89317C16.6263 3.40318 14.4196 2.5 12 2.5C6.7533 2.5 2.5 6.7533 2.5 12C2.5 17.2467 6.7533 21.5 12 21.5C17.2467 21.5 21.5 17.2467 21.5 12C21.5 11.3096 22.0597 10.75 22.75 10.75C23.4404 10.75 24 11.3096 24 12C24 18.6274 18.6274 24 12 24C5.37255 24 0 18.6274 0 12C0 5.3726 5.37255 0 12 0C15.1061 0 17.9382 1.18151 20.0682 3.11713C20.4878 2.76033 20.9164 2.43825 21.3362 2.16878C22.0352 1.71998 22.9315 2.09494 23.1473 2.86257C23.6079 4.50159 23.8464 6.4142 23.9436 7.34415C24.0249 8.123 23.3744 8.76975 22.601 8.6941C21.6426 8.60035 19.6291 8.3638 18.0776 7.8979C17.3159 7.66915 16.9762 6.7812 17.4095 6.1025ZM16.502 14.2805C16.502 16.6975 13.916 17.2089 13.916 17.2089V18.0874C13.916 18.4799 13.6535 18.8327 13.2624 18.9073C12.6643 19.0214 11.3271 19.0697 10.912 18.7624C10.5181 18.5039 10.478 17.6025 10.478 17.2089C10.478 17.2089 8.72025 16.7675 8.14485 16.3606C7.25115 15.7285 7.51035 14.9924 7.97235 14.3481C8.21675 14.0073 8.67095 13.9069 9.06875 14.04C9.1331 14.0615 9.2001 14.0835 9.26955 14.1059C10.0165 14.3463 11.0614 14.6314 12.2499 14.8072C12.6007 14.8591 12.9295 14.6323 12.9844 14.3005C13.0392 13.9688 12.7994 13.6578 12.4486 13.6059C11.5928 13.4793 10.8135 13.2905 10.181 13.1069C9.49315 12.8202 8.866 12.5436 8.39005 11.9748C7.84555 11.3266 7.50195 10.5516 7.50195 9.6627C7.50195 7.24565 10.0879 6.73425 10.0879 6.73425V5.8557C10.0879 5.46325 10.5209 5.1349 10.912 5.06025C11.5101 4.94614 12.6769 4.9724 13.0919 5.2797C13.4858 5.53825 13.5259 6.3407 13.5259 6.73425C13.5259 6.73425 15.0385 7.065 15.6139 7.47195C16.5243 8.1159 16.4402 8.9355 16.0542 9.6179C15.8444 9.98885 15.3744 10.0817 14.9719 9.9415C14.9156 9.92195 14.8572 9.902 14.7967 9.8818C14.0605 9.63585 13.01 9.3496 11.7427 9.18425C11.391 9.13835 11.0666 9.3708 11.018 9.70345C10.9695 10.036 11.2153 10.3429 11.567 10.3888C12.5348 10.515 13.3646 10.7181 14.0026 10.9117C14.6197 11.1738 15.1797 11.4494 15.6139 11.9683C16.1584 12.6165 16.502 13.3915 16.502 14.2805Z" fill="#1F2723"/>
</g>
<defs>
<clipPath id="clip0_2002_1809">
<rect width="24" height="24" fill="white"/>
</clipPath>
</defs>
</svg>
