<svg width="24" height="24" viewBox="0 0 24 24" fill="none" xmlns="http://www.w3.org/2000/svg">
<g clip-path="url(#clip0_2002_1808)">
<path fill-rule="evenodd" clip-rule="evenodd" d="M19.2191 3.60232C17.8996 2.95575 15.0242 2.12467 10.2943 3.47482C7.0424 4.40308 4.83466 4.20999 3.51931 3.86329C2.86647 3.69121 2.15186 3.74709 1.56147 4.0437C0.95292 4.34943 0.463229 4.92593 0.396017 5.73291C0.314261 6.71456 0.25 8.10651 0.25 10.0593C0.25 13.1528 0.41121 14.8418 0.549055 15.7238C0.6613 16.442 1.08954 17.0915 1.78972 17.4269C3.11018 18.0593 5.9827 18.8655 10.706 17.5172C13.9331 16.5961 16.1304 16.7908 17.4473 17.1421C18.107 17.318 18.8301 17.2612 19.4268 16.9627C20.041 16.6555 20.539 16.0746 20.6062 15.2589C20.6869 14.278 20.75 12.8967 20.75 10.9734C20.75 7.88851 20.5877 6.19526 20.4496 5.31026C20.3382 4.59498 19.916 3.94378 19.2191 3.60232ZM10.5 6.25006C10.9142 6.25006 11.25 6.58586 11.25 7.00006V7.30911C11.6321 7.36956 11.9593 7.46846 12.2181 7.56746C12.4262 7.64711 12.5924 7.72776 12.7104 7.79096C12.7695 7.82261 12.8167 7.85006 12.8514 7.87101C12.8688 7.88151 12.883 7.89041 12.894 7.89741L12.9081 7.90651L12.9133 7.90996L12.9155 7.91136L12.9164 7.91201C12.9166 7.91216 12.9173 7.91261 12.5 8.53576L12.9173 7.91261C13.2615 8.14306 13.3537 8.60891 13.1232 8.95306C12.8938 9.29571 12.431 9.38861 12.0873 9.16201C12.0858 9.16106 12.0817 9.15851 12.0751 9.15451C12.0613 9.14616 12.0367 9.13176 12.0021 9.11316C11.9326 9.07591 11.8238 9.02266 11.6819 8.96841C11.397 8.85936 10.9887 8.75006 10.5 8.75006C10.122 8.75006 9.75685 8.85391 9.5086 9.00166C9.3864 9.07441 9.31485 9.14436 9.2788 9.19401C9.26175 9.21751 9.2548 9.23341 9.25215 9.24091C9.24995 9.24721 9.25 9.24951 9.25 9.25001C9.25 9.31846 9.26465 9.33756 9.2701 9.34461L9.27075 9.34546C9.28445 9.36361 9.3281 9.40896 9.44745 9.46576C9.71195 9.59171 10.0999 9.66676 10.6319 9.76176L10.6835 9.77096C11.1443 9.85301 11.7296 9.95731 12.1974 10.1801C12.4531 10.3018 12.7219 10.4797 12.927 10.7517C13.141 11.0356 13.25 11.3752 13.25 11.7501C13.25 12.4865 12.7407 13.0005 12.2586 13.2874C11.9594 13.4655 11.6129 13.5957 11.25 13.6718V14.0001C11.25 14.4143 10.9142 14.7501 10.5 14.7501C10.0858 14.7501 9.75 14.4143 9.75 14.0001V13.691C9.3679 13.6306 9.04065 13.5317 8.78195 13.4327C8.5738 13.353 8.40755 13.2724 8.2896 13.2092C8.2305 13.1775 8.18325 13.1501 8.14855 13.1291C8.1312 13.1186 8.117 13.1097 8.106 13.1027L8.0919 13.0936L8.0867 13.0902L8.08455 13.0888L8.08355 13.0881C8.08335 13.088 8.0827 13.0875 8.5 12.4644L8.0827 13.0875C7.7385 12.8571 7.64635 12.3912 7.8768 12.0471C8.10625 11.7044 8.569 11.6115 8.9127 11.8381C8.9142 11.8391 8.91825 11.8416 8.92485 11.8456C8.93865 11.854 8.96325 11.8684 8.9979 11.887C9.06745 11.9242 9.1762 11.9775 9.31805 12.0317C9.603 12.1408 10.0113 12.2501 10.5 12.2501C10.878 12.2501 11.2431 12.1462 11.4914 11.9985C11.6136 11.9257 11.6852 11.8558 11.7212 11.8061C11.7382 11.7826 11.7452 11.7667 11.7479 11.7592C11.7501 11.7529 11.75 11.7506 11.75 11.7501C11.75 11.6817 11.7354 11.6626 11.7299 11.6555L11.7292 11.6547C11.7156 11.6365 11.6719 11.5912 11.5526 11.5344C11.2881 11.4084 10.9001 11.3334 10.3681 11.2384L10.3165 11.2292C9.8557 11.1471 9.27035 11.0428 8.80255 10.8201C8.5469 10.6983 8.27805 10.5204 8.073 10.2484C7.859 9.96456 7.75 9.62496 7.75 9.25006C7.75 8.51356 8.2594 7.99966 8.7414 7.71271C9.0406 7.53466 9.3871 7.40441 9.75 7.32831V7.00006C9.75 6.58586 10.0858 6.25006 10.5 6.25006ZM15 10.5001C15 9.94776 15.4477 9.50006 16 9.50006H16.5C17.0523 9.50006 17.5 9.94776 17.5 10.5001C17.5 11.0524 17.0523 11.5001 16.5 11.5001H16C15.4477 11.5001 15 11.0524 15 10.5001ZM4.5 9.50006C3.94772 9.50006 3.5 9.94776 3.5 10.5001C3.5 11.0524 3.94772 11.5001 4.5 11.5001H5C5.5523 11.5001 6 11.0524 6 10.5001C6 9.94776 5.5523 9.50006 5 9.50006H4.5ZM4.7899 20.4268C4.29046 20.1876 3.92938 19.7886 3.72266 19.3188C5.4905 19.6251 7.91335 19.6143 11.0493 18.7191C14.0786 17.8544 16.0454 18.0617 17.1254 18.3497C18.0546 18.5976 19.0939 18.5268 19.9861 18.0806C20.9222 17.6123 21.7433 16.6836 21.8521 15.3613C21.9363 14.3392 22.0002 12.9229 22.0002 10.9733C22.0002 8.92956 21.93 7.46846 21.839 6.43071C21.9777 6.48826 22.1044 6.54596 22.2193 6.60226C22.9161 6.94371 23.3383 7.59491 23.4499 8.31021C23.5878 9.19521 23.7502 10.8885 23.7502 13.9734C23.7502 15.8967 23.687 17.278 23.6063 18.2588C23.5392 19.0746 23.0412 19.6554 22.4269 19.9627C21.8303 20.2611 21.1072 20.3179 20.4475 20.142C19.1306 19.7908 16.9332 19.596 13.7062 20.5172C8.98285 21.8654 6.11035 21.0593 4.7899 20.4268Z" fill="#1F2723"/>
</g>
<defs>
<clipPath id="clip0_2002_1808">
<rect width="24" height="24" fill="white"/>
</clipPath>
</defs>
</svg>
