<svg width="24" height="24" viewBox="0 0 24 24" fill="none" xmlns="http://www.w3.org/2000/svg">
<g clip-path="url(#clip0_2002_1740)">
<path d="M12 19.8834C12.4243 19.8834 12.8361 19.885 13.2353 19.8883C13.3579 19.8893 13.4794 19.8919 13.5996 19.8932C13.8055 19.8954 14.008 19.898 14.207 19.901C14.767 19.9093 15.2996 19.9206 15.8047 19.9342C15.8676 19.9359 15.9301 19.9363 15.9922 19.9381L15.9902 19.9391C17.6406 19.9859 18.9899 20.0561 20.0381 20.1276C20.9356 20.1887 21.6125 20.2509 22.0683 20.2975C22.2963 20.3208 22.4695 20.3401 22.5869 20.3541C22.6456 20.3611 22.6906 20.3668 22.7217 20.3707L22.7578 20.3756L22.7685 20.3766L22.7715 20.3776H22.7734L22.8994 20.401C23.5151 20.5497 23.9301 21.1437 23.8428 21.7848C23.7495 22.4687 23.1195 22.9472 22.4355 22.8541H22.4306L22.4043 22.8502C22.3802 22.8471 22.3424 22.8427 22.291 22.8365C22.1875 22.8242 22.0284 22.8057 21.8144 22.7838C21.3866 22.7401 20.7377 22.681 19.8681 22.6217C18.129 22.5031 15.5062 22.3844 12 22.3844C10.9375 22.3844 9.95584 22.3951 9.05565 22.4137C6.98523 22.4565 5.3439 22.5391 4.13182 22.6217C3.26232 22.681 2.6134 22.7401 2.18553 22.7838C1.9716 22.8057 1.81248 22.8242 1.70897 22.8365C1.65759 22.8427 1.6198 22.8471 1.59569 22.8502L1.56932 22.8541L1.56346 22.8551C0.879815 22.9478 0.250443 22.4685 0.157211 21.7848C0.0640139 21.1008 0.543542 20.4709 1.22752 20.3776L1.23143 20.3766L1.24217 20.3756L1.2783 20.3707C1.30938 20.3668 1.35436 20.3611 1.41307 20.3541C1.53041 20.3401 1.70296 20.3208 1.93065 20.2975C2.38649 20.2509 3.06409 20.1888 3.9619 20.1276C4.7235 20.0756 5.64409 20.0244 6.72362 19.9821C6.75438 19.9808 6.78537 19.9793 6.81639 19.9781C7.12942 19.9661 7.45559 19.9552 7.79491 19.9449C7.85375 19.9432 7.913 19.9418 7.97264 19.9401C8.27192 19.9315 8.58118 19.9244 8.90037 19.9176C9.01657 19.9151 9.13408 19.9121 9.25291 19.9098C9.58536 19.9035 9.92813 19.8982 10.2812 19.8942C10.3797 19.893 10.479 19.8912 10.5791 19.8903C10.8299 19.8879 11.0858 19.8875 11.3467 19.8864C11.561 19.8854 11.7788 19.8834 12 19.8834Z" fill="#1F2723"/>
<path d="M7.72264 8.26526C8.00931 8.09872 8.3248 8.15781 8.53612 8.32385C8.74129 8.48524 8.86702 8.75861 8.81834 9.05432C8.71308 9.69167 8.71639 10.3589 8.84471 11.0319C9.42913 14.0949 12.3862 16.1045 15.4492 15.5201C16.122 15.3918 16.7431 15.1494 17.2969 14.817C17.5537 14.6629 17.8545 14.679 18.0801 14.8102C18.3123 14.9454 18.4838 15.2177 18.4346 15.5455C18.2594 16.7079 17.7996 17.7969 17.1181 18.7252C15.6788 18.6712 13.9726 18.6334 12 18.6334C9.39683 18.6334 7.25752 18.698 5.58299 18.7809C4.94741 17.9335 4.49021 16.9315 4.2783 15.8209C3.69155 12.7446 5.16147 9.75376 7.72264 8.26526Z" fill="#1F2723"/>
<path d="M12 1.13342C12.2496 1.13342 12.4684 1.14534 12.6543 1.1637C13.1327 1.21097 13.4557 1.61365 13.4873 2.09338C13.5274 2.70416 13.5778 3.64358 13.6074 4.81213C14.2524 4.83218 14.7584 4.8626 15.1406 4.89319C15.6461 4.93369 15.9061 5.42038 15.6221 5.84045C15.3618 6.22528 14.9715 6.74244 14.3935 7.39026C13.7102 8.15626 13.1291 8.62769 12.7109 8.91077C12.2736 9.20682 11.7264 9.20677 11.289 8.91077C10.8708 8.62769 10.2898 8.15638 9.60643 7.39026C9.02858 6.74246 8.63811 6.2253 8.37791 5.84045C8.09391 5.42033 8.35393 4.93375 8.85936 4.89319C9.24167 4.86261 9.74742 4.83217 10.3926 4.81213C10.4222 3.64359 10.4735 2.70415 10.5137 2.09338C10.5452 1.61363 10.8682 1.21094 11.3467 1.1637C11.5324 1.14536 11.7505 1.13344 12 1.13342Z" fill="#1F2723"/>
</g>
<defs>
<clipPath id="clip0_2002_1740">
<rect width="24" height="24" fill="white"/>
</clipPath>
</defs>
</svg>
