<svg width="24" height="24" viewBox="0 0 24 24" fill="none" xmlns="http://www.w3.org/2000/svg">
<g clip-path="url(#clip0_2002_1769)">
<g clip-path="url(#clip1_2002_1769)">
<path d="M9.86578 1.96718C10.0394 1.49469 9.91758 1.00453 9.62988 0.67374C9.33368 0.333191 8.83203 0.136187 8.30668 0.320807C3.61516 1.96947 0.250002 6.43885 0.250002 11.6961C0.250002 18.3535 5.64688 23.7504 12.3042 23.7504C17.5611 23.7504 22.0301 20.3858 23.6791 15.695C23.8638 15.1697 23.6669 14.668 23.3264 14.3718C22.9956 14.0841 22.5055 13.9621 22.033 14.1357C21.0151 14.5097 19.9146 14.7142 18.7646 14.7142C13.5303 14.7142 9.28698 10.4708 9.28698 5.2365C9.28698 4.08615 9.49158 2.98528 9.86578 1.96718Z" fill="#1F2723"/>
</g>
</g>
<defs>
<clipPath id="clip0_2002_1769">
<rect width="24" height="24" fill="white"/>
</clipPath>
<clipPath id="clip1_2002_1769">
<rect width="24" height="24" fill="white"/>
</clipPath>
</defs>
</svg>
