<svg width="24" height="24" viewBox="0 0 24 24" fill="none" xmlns="http://www.w3.org/2000/svg">
<g clip-path="url(#clip0_2002_1747)">
<path d="M11.9999 8.97996C10.2879 8.97996 8.89994 10.3679 8.89994 12.08C8.89994 13.1118 9.40403 14.0254 10.1787 14.5888C9.18484 15.0659 8.43698 15.9252 8.18842 16.9667C8.04649 17.5614 8.46273 18.0764 9.01854 18.1731C9.59467 18.2733 10.5486 18.38 11.9999 18.38C13.4513 18.38 14.4052 18.2733 14.9813 18.1731C15.5371 18.0764 15.9534 17.5614 15.8115 16.9667C15.5629 15.9252 14.815 15.0659 13.8212 14.5888C14.5958 14.0254 15.0999 13.1118 15.0999 12.08C15.0999 10.3679 13.712 8.97996 11.9999 8.97996Z" fill="#1F2723"/>
<path d="M7.68004 7.54C8.67879 7.54002 9.56654 8.01285 10.1335 8.74632C8.96773 9.40044 8.17996 10.6483 8.17996 12.0801C8.17998 12.9833 8.49405 13.8128 9.01715 14.466C8.27004 15.0484 7.71357 15.8548 7.48808 16.7997C7.47692 16.8465 7.46818 16.8929 7.4609 16.9389C6.13192 16.9288 5.24518 16.8282 4.69855 16.7331C4.14278 16.6364 3.72654 16.1215 3.86839 15.5268C4.11695 14.4853 4.86485 13.626 5.85871 13.1488C5.08406 12.5855 4.57999 11.6718 4.57996 10.6401C4.57996 8.92799 5.96796 7.54 7.68004 7.54Z" fill="#1F2723"/>
<path d="M16.3199 7.54C18.032 7.54 19.42 8.92799 19.42 10.6401C19.4199 11.6718 18.9158 12.5855 18.1412 13.1488C19.135 13.626 19.883 14.4853 20.1315 15.5268C20.2734 16.1215 19.8571 16.6364 19.3014 16.7331C18.7548 16.8282 17.868 16.9288 16.539 16.9389C16.5317 16.8929 16.5232 16.8464 16.5121 16.7997C16.2866 15.8548 15.7299 15.0484 14.9828 14.466C15.5059 13.8128 15.8202 12.9833 15.8202 12.0801C15.8202 10.6482 15.0321 9.4004 13.8662 8.74632C14.4331 8.01278 15.3211 7.54002 16.3199 7.54Z" fill="#1F2723"/>
<path d="M19.6799 5.62C21.392 5.62 22.78 7.00799 22.78 8.72007C22.7799 9.75185 22.2758 10.6655 21.5012 11.2288C22.4951 11.706 23.243 12.5653 23.4915 13.6068C23.6334 14.2015 23.2171 14.7164 22.6614 14.8131C22.2374 14.8869 21.6087 14.9638 20.7278 14.9994C20.4589 14.2095 19.9529 13.5329 19.3025 13.026C19.8257 12.3728 20.1399 11.5433 20.14 10.6401C20.14 8.81952 18.8664 7.2964 17.1615 6.91304C17.7242 6.1302 18.6422 5.62002 19.6799 5.62Z" fill="#1F2723"/>
<path d="M4.31989 5.62C5.35749 5.62 6.27532 6.13028 6.83801 6.91304C5.13338 7.29654 3.85981 8.81966 3.85981 10.6401C3.85984 11.5432 4.17393 12.3728 4.697 13.026C4.04674 13.5329 3.54107 14.2096 3.27223 14.9994C2.39131 14.9638 1.76265 14.8869 1.33864 14.8131C0.782859 14.7164 0.366614 14.2015 0.50848 13.6068C0.757036 12.5653 1.50492 11.706 2.49879 11.2288C1.72414 10.6655 1.22008 9.75185 1.22004 8.72007C1.22004 7.00801 2.60784 5.62003 4.31989 5.62Z" fill="#1F2723"/>
</g>
<defs>
<clipPath id="clip0_2002_1747">
<rect width="24" height="24" fill="white"/>
</clipPath>
</defs>
</svg>
