<svg width="24" height="24" viewBox="0 0 24 24" fill="none" xmlns="http://www.w3.org/2000/svg">
<g clip-path="url(#clip0_2002_1728)">
<path d="M12 10.9C10.2879 10.9 8.89999 12.2879 8.89999 14C8.89999 15.0318 9.40408 15.9454 10.1788 16.5088C9.18489 16.9859 8.43703 17.8452 8.18847 18.8867C8.04654 19.4814 8.46279 19.9964 9.01859 20.0931C9.59472 20.1933 10.5487 20.3 12 20.3C13.4513 20.3 14.4053 20.1933 14.9814 20.0931C15.5372 19.9964 15.9534 19.4814 15.8115 18.8867C15.563 17.8452 14.8151 16.9859 13.8212 16.5088C14.5959 15.9454 15.1 15.0318 15.1 14C15.1 12.2879 13.7121 10.9 12 10.9Z" fill="#1F2723"/>
<path d="M7.68009 9.46C8.67884 9.46003 9.5666 9.93285 10.1335 10.6663C8.96778 11.3204 8.18001 12.5683 8.18001 14.0001C8.18004 14.9033 8.4941 15.7328 9.0172 16.386C8.27009 16.9684 7.71362 17.7748 7.48814 18.7197C7.47698 18.7665 7.46823 18.8129 7.46095 18.8589C6.13197 18.8488 5.24523 18.7482 4.6986 18.6531C4.14283 18.5564 3.72659 18.0415 3.86845 17.4468C4.117 16.4053 4.8649 15.546 5.85876 15.0688C5.08411 14.5055 4.58005 13.5918 4.58001 12.5601C4.58001 10.848 5.96801 9.46 7.68009 9.46Z" fill="#1F2723"/>
<path d="M16.3199 9.46C18.032 9.46 19.42 10.848 19.42 12.5601C19.42 13.5918 18.9159 14.5055 18.1413 15.0688C19.1351 15.546 19.883 16.4053 20.1316 17.4468C20.2734 18.0415 19.8572 18.5564 19.3014 18.6531C18.7548 18.7482 17.868 18.8488 16.5391 18.8589C16.5318 18.8129 16.5233 18.7664 16.5121 18.7197C16.2866 17.7748 15.73 16.9684 14.9828 16.386C15.506 15.7328 15.8202 14.9033 15.8202 14.0001C15.8202 12.5682 15.0321 11.3204 13.8663 10.6663C14.4332 9.93279 15.3211 9.46002 16.3199 9.46Z" fill="#1F2723"/>
<path d="M19.6799 7.54C21.392 7.54 22.78 8.92799 22.78 10.6401C22.78 11.6718 22.2759 12.5855 21.5013 13.1488C22.4951 13.626 23.243 14.4853 23.4916 15.5268C23.6334 16.1215 23.2172 16.6364 22.6614 16.7331C22.2374 16.8069 21.6088 16.8838 20.7278 16.9195C20.4589 16.1295 19.9529 15.4529 19.3026 14.946C19.8257 14.2928 20.14 13.4633 20.14 12.5601C20.14 10.7395 18.8664 9.2164 17.1616 8.83305C17.7242 8.05021 18.6423 7.54002 19.6799 7.54Z" fill="#1F2723"/>
<path d="M4.31994 7.54C5.35754 7.54 6.27538 8.05029 6.83806 8.83305C5.13343 9.21654 3.85986 10.7397 3.85986 12.5601C3.85989 13.4632 4.17398 14.2928 4.69705 14.946C4.04679 15.4529 3.54112 16.1296 3.27228 16.9195C2.39136 16.8838 1.76271 16.8069 1.33869 16.7331C0.782913 16.6364 0.366667 16.1215 0.508533 15.5268C0.757089 14.4853 1.50498 13.626 2.49885 13.1488C1.72419 12.5855 1.22013 11.6718 1.2201 10.6401C1.2201 8.92802 2.60789 7.54003 4.31994 7.54Z" fill="#1F2723"/>
<path d="M11.9999 6.34004C13.5462 6.34004 14.8278 7.4721 15.0616 8.95261C14.3555 9.19918 13.7443 9.64699 13.2967 10.226L13.1866 10.3682C12.8131 10.2463 12.4144 10.1801 12.0002 10.18C11.5859 10.18 11.1869 10.2462 10.8133 10.3682L10.7034 10.226C10.2558 9.64691 9.64434 9.19895 8.93807 8.95238C9.17197 7.47197 10.4538 6.34005 11.9999 6.34004Z" fill="#1F2723"/>
<path d="M16.3199 6.10007C17.1737 6.10007 17.9469 6.44536 18.5076 7.00382C17.7218 7.25725 17.0477 7.75802 16.577 8.41289L16.3415 8.74031C16.3343 8.74027 16.3271 8.74007 16.3199 8.74007C16.1306 8.74008 15.9445 8.75374 15.7626 8.78039C15.6153 7.93565 15.1906 7.1866 14.5862 6.62976C15.0811 6.29532 15.6777 6.10009 16.3199 6.10007Z" fill="#1F2723"/>
<path d="M7.1999 6.10007C7.96478 6.10007 8.66459 6.37755 9.20522 6.83671C8.71178 7.36639 8.36672 8.03626 8.23701 8.78039C8.09224 8.7592 7.94481 8.74615 7.79522 8.74171L7.68014 8.74007C7.67279 8.74007 7.66544 8.74027 7.65811 8.74031L7.42279 8.41289C6.8788 7.65613 6.06304 7.1049 5.11725 6.90374C5.66756 6.40432 6.39822 6.10009 7.1999 6.10007Z" fill="#1F2723"/>
<path d="M15.1199 3.70007C16.4805 3.70007 17.6363 4.57664 18.0535 5.79585C17.5607 5.54431 17.0059 5.39613 16.4183 5.38125L16.3199 5.38007C15.5296 5.3801 14.7933 5.62088 14.1831 6.03328L13.978 6.17156C13.4678 5.86206 12.8793 5.66885 12.249 5.62828C12.7112 4.49711 13.8225 3.70011 15.1199 3.70007Z" fill="#1F2723"/>
<path d="M8.87987 3.70007C10.1775 3.70007 11.2887 4.49738 11.7507 5.62875C11.0047 5.67682 10.3172 5.93845 9.7487 6.3539L9.67136 6.28804C9.02658 5.74042 8.19601 5.40163 7.288 5.38101L7.19987 5.38007C6.79492 5.38009 6.40438 5.44312 6.03784 5.56007C6.51618 4.46521 7.60869 3.70011 8.87987 3.70007Z" fill="#1F2723"/>
<path d="M23.4765 11.0564C23.7058 11.392 23.8758 11.7657 23.9715 12.1667C24.1134 12.7614 23.6972 13.2766 23.1414 13.3732C23.1181 13.3773 23.0941 13.3804 23.0696 13.3845C22.9415 13.2572 22.8056 13.1374 22.6625 13.0259C23.1041 12.4744 23.396 11.7974 23.4765 11.0564Z" fill="#1F2723"/>
<path d="M20.1599 4.18011C21.8719 4.18011 23.2599 5.56792 23.26 7.27995C23.26 7.77197 23.1449 8.237 22.941 8.65011C22.2698 7.55264 21.0605 6.82011 19.6799 6.82011C19.5711 6.82012 19.4634 6.82501 19.3569 6.83394L19.0728 6.55081L18.7349 5.56269C18.638 5.27963 18.5083 5.01176 18.3512 4.763C18.8603 4.39651 19.4847 4.18013 20.1599 4.18011Z" fill="#1F2723"/>
<path d="M0.523467 11.0562C0.603975 11.7972 0.895819 12.4744 1.33745 13.0259C1.1944 13.1374 1.05866 13.2574 0.930577 13.3847C0.906007 13.3806 0.881947 13.3773 0.858624 13.3732C0.302818 13.2766 -0.113465 12.7614 0.0284672 12.1667C0.124189 11.7656 0.294149 11.3918 0.523467 11.0562Z" fill="#1F2723"/>
<path d="M3.83987 4.18011C4.51493 4.18011 5.13925 4.39643 5.64831 4.76277C5.54603 4.92468 5.45544 5.09475 5.37808 5.27183L5.03776 6.05042C4.89572 6.14808 4.76066 6.25515 4.63347 6.37058L4.13308 6.82456C2.83066 6.88733 1.69943 7.6024 1.05878 8.65011C0.854881 8.23702 0.74003 7.77194 0.74003 7.27995C0.740091 5.56796 2.12787 4.18016 3.83987 4.18011Z" fill="#1F2723"/>
</g>
<defs>
<clipPath id="clip0_2002_1728">
<rect width="24" height="24" fill="white"/>
</clipPath>
</defs>
</svg>
