<svg width="24" height="24" viewBox="0 0 24 24" fill="none" xmlns="http://www.w3.org/2000/svg">
<g clip-path="url(#clip0_2002_1731)">
<path d="M12 8.01998C10.2879 8.01998 8.89997 9.4079 8.89997 11.12C8.89997 12.1518 9.40406 13.0655 10.1787 13.6288C9.18487 14.106 8.437 14.9652 8.18845 16.0067C8.04652 16.6014 8.46276 17.1164 9.01857 17.2131C9.5947 17.3133 10.5486 17.42 12 17.42C13.4513 17.42 14.4053 17.3133 14.9814 17.2131C15.5372 17.1164 15.9534 16.6014 15.8115 16.0067C15.5629 14.9652 14.8151 14.106 13.8212 13.6288C14.5959 13.0655 15.1 12.1518 15.1 11.12C15.1 9.4079 13.7121 8.01998 12 8.01998Z" fill="#1F2723"/>
<path d="M7.68006 6.58002C8.67881 6.58004 9.56657 7.05287 10.1335 7.78635C8.96776 8.44046 8.17999 9.68829 8.17999 11.1201C8.18001 12.0233 8.49407 12.8528 9.01717 13.506C8.27007 14.0884 7.71359 14.8949 7.48811 15.8397C7.47695 15.8865 7.46821 15.9329 7.46092 15.9789C6.13195 15.9688 5.24521 15.8682 4.69858 15.7731C4.14281 15.6765 3.72657 15.1615 3.86842 14.5668C4.11698 13.5253 4.86488 12.666 5.85874 12.1888C5.08408 11.6255 4.58002 10.7119 4.57999 9.6801C4.57999 7.96801 5.96798 6.58002 7.68006 6.58002Z" fill="#1F2723"/>
<path d="M16.3199 6.58002C18.032 6.58002 19.42 7.96801 19.42 9.6801C19.42 10.7119 18.9159 11.6255 18.1412 12.1888C19.1351 12.666 19.883 13.5253 20.1316 14.5668C20.2734 15.1615 19.8572 15.6765 19.3014 15.7731C18.7548 15.8682 17.868 15.9688 16.5391 15.9789C16.5318 15.933 16.5233 15.8865 16.5121 15.8397C16.2866 14.8949 15.7299 14.0884 14.9828 13.506C15.5059 12.8528 15.8202 12.0233 15.8202 11.1201C15.8202 9.68819 15.0321 8.44042 13.8662 7.78635C14.4332 7.05281 15.3211 6.58004 16.3199 6.58002Z" fill="#1F2723"/>
</g>
<defs>
<clipPath id="clip0_2002_1731">
<rect width="24" height="24" fill="white"/>
</clipPath>
</defs>
</svg>
