<svg width="24" height="24" viewBox="0 0 24 24" fill="none" xmlns="http://www.w3.org/2000/svg">
<g clip-path="url(#clip0_2002_1786)">
<g clip-path="url(#clip1_2002_1786)">
<path fill-rule="evenodd" clip-rule="evenodd" d="M7.10688 1.00849C9.65313 1.5009 11.4212 3.73361 11.4162 6.23459C9.24623 4.17294 5.88998 3.72154 3.20236 5.34121C3.00502 5.46014 2.81587 5.58744 2.6351 5.72244C2.07076 5.58114 1.65752 5.46504 1.37392 5.38021C1.08403 5.29348 0.914238 5.00081 1.00032 4.71073C1.76957 2.11837 4.39675 0.484388 7.10688 1.00849ZM10.2808 9.17919C10.5226 9.00924 10.7151 8.86889 10.8639 8.75764C10.9638 8.68299 11.0324 8.58244 11.066 8.47309C11.114 8.31709 11.0905 8.14309 10.9843 8.00039C9.36988 5.83114 6.34083 5.20108 3.97662 6.62584C1.61239 8.05064 0.754388 11.0231 1.91819 13.4639C2.04842 13.7371 2.37048 13.8408 2.64389 13.7112C3.29435 13.4029 4.63802 12.7185 6.84633 11.3877C8.48458 10.4004 9.58598 9.66769 10.2808 9.17919ZM9.50073 23.4728C9.50073 23.4728 8.48174 21.2078 8.69258 17.3359C8.90342 13.4639 10.1764 11.0649 10.1764 11.0649C10.9191 10.5731 11.432 10.2057 11.7621 9.95899C11.8473 9.89529 11.9266 9.82559 11.9999 9.75084C12.0731 9.82559 12.1524 9.89529 12.2376 9.95899C12.5677 10.2058 13.0807 10.5732 13.8236 11.0651C13.8236 11.0651 12.8835 14.9132 13.0155 17.336C13.1474 19.7588 14.4993 23.4728 14.4993 23.4728C14.5067 23.6099 14.4575 23.7441 14.363 23.8438C14.2686 23.9435 14.1373 24 14 24H9.99998C9.86268 24 9.73138 23.9435 9.63698 23.8438C9.54253 23.7441 9.49328 23.6099 9.50073 23.4728ZM13.1358 8.75764C13.2847 8.86894 13.4773 9.00944 13.7192 9.17949C14.4141 9.66804 15.5154 10.4006 17.1534 11.3877C19.3617 12.7185 20.7054 13.4029 21.3559 13.7112C21.6293 13.8408 21.9513 13.7371 22.0816 13.4639C23.2454 11.0231 22.3874 8.05064 20.0231 6.62584C17.6589 5.20108 14.6299 5.83114 13.0155 8.00039C12.9601 8.07484 12.9272 8.15779 12.9152 8.24229C12.888 8.43324 12.9678 8.63199 13.1358 8.75764ZM20.7974 5.34121C20.9947 5.46014 21.1839 5.58749 21.3647 5.72249C21.9291 5.58114 22.3424 5.46504 22.6261 5.38021C22.916 5.29348 23.0858 5.00081 22.9997 4.71073C22.2304 2.11837 19.6032 0.484388 16.8931 1.00849C14.3469 1.50088 12.5789 3.73345 12.5838 6.23434C14.7538 4.1729 18.1098 3.72161 20.7974 5.34121Z" fill="#1F2723"/>
</g>
</g>
<defs>
<clipPath id="clip0_2002_1786">
<rect width="24" height="24" fill="white"/>
</clipPath>
<clipPath id="clip1_2002_1786">
<rect width="24" height="24" fill="white"/>
</clipPath>
</defs>
</svg>
