<svg width="24" height="24" viewBox="0 0 24 24" fill="none" xmlns="http://www.w3.org/2000/svg">
<g clip-path="url(#clip0_2002_1807)">
<path d="M24 18.1494C24 16.1674 22.584 14.5337 20.712 14.1734C20.088 11.1344 17.4 8.84006 14.172 8.84006C11.436 8.84006 9.09595 10.4857 8.06395 12.8401C7.76395 12.78 7.45195 12.744 7.12794 12.744C4.52394 12.744 2.39993 14.8581 2.39993 17.4767C2.39993 20.0953 4.51194 22.2094 7.12794 22.2094H20.292V22.1734C22.368 21.9932 24 20.2755 24 18.1494Z" fill="#1F2723"/>
<path d="M8.256 5.41761C9.00001 5.41761 9.60001 4.805 9.60001 4.06026V3.13534C9.60001 2.39059 8.98801 1.78999 8.244 1.78999C7.5 1.78999 6.9 2.4026 6.9 3.14735V4.07227C6.9 4.81702 7.512 5.41761 8.256 5.41761Z" fill="#1F2723"/>
<path d="M13.5846 6.71591L14.2446 6.05525C14.7726 5.52672 14.7726 4.67387 14.2446 4.14534C13.7166 3.61682 12.8646 3.61682 12.3366 4.14534L11.6765 4.806C11.1485 5.33453 11.1485 6.18738 11.6765 6.71591C12.2046 7.24444 13.0566 7.24444 13.5846 6.71591Z" fill="#1F2723"/>
<path d="M3.01192 6.93183C3.53992 7.46036 4.39193 7.46036 4.91993 6.93183C5.44793 6.40331 5.44793 5.55046 4.91993 5.02193L4.25993 4.36127C3.73192 3.83274 2.87992 3.83274 2.35192 4.36127C1.82392 4.8898 1.82392 5.74265 2.35192 6.27117L3.01192 6.93183Z" fill="#1F2723"/>
<path d="M5.23202 11.8803C5.83202 11.6761 6.45602 11.544 7.11603 11.544C7.20003 11.544 7.28403 11.544 7.36803 11.544C8.28003 9.97042 9.70803 8.79325 11.376 8.15661C10.728 7.20766 9.63603 6.58304 8.40003 6.58304C6.40802 6.58304 4.80002 8.19265 4.80002 10.1866C4.80002 10.7992 4.96802 11.3638 5.23202 11.8683V11.8803Z" fill="#1F2723"/>
<path d="M3.62401 10.3424C3.62401 9.5977 3.01201 8.9971 2.268 8.9971H1.344C0.600001 8.9971 0 9.60971 0 10.3545C0 11.0992 0.612001 11.6998 1.356 11.6998H2.28C3.02401 11.6998 3.62401 11.0872 3.62401 10.3424Z" fill="#1F2723"/>
</g>
<defs>
<clipPath id="clip0_2002_1807">
<rect width="24" height="24" fill="white"/>
</clipPath>
</defs>
</svg>
