<svg width="24" height="24" viewBox="0 0 24 24" fill="none" xmlns="http://www.w3.org/2000/svg">
<g clip-path="url(#clip0_2002_1800)">
<path d="M8.74493 21.8173C9.06475 22.7163 9.92533 23.0585 10.8495 23.0585H13.9573C17.947 23.0585 22.697 20.4034 22.697 14.7285C22.697 9.06408 18.0379 6.01294 14.2073 6.01249C12.064 6.01224 9.49971 6.00192 7.65648 5.99288C8.60982 4.87149 9.62124 3.74903 9.62124 3.74903C10.238 3.02947 10.1547 1.94615 9.43512 1.32939C8.71556 0.712619 7.71912 0.900344 7.01548 1.51551L1.71312 6.90634C1.1623 7.54896 1.1623 8.83771 1.71312 9.48034L7.01548 14.8712C7.71912 15.4863 8.71556 15.6741 9.43512 15.0573C10.1547 14.4406 10.238 13.3572 9.62124 12.6377C9.62124 12.6377 8.58696 11.4898 7.62438 10.356C9.65943 10.3173 12.4656 10.2698 13.9448 10.2705C16.4353 10.2717 18.687 12.263 18.687 14.7285C18.687 18.1995 15.9375 19.0501 13.6922 19.1143C11.447 19.1785 10.947 19.1785 10.947 19.1785C9.91558 19.1785 9.06003 19.5447 8.74198 20.5485C8.59231 21.0208 8.57884 21.3505 8.74493 21.8173Z" fill="#1F2723"/>
</g>
<defs>
<clipPath id="clip0_2002_1800">
<rect width="24" height="24" fill="white"/>
</clipPath>
</defs>
</svg>
