<svg width="24" height="24" viewBox="0 0 24 24" fill="none" xmlns="http://www.w3.org/2000/svg">
<g clip-path="url(#clip0_2002_1790)">
<g clip-path="url(#clip1_2002_1790)">
<path fill-rule="evenodd" clip-rule="evenodd" d="M13.8321 1.08162C14.3155 0.15541 15.595 0.155411 16.0784 1.08162L18.1639 5.07715L22.4592 5.9176C23.4509 6.11165 23.8449 7.3674 23.1537 8.13125L20.1469 11.4543L20.709 15.9801C20.8385 17.0231 19.8048 17.8008 18.8913 17.3478L14.9552 15.3955L11.0192 17.3478C10.1057 17.8008 9.072 17.0231 9.2015 15.9801L9.76355 11.4543L6.7568 8.13125C6.06565 7.3674 6.45955 6.11165 7.45125 5.9176L11.7466 5.07715L13.8321 1.08162ZM1.12088 21.4357C0.63272 21.9238 0.63272 22.7153 1.12088 23.2034C1.60904 23.6916 2.40049 23.6916 2.88865 23.2034L7.3658 18.7263C7.85395 18.2381 7.85395 17.4467 7.3658 16.9585C6.87765 16.4704 6.0862 16.4704 5.59805 16.9585L1.12088 21.4357ZM0.864895 16.6532C0.376741 16.165 0.376741 15.3735 0.864895 14.8854L4.69497 11.0554C5.18315 10.5672 5.9746 10.5672 6.46275 11.0554C6.9509 11.5435 6.9509 12.335 6.46275 12.8231L2.63267 16.6532C2.14451 17.1413 1.35305 17.1413 0.864895 16.6532ZM8.14955 21.4792C7.6614 21.9673 7.6614 22.7588 8.14955 23.2469C8.6377 23.7351 9.4292 23.7351 9.91735 23.2469L11.8558 21.3085C12.3439 20.8203 12.3439 20.0289 11.8558 19.5407C11.3677 19.0525 10.5762 19.0525 10.088 19.5407L8.14955 21.4792Z" fill="#1F2723"/>
</g>
</g>
<defs>
<clipPath id="clip0_2002_1790">
<rect width="24" height="24" fill="white"/>
</clipPath>
<clipPath id="clip1_2002_1790">
<rect width="24" height="24" fill="white"/>
</clipPath>
</defs>
</svg>
