<svg width="24" height="24" viewBox="0 0 24 24" fill="none" xmlns="http://www.w3.org/2000/svg">
<g clip-path="url(#clip0_2002_1844)">
<g clip-path="url(#clip1_2002_1844)">
<path fill-rule="evenodd" clip-rule="evenodd" d="M10.9655 17.7492C9.3102 17.7443 7.91195 17.7165 6.73915 17.6765C3.08223 17.5518 0.25 15.0063 0.25 11.25C0.25 8.5455 1.73052 6.43425 3.96793 5.44135C4.71908 2.29002 7.343 0.258719 10.8212 0.250217C10.8803 0.250073 10.9398 0.25 11 0.25C11.0602 0.25 11.1197 0.250073 11.1788 0.250217C13.0754 0.254853 14.7379 0.85981 15.9807 1.95654C17.0692 2.91709 17.8029 4.22617 18.1005 5.7581C19.6938 5.8321 21.0761 6.4126 22.0818 7.41825C23.1604 8.497 23.75 10.0091 23.75 11.75C23.75 13.4439 23.192 14.9216 22.1668 15.9946C21.1592 17.0494 19.7488 17.6623 18.1149 17.7412C18.0774 17.747 18.039 17.75 18 17.75H11C10.9885 17.75 10.9769 17.7498 10.9655 17.7492ZM2.25 21.25C2.25 19.8693 3.36929 18.75 4.75 18.75C6.1307 18.75 7.25 19.8693 7.25 21.25C7.25 22.6307 6.1307 23.75 4.75 23.75C3.36929 23.75 2.25 22.6307 2.25 21.25ZM10.75 18.75C9.3693 18.75 8.25 19.8693 8.25 21.25C8.25 22.6307 9.3693 23.75 10.75 23.75C12.1307 23.75 13.25 22.6307 13.25 21.25C13.25 19.8693 12.1307 18.75 10.75 18.75ZM14.25 21.25C14.25 19.8693 15.3693 18.75 16.75 18.75C18.1307 18.75 19.25 19.8693 19.25 21.25C19.25 22.6307 18.1307 23.75 16.75 23.75C15.3693 23.75 14.25 22.6307 14.25 21.25Z" fill="#1F2723"/>
</g>
</g>
<defs>
<clipPath id="clip0_2002_1844">
<rect width="24" height="24" fill="white"/>
</clipPath>
<clipPath id="clip1_2002_1844">
<rect width="24" height="24" fill="white"/>
</clipPath>
</defs>
</svg>
