<svg width="24" height="24" viewBox="0 0 24 24" fill="none" xmlns="http://www.w3.org/2000/svg">
<g clip-path="url(#clip0_2002_1799)">
<g clip-path="url(#clip1_2002_1799)">
<path d="M13.9278 1.93705C13.0533 0.483955 10.9466 0.483955 10.0722 1.93705L7.48829 6.2306C7.38354 6.4046 7.21274 6.5287 7.01489 6.57455L2.13301 7.7052C0.480807 8.08785 -0.17019 10.0914 0.941555 11.3721L4.2265 15.1564C4.35963 15.3097 4.42487 15.5105 4.40731 15.7129L3.97404 20.7052C3.82741 22.3948 5.53174 23.633 7.09334 22.9715L11.7074 21.0167C11.8944 20.9375 12.1055 20.9375 12.2925 21.0167L16.9067 22.9715C18.4682 23.633 20.1726 22.3948 20.0259 20.7052L19.5927 15.7129C19.5751 15.5105 19.6403 15.3097 19.7735 15.1564L23.0584 11.3721C24.1702 10.0914 23.5192 8.08785 21.867 7.7052L16.9851 6.57455C16.7872 6.5287 16.6164 6.4046 16.5117 6.2306L13.9278 1.93705Z" fill="#1F2723"/>
</g>
</g>
<defs>
<clipPath id="clip0_2002_1799">
<rect width="24" height="24" fill="white"/>
</clipPath>
<clipPath id="clip1_2002_1799">
<rect width="24" height="24" fill="white"/>
</clipPath>
</defs>
</svg>
