<svg width="24" height="24" viewBox="0 0 24 24" fill="none" xmlns="http://www.w3.org/2000/svg">
<g clip-path="url(#clip0_2002_1770)">
<g clip-path="url(#clip1_2002_1770)">
<path fill-rule="evenodd" clip-rule="evenodd" d="M15.6224 4.28893C15.9064 4.70905 15.6462 5.196 15.1407 5.23645C14.7585 5.26705 14.253 5.29745 13.608 5.3175C13.5784 6.48605 13.5274 7.42525 13.4872 8.03605C13.4557 8.5158 13.1328 8.9182 12.6543 8.96545C12.4685 8.9838 12.2502 8.99635 12.0006 8.99635C11.7509 8.99635 11.5326 8.9838 11.3468 8.96545C10.8683 8.9182 10.5454 8.5158 10.5139 8.03605C10.4737 7.4253 10.4227 6.4861 10.3931 5.3175C9.7478 5.2975 9.2421 5.2671 8.8597 5.2365C8.3541 5.19605 8.09385 4.70892 8.378 4.28873C8.6382 3.9039 9.02905 3.38719 9.6069 2.73936C10.2904 1.97307 10.8712 1.50136 11.2894 1.21831C11.7268 0.922325 12.2733 0.92235 12.7106 1.21836C13.1288 1.50141 13.7096 1.97311 14.3932 2.73936C14.9713 3.3873 15.3621 3.90408 15.6224 4.28893ZM17.5154 18.8647C17.7739 18.2 17.9158 17.4769 17.9158 16.7208C17.9158 13.4533 15.2669 10.8045 11.9994 10.8045C8.7319 10.8045 6.08305 13.4533 6.08305 16.7208C6.08305 17.4769 6.2249 18.2 6.48345 18.8647C8.0188 18.8045 9.85765 18.7624 12 18.7624C14.1418 18.7624 15.9803 18.8045 17.5154 18.8647ZM22.1241 17.8484C22.8144 17.8484 23.3741 17.2887 23.3741 16.5984C23.3741 15.9081 22.8144 15.3484 22.1241 15.3484H20.7434C20.0531 15.3484 19.4934 15.9081 19.4934 16.5984C19.4934 17.2887 20.0531 17.8484 20.7434 17.8484H22.1241ZM0.626004 16.5984C0.626004 15.9081 1.18565 15.3484 1.876 15.3484H3.25666C3.94702 15.3484 4.50666 15.9081 4.50666 16.5984C4.50666 17.2887 3.94702 17.8484 3.25666 17.8484H1.876C1.18565 17.8484 0.626004 17.2887 0.626004 16.5984ZM4.93352 11.2992C5.4217 11.7873 6.21315 11.7873 6.7013 11.2992C7.18945 10.811 7.18945 10.0195 6.7013 9.5314L5.725 8.55515C5.23685 8.06695 4.44541 8.06695 3.95725 8.55515C3.4691 9.0433 3.4691 9.83475 3.95725 10.3229L4.93352 11.2992ZM17.2987 11.2992C17.7869 11.7873 18.5784 11.7873 19.0665 11.2992L20.0428 10.3229C20.531 9.83475 20.531 9.0433 20.0428 8.55515C19.5547 8.06695 18.7632 8.06695 18.275 8.55515L17.2987 9.5314C16.8106 10.0195 16.8106 10.811 17.2987 11.2992ZM22.7734 20.5152L22.6045 21.7537C22.7734 20.5152 22.7736 20.5152 22.7734 20.5152L22.7715 20.5149L22.7682 20.5145L22.7579 20.5131L22.7216 20.5084C22.6905 20.5044 22.6457 20.4988 22.5869 20.4918C22.4695 20.4778 22.2968 20.4583 22.0689 20.4349C21.6131 20.3883 20.9363 20.3268 20.0385 20.2656C18.2428 20.1432 15.5633 20.0217 12.0001 20.0217C8.43685 20.0217 5.7574 20.1432 3.96173 20.2656C3.06392 20.3268 2.38709 20.3883 1.93125 20.4349C1.70334 20.4583 1.53067 20.4778 1.41325 20.4918C1.35454 20.4988 1.30965 20.5044 1.27857 20.5084L1.24231 20.5131L1.23194 20.5145L1.22871 20.5149L1.22757 20.5151C1.22738 20.5152 1.22676 20.5152 1.39566 21.7537L1.22757 20.5151C0.543549 20.6084 0.0638425 21.2386 0.157119 21.9226C0.250367 22.6064 0.88015 23.0852 1.56393 22.9923L1.56972 22.9916L1.59559 22.9883C1.61974 22.9852 1.65769 22.9804 1.70945 22.9743C1.81296 22.9619 1.97168 22.9438 2.18561 22.9219C2.61347 22.8782 3.2622 22.8191 4.13179 22.7598C5.3439 22.6772 6.98525 22.5941 9.0558 22.5513C9.956 22.5327 10.9376 22.5217 12.0001 22.5217C15.5064 22.5217 18.1292 22.6412 19.8684 22.7598C20.738 22.8191 21.3867 22.8782 21.8146 22.9219C22.0285 22.9438 22.1872 22.9619 22.2908 22.9743C22.3425 22.9804 22.3804 22.9852 22.4046 22.9883L22.4305 22.9916L22.4356 22.9923C23.1196 23.0854 23.7498 22.6066 23.8431 21.9226C23.9363 21.2386 23.4574 20.6085 22.7734 20.5152Z" fill="#1F2723"/>
</g>
</g>
<defs>
<clipPath id="clip0_2002_1770">
<rect width="24" height="24" fill="white"/>
</clipPath>
<clipPath id="clip1_2002_1770">
<rect width="24" height="24" fill="white"/>
</clipPath>
</defs>
</svg>
