<svg width="24" height="24" viewBox="0 0 24 24" fill="none" xmlns="http://www.w3.org/2000/svg">
<g clip-path="url(#clip0_2002_1780)">
<path fill-rule="evenodd" clip-rule="evenodd" d="M15.6223 5.84084C15.9064 5.42074 15.6462 4.93376 15.1406 4.89331C14.7584 4.86272 14.253 4.83234 13.608 4.81229C13.5784 3.6437 13.5273 2.7045 13.4872 2.09373C13.4556 1.61397 13.1327 1.21157 12.6543 1.16432C12.4684 1.14597 12.2501 1.13344 12.0005 1.13344C11.7509 1.13344 11.5326 1.14597 11.3467 1.16432C10.8683 1.21156 10.5454 1.61397 10.5138 2.09373C10.4737 2.7045 10.4227 3.64369 10.3931 4.81226C9.74771 4.8323 9.24201 4.86269 8.85961 4.89328C8.35401 4.93374 8.09376 5.42084 8.37791 5.84104C8.63811 6.22589 9.02896 6.74259 9.60681 7.39039C10.2903 8.15669 10.8711 8.62839 11.2894 8.91144C11.7267 9.20744 12.2732 9.20744 12.7106 8.91139C13.1288 8.62834 13.7096 8.15664 14.3932 7.39039C14.9712 6.74249 15.3621 6.22569 15.6223 5.84084ZM17.5154 18.7273C17.7739 18.0626 17.9157 17.3396 17.9157 16.5835C17.9157 13.316 15.2669 10.6671 11.9993 10.6671C8.73181 10.6671 6.08296 13.316 6.08296 16.5835C6.08296 17.3396 6.22481 18.0626 6.48336 18.7274C8.01871 18.6671 9.85756 18.6251 12 18.6251C14.1418 18.6251 15.9802 18.6671 17.5154 18.7273ZM22.124 17.7111C22.8143 17.7111 23.374 17.1514 23.374 16.4611C23.374 15.7707 22.8143 15.2111 22.124 15.2111H20.7433C20.053 15.2111 19.4933 15.7707 19.4933 16.4611C19.4933 17.1514 20.053 17.7111 20.7433 17.7111H22.124ZM0.625913 16.4611C0.625913 15.7707 1.18556 15.2111 1.87591 15.2111H3.25657C3.94693 15.2111 4.50657 15.7707 4.50657 16.4611C4.50657 17.1514 3.94693 17.7111 3.25657 17.7111H1.87591C1.18556 17.7111 0.625913 17.1514 0.625913 16.4611ZM4.93343 11.1618C5.42161 11.65 6.21306 11.65 6.70121 11.1618C7.18936 10.6737 7.18936 9.88224 6.70121 9.39409L5.72491 8.41779C5.23676 7.92964 4.44532 7.92964 3.95716 8.41779C3.46901 8.90594 3.46901 9.69744 3.95716 10.1856L4.93343 11.1618ZM17.2987 11.1618C17.7868 11.65 18.5783 11.65 19.0665 11.1618L20.0427 10.1856C20.5309 9.69744 20.5309 8.90594 20.0427 8.41779C19.5546 7.92964 18.7631 7.92964 18.275 8.41779L17.2987 9.39409C16.8105 9.88224 16.8105 10.6737 17.2987 11.1618ZM22.7733 20.3779L22.6044 21.6164C22.7733 20.3779 22.7735 20.3779 22.7733 20.3779L22.7714 20.3776L22.7682 20.3772L22.7578 20.3758L22.7215 20.3711C22.6905 20.3671 22.6456 20.3615 22.5868 20.3545C22.4694 20.3405 22.2968 20.3209 22.0688 20.2976C21.613 20.251 20.9362 20.1895 20.0384 20.1283C18.2427 20.0059 15.5633 19.8844 12 19.8844C8.43676 19.8844 5.75731 20.0059 3.96164 20.1283C3.06383 20.1895 2.387 20.251 1.93116 20.2976C1.70325 20.3209 1.53058 20.3405 1.41316 20.3545C1.35445 20.3615 1.30956 20.3671 1.27848 20.3711L1.24222 20.3758L1.23185 20.3772L1.22862 20.3776L1.22748 20.3778C1.22729 20.3778 1.22667 20.3779 1.39557 21.6164L1.22748 20.3778C0.543458 20.4711 0.0637509 21.1013 0.157028 21.7853C0.250276 22.4691 0.880058 22.9479 1.56384 22.855L1.56963 22.8543L1.5955 22.8509C1.61965 22.8478 1.6576 22.8431 1.70936 22.8369C1.81287 22.8245 1.97159 22.8065 2.18552 22.7846C2.61338 22.7409 3.26211 22.6818 4.1317 22.6225C5.34381 22.5399 6.98516 22.4568 9.05571 22.414C9.95591 22.3954 10.9376 22.3844 12 22.3844C15.5064 22.3844 18.1291 22.5039 19.8683 22.6225C20.7379 22.6818 21.3866 22.7409 21.8145 22.7846C22.0284 22.8065 22.1871 22.8245 22.2907 22.8369C22.3424 22.8431 22.3804 22.8478 22.4045 22.8509L22.4304 22.8543L22.4356 22.855C23.1195 22.9481 23.7497 22.4692 23.843 21.7853C23.9363 21.1013 23.4574 20.4712 22.7733 20.3779Z" fill="#1F2723"/>
</g>
<defs>
<clipPath id="clip0_2002_1780">
<rect width="24" height="24" fill="white"/>
</clipPath>
</defs>
</svg>
