<svg width="24" height="24" viewBox="0 0 24 24" fill="none" xmlns="http://www.w3.org/2000/svg">
<g clip-path="url(#clip0_2002_1787)">
<path fill-rule="evenodd" clip-rule="evenodd" d="M14.8567 4.91449L14.9628 5.7066L11.8446 9.19835C10.9796 10.167 11.0212 11.6424 11.9395 12.5606C12.8577 13.4789 14.3331 13.5206 15.3018 12.6556L18.7935 9.5373L19.5856 9.64345C20.4677 9.76165 21.3567 9.4821 22.0124 8.8804L22.7502 8.20335C23.2345 9.45905 23.5 10.8236 23.5 12.25C23.5 18.4632 18.4632 23.5 12.25 23.5C6.0368 23.5 1 18.4632 1 12.25C1 6.0368 6.0368 1 12.25 1C13.6765 1 15.041 1.2655 16.2967 1.74979L15.6196 2.48767C15.018 3.14339 14.7385 4.03242 14.8567 4.91449ZM12.25 5C8.24595 5 5 8.24595 5 12.25C5 16.254 8.24595 19.5 12.25 19.5C16.254 19.5 19.5 16.254 19.5 12.25C19.5 11.8358 19.8358 11.5 20.25 11.5C20.6642 11.5 21 11.8358 21 12.25C21 17.0825 17.0825 21 12.25 21C7.4175 21 3.5 17.0825 3.5 12.25C3.5 7.4175 7.4175 3.5 12.25 3.5C12.6642 3.5 13 3.83578 13 4.25C13 4.66422 12.6642 5 12.25 5ZM10.6256 9.43435C10.9841 9.2269 11.1066 8.76815 10.8992 8.4096C10.6918 8.05105 10.233 7.9285 9.87445 8.1359C8.45665 8.9561 7.5 10.4909 7.5 12.25C7.5 14.8734 9.62665 17 12.25 17C14.0091 17 15.5439 16.0434 16.3641 14.6256C16.5715 14.267 16.4489 13.8082 16.0904 13.6008C15.7318 13.3934 15.2731 13.5159 15.0656 13.8744C14.5026 14.8478 13.452 15.5 12.25 15.5C10.455 15.5 9 14.0449 9 12.25C9 11.048 9.65215 9.9974 10.6256 9.43435ZM19.4953 1.60872C19.388 1.23296 18.9104 1.12008 18.6462 1.40802L16.7248 3.50183C16.424 3.82969 16.2842 4.2742 16.3433 4.71524L16.5411 6.19115L12.9634 10.1975C12.6283 10.5727 12.6444 11.1443 13.0001 11.5C13.3558 11.8557 13.9274 11.8719 14.3026 11.5367L18.309 7.9589L19.7848 8.1567C20.2258 8.21585 20.6704 8.07605 20.9982 7.7752L23.092 5.8538C23.3799 5.5896 23.267 5.11202 22.8913 5.00466L20.25 4.25L19.4953 1.60872Z" fill="#1F2723"/>
</g>
<defs>
<clipPath id="clip0_2002_1787">
<rect width="24" height="24" fill="white"/>
</clipPath>
</defs>
</svg>
