<svg width="24" height="24" viewBox="0 0 24 24" fill="none" xmlns="http://www.w3.org/2000/svg">
<g clip-path="url(#clip0_2002_1766)">
<path fill-rule="evenodd" clip-rule="evenodd" d="M11.3968 0.25773C11.5876 0.252819 11.7885 0.250183 12 0.250183C12.2115 0.250183 12.4124 0.252819 12.6032 0.25773C15.0405 0.320458 16.5048 2.24256 16.6173 4.49424C16.6908 5.96558 16.75 8.06243 16.75 11.0002C16.75 11.4172 16.7488 11.8172 16.7465 12.2009C17.9827 13.4237 18.75 15.1227 18.75 17.0002C18.75 20.7281 15.7279 23.7502 12 23.7502C8.2721 23.7502 5.25 20.7281 5.25 17.0002C5.25 15.1227 6.0173 13.4237 7.25345 12.2009C7.2512 11.8172 7.25 11.4172 7.25 11.0002C7.25 8.06243 7.30925 5.96558 7.38275 4.49424C7.49525 2.24256 8.95955 0.320457 11.3968 0.25773ZM12.0002 3.25018C12.6906 3.25018 13.2502 3.80983 13.2502 4.50018V14.55C14.1406 15.0052 14.7502 15.9315 14.7502 17.0002C14.7502 18.519 13.519 19.7502 12.0002 19.7502C10.4815 19.7502 9.25025 18.519 9.25025 17.0002C9.25025 15.9315 9.85985 15.0052 10.7502 14.55V4.50018C10.7502 3.80983 11.3099 3.25018 12.0002 3.25018Z" fill="#1F2723"/>
</g>
<defs>
<clipPath id="clip0_2002_1766">
<rect width="24" height="24" fill="white"/>
</clipPath>
</defs>
</svg>
