<svg width="24" height="24" viewBox="0 0 24 24" fill="none" xmlns="http://www.w3.org/2000/svg">
<g clip-path="url(#clip0_2002_1772)">
<path d="M10.643 3.55239C10.0642 2.05709 7.94649 2.06276 7.37569 3.56113L4.82756 10.25H1.4709C0.938857 10.25 0.433855 10.5945 0.332425 11.1554C0.287178 11.4056 0.250164 11.7009 0.250164 12C0.250164 12.2992 0.287177 12.5945 0.332425 12.8447C0.433855 13.4055 0.938862 13.75 1.4709 13.75H5.64579C6.56584 13.75 7.39319 13.1899 7.73484 12.3356L8.99604 9.18266L13.3566 20.4476C13.9355 21.9429 16.0532 21.9373 16.624 20.4389L19.1721 13.75H22.5291C23.0609 13.75 23.5658 13.4057 23.6674 12.8451C23.7127 12.5948 23.7498 12.2993 23.7498 12C23.7498 11.7007 23.7127 11.4052 23.6674 11.155C23.5658 10.5943 23.0609 10.25 22.5291 10.25H18.3539C17.4339 10.25 16.6065 10.8102 16.2648 11.6644L15.0037 14.8173L10.643 3.55239Z" fill="#1F2723"/>
</g>
<defs>
<clipPath id="clip0_2002_1772">
<rect width="24" height="24" fill="white"/>
</clipPath>
</defs>
</svg>
