<svg width="24" height="24" viewBox="0 0 24 24" fill="none" xmlns="http://www.w3.org/2000/svg">
<g clip-path="url(#clip0_2002_1764)">
<g clip-path="url(#clip1_2002_1764)">
<path fill-rule="evenodd" clip-rule="evenodd" d="M2.93566 0.814523C2.34988 0.228736 1.40013 0.228736 0.814342 0.814523C0.228556 1.40031 0.228556 2.35006 0.814342 2.93584L21.0643 23.1858C21.6501 23.7716 22.5999 23.7716 23.1856 23.1858C23.7714 22.6 23.7714 21.6503 23.1856 21.0645L16.9542 14.8331L18.2197 13.2584C16.922 12.2604 15.2816 11.5696 13.4578 11.3367L11.8732 9.75208C11.9452 9.75083 12.0174 9.75018 12.0898 9.75018C14.7914 9.75018 17.2714 10.6275 19.1595 12.0889L21.2524 9.48443C18.9056 7.49223 15.6739 6.25018 12.0897 6.25018C10.9316 6.25018 9.81035 6.37988 8.74375 6.62263L7.513 5.39183C8.95385 4.97509 10.4929 4.75018 12.0897 4.75018C16.0024 4.75018 19.5685 6.10048 22.1923 8.31478L23.1024 7.18233C23.6606 6.48773 23.6278 5.43043 22.8917 4.81468C19.9819 2.38048 16.1841 1.25018 12.0896 1.25018C9.4849 1.25018 7.00045 1.7076 4.78828 2.66714L2.93566 0.814523ZM6.7537 10.9968L4.25546 8.49848C3.78694 8.80168 3.34325 9.13113 2.92736 9.48418L5.0202 12.0888C5.5536 11.676 6.1342 11.3098 6.7537 10.9968ZM3.17325 7.41628L0.952157 5.19518C0.560313 5.80788 0.622422 6.61558 1.07761 7.18208L1.98751 8.31448C2.36395 7.99683 2.75978 7.69693 3.17325 7.41628ZM10.7009 14.944L7.87975 12.1228C7.1814 12.4318 6.5368 12.8147 5.95995 13.2584L7.61955 15.3238C8.0601 15.8721 8.8151 15.9177 9.33295 15.5746C9.7476 15.2999 10.2079 15.0853 10.7009 14.944ZM8.83985 19.5002C8.83985 17.7326 10.251 16.2945 12.0081 16.2512L15.3388 19.5819C15.2955 21.339 13.8574 22.7502 12.0898 22.7502C10.2949 22.7502 8.83985 21.2951 8.83985 19.5002Z" fill="#1F2723"/>
</g>
</g>
<defs>
<clipPath id="clip0_2002_1764">
<rect width="24" height="24" fill="white"/>
</clipPath>
<clipPath id="clip1_2002_1764">
<rect width="24" height="24" fill="white"/>
</clipPath>
</defs>
</svg>
