<svg width="24" height="24" viewBox="0 0 24 24" fill="none" xmlns="http://www.w3.org/2000/svg">
<g clip-path="url(#clip0_2002_1767)">
<path fill-rule="evenodd" clip-rule="evenodd" d="M21.3604 4.99585C21.1486 4.33645 20.8107 4.05632 20.5314 3.9815C20.2521 3.90667 19.8194 3.98029 19.3063 4.44547C18.8024 4.90233 18.3307 5.6559 18.0744 6.61245C17.8181 7.56895 17.8498 8.45745 18.0578 9.10505C18.2695 9.76445 18.6075 10.0446 18.8867 10.1194C19.166 10.1942 19.5988 10.1207 20.1118 9.65545C20.6157 9.1986 21.0875 8.445 21.3438 7.4885C21.6001 6.53195 21.5683 5.64345 21.3604 4.99585ZM23.2646 4.38435C23.6066 5.4493 23.6164 6.73425 23.2756 8.0061C22.9348 9.278 22.2838 10.3858 21.4552 11.1371C20.6357 11.8801 19.5261 12.3613 18.3691 12.0513C17.2121 11.7413 16.4917 10.7697 16.1536 9.71655C15.8116 8.65165 15.8017 7.3667 16.1425 6.0948C16.4833 4.82292 17.1343 3.71505 17.963 2.96378C18.7824 2.22082 19.892 1.73962 21.049 2.04964C22.2061 2.35967 22.9264 3.3312 23.2646 4.38435ZM12.9148 6.81175C12.7031 6.15235 12.3651 5.87225 12.0858 5.7974C11.8066 5.7226 11.3738 5.7962 10.8608 6.2614C10.3568 6.71825 9.88515 7.47185 9.62885 8.42835C9.37255 9.3849 9.4043 10.2734 9.61225 10.921C9.824 11.5804 10.1619 11.8605 10.4412 11.9354C10.7205 12.0101 11.1532 11.9366 11.6663 11.4714C12.1702 11.0145 12.6419 10.2609 12.8982 9.3044C13.1545 8.3479 13.1228 7.4594 12.9148 6.81175ZM14.819 6.20025C15.161 7.2652 15.1709 8.55015 14.8301 9.82205C14.4893 11.0939 13.8383 12.2018 13.0096 12.953C12.1902 13.696 11.0806 14.1772 9.9236 13.8672C8.76655 13.5571 8.0462 12.5857 7.708 11.5325C7.36605 10.4676 7.3562 9.1826 7.697 7.9107C8.0378 6.63885 8.6888 5.53095 9.51745 4.7797C10.3369 4.03674 11.4465 3.55554 12.6035 3.86556C13.7605 4.17559 14.4808 5.1471 14.819 6.20025ZM8.0772 4.47712C8.24995 4.00301 8.0424 3.47448 7.5932 3.24458C7.14405 3.01469 6.59395 3.15547 6.3104 3.57289C4.9968 5.5068 2.72499 6.8558 1.77573 7.26925C1.26939 7.4898 1.03771 8.07905 1.25825 8.5854C1.47878 9.09175 2.06804 9.3234 2.57438 9.10285C3.0721 8.8861 3.8538 8.47055 4.71019 7.8758L1.64061 16.3001C1.45154 16.819 1.71892 17.393 2.23783 17.5821C2.75674 17.7711 3.33068 17.5037 3.51976 16.9848L8.0772 4.47712ZM20.7088 14.1909C20.7195 14.7431 20.2806 15.1994 19.7284 15.2101C13.2024 15.3366 7.83195 17.669 5.84525 18.9164C5.3775 19.2101 4.76027 19.069 4.46659 18.6012C4.17291 18.1335 4.31401 17.5163 4.78174 17.2226C7.0425 15.8031 12.7631 13.3447 19.6896 13.2105C20.2418 13.1997 20.6981 13.6387 20.7088 14.1909ZM5.8682 22.1154C8.08715 20.6361 14.5871 17.6651 22.2709 18.031C22.8225 18.0572 23.291 17.6313 23.3173 17.0797C23.3436 16.528 22.9176 16.0595 22.366 16.0332C14.1785 15.6433 7.26345 18.7815 4.75878 20.4513C4.29925 20.7576 4.17508 21.3785 4.48143 21.838C4.78779 22.2976 5.40865 22.4217 5.8682 22.1154Z" fill="black"/>
</g>
<defs>
<clipPath id="clip0_2002_1767">
<rect width="24" height="24" fill="white"/>
</clipPath>
</defs>
</svg>
