<svg width="24" height="24" viewBox="0 0 24 24" fill="none" xmlns="http://www.w3.org/2000/svg">
<g clip-path="url(#clip0_2002_1882)">
<path fill-rule="evenodd" clip-rule="evenodd" d="M18.1217 2.1567C17.2112 1.70142 16.0327 2.27539 15.9681 3.39753C15.9417 3.85517 15.9177 4.75564 16.0737 5.75569C14.562 5.54804 13.1746 4.97454 11.7999 4.34081C10.2776 3.63902 8.59969 2.8655 6.24424 2.8655C4.27559 2.8655 2.16086 3.42438 0.54091 4.58148C-0.0253453 4.98594 -0.18483 5.79338 0.244265 6.36548C0.691265 6.96148 1.45999 6.97688 2.03712 6.58593C3.24944 5.76468 4.79409 5.36548 6.24424 5.36548C8.03924 5.36548 9.26684 5.92909 10.8257 6.64478L10.8273 6.64553C13.0466 7.66443 15.2739 8.36548 17.7442 8.36548C19.4377 8.36548 21.1195 7.80098 22.5519 6.91193C23.093 6.57609 23.5549 6.23159 23.4892 5.50324C23.4503 5.07177 23.1908 4.69121 22.8033 4.49746L18.1217 2.1567ZM18.1217 16.1567C17.2112 15.7014 16.0327 16.2754 15.9681 17.3975C15.9417 17.8552 15.9177 18.7556 16.0737 19.7557C14.562 19.548 13.1746 18.9745 11.7999 18.3408C10.2776 17.639 8.59969 16.8655 6.24424 16.8655C4.27559 16.8655 2.16086 17.4244 0.54091 18.5815C-0.0253453 18.9859 -0.18483 19.7934 0.244265 20.3655C0.691265 20.9615 1.45999 20.9769 2.03712 20.5859C3.24944 19.7647 4.79409 19.3655 6.24424 19.3655C8.03924 19.3655 9.26684 19.9291 10.8257 20.6448L10.8273 20.6455C13.0466 21.6644 15.2739 22.3655 17.7442 22.3655C19.4377 22.3655 21.1195 21.801 22.5519 20.9119C23.093 20.5761 23.5549 20.2316 23.4892 19.5032C23.4503 19.0718 23.1908 18.6912 22.8033 18.4975L18.1217 16.1567ZM15.9681 10.3975C16.0327 9.27539 17.2112 8.70143 18.1217 9.15668L22.8033 11.4975C23.1908 11.6912 23.4503 12.0718 23.4892 12.5032C23.5549 13.2316 23.093 13.5761 22.5519 13.9119C21.1195 14.801 19.4377 15.3655 17.7442 15.3655C15.2739 15.3655 13.0466 14.6644 10.8273 13.6455L10.8257 13.6448C9.26684 12.9291 8.03924 12.3655 6.24424 12.3655C4.79409 12.3655 3.24944 12.7647 2.03712 13.5859C1.45999 13.9769 0.691265 13.9615 0.244265 13.3655C-0.18483 12.7934 -0.0253453 11.9859 0.54091 11.5815C2.16086 10.4244 4.27559 9.86548 6.24424 9.86548C8.59969 9.86548 10.2776 10.639 11.7999 11.3408C13.1746 11.9745 14.562 12.548 16.0737 12.7557C15.9177 11.7556 15.9417 10.8552 15.9681 10.3975Z" fill="#1F2723"/>
</g>
<defs>
<clipPath id="clip0_2002_1882">
<rect width="24" height="24" fill="white"/>
</clipPath>
</defs>
</svg>
