<svg width="24" height="24" viewBox="0 0 24 24" fill="none" xmlns="http://www.w3.org/2000/svg">
<g clip-path="url(#clip0_2002_1829)">
<path fill-rule="evenodd" clip-rule="evenodd" d="M21.0647 10.0685C21.0647 10.0685 23.177 9.65084 23.177 7.67644C23.177 6.95029 22.8963 6.31724 22.4516 5.78774C22.0969 5.36389 21.6395 5.13869 21.1354 4.92466C20.6142 4.76648 19.9364 4.60063 19.1458 4.49748C19.1048 4.49212 19.0655 4.4824 19.0284 4.46889C18.8524 4.40475 18.7263 4.25506 18.6983 4.08C18.6935 4.05007 18.6916 4.0194 18.6927 3.98828C18.6934 3.97151 18.6949 3.95461 18.6974 3.93763C18.737 3.66593 19.0021 3.47606 19.2894 3.51355C20.3245 3.64862 21.1826 3.88243 21.7841 4.08332L21.8038 4.08991C22.2078 4.22563 22.685 4.1354 22.8721 3.75243C23.1322 3.21983 23.1446 2.60501 22.4516 2.11484C21.9815 1.78239 20.746 1.51224 20.746 1.51224C20.746 1.19074 20.7132 0.535272 20.3915 0.324058C20.0524 0.0730476 19.0993 0.0515944 18.6108 0.14481C18.2913 0.205771 17.9376 0.474015 17.9376 0.794574V1.51224C17.9376 1.51224 17.3713 1.62423 16.8251 2.0063C16.3494 2.3391 15.889 2.87674 15.8313 3.72377C15.8276 3.7788 15.8255 3.83513 15.8253 3.89279V3.90426C15.8253 3.94964 15.8264 3.99475 15.8285 4.03941C15.861 4.70925 16.1337 5.29664 16.5507 5.79304C16.9395 6.25769 17.4518 6.48359 18.0137 6.71779C18.5303 6.86774 19.1669 7.02204 19.8659 7.12544C20.1525 7.16784 20.3485 7.42184 20.3036 7.69284C20.2848 7.80679 20.2264 7.90564 20.1436 7.97874C20.0335 8.07604 19.8804 8.12764 19.7205 8.10889L19.7088 8.10739L19.7036 8.10669C19.4123 8.06359 19.1315 8.01244 18.8647 7.95664C18.4504 7.87004 18.0697 7.77224 17.7355 7.67594C17.6989 7.66539 17.6629 7.65484 17.6274 7.64434C17.5004 7.60679 17.3807 7.56964 17.2692 7.53374L17.2266 7.51999C16.9439 7.42809 16.6305 7.44959 16.3899 7.59464C16.2909 7.65429 16.2042 7.73484 16.1371 7.83694C15.9788 8.07774 15.8643 8.33154 15.8643 8.58384C15.8642 8.85559 15.9969 9.12554 16.3504 9.37559C16.8205 9.70804 18.2563 10.0685 18.2563 10.0685C18.2563 10.2092 18.2625 10.4293 18.2966 10.65C18.3403 10.9338 18.4298 11.2188 18.6108 11.3376C18.9499 11.5886 20.0422 11.5491 20.5307 11.4559C20.8502 11.3949 21.0647 11.1068 21.0647 10.7862V10.0685ZM20.7486 12.9407C20.3895 13.0032 19.9158 13.0367 19.4755 13.0252C19.2378 13.019 18.9674 12.9988 18.7036 12.9483C18.4884 12.9072 18.1046 12.8162 17.753 12.5682C17.3759 12.3085 17.1701 11.9652 17.0599 11.7286C16.9795 11.556 16.9242 11.3845 16.8852 11.2312C16.6935 11.1685 16.4863 11.0958 16.2878 11.0161C16.064 10.9263 15.7511 10.7889 15.4843 10.6001C14.8585 10.1575 14.3952 9.50319 14.3657 8.66574C14.3401 7.93884 14.6595 7.35389 14.8837 7.01289C14.9949 6.84379 15.1199 6.69824 15.255 6.57419C14.7048 5.85414 14.3253 4.95397 14.3253 3.90426C14.3253 2.65744 14.8588 1.77122 15.473 1.18152C14.3683 0.644159 13.1295 0.343904 11.8253 0.343904C7.47946 0.343904 3.86038 3.67772 3.50439 8.00894L3.23502 11.2863C3.14136 12.4258 2.77952 13.527 2.17906 14.5L1.24055 16.0207C0.845656 16.6606 0.695911 17.4127 0.944441 18.0908C1.20373 18.7983 1.83382 19.2544 2.6363 19.3765C3.61309 19.5252 5.03711 19.6678 7.11276 19.7555C8.41176 19.8104 9.96601 19.844 11.8256 19.844C13.6849 19.844 15.2389 19.8105 16.5378 19.7556C18.6135 19.6679 20.0375 19.5252 21.0143 19.3765C21.8167 19.2544 22.4468 18.7983 22.7061 18.0908C22.9547 17.4127 22.8049 16.6606 22.41 16.0207L21.4715 14.5C21.1685 14.009 20.9263 13.4854 20.7486 12.9407ZM11.8253 23.9059C9.96331 23.9059 8.35161 22.8346 7.57286 21.2747C8.78516 21.3184 10.192 21.344 11.8256 21.344C13.4589 21.344 14.8655 21.3184 16.0777 21.2748C15.2989 22.8346 13.6872 23.9059 11.8253 23.9059Z" fill="#1F2723"/>
</g>
<defs>
<clipPath id="clip0_2002_1829">
<rect width="24" height="24" fill="white"/>
</clipPath>
</defs>
</svg>
