<svg width="24" height="24" viewBox="0 0 24 24" fill="none" xmlns="http://www.w3.org/2000/svg">
<g clip-path="url(#clip0_2002_1886)">
<path fill-rule="evenodd" clip-rule="evenodd" d="M12 0.219299C7.65417 0.219299 4.0351 3.55311 3.67911 7.88435L3.40974 11.1617C3.31608 12.3012 2.95424 13.4024 2.35378 14.3754L1.41528 15.8961C1.02038 16.5359 0.870634 17.2881 1.11916 17.9662C1.37845 18.6737 2.00854 19.1298 2.81102 19.2519C4.39909 19.4936 7.16922 19.7193 12 19.7193C16.8308 19.7193 19.6009 19.4936 21.189 19.2519C21.9915 19.1298 22.6215 18.6737 22.8808 17.9662C23.1294 17.2881 22.9796 16.5359 22.5847 15.8961L21.6462 14.3753C21.0458 13.4024 20.6839 12.3012 20.5903 11.1617L20.3209 7.88435C19.9649 3.55311 16.3458 0.219299 12 0.219299ZM7.74772 21.15C8.95997 21.1936 10.3667 21.2192 12.0002 21.2192C13.6334 21.2192 15.04 21.1936 16.2521 21.15C15.4733 22.7096 13.8617 23.7807 11.9999 23.7807C10.1381 23.7807 8.52652 22.7096 7.74772 21.15ZM12.5 2.5943C12.0168 2.5943 11.625 2.98605 11.625 3.4693C11.625 3.95255 12.0168 4.3443 12.5 4.3443C14.3273 4.3443 15.9583 5.88455 16.1277 8.03795C16.1656 8.5197 16.5869 8.8795 17.0687 8.8416C17.5504 8.8037 17.9103 8.38245 17.8723 7.90065C17.6413 4.96379 15.3626 2.5943 12.5 2.5943Z" fill="#1F2723"/>
</g>
<defs>
<clipPath id="clip0_2002_1886">
<rect width="24" height="24" fill="white"/>
</clipPath>
</defs>
</svg>
