<svg width="24" height="24" viewBox="0 0 24 24" fill="none" xmlns="http://www.w3.org/2000/svg">
<g clip-path="url(#clip0_2002_1823)">
<path fill-rule="evenodd" clip-rule="evenodd" d="M3.67907 7.88435L3.68301 7.83795L15.518 19.673C14.4874 19.7024 13.3207 19.7193 12 19.7193C7.1692 19.7193 4.39905 19.4936 2.81098 19.2519C2.00851 19.1298 1.37841 18.6737 1.11912 17.9662C0.87059 17.2881 1.02034 16.5359 1.41523 15.8961L2.35373 14.3754C2.9542 13.4024 3.31604 12.3012 3.40969 11.1617L3.67907 7.88435ZM21.3701 19.2181C22.0857 19.0585 22.6413 18.6195 22.8808 17.9662C23.1293 17.2881 22.9795 16.5359 22.5847 15.8961L21.6462 14.3753C21.0457 13.4024 20.6839 12.3012 20.5902 11.1617L20.3209 7.88435C19.9648 3.55311 16.3458 0.219299 12 0.219299C9.38155 0.219299 7.027 1.42953 5.491 3.33896L2.93566 0.783639C2.34987 0.197853 1.40012 0.197853 0.81434 0.783639C0.228553 1.36942 0.228553 2.31917 0.81434 2.90496L21.0644 23.1549C21.6502 23.7407 22.5998 23.7407 23.1856 23.1549C23.7715 22.5691 23.7715 21.6194 23.1856 21.0336L21.3701 19.2181ZM12.0001 21.2192C10.3666 21.2192 8.9599 21.1936 7.7477 21.15C8.5265 22.7096 10.1381 23.7807 11.9999 23.7807C13.8617 23.7807 15.4733 22.7096 16.2521 21.15C15.04 21.1936 13.6334 21.2192 12.0001 21.2192Z" fill="#1F2723"/>
</g>
<defs>
<clipPath id="clip0_2002_1823">
<rect width="24" height="24" fill="white"/>
</clipPath>
</defs>
</svg>
