<svg width="24" height="24" viewBox="0 0 24 24" fill="none" xmlns="http://www.w3.org/2000/svg">
<path d="M17.8022 17.053C17.8022 17.8278 17.1741 18.4559 16.3993 18.4559H15.4683V21.3254C15.4683 22.0439 14.8859 22.6263 14.1674 22.6263C13.449 22.6263 12.8665 22.0439 12.8665 21.3254V18.4559H11.1321V21.3254C11.1321 22.0439 10.5496 22.6263 9.83119 22.6263C9.11274 22.6263 8.5303 22.0439 8.53029 21.3254V18.4559H7.5993C6.8245 18.4559 6.1964 17.8278 6.1964 17.053V8.64193H17.8022V17.053Z" fill="#1F2723"/>
<path d="M4.4109 8.41874C5.12934 8.41874 5.71178 9.00119 5.71179 9.71964V15.1399C5.71178 15.8584 5.12934 16.4408 4.4109 16.4408C3.69245 16.4408 3.11001 15.8584 3.11 15.1399V9.71964C3.11001 9.00119 3.69245 8.41874 4.4109 8.41874Z" fill="#1F2723"/>
<path d="M19.5877 8.41874C20.3062 8.41874 20.8886 9.00119 20.8886 9.71964V15.1399C20.8886 15.8584 20.3062 16.4408 19.5877 16.4408C18.8693 16.4408 18.2868 15.8584 18.2868 15.1399V9.71964C18.2868 9.00119 18.8693 8.41874 19.5877 8.41874Z" fill="#1F2723"/>
<path fill-rule="evenodd" clip-rule="evenodd" d="M15.238 1.57357C15.349 1.37337 15.6013 1.30106 15.8015 1.41203C15.94 1.48883 16.0172 1.63327 16.0149 1.78132C16.0144 1.84814 15.9976 1.91579 15.963 1.97835L15.2693 3.22949C15.2689 3.22929 15.2686 3.22907 15.2682 3.22886L15.0461 3.62966C16.6982 4.57236 17.7997 6.25875 17.8021 8.18285H6.19646C6.19889 6.25877 7.30032 4.57237 8.95244 3.62966L8.73025 3.22886C8.7299 3.22907 8.72955 3.22929 8.72919 3.22949L8.03565 1.97835C8.00097 1.91579 7.98422 1.84814 7.98365 1.78132C7.98136 1.63327 8.05859 1.48883 8.19713 1.41203C8.39734 1.30106 8.64959 1.37337 8.76058 1.57357L9.7006 3.2694C10.4055 2.9884 11.1827 2.83268 11.9993 2.83268C12.8159 2.83268 13.5931 2.98841 14.2979 3.2694L15.238 1.57357ZM9.32104 5.0901C9.05339 5.0901 8.83643 5.30706 8.83643 5.57471C8.83643 5.84236 9.05338 6.05932 9.32104 6.05932C9.5887 6.05932 9.80565 5.84236 9.80565 5.57471C9.80565 5.30706 9.58869 5.0901 9.32104 5.0901ZM14.6776 5.0901C14.4099 5.0901 14.193 5.30706 14.1929 5.57471C14.193 5.84236 14.4099 6.05932 14.6776 6.05932C14.9452 6.05932 15.1622 5.84236 15.1622 5.57471C15.1622 5.30706 14.9452 5.0901 14.6776 5.0901Z" fill="#1F2723"/>
</svg>
