<svg width="24" height="24" viewBox="0 0 24 24" fill="none" xmlns="http://www.w3.org/2000/svg">
<g clip-path="url(#clip0_2002_1884)">
<path fill-rule="evenodd" clip-rule="evenodd" d="M9.51827 7.8375C9.57837 13.0742 9.77007 18.7246 9.86382 21.2632C9.89442 22.0908 10.4481 22.7814 11.275 22.8268C11.489 22.8386 11.7301 22.8458 11.9998 22.8458C12.2695 22.8458 12.5107 22.8386 12.7247 22.8268C13.5516 22.7814 14.1052 22.0908 14.1358 21.2632C14.2296 18.7246 14.4213 13.0742 14.4814 7.8375L16.7745 9.7086C17.2657 10.1094 17.9328 10.269 18.4745 9.9396C18.6864 9.81075 18.9088 9.6467 19.1108 9.44105C19.3158 9.23235 19.4788 9.0023 19.6063 8.78375C19.9259 8.2355 19.7638 7.5673 19.3406 7.09435C17.3961 4.92115 14.8879 2.74158 13.1341 1.53928C12.4348 1.0599 11.5411 1.01482 10.8318 1.4792C9.07902 2.62665 6.58922 4.9076 4.65677 7.09245C4.23634 7.5678 4.07384 8.2355 4.39358 8.78365C4.52102 9.00215 4.68403 9.23215 4.88907 9.44085C5.09112 9.6465 5.31352 9.81065 5.52532 9.9395C6.06697 10.2689 6.73407 10.1094 7.22527 9.70855L9.51827 7.8375Z" fill="#1F2723"/>
</g>
<defs>
<clipPath id="clip0_2002_1884">
<rect width="24" height="24" fill="white"/>
</clipPath>
</defs>
</svg>
