<svg width="24" height="24" viewBox="0 0 24 24" fill="none" xmlns="http://www.w3.org/2000/svg">
<g clip-path="url(#clip0_2002_1868)">
<path fill-rule="evenodd" clip-rule="evenodd" d="M14.4816 16.1625C14.4215 10.9258 14.2298 5.27539 14.1361 2.73681C14.1055 1.90923 13.5518 1.21865 12.7249 1.17321C12.5109 1.16145 12.2698 1.15424 12.0001 1.15424C11.7304 1.15424 11.4892 1.16145 11.2752 1.17321C10.4483 1.21865 9.89467 1.90923 9.86407 2.73682C9.77032 5.27539 9.57862 10.9258 9.51852 16.1625L7.22537 14.2914C6.73417 13.8906 6.06712 13.731 5.52542 14.0604C5.31352 14.1893 5.09112 14.3533 4.88906 14.559C4.68406 14.7677 4.52107 14.9977 4.39363 15.2163C4.07397 15.7645 4.23612 16.4327 4.6593 16.9057C6.60382 19.0789 9.11197 21.2584 10.8658 22.4607C11.5651 22.9401 12.4588 22.9852 13.1681 22.5208C14.9209 21.3734 17.4107 19.0924 19.3431 16.9076C19.7636 16.4322 19.9261 15.7645 19.6063 15.2164C19.4789 14.9979 19.3159 14.7679 19.1108 14.5592C18.9088 14.3535 18.6864 14.1894 18.4746 14.0605C17.9329 13.7311 17.2658 13.8906 16.7746 14.2915L14.4816 16.1625Z" fill="#1F2723"/>
</g>
<defs>
<clipPath id="clip0_2002_1868">
<rect width="24" height="24" fill="white"/>
</clipPath>
</defs>
</svg>
