<svg width="24" height="24" viewBox="0 0 24 24" fill="none" xmlns="http://www.w3.org/2000/svg">
<g clip-path="url(#clip0_2002_1860)">
<path fill-rule="evenodd" clip-rule="evenodd" d="M16.1625 9.51839C10.9258 9.57849 5.27537 9.77019 2.7368 9.86394C1.90921 9.89454 1.21863 10.4481 1.17319 11.2751C1.16144 11.4891 1.15422 11.7302 1.15422 11.9999C1.15422 12.2696 1.16144 12.5108 1.17319 12.7248C1.21863 13.5517 1.90921 14.1053 2.7368 14.1359C5.27537 14.2297 10.9258 14.4214 16.1625 14.4815L14.2914 16.7746C13.8906 17.2658 13.731 17.9329 14.0604 18.4746C14.1893 18.6865 14.3533 18.9089 14.559 19.1109C14.7677 19.3159 14.9977 19.4789 15.2163 19.6064C15.7645 19.926 16.4327 19.7639 16.9057 19.3407C19.0789 17.3961 21.2584 14.888 22.4607 13.1342C22.9401 12.4349 22.9852 11.5412 22.5208 10.8319C21.3734 9.07914 19.0924 6.58934 16.9076 4.65689C16.4322 4.23646 15.7645 4.07395 15.2164 4.3937C14.9979 4.52114 14.7679 4.68415 14.5592 4.88919C14.3535 5.09124 14.1894 5.31364 14.0605 5.52544C13.7311 6.06709 13.8906 6.73419 14.2915 7.22539L16.1625 9.51839Z" fill="#1F2723"/>
</g>
<defs>
<clipPath id="clip0_2002_1860">
<rect width="24" height="24" fill="white"/>
</clipPath>
</defs>
</svg>
