<svg width="24" height="24" viewBox="0 0 24 24" fill="none" xmlns="http://www.w3.org/2000/svg">
<g clip-path="url(#clip0_2002_1775)">
<path fill-rule="evenodd" clip-rule="evenodd" d="M10.7489 1.74127C7.14489 1.74127 4.67019 1.85772 3.16899 1.96307C1.75349 2.06242 0.61719 3.12582 0.48059 4.56147C0.36039 5.82427 0.23999 7.77032 0.23999 10.4987C0.23999 13.2271 0.36039 15.1731 0.48059 16.436C0.61724 17.8716 1.75349 18.935 3.16899 19.0343C4.31839 19.115 6.03859 19.2022 8.39944 19.2386V17.5223C8.25624 17.4739 8.11134 17.4162 7.96609 17.3473C6.03019 16.4291 5.03394 14.8476 4.70724 14.2551C4.52899 13.932 4.39524 13.5651 4.33254 13.1645C4.20854 12.3718 4.24029 11.3199 4.27224 10.6674C4.33029 9.48237 4.97509 8.39507 5.99494 7.80467V5.99487C5.99494 4.61297 7.11519 3.49272 8.49709 3.49272C9.87899 3.49272 10.9992 4.61297 10.9992 5.99487C10.9992 4.61297 12.1194 3.49272 13.5013 3.49272C14.8832 3.49272 16.0034 4.61297 16.0034 5.99487V7.80462C17.0233 8.39502 17.6682 9.48232 17.7262 10.6674C17.7582 11.3199 17.7899 12.3718 17.6659 13.1645C17.6032 13.5651 17.4694 13.932 17.2912 14.2552C16.9645 14.8476 15.9683 16.4291 14.0324 17.3473C13.8871 17.4162 13.7422 17.4739 13.599 17.5223V19.23C15.7043 19.1896 17.2623 19.1092 18.3289 19.0343C19.7444 18.935 20.8806 17.8716 21.0173 16.436C21.0571 16.017 21.097 15.5228 21.1326 14.9498L21.9554 14.8692C22.5669 14.8093 23.1669 14.4135 23.3614 13.7301C23.5411 13.0995 23.76 12.0198 23.76 10.5066C23.76 8.99142 23.5405 7.91087 23.3607 7.28057C23.1666 6.59967 22.5698 6.20432 21.9605 6.14242L21.1332 6.05847C21.0975 5.48082 21.0574 4.98307 21.0173 4.56142C20.8806 3.12582 19.7444 2.06242 18.3289 1.96307C16.8277 1.85772 14.3529 1.74127 10.7489 1.74127ZM9.49789 5.99487C9.49789 5.44212 9.04979 4.99402 8.49704 4.99402C7.94429 4.99402 7.49619 5.44212 7.49619 5.99487V8.85832C6.50909 8.97537 5.81859 9.78292 5.77164 10.7409C5.73924 11.4031 5.71854 12.3112 5.81574 12.9324C5.84949 13.1483 5.92209 13.3494 6.02174 13.5301C6.28439 14.0063 7.08704 15.2689 8.60934 15.9908C8.99089 16.1718 9.38794 16.2372 9.74814 16.2508V21.0076C9.74814 21.6986 10.3082 22.2587 10.9992 22.2587C11.6901 22.2587 12.2502 21.6986 12.2502 21.0076V16.2508C12.6104 16.2372 13.0074 16.1718 13.389 15.9908C14.9113 15.2689 15.7139 14.0063 15.9766 13.5301C16.0762 13.3494 16.1488 13.1483 16.1826 12.9324C16.2798 12.3112 16.2591 11.4031 16.2267 10.7409C16.1797 9.78292 15.4892 8.97537 14.5022 8.85832V5.99487C14.5022 5.44212 14.054 4.99402 13.5013 4.99402C12.9485 4.99402 12.5005 5.44212 12.5005 5.99487V8.76277C12.0612 8.75302 11.5631 8.74722 10.9992 8.74722C10.4353 8.74722 9.93714 8.75302 9.49794 8.76277L9.49789 5.99487Z" fill="#1F2723"/>
</g>
<defs>
<clipPath id="clip0_2002_1775">
<rect width="24" height="24" fill="white"/>
</clipPath>
</defs>
</svg>
