<svg width="24" height="24" viewBox="0 0 24 24" fill="none" xmlns="http://www.w3.org/2000/svg">
<g clip-path="url(#clip0_2002_1774)">
<path fill-rule="evenodd" clip-rule="evenodd" d="M3.53497 3.44754C5.0583 3.34939 7.4224 3.25 10.75 3.25C14.0776 3.25 16.4417 3.34939 17.965 3.44754C19.5949 3.55256 20.9002 4.7752 21.0422 6.42795C21.0711 6.7651 21.0995 7.14315 21.1255 7.56355L21.3839 7.58975C22.3389 7.68675 23.2739 8.31115 23.4998 9.3914C23.633 10.0282 23.75 10.9024 23.75 12.0079C23.75 13.1105 23.6336 13.9831 23.5009 14.6194C23.2747 15.7036 22.3349 16.3288 21.3762 16.4228L21.1248 16.4473C21.099 16.8634 21.0709 17.2378 21.0422 17.5721C20.9002 19.2248 19.5949 20.4475 17.965 20.5525C16.4417 20.6506 14.0776 20.75 10.75 20.75C7.4224 20.75 5.0583 20.6506 3.53497 20.5525C1.90503 20.4475 0.59983 19.2248 0.457814 17.5721C0.349488 16.3114 0.250001 14.4788 0.25 12C0.25 9.52115 0.349487 7.6886 0.457814 6.42795C0.59983 4.7752 1.90503 3.55256 3.53497 3.44754ZM10.5002 6.80275C11.2409 6.80275 11.9654 7.19415 12.4418 7.943C12.9344 8.71725 13.514 9.7096 14.1599 10.9601C14.7797 12.1603 15.2155 13.1236 15.5219 13.8856C15.824 14.6368 15.7323 15.3721 15.3439 15.9339C14.9577 16.4925 14.2952 16.8556 13.4989 16.907C12.6737 16.9603 11.6653 17.0005 10.5002 17.0005C9.33515 17.0005 8.3268 16.9603 7.5016 16.907C6.70525 16.8556 6.0428 16.4925 5.65655 15.9339C5.26815 15.3721 5.1765 14.6368 5.47855 13.8856C5.78495 13.1236 6.2207 12.1603 6.8406 10.9601C7.4865 9.7096 8.0661 8.71725 8.5587 7.943C9.0351 7.19415 9.75955 6.80275 10.5002 6.80275ZM11.25 9.75C11.25 9.3358 10.9142 9 10.5 9C10.0858 9 9.75 9.3358 9.75 9.75V12.25C9.75 12.6642 10.0858 13 10.5 13C10.9142 13 11.25 12.6642 11.25 12.25V9.75ZM10.5 14C10.9142 14 11.25 14.3358 11.25 14.75V15.25C11.25 15.6642 10.9142 16 10.5 16C10.0858 16 9.75 15.6642 9.75 15.25V14.75C9.75 14.3358 10.0858 14 10.5 14Z" fill="#1F2723"/>
</g>
<defs>
<clipPath id="clip0_2002_1774">
<rect width="24" height="24" fill="white"/>
</clipPath>
</defs>
</svg>
