<svg width="24" height="24" viewBox="0 0 24 24" fill="none" xmlns="http://www.w3.org/2000/svg">
<g clip-path="url(#clip0_2002_1778)">
<path fill-rule="evenodd" clip-rule="evenodd" d="M3.53497 3.44754C5.0583 3.34939 7.4224 3.25 10.75 3.25C14.0776 3.25 16.4417 3.34939 17.965 3.44754C19.5949 3.55256 20.9002 4.7752 21.0422 6.42795C21.0711 6.7651 21.0995 7.14315 21.1255 7.56355L21.3839 7.58975C22.3389 7.68675 23.2739 8.31115 23.4998 9.3914C23.633 10.0282 23.75 10.9024 23.75 12.0079C23.75 13.1105 23.6336 13.9831 23.5009 14.6194C23.2747 15.7036 22.3349 16.3288 21.3762 16.4228L21.1248 16.4473C21.099 16.8634 21.0709 17.2378 21.0422 17.5721C20.9002 19.2248 19.5949 20.4475 17.965 20.5525C16.4417 20.6506 14.0776 20.75 10.75 20.75C7.4224 20.75 5.0583 20.6506 3.53497 20.5525C1.90503 20.4475 0.59983 19.2248 0.457814 17.5721C0.349488 16.3114 0.250001 14.4788 0.25 12C0.25 9.52115 0.349487 7.6886 0.457814 6.42795C0.59983 4.7752 1.90503 3.55256 3.53497 3.44754ZM10.6766 6.82305C10.7236 6.86995 10.75 6.9336 10.75 7V16.9995C10.75 17.0659 10.7236 17.1296 10.6766 17.1765C10.6296 17.2234 10.5659 17.2497 10.4995 17.2495C8.0076 17.2446 6.33135 17.1663 5.35515 17.1006C4.60802 17.0503 4.0032 16.501 3.92144 15.7451C3.83708 14.9653 3.75 13.7389 3.75 11.9998C3.75 10.2606 3.83708 9.03425 3.92144 8.25435C4.0032 7.4985 4.60802 6.9492 5.35515 6.8989C6.33135 6.83315 8.0076 6.75495 10.4995 6.75C10.5659 6.74985 10.6296 6.77615 10.6766 6.82305Z" fill="#1F2723"/>
</g>
<defs>
<clipPath id="clip0_2002_1778">
<rect width="24" height="24" fill="white"/>
</clipPath>
</defs>
</svg>
