<svg width="24" height="24" viewBox="0 0 24 24" fill="none" xmlns="http://www.w3.org/2000/svg">
<g clip-path="url(#clip0_2002_1781)">
<path fill-rule="evenodd" clip-rule="evenodd" d="M10.75 3.25C7.4224 3.25 5.0583 3.34939 3.53497 3.44754C1.90503 3.55256 0.59983 4.7752 0.457814 6.42795C0.349487 7.6886 0.25 9.52115 0.25 12C0.250001 14.4788 0.349488 16.3114 0.457814 17.5721C0.59983 19.2248 1.90503 20.4475 3.53497 20.5525C5.0583 20.6506 7.4224 20.75 10.75 20.75C14.0776 20.75 16.4417 20.6506 17.965 20.5525C19.5949 20.4475 20.9002 19.2248 21.0422 17.5721C21.0709 17.2378 21.099 16.8634 21.1248 16.4473L21.3762 16.4228C22.3349 16.3288 23.2747 15.7036 23.5009 14.6194C23.6336 13.9831 23.75 13.1105 23.75 12.0079C23.75 10.9024 23.633 10.0282 23.4998 9.3914C23.2739 8.31115 22.3389 7.68675 21.3839 7.58975L21.1255 7.56355C21.0995 7.14315 21.0711 6.7651 21.0422 6.42795C20.9002 4.7752 19.5949 3.55256 17.965 3.44754C16.4417 3.34939 14.0776 3.25 10.75 3.25Z" fill="#1F2723"/>
</g>
<defs>
<clipPath id="clip0_2002_1781">
<rect width="24" height="24" fill="white"/>
</clipPath>
</defs>
</svg>
