<svg width="24" height="24" viewBox="0 0 24 24" fill="none" xmlns="http://www.w3.org/2000/svg">
<g clip-path="url(#clip0_2002_1794)">
<path fill-rule="evenodd" clip-rule="evenodd" d="M18.9025 2.96994C18.9015 2.51084 18.8918 2.10609 18.8794 1.76934C18.8507 0.99034 18.3496 0.30704 17.5107 0.25774C17.3224 0.24669 17.1059 0.23999 16.8574 0.23999C16.6089 0.23999 16.3923 0.24669 16.204 0.25774C15.3652 0.30704 14.864 0.99034 14.8353 1.76934C14.8242 2.06939 14.8154 2.42349 14.8129 2.82184C13.9553 2.80584 13.0186 2.79649 12 2.79649C10.9814 2.79649 10.0447 2.80584 9.18706 2.82184C9.18456 2.42349 9.1757 2.06939 9.16461 1.76934C9.13591 0.99034 8.63476 0.30704 7.79591 0.25774C7.60761 0.24669 7.39106 0.23999 7.14256 0.23999C6.89406 0.23999 6.67756 0.24669 6.48921 0.25774C5.65036 0.30704 5.14926 0.99034 5.12051 1.76934C5.10811 2.10609 5.09846 2.51084 5.09746 2.96994C4.65041 2.99534 4.24946 3.02179 3.89321 3.04799C2.21791 3.17119 0.900455 4.44659 0.756255 6.13234C0.625705 7.65839 0.495605 10.0012 0.495605 13.2782C0.495605 16.5552 0.625705 18.8981 0.756255 20.4241C0.900455 22.1099 2.21791 23.3853 3.89321 23.5085C5.56381 23.6313 8.21651 23.76 12 23.76C15.7834 23.76 18.4361 23.6313 20.1068 23.5085C21.782 23.3853 23.0995 22.1099 23.2437 20.4241C23.3742 18.8981 23.5043 16.5553 23.5043 13.2782C23.5043 10.0012 23.3742 7.65839 23.2437 6.13239C23.0995 4.44659 21.782 3.17119 20.1068 3.04799C19.7505 3.02179 19.3495 2.99534 18.9025 2.96994ZM8.47636 9.69914H7.58161C6.36116 9.69914 5.33496 10.5192 5.01891 11.6364C4.86521 12.1799 5.18116 12.745 5.72461 12.8987C6.26806 13.0525 6.83321 12.7365 6.98691 12.1931C7.06046 11.9332 7.30031 11.7443 7.58161 11.7443H8.47641C8.81761 11.7443 9.0942 12.0209 9.0942 12.3621C9.0942 12.7034 8.81761 12.9799 8.47641 12.98H8.02901C7.46426 12.98 7.00641 13.4378 7.00641 14.0026C7.00641 14.5673 7.46421 15.0252 8.02901 15.0252H8.62551C9.04911 15.0252 9.39246 15.3686 9.39246 15.7922V16.0904C9.39246 16.514 9.04911 16.8574 8.62551 16.8574H7.43251C7.10016 16.8574 6.81466 16.6454 6.70896 16.3462C6.52071 15.8136 5.93646 15.5346 5.40401 15.7228C4.87151 15.911 4.59241 16.4952 4.78061 17.0277C5.16616 18.1185 6.20646 18.9026 7.43246 18.9026H8.62551C10.1787 18.9026 11.4377 17.6435 11.4377 16.0904V15.7922C11.4377 15.0468 11.1477 14.3692 10.6745 13.866C10.9679 13.4381 11.1395 12.9202 11.1395 12.3621C11.1395 10.8914 9.94711 9.69914 8.47636 9.69914ZM16.3808 9.69914C16.9456 9.69914 17.4034 10.1569 17.4034 10.7217V16.8574H18.7669C19.3317 16.8574 19.7895 17.3152 19.7895 17.88C19.7895 18.4448 19.3317 18.9026 18.7669 18.9026H13.9948C13.43 18.9026 12.9722 18.4448 12.9722 17.88C12.9722 17.3152 13.43 16.8574 13.9948 16.8574H15.3582V13.428C15.1144 13.497 14.8571 13.5339 14.5913 13.5339H13.9948C13.43 13.5339 12.9722 13.0761 12.9722 12.5113C12.9722 11.9465 13.43 11.4887 13.9948 11.4887H14.5913C15.0149 11.4887 15.3582 11.1453 15.3582 10.7217C15.3582 10.1569 15.8161 9.69914 16.3808 9.69914Z" fill="#1F2723"/>
</g>
<defs>
<clipPath id="clip0_2002_1794">
<rect width="24" height="24" fill="white"/>
</clipPath>
</defs>
</svg>
