<svg width="24" height="24" viewBox="0 0 24 24" fill="none" xmlns="http://www.w3.org/2000/svg">
<g clip-path="url(#clip0_2002_1865)">
<path fill-rule="evenodd" clip-rule="evenodd" d="M18.9023 2.97006C18.9013 2.51096 18.8917 2.10621 18.8793 1.76946C18.8505 0.990462 18.3494 0.307162 17.5106 0.257862C17.3222 0.246812 17.1057 0.240112 16.8572 0.240112C16.6088 0.240112 16.3922 0.246812 16.2039 0.257862C15.365 0.307162 14.8639 0.990462 14.8352 1.76946C14.8241 2.06951 14.8153 2.42361 14.8127 2.82196C13.9551 2.80596 13.0184 2.79661 11.9998 2.79661C10.9812 2.79661 10.0445 2.80596 9.1869 2.82196C9.18441 2.42361 9.17556 2.06951 9.16446 1.76946C9.13576 0.990462 8.63461 0.307162 7.79576 0.257862C7.60746 0.246812 7.39091 0.240112 7.14241 0.240112C6.89396 0.240112 6.67741 0.246812 6.48906 0.257862C5.65021 0.307162 5.14911 0.990462 5.12036 1.76946C5.10796 2.10621 5.09831 2.51096 5.09731 2.97006C4.65026 2.99546 4.24931 3.02191 3.89306 3.04811C2.21776 3.17131 0.900305 4.44671 0.756105 6.13246C0.713105 6.63496 0.670155 7.22596 0.631905 7.90966H23.3677C23.3295 7.22596 23.2865 6.63496 23.2436 6.13246C23.0993 4.44671 21.7818 3.17131 20.1066 3.04811C19.7503 3.02191 19.3494 2.99546 18.9023 2.97006ZM0.495605 13.2784C0.495605 11.8181 0.521455 10.5433 0.561655 9.44361H23.4383C23.4785 10.5433 23.5043 11.8181 23.5043 13.2784C23.5043 16.5554 23.3743 18.8982 23.2437 20.4243C23.0995 22.11 21.782 23.3854 20.1068 23.5087C18.4361 23.6315 15.7834 23.7601 12 23.7601C8.21651 23.7601 5.56381 23.6315 3.89321 23.5087C2.21791 23.3854 0.900455 22.11 0.756255 20.4243C0.625705 18.8982 0.495605 16.5554 0.495605 13.2784Z" fill="#1F2723"/>
</g>
<defs>
<clipPath id="clip0_2002_1865">
<rect width="24" height="24" fill="white"/>
</clipPath>
</defs>
</svg>
