<svg width="24" height="24" viewBox="0 0 24 24" fill="none" xmlns="http://www.w3.org/2000/svg">
<g clip-path="url(#clip0_2002_1861)">
<path fill-rule="evenodd" clip-rule="evenodd" d="M0.25 12C0.25 5.51065 5.51065 0.250001 12 0.25C18.4893 0.25 23.75 5.51065 23.75 12C23.75 18.4893 18.4893 23.75 12 23.75C9.91025 23.75 7.946 23.2038 6.2444 22.246C4.89865 22.6796 3.41679 23.0901 2.06033 23.3622C1.22002 23.5309 0.467792 22.8129 0.607805 21.9613C0.842105 20.5361 1.24144 19.0019 1.68482 17.631C0.769925 15.9584 0.25 14.0389 0.25 12ZM9.88525 17.6663C9.88525 16.7919 10.5942 16.083 11.4686 16.083C12.3431 16.083 13.052 16.7919 13.052 17.6663C13.052 18.5408 12.3431 19.2498 11.4686 19.2498C10.5942 19.2498 9.88525 18.5408 9.88525 17.6663ZM9.958 5.6362C9.1219 6.17765 8.60115 6.869 8.43915 7.5156C8.2813 8.14575 8.40835 8.66735 8.65815 9.002C8.899 9.32465 9.30195 9.54205 9.87365 9.49665C10.0126 9.48565 10.1821 9.4215 10.4142 9.28325C10.9486 8.96495 11.9311 8.39015 12.706 7.99765C13.0708 7.8129 13.5163 7.95435 13.7077 8.3157C13.899 8.677 13.7658 9.12505 13.408 9.323C13.2533 9.40855 13.092 9.4953 12.927 9.5841C12.3201 9.91055 11.6622 10.2645 11.095 10.6874C10.3494 11.2434 10.0155 11.7375 10.0155 12.1779L10.0128 14.0824C10.0125 14.3588 10.2364 14.5831 10.5128 14.5831H12.0822C12.3583 14.5831 12.5822 14.3593 12.5822 14.0831V13.6668C12.5822 13.3905 12.734 13.1366 12.9774 13.0059C14.2211 12.3384 15.2193 11.775 15.9194 11.0952C16.5807 10.4531 16.9616 9.72 16.9616 8.6667C16.9616 7.642 16.6518 6.6619 16.0338 5.9499C15.431 5.25525 14.4794 4.75 13.0449 4.75C11.8664 4.75 10.7847 5.10085 9.958 5.6362Z" fill="#1F2723"/>
</g>
<defs>
<clipPath id="clip0_2002_1861">
<rect width="24" height="24" fill="white"/>
</clipPath>
</defs>
</svg>
