<svg width="24" height="24" viewBox="0 0 24 24" fill="none" xmlns="http://www.w3.org/2000/svg">
<g clip-path="url(#clip0_2002_1848)">
<path fill-rule="evenodd" clip-rule="evenodd" d="M21.6629 2.68437C19.4122 2.53764 15.3049 2.53764 13.0541 2.68437C12.4847 2.72149 12.1287 3.25235 12.112 3.92327C12.1098 4.01425 12.1085 4.11283 12.1085 4.21955C12.1085 4.32627 12.1098 4.42485 12.112 4.51583C12.1287 5.18676 12.4847 5.71761 13.0541 5.75471C15.3049 5.90146 19.4122 5.90146 21.6629 5.75471C22.2323 5.71761 22.5884 5.18676 22.605 4.51583C22.6073 4.42485 22.6085 4.32627 22.6085 4.21955C22.6085 4.11283 22.6073 4.01425 22.605 3.92327C22.5884 3.25235 22.2323 2.7215 21.6629 2.68437ZM21.6629 10.4651C19.4122 10.3184 15.3049 10.3184 13.0541 10.4651C12.4847 10.5023 12.1287 11.0331 12.112 11.704C12.1098 11.795 12.1085 11.8936 12.1085 12.0003C12.1085 12.107 12.1098 12.2056 12.112 12.2966C12.1287 12.9675 12.4847 13.4984 13.0541 13.5355C15.3049 13.6822 19.4122 13.6822 21.6629 13.5355C22.2323 13.4984 22.5884 12.9675 22.605 12.2966C22.6073 12.2056 22.6085 12.107 22.6085 12.0003C22.6085 11.8936 22.6073 11.795 22.605 11.704C22.5884 11.0331 22.2323 10.5023 21.6629 10.4651ZM21.6629 18.2464C19.4122 18.0997 15.3049 18.0997 13.0541 18.2464C12.4847 18.2835 12.1287 18.8144 12.112 19.4853C12.1098 19.5763 12.1085 19.6749 12.1085 19.7816C12.1085 19.8883 12.1098 19.9869 12.112 20.0779C12.1287 20.7488 12.4847 21.2796 13.0541 21.3168C15.3049 21.4635 19.4122 21.4635 21.6629 21.3168C22.2323 21.2796 22.5884 20.7488 22.605 20.0779C22.6073 19.9869 22.6085 19.8883 22.6085 19.7816C22.6085 19.6749 22.6073 19.5763 22.605 19.4853C22.5884 18.8144 22.2323 18.2835 21.6629 18.2464Z" fill="#1F2723"/>
<path d="M9.7592 1.16433C9.21033 0.615469 8.31901 0.615469 7.77015 1.16433L4.45351 4.48098L3.79205 3.81953C3.24319 3.27066 2.35187 3.27066 1.80301 3.81953C1.25414 4.36839 1.25414 5.25971 1.80301 5.80857L3.46367 7.46924C4.01254 8.01811 4.90386 8.01811 5.45272 7.46924L9.76389 3.15807C10.3128 2.60921 10.3128 1.71789 9.76389 1.16903L9.7592 1.16433Z" fill="#1F2723"/>
<path d="M9.7592 8.84754C9.21033 8.29867 8.31901 8.29867 7.77015 8.84754L4.45351 12.1642L3.79205 11.5027C3.24319 10.9539 2.35187 10.9539 1.80301 11.5027C1.25414 12.0516 1.25414 12.9429 1.80301 13.4918L3.46367 15.1524C4.01254 15.7013 4.90386 15.7013 5.45272 15.1524L9.76389 10.8413C10.3128 10.2924 10.3128 9.40109 9.76389 8.85223L9.7592 8.84754Z" fill="#1F2723"/>
<path d="M9.7592 16.5304C9.21033 15.9815 8.31901 15.9815 7.77015 16.5304L4.45351 19.847L3.79205 19.1856C3.24319 18.6367 2.35187 18.6367 1.80301 19.1856C1.25414 19.7344 1.25414 20.6258 1.80301 21.1746L3.46367 22.8353C4.01254 23.3842 4.90386 23.3842 5.45272 22.8353L9.76389 18.5241C10.3128 17.9753 10.3128 17.0839 9.76389 16.5351L9.7592 16.5304Z" fill="#1F2723"/>
</g>
<defs>
<clipPath id="clip0_2002_1848">
<rect width="24" height="24" fill="white"/>
</clipPath>
</defs>
</svg>
