<svg width="24" height="24" viewBox="0 0 24 24" fill="none" xmlns="http://www.w3.org/2000/svg">
<g clip-path="url(#clip0_2002_1745)">
<g clip-path="url(#clip1_2002_1745)">
<path fill-rule="evenodd" clip-rule="evenodd" d="M14.3008 0.751282C14.7244 0.751282 15.0678 1.09468 15.0678 1.51823V2.28518H15.8348C16.2583 2.28518 16.6017 2.62858 16.6017 3.05213C16.6017 3.47568 16.2583 3.81908 15.8348 3.81908H15.0678V4.58608C15.0678 5.00963 14.7244 5.35303 14.3008 5.35303C13.8772 5.35303 13.5339 5.00963 13.5339 4.58608V3.81913H12.7669C12.3434 3.81913 12 3.47573 12 3.05213C12 2.62853 12.3434 2.28518 12.7669 2.28518H13.5339V1.51823C13.5339 1.09468 13.8773 0.751282 14.3008 0.751282ZM9.95479 3.81913C4.58944 3.81913 0.23999 8.16858 0.23999 13.5339C0.23999 18.8992 4.58944 23.2487 9.95479 23.2487C13.9864 23.2487 17.4427 20.7929 18.9129 17.2987C19.1329 16.7757 18.9609 16.2582 18.6395 15.9382C18.3297 15.6298 17.8567 15.4706 17.3769 15.5858C16.9015 15.7 16.4046 15.7606 15.8924 15.7606C12.3952 15.7606 9.56019 12.9256 9.56019 9.42838C9.56019 8.00158 10.0312 6.68698 10.8265 5.62858C11.0902 5.27768 11.1156 4.83813 10.9639 4.48593C10.8077 4.12328 10.4435 3.81913 9.95479 3.81913ZM17.4971 5.16273C17.862 4.05298 19.4318 4.05298 19.7968 5.16273L20.5717 7.51868L22.9277 8.29358C24.0374 8.65853 24.0374 10.2284 22.9277 10.5933L20.5717 11.3682L19.7968 13.7242C19.4318 14.8339 17.862 14.8339 17.4971 13.7242L16.7222 11.3682L14.3662 10.5933C13.2565 10.2284 13.2565 8.65853 14.3662 8.29358L16.7222 7.51868L17.4971 5.16273Z" fill="#1F2723"/>
</g>
</g>
<defs>
<clipPath id="clip0_2002_1745">
<rect width="24" height="24" fill="white"/>
</clipPath>
<clipPath id="clip1_2002_1745">
<rect width="24" height="24" fill="white"/>
</clipPath>
</defs>
</svg>
