<svg width="24" height="24" viewBox="0 0 24 24" fill="none" xmlns="http://www.w3.org/2000/svg">
<g clip-path="url(#clip0_2002_1730)">
<path fill-rule="evenodd" clip-rule="evenodd" d="M8.79215 0.338781C9.5426 0.292653 10.6118 0.25 11.9999 0.25C13.3879 0.25 14.4573 0.292659 15.2079 0.33879C16.0949 0.393311 16.7605 1.13797 16.7106 2.02655C16.6858 2.46779 16.6524 2.87592 16.6194 3.22017C16.5478 3.96807 15.9786 4.5616 15.2201 4.62868C14.5236 4.69029 13.4694 4.75 11.9999 4.75C10.5304 4.75 9.4763 4.6903 8.77985 4.62869C8.02135 4.5616 7.45225 3.96809 7.38055 3.22023C7.34755 2.87595 7.31415 2.46779 7.28935 2.02651C7.2395 1.13794 7.9051 0.393303 8.79215 0.338781ZM6.0417 2.09667C6.0383 2.0359 6.03675 1.9755 6.0371 1.91552C5.5107 1.94729 5.0428 1.98107 4.63351 2.01438C3.23656 2.12811 2.15348 3.19348 2.03514 4.59309C1.89626 6.2355 1.75 8.88315 1.75 12.7501C1.75 16.6171 1.89626 19.2647 2.03514 20.9072C2.15348 22.3068 3.23656 23.3721 4.63351 23.4858C6.21485 23.6146 8.6704 23.7501 12 23.7501C15.3296 23.7501 17.7852 23.6146 19.3665 23.4858C20.7635 23.3721 21.8465 22.3068 21.9648 20.9072C22.1038 19.2647 22.25 16.6171 22.25 12.7501C22.25 8.88315 22.1038 6.2355 21.9648 4.59309C21.8465 3.19348 20.7635 2.12811 19.3665 2.01438C18.9574 1.98108 18.4897 1.94732 17.9636 1.91557C17.964 1.97555 17.9625 2.03595 17.959 2.09671C17.9332 2.55728 17.8984 2.98207 17.8641 3.33953C17.7375 4.66066 16.7149 5.7515 15.3306 5.87395C14.5946 5.93905 13.5035 6.0001 12.0002 6.0001C10.497 6.0001 9.40605 5.93905 8.67005 5.87395C7.2857 5.7515 6.2632 4.66066 6.1366 3.3396C6.10235 2.98212 6.06755 2.55728 6.0417 2.09667ZM6.25 10.5C6.25 10.0858 6.5858 9.75 7 9.75H17C17.4142 9.75 17.75 10.0858 17.75 10.5C17.75 10.9142 17.4142 11.25 17 11.25H7C6.5858 11.25 6.25 10.9142 6.25 10.5ZM7 13.75C6.5858 13.75 6.25 14.0858 6.25 14.5C6.25 14.9142 6.5858 15.25 7 15.25H17C17.4142 15.25 17.75 14.9142 17.75 14.5C17.75 14.0858 17.4142 13.75 17 13.75H7ZM6.25 18.5C6.25 18.0858 6.5858 17.75 7 17.75H17C17.4142 17.75 17.75 18.0858 17.75 18.5C17.75 18.9142 17.4142 19.25 17 19.25H7C6.5858 19.25 6.25 18.9142 6.25 18.5Z" fill="#1F2723"/>
</g>
<defs>
<clipPath id="clip0_2002_1730">
<rect width="24" height="24" fill="white"/>
</clipPath>
</defs>
</svg>
