<svg width="24" height="24" viewBox="0 0 24 24" fill="none" xmlns="http://www.w3.org/2000/svg">
<g clip-path="url(#clip0_2002_1738)">
<path fill-rule="evenodd" clip-rule="evenodd" d="M8.6271 1.77307C9.33435 1.75845 10.1228 1.75 11.0006 1.75C11.878 1.75 12.6661 1.75845 13.3731 1.77305C13.7932 1.78173 14.1232 2.15305 14.0739 2.58955L13.9616 3.58415C13.9188 3.9634 13.598 4.25 13.2163 4.25H8.7839C8.40225 4.25 8.08145 3.9634 8.0386 3.58416L7.9263 2.58956C7.877 2.15306 8.207 1.78175 8.6271 1.77307ZM11.0006 0.25C10.1132 0.25 9.3144 0.258547 8.5961 0.273391C7.7955 0.289938 7.11845 0.72308 6.74155 1.34981C5.9165 1.39099 5.2219 1.44028 4.65769 1.48844C3.23213 1.61013 2.12263 2.70991 2.00295 4.14156C1.88105 5.5999 1.75 7.98495 1.75 11.5C1.75 15.015 1.88105 17.4001 2.00295 18.8584C2.12263 20.2901 3.23213 21.3899 4.65769 21.5116C5.04625 21.5448 5.4967 21.5784 6.00895 21.6096C5.9743 21.4396 5.94895 21.265 5.93345 21.0866C5.8343 19.9457 5.75 18.2449 5.75 15.75C5.75 13.2551 5.8343 11.5542 5.93345 10.4134C6.1279 8.17595 7.8717 6.5635 10.022 6.4011C11.0925 6.32025 12.6316 6.25 14.75 6.25C16.8684 6.25 18.4075 6.32025 19.4779 6.4011C19.7056 6.4183 19.9286 6.45175 20.1458 6.50045C20.1016 5.53865 20.0485 4.75747 19.997 4.14156C19.8773 2.70991 18.7679 1.61013 17.3423 1.48844C16.7782 1.44028 16.0837 1.391 15.2587 1.34983C14.8818 0.72307 14.2048 0.289914 13.4041 0.273374C12.6861 0.25854 11.8875 0.25 11.0006 0.25ZM22.0722 10.5433C22.1667 11.6309 22.25 13.2872 22.25 15.75C22.25 18.2128 22.1667 19.8691 22.0722 20.9568C21.944 22.4319 20.8129 23.4938 19.365 23.6031C18.3368 23.6808 16.8356 23.75 14.75 23.75C12.6644 23.75 11.1633 23.6808 10.135 23.6031C8.6871 23.4938 7.556 22.4319 7.4278 20.9568C7.3333 19.8691 7.25 18.2128 7.25 15.75C7.25 13.2872 7.3333 11.6309 7.4278 10.5433C7.556 9.0681 8.6871 8.0062 10.135 7.89685C11.1633 7.8192 12.6644 7.75 14.75 7.75C16.8356 7.75 18.3368 7.8192 19.365 7.89685C20.8129 8.0062 21.944 9.0681 22.0722 10.5433ZM11.5 11.75C11.0858 11.75 10.75 12.0858 10.75 12.5C10.75 12.9142 11.0858 13.25 11.5 13.25H18C18.4142 13.25 18.75 12.9142 18.75 12.5C18.75 12.0858 18.4142 11.75 18 11.75H11.5ZM10.75 16C10.75 15.5858 11.0858 15.25 11.5 15.25H18C18.4142 15.25 18.75 15.5858 18.75 16C18.75 16.4142 18.4142 16.75 18 16.75H11.5C11.0858 16.75 10.75 16.4142 10.75 16Z" fill="#1F2723"/>
</g>
<defs>
<clipPath id="clip0_2002_1738">
<rect width="24" height="24" fill="white"/>
</clipPath>
</defs>
</svg>
