<svg width="24" height="24" viewBox="0 0 24 24" fill="none" xmlns="http://www.w3.org/2000/svg">
<g clip-path="url(#clip0_2002_1756)">
<path d="M6.95825 21.1714C8.07675 21.21 9.39295 21.238 10.9324 21.247C10.9548 21.249 10.9774 21.25 11 21.25H18C18.0629 21.25 18.124 21.2423 18.1824 21.2276C19.7954 21.1038 21.1808 20.4646 22.1719 19.4005C23.1905 18.3068 23.7453 16.815 23.7498 15.1076L23.75 15.001V14.999L23.7498 14.8924C23.7451 13.1121 23.1419 11.5668 22.0408 10.4635C21.0583 9.47915 19.7239 8.89095 18.1828 8.7724C17.9716 7.10905 17.2673 5.676 16.1597 4.62063C14.9008 3.42115 13.1691 2.75508 11.1788 2.75022C11.1197 2.75008 11.0602 2.75 11 2.75C10.9398 2.75 10.8803 2.75008 10.8212 2.75022C8.9066 2.7549 7.23075 3.37135 5.98445 4.4875C4.83683 5.5153 4.09061 6.93385 3.84202 8.5928C1.66849 9.673 0.25 11.8125 0.25 14.5C0.25 18.3743 3.17454 21.041 6.95825 21.1714Z" fill="#1F2723"/>
</g>
<defs>
<clipPath id="clip0_2002_1756">
<rect width="24" height="24" fill="white"/>
</clipPath>
</defs>
</svg>
