<svg width="24" height="24" viewBox="0 0 24 24" fill="none" xmlns="http://www.w3.org/2000/svg">
<g clip-path="url(#clip0_2002_1828)">
<path fill-rule="evenodd" clip-rule="evenodd" d="M11.3 0.250077C10.7478 0.243308 10.2947 0.6855 10.2879 1.23775C10.2811 1.78999 10.7233 2.24316 11.2755 2.24993C12.0008 2.25882 12.6624 2.27438 13.2625 2.29432C13.8144 2.31267 14.2768 1.88007 14.2951 1.32809C14.3134 0.77611 13.8808 0.313772 13.3289 0.295426C12.7146 0.275007 12.0391 0.259135 11.3 0.250077ZM8.29035 2.25283C8.8426 2.24491 9.28385 1.79082 9.27595 1.23859C9.268 0.68636 8.8139 0.24511 8.2617 0.253029C7.5201 0.263662 6.8445 0.281163 6.23235 0.303115C5.6804 0.322909 5.24905 0.78638 5.26885 1.33831C5.2886 1.89024 5.7521 2.32163 6.304 2.30183C6.90155 2.2804 7.56285 2.26326 8.29035 2.25283ZM16.5068 0.499138C15.9656 0.389036 15.4376 0.73851 15.3275 1.27971C15.2174 1.82091 15.5669 2.34889 16.1081 2.45899C16.6867 2.5767 17.1282 2.98718 17.2908 3.53908C17.4469 4.06884 18.0029 4.37173 18.5327 4.2156C19.0625 4.05948 19.3654 3.50346 19.2092 2.9737C18.8373 1.7117 17.8112 0.764525 16.5068 0.499138ZM3.53891 2.49293C4.0687 2.33691 4.3717 1.78095 4.21568 1.25117C4.05966 0.721375 3.5037 0.418375 2.97391 0.574395C1.68654 0.95352 0.72788 2.01292 0.48454 3.35278C0.385851 3.89618 0.746355 4.41669 1.28975 4.51538C1.83315 4.61407 2.35366 4.25357 2.45235 3.71017C2.56067 3.11373 2.97678 2.65848 3.53891 2.49293ZM2.30183 6.30395C2.32163 5.75205 1.89024 5.28855 1.33831 5.2688C0.78638 5.249 0.322909 5.68035 0.303117 6.2323C0.281167 6.84445 0.263664 7.52005 0.25303 8.26165C0.245112 8.81385 0.68636 9.26795 1.23859 9.27585C1.79082 9.2838 2.24491 8.84255 2.25283 8.2903C2.26326 7.5628 2.28041 6.9015 2.30183 6.30395ZM2.24993 11.2754C2.24316 10.7232 1.78999 10.281 1.23775 10.2878C0.6855 10.2945 0.243308 10.7477 0.250077 11.2999C0.259135 12.0389 0.275009 12.7144 0.295428 13.3287C0.313774 13.8807 0.776115 14.3133 1.3281 14.295C1.88008 14.2767 2.31267 13.8143 2.29433 13.2624C2.27438 12.6623 2.25882 12.0007 2.24993 11.2754ZM2.45899 16.108C2.3489 15.5668 1.82092 15.2172 1.27972 15.3273C0.738515 15.4374 0.389036 15.9655 0.499132 16.5067C0.764545 17.8114 1.71199 18.8375 2.97428 19.2092C3.50406 19.3653 4.06003 19.0623 4.21607 18.5326C4.37211 18.0028 4.06913 17.4468 3.53934 17.2908C2.98729 17.1282 2.57671 16.6866 2.45899 16.108ZM5.43885 8.4804C5.34165 9.8169 5.25 11.7947 5.25 14.5C5.25 17.2053 5.34165 19.1831 5.43885 20.5196C5.5588 22.1694 6.83055 23.4412 8.4804 23.5611C9.8169 23.6583 11.7947 23.75 14.5 23.75C17.2053 23.75 19.1831 23.6583 20.5196 23.5611C22.1694 23.4412 23.4412 22.1694 23.5611 20.5196C23.6583 19.1831 23.75 17.2053 23.75 14.5C23.75 11.7947 23.6583 9.8169 23.5611 8.4804C23.4412 6.8306 22.1694 5.5588 20.5196 5.43885C19.1831 5.3417 17.2053 5.25 14.5 5.25C11.7947 5.25 9.8169 5.34165 8.4804 5.43885C6.8306 5.5588 5.5588 6.83055 5.43885 8.4804Z" fill="#1F2723"/>
</g>
<defs>
<clipPath id="clip0_2002_1828">
<rect width="24" height="24" fill="white"/>
</clipPath>
</defs>
</svg>
