<svg width="24" height="24" viewBox="0 0 24 24" fill="none" xmlns="http://www.w3.org/2000/svg">
<g clip-path="url(#clip0_2002_1889)">
<g clip-path="url(#clip1_2002_1889)">
<path fill-rule="evenodd" clip-rule="evenodd" d="M12 0C10.5376 0 9.40366 0.0742376 8.61901 0.151593C7.65937 0.246198 6.75809 0.619506 6.01266 1.23117C5.40311 1.73131 4.54877 2.48067 3.51472 3.51471C2.48067 4.54877 1.7313 5.40312 1.23116 6.01266C0.619506 6.75809 0.246206 7.65932 0.151599 8.61896C0.0742407 9.40361 0 10.5376 0 12C0 13.4624 0.0742407 14.5964 0.151599 15.381C0.246206 16.3406 0.619506 17.2419 1.23116 17.9873C1.73129 18.5968 2.48066 19.4512 3.5147 20.4853C4.54875 21.5193 5.40311 22.2687 6.01266 22.7688C6.75809 23.3805 7.65937 23.7538 8.61901 23.8484C9.40366 23.9258 10.5376 24 12 24C13.4624 24 14.5963 23.9258 15.381 23.8484C16.3406 23.7538 17.2419 23.3805 17.9873 22.7688C18.5969 22.2687 19.4512 21.5193 20.4853 20.4853C21.5193 19.4512 22.2687 18.5969 22.7689 17.9873C23.3805 17.2419 23.7538 16.3406 23.8484 15.381C23.9258 14.5964 24 13.4624 24 12C24 10.5376 23.9258 9.40366 23.8484 8.61896C23.7538 7.65937 23.3805 6.75809 22.7689 6.01266C22.2687 5.40312 21.5193 4.54876 20.4853 3.51471C19.4512 2.48068 18.5969 1.73132 17.9874 1.23118C17.2419 0.619506 16.3406 0.246197 15.381 0.151592C14.5963 0.0742366 13.4624 0 12 0ZM14.6372 11.9946L17.0102 14.3661L17.004 14.3723C17.7122 15.08 17.7122 16.2223 17.004 16.93L16.9295 17.0045C16.2213 17.7123 15.0783 17.7123 14.3701 17.0045L11.9971 14.633L9.66139 16.9673C8.93458 17.6936 7.75429 17.6936 7.02748 16.9673C6.30067 16.2409 6.30067 15.0614 7.02748 14.335L9.36321 12.0008L6.99021 9.62929C6.28825 8.92156 6.28825 7.77306 6.99642 7.06533L7.07097 6.99084C7.77293 6.28932 8.92216 6.28932 9.63033 6.99084L12.0033 9.36234L14.3391 7.02809C15.0659 6.30173 16.2462 6.30173 16.973 7.02809C17.6998 7.75444 17.6998 8.93398 16.973 9.66033L14.6372 11.9946Z" fill="#1F2723"/>
</g>
</g>
<defs>
<clipPath id="clip0_2002_1889">
<rect width="24" height="24" fill="white"/>
</clipPath>
<clipPath id="clip1_2002_1889">
<rect width="24" height="24" fill="white"/>
</clipPath>
</defs>
</svg>
