<svg width="24" height="24" viewBox="0 0 24 24" fill="none" xmlns="http://www.w3.org/2000/svg">
<g clip-path="url(#clip0_2002_1881)">
<path fill-rule="evenodd" clip-rule="evenodd" d="M3.40047 16.1389C4.06874 16.2028 4.92562 16.25 6 16.25C7.0744 16.25 7.93125 16.2028 8.59955 16.1389C10.1407 15.9914 11.1407 14.7368 11.1906 13.282C11.2231 12.3368 11.25 10.962 11.25 9C11.25 7.038 11.2231 5.66319 11.1906 4.718C11.1407 3.26313 10.1407 2.00859 8.59955 1.86109C7.93125 1.79714 7.0744 1.75 6 1.75C4.92562 1.75 4.06874 1.79714 3.40047 1.86109C1.85926 2.00859 0.859365 3.26313 0.80938 4.71801C0.7769 5.66319 0.75 7.038 0.75 9C0.75 10.962 0.7769 12.3368 0.80938 13.282C0.85937 14.7368 1.85926 15.9914 3.40047 16.1389ZM15.4004 24.1389C16.0687 24.2029 16.9256 24.25 18 24.25C19.0744 24.25 19.9312 24.2029 20.5996 24.1389C22.1408 23.9914 23.1406 22.7368 23.1906 21.282C23.2231 20.3368 23.25 18.962 23.25 17C23.25 15.038 23.2231 13.6632 23.1906 12.718C23.1406 11.2632 22.1408 10.0086 20.5996 9.8611C19.9312 9.79715 19.0744 9.75 18 9.75C16.9256 9.75 16.0687 9.79715 15.4004 9.8611C13.8593 10.0086 12.8593 11.2632 12.8094 12.718C12.7769 13.6632 12.75 15.038 12.75 17C12.75 18.962 12.7769 20.3368 12.8094 21.282C12.8593 22.7368 13.8593 23.9914 15.4004 24.1389ZM11.25 21C11.25 21.4044 11.2345 21.7532 11.2091 22.0534C11.0907 23.4499 9.9031 24.1597 8.74445 24.2019C8.0395 24.2275 7.10525 24.25 6 24.25C4.89477 24.25 3.96047 24.2275 3.25557 24.2019C2.09688 24.1597 0.909305 23.4499 0.790955 22.0534C0.76551 21.7532 0.75 21.4044 0.75 21C0.75 20.5956 0.76551 20.2468 0.790955 19.9466C0.909305 18.5501 2.09688 17.8403 3.25557 17.7981C3.96047 17.7725 4.89477 17.75 6 17.75C7.10525 17.75 8.0395 17.7725 8.74445 17.7981C9.9031 17.8403 11.0907 18.5501 11.2091 19.9466C11.2345 20.2468 11.25 20.5956 11.25 21ZM23.209 6.0534C23.2345 5.75318 23.25 5.40442 23.25 5C23.25 4.59558 23.2345 4.24682 23.209 3.94659C23.0907 2.55004 21.9031 1.84028 20.7444 1.79817C20.0395 1.77255 19.1052 1.75 18 1.75C16.8948 1.75 15.9605 1.77255 15.2556 1.79817C14.0969 1.84028 12.9093 2.55004 12.7909 3.94659C12.7655 4.24682 12.75 4.59558 12.75 5C12.75 5.40442 12.7655 5.75319 12.7909 6.0534C12.9093 7.44995 14.0969 8.1597 15.2556 8.20185C15.9605 8.22745 16.8948 8.25 18 8.25C19.1052 8.25 20.0395 8.22745 20.7444 8.20185C21.9031 8.1597 23.0907 7.44995 23.209 6.0534Z" fill="#1F2723"/>
</g>
<defs>
<clipPath id="clip0_2002_1881">
<rect width="24" height="24" fill="white"/>
</clipPath>
</defs>
</svg>
