<svg width="24" height="24" viewBox="0 0 24 24" fill="none" xmlns="http://www.w3.org/2000/svg">
<g clip-path="url(#clip0_2002_1726)">
<path fill-rule="evenodd" clip-rule="evenodd" d="M4.875 1.75C2.25165 1.75 0.125 3.87665 0.125 6.5C0.125 8.08545 0.902025 9.48945 2.09494 10.3518C2.64211 10.7976 3.49467 11.3698 4.51996 12C3.49467 12.6302 2.64211 13.2024 2.09493 13.6482C0.902025 14.5106 0.125 15.9145 0.125 17.5C0.125 20.1234 2.25165 22.25 4.875 22.25C6.9236 22.25 8.66925 20.9531 9.33585 19.1355C9.5229 18.6255 9.625 18.0746 9.625 17.4998C9.625 16.0795 9.00135 14.8047 8.01375 13.9346C8.5469 13.892 10.6612 13.75 15.125 13.75C15.3986 13.75 15.6633 13.7505 15.9194 13.7515C14.527 13.2306 13.0108 12.6368 11.51 12C15.6699 10.2351 19.9477 8.8001 21.3805 8.332C21.7826 8.2006 22.0225 7.73475 21.7707 7.3309C21.3032 6.5812 20.1479 5.25 17.875 5.25C17.0949 5.25 16.0578 5.54585 14.965 5.968C13.8642 6.3932 12.6772 6.9586 11.5863 7.52165C10.5722 8.04505 9.6378 8.56815 8.928 8.97825C9.37005 8.2568 9.625 7.40815 9.625 6.5C9.625 3.87665 7.49835 1.75 4.875 1.75ZM3.625 6.5C3.625 5.80965 4.18465 5.25 4.875 5.25C5.56535 5.25 6.125 5.80965 6.125 6.5C6.125 7.19035 5.56535 7.75 4.875 7.75C4.18465 7.75 3.625 7.19035 3.625 6.5ZM3.625 17.5C3.625 16.8097 4.18465 16.25 4.875 16.25C5.56535 16.25 6.125 16.8097 6.125 17.5C6.125 18.1903 5.56535 18.75 4.875 18.75C4.18465 18.75 3.625 18.1903 3.625 17.5ZM17.125 15.5C16.5727 15.5 16.125 15.9477 16.125 16.5C16.125 17.0523 16.5727 17.5 17.125 17.5H18.625C19.1773 17.5 19.625 17.0523 19.625 16.5C19.625 15.9477 19.1773 15.5 18.625 15.5H17.125ZM21.375 15.5C20.8227 15.5 20.375 15.9477 20.375 16.5C20.375 17.0523 20.8227 17.5 21.375 17.5H22.875C23.4273 17.5 23.875 17.0523 23.875 16.5C23.875 15.9477 23.4273 15.5 22.875 15.5H21.375ZM12.875 15.5C12.3227 15.5 11.875 15.9477 11.875 16.5C11.875 17.0523 12.3227 17.5 12.875 17.5H14.375C14.9273 17.5 15.375 17.0523 15.375 16.5C15.375 15.9477 14.9273 15.5 14.375 15.5H12.875Z" fill="#1F2723"/>
</g>
<defs>
<clipPath id="clip0_2002_1726">
<rect width="24" height="24" fill="white"/>
</clipPath>
</defs>
</svg>
