<svg width="24" height="24" viewBox="0 0 24 24" fill="none" xmlns="http://www.w3.org/2000/svg">
<g clip-path="url(#clip0_2002_1839)">
<path fill-rule="evenodd" clip-rule="evenodd" d="M15.5 4C15.5 2.06701 13.933 0.5 12 0.5C10.067 0.5 8.5 2.06701 8.5 4C8.5 5.933 10.067 7.5 12 7.5C13.933 7.5 15.5 5.933 15.5 4ZM15.5 20C15.5 18.067 13.933 16.5 12 16.5C10.067 16.5 8.5 18.067 8.5 20C8.5 21.933 10.067 23.5 12 23.5C13.933 23.5 15.5 21.933 15.5 20ZM12 8.5C13.933 8.5 15.5 10.067 15.5 12C15.5 13.933 13.933 15.5 12 15.5C10.067 15.5 8.5 13.933 8.5 12C8.5 10.067 10.067 8.5 12 8.5Z" fill="#1F2723"/>
</g>
<defs>
<clipPath id="clip0_2002_1839">
<rect width="24" height="24" fill="white"/>
</clipPath>
</defs>
</svg>
