<svg width="24" height="24" viewBox="0 0 24 24" fill="none" xmlns="http://www.w3.org/2000/svg">
<g clip-path="url(#clip0_2002_1847)">
<path fill-rule="evenodd" clip-rule="evenodd" d="M4 8.5C2.06701 8.5 0.5 10.067 0.5 12C0.5 13.933 2.06701 15.5 4 15.5C5.933 15.5 7.5 13.933 7.5 12C7.5 10.067 5.933 8.5 4 8.5ZM20 8.5C18.067 8.5 16.5 10.067 16.5 12C16.5 13.933 18.067 15.5 20 15.5C21.933 15.5 23.5 13.933 23.5 12C23.5 10.067 21.933 8.5 20 8.5ZM8.5 12C8.5 10.067 10.067 8.5 12 8.5C13.933 8.5 15.5 10.067 15.5 12C15.5 13.933 13.933 15.5 12 15.5C10.067 15.5 8.5 13.933 8.5 12Z" fill="#1F2723"/>
</g>
<defs>
<clipPath id="clip0_2002_1847">
<rect width="24" height="24" fill="white"/>
</clipPath>
</defs>
</svg>
