<svg width="24" height="24" viewBox="0 0 24 24" fill="none" xmlns="http://www.w3.org/2000/svg">
<g clip-path="url(#clip0_2002_1727)">
<path fill-rule="evenodd" clip-rule="evenodd" d="M0.5 8C0.5 6.067 2.06701 4.5 4 4.5C5.933 4.5 7.5 6.067 7.5 8C7.5 9.933 5.933 11.5 4 11.5C2.06701 11.5 0.5 9.933 0.5 8ZM0.5 16C0.5 14.067 2.06701 12.5 4 12.5C5.933 12.5 7.5 14.067 7.5 16C7.5 17.933 5.933 19.5 4 19.5C2.067 19.5 0.5 17.933 0.5 16ZM20 12.5C18.067 12.5 16.5 14.067 16.5 16C16.5 17.933 18.067 19.5 20 19.5C21.933 19.5 23.5 17.933 23.5 16C23.5 14.067 21.933 12.5 20 12.5ZM16.5 8C16.5 6.067 18.067 4.5 20 4.5C21.933 4.5 23.5 6.067 23.5 8C23.5 9.933 21.933 11.5 20 11.5C18.067 11.5 16.5 9.933 16.5 8ZM12 12.5C10.067 12.5 8.5 14.067 8.5 16C8.5 17.933 10.067 19.5 12 19.5C13.933 19.5 15.5 17.933 15.5 16C15.5 14.067 13.933 12.5 12 12.5ZM8.5 8C8.5 6.067 10.067 4.5 12 4.5C13.933 4.5 15.5 6.067 15.5 8C15.5 9.933 13.933 11.5 12 11.5C10.067 11.5 8.5 9.933 8.5 8Z" fill="#1F2723"/>
</g>
<defs>
<clipPath id="clip0_2002_1727">
<rect width="24" height="24" fill="white"/>
</clipPath>
</defs>
</svg>
