<svg width="24" height="24" viewBox="0 0 24 24" fill="none" xmlns="http://www.w3.org/2000/svg">
<g clip-path="url(#clip0_2002_1754)">
<g clip-path="url(#clip1_2002_1754)">
<path fill-rule="evenodd" clip-rule="evenodd" d="M10.9655 17.4991C9.3102 17.4941 7.91195 17.4663 6.73915 17.4263C3.08223 17.3016 0.25 14.7562 0.25 10.9999C0.25 8.29532 1.73052 6.18412 3.96793 5.19122C4.71908 2.03987 7.343 0.00856703 10.8212 6.50886e-05C10.8803 -7.92144e-05 10.9398 -0.000152588 11 -0.000152588C11.0602 -0.000152588 11.1197 -7.92144e-05 11.1788 6.50286e-05C13.0754 0.00470096 14.7379 0.60966 15.9807 1.70638C17.0692 2.66694 17.8029 3.97601 18.1005 5.50792C19.6938 5.58192 21.0761 6.16242 22.0818 7.16812C23.1604 8.24682 23.75 9.75892 23.75 11.4999C23.75 13.1938 23.192 14.6715 22.1668 15.7445C21.1592 16.7992 19.7488 17.4121 18.1149 17.4911C18.0774 17.4969 18.039 17.4999 18 17.4999H11C10.9885 17.4999 10.9769 17.4996 10.9655 17.4991ZM14.1183 20.3089C14.4271 19.6914 14.1768 18.9406 13.5593 18.6318C12.9418 18.3231 12.191 18.5734 11.8822 19.1909L11.5 20.0001C11.1912 20.6175 11.4416 21.3684 12.059 21.6771C12.6765 21.9859 13.4273 21.7356 13.7361 21.1181L14.1183 20.3089Z" fill="#1F2723"/>
<path d="M4.9593 18.6318C5.57675 18.9406 5.82705 19.6914 5.5183 20.3089L5.13599 21.1181C4.82724 21.7356 4.07644 21.9859 3.45894 21.6771C2.84149 21.3684 2.59119 20.6175 2.89994 20.0001L3.28225 19.1909C3.591 18.5734 4.3418 18.3231 4.9593 18.6318Z" fill="#1F2723"/>
<path d="M8.84161 20.8226C9.45906 21.1313 9.70936 21.8822 9.40061 22.4997L9.01831 23.3089C8.70957 23.9264 7.95873 24.1767 7.34125 23.8679C6.72378 23.5592 6.47351 22.8083 6.78224 22.1909L7.16457 21.3816C7.47332 20.7641 8.22411 20.5139 8.84161 20.8226Z" fill="#1F2723"/>
<path d="M17.4416 20.8226C18.0591 21.1313 18.3094 21.8822 18.0006 22.4997L17.6183 23.3089C17.3096 23.9264 16.5588 24.1767 15.9412 23.8679C15.3238 23.5592 15.0735 22.8083 15.3822 22.1909L15.7646 21.3816C16.0733 20.7641 16.8241 20.5139 17.4416 20.8226Z" fill="#1F2723"/>
</g>
</g>
<defs>
<clipPath id="clip0_2002_1754">
<rect width="24" height="24" fill="white"/>
</clipPath>
<clipPath id="clip1_2002_1754">
<rect width="24" height="24" fill="white"/>
</clipPath>
</defs>
</svg>
