<svg width="24" height="24" viewBox="0 0 24 24" fill="none" xmlns="http://www.w3.org/2000/svg">
<g clip-path="url(#clip0_2002_1743)">
<path d="M8.17236 21.8686C8.41689 21.3801 9.01081 21.182 9.49951 21.4263C9.98832 21.6707 10.1863 22.2655 9.94189 22.7544L9.63916 23.395C9.39465 23.8834 8.80066 24.0816 8.31201 23.8374C7.82319 23.593 7.62522 22.9981 7.86963 22.5093L8.17236 21.8686Z" fill="#1F2723"/>
<path d="M14.98 21.8686C15.2244 21.3799 15.8193 21.1819 16.3081 21.4263C16.7968 21.6707 16.9949 22.2656 16.7505 22.7544L16.4478 23.395C16.2032 23.8836 15.6084 24.0818 15.1196 23.8374C14.631 23.5929 14.4329 22.998 14.6772 22.5093L14.98 21.8686Z" fill="#1F2723"/>
<path d="M5.09814 20.1343C5.3426 19.6455 5.93746 19.4475 6.42627 19.6919C6.91504 19.9363 7.11307 20.5312 6.86865 21.02L6.56592 21.6606C6.32146 22.1491 5.72744 22.3471 5.23877 22.103C4.74996 21.8586 4.55099 21.2637 4.79541 20.7749L5.09814 20.1343Z" fill="#1F2723"/>
<path d="M11.9067 20.1343C12.1512 19.6456 12.7461 19.4475 13.2349 19.6919C13.7234 19.9364 13.9216 20.5313 13.6772 21.02L13.3745 21.6606C13.13 22.1493 12.5352 22.3474 12.0464 22.103C11.5577 21.8585 11.3596 21.2637 11.604 20.7749L11.9067 20.1343Z" fill="#1F2723"/>
<path d="M11.3501 4.94189C11.5535 4.94239 11.7535 4.95247 11.9497 4.97021C12.0202 4.97658 12.0902 4.98313 12.1597 4.99169C12.1812 4.99434 12.2027 4.99762 12.2241 5.00048C12.287 5.00888 12.3496 5.01764 12.4116 5.02782C12.4338 5.03147 12.4559 5.03567 12.478 5.03954C12.5443 5.05116 12.61 5.06398 12.6753 5.07763C12.6936 5.08145 12.7118 5.08537 12.73 5.08935C12.7897 5.10242 12.8489 5.11657 12.9077 5.13134C12.9312 5.13723 12.9547 5.14276 12.978 5.14892C13.0387 5.16496 13.099 5.18185 13.1587 5.1997C13.1789 5.20575 13.1991 5.21199 13.2192 5.21825C13.4556 5.29175 13.6837 5.37946 13.9028 5.48095C13.9215 5.48958 13.94 5.49848 13.9585 5.50732C14.0062 5.53006 14.0533 5.55358 14.1001 5.57763C14.1316 5.59383 14.1627 5.61064 14.1938 5.62743C14.2405 5.65261 14.2868 5.67809 14.3325 5.70458C14.3465 5.71271 14.3606 5.72075 14.3745 5.729C14.4259 5.75943 14.4767 5.79065 14.5269 5.82275C14.5488 5.83682 14.5705 5.85132 14.5923 5.86571C14.6351 5.89404 14.6774 5.92308 14.7192 5.95263C14.7435 5.96972 14.7676 5.98689 14.7915 6.00439C14.8182 6.02389 14.8444 6.04395 14.8706 6.06396C14.9072 6.09184 14.9442 6.11909 14.98 6.14794C15.038 6.19476 15.0949 6.24312 15.1509 6.29247C15.2047 6.33995 15.2575 6.38838 15.3091 6.43798C15.3825 6.50858 15.4531 6.58194 15.522 6.65673C15.8408 7.00284 16.1115 7.39238 16.3276 7.81982C16.3934 7.94982 16.4536 8.08352 16.5093 8.22021C16.6206 8.49333 16.7121 8.77922 16.7817 9.07665C16.7992 9.15111 16.8149 9.22638 16.8296 9.30224C16.923 9.30658 17.0154 9.31306 17.1069 9.32177C17.1092 9.32199 17.1115 9.32252 17.1138 9.32275C17.1983 9.3309 17.2819 9.34215 17.3647 9.354C17.3703 9.35479 17.3758 9.35515 17.3813 9.35595H17.3794C18.4088 9.50598 19.303 9.93877 19.981 10.6167C20.8349 11.4707 21.3022 12.6681 21.3022 14.0464C21.3022 15.3872 20.8598 16.5573 20.0483 17.4067C19.2508 18.2414 18.1344 18.7259 16.8413 18.7886C16.8117 18.7931 16.7804 18.7954 16.7495 18.7954H11.1812C9.87086 18.7915 8.76385 18.7694 7.83545 18.7378C4.94043 18.6391 2.69775 16.6236 2.69775 13.6499C2.69784 11.5089 3.86993 9.83727 5.64111 9.05126C6.23587 6.55667 8.31344 4.94862 11.0669 4.94189H11.3501Z" fill="#1F2723"/>
<path d="M16.6733 0.0590741C16.9159 0.0643281 17.0747 0.232934 17.1274 0.40966C17.1781 0.579733 17.144 0.787327 16.9956 0.936027C16.0614 1.87035 16.0613 3.38554 16.9956 4.31982C17.9299 5.25372 19.4442 5.25383 20.3784 4.31982C20.5272 4.17102 20.7355 4.13617 20.9058 4.187C21.0824 4.23982 21.2511 4.39874 21.2563 4.64111C21.2829 5.87326 20.8259 7.11548 19.8853 8.05614C19.6616 8.27979 19.42 8.47507 19.1665 8.64404C18.7269 8.44797 18.259 8.30464 17.771 8.2163C17.4113 7.12067 16.7909 6.15644 15.937 5.40282C14.8621 4.45437 13.4937 3.90367 11.9868 3.78075C12.1667 2.91939 12.5906 2.09885 13.2593 1.43017C14.1999 0.489579 15.4412 0.0325565 16.6733 0.0590741Z" fill="#1F2723"/>
</g>
<defs>
<clipPath id="clip0_2002_1743">
<rect width="24" height="24" fill="white"/>
</clipPath>
</defs>
</svg>
