<svg width="24" height="24" viewBox="0 0 24 24" fill="none" xmlns="http://www.w3.org/2000/svg">
<g clip-path="url(#clip0_2002_1853)">
<path fill-rule="evenodd" clip-rule="evenodd" d="M12 1.67502C11.5442 1.67502 11.1442 1.72107 10.8006 1.79047C9.57997 2.037 9.09302 3.2221 9.14082 4.24848C9.24857 6.56231 9.48202 11.1311 9.73782 13.2772C9.82802 14.034 10.3133 14.8019 11.2214 14.919C11.4427 14.9475 11.7008 14.9654 12.0003 14.9654C12.2998 14.9654 12.5579 14.9475 12.7792 14.919C13.6873 14.8019 14.1725 14.034 14.2627 13.2771C14.5184 11.131 14.7516 6.56216 14.8592 4.24834C14.907 3.22203 14.42 2.03703 13.1995 1.7905C12.8558 1.72108 12.4558 1.67502 12 1.67502ZM12.0002 16.8454C10.4871 16.8454 9.26042 18.0721 9.26042 19.5852C9.26042 21.0983 10.4871 22.325 12.0002 22.325C13.5133 22.325 14.74 21.0983 14.74 19.5852C14.74 18.0721 13.5133 16.8454 12.0002 16.8454Z" fill="#1F2723"/>
</g>
<defs>
<clipPath id="clip0_2002_1853">
<rect width="24" height="24" fill="white"/>
</clipPath>
</defs>
</svg>
