<svg width="24" height="24" viewBox="0 0 24 24" fill="none" xmlns="http://www.w3.org/2000/svg">
<g clip-path="url(#clip0_2002_1830)">
<path fill-rule="evenodd" clip-rule="evenodd" d="M12.0002 16.8454C10.4871 16.8454 9.26042 18.0721 9.26042 19.5852C9.26042 21.0983 10.4871 22.325 12.0002 22.325C13.5133 22.325 14.74 21.0983 14.74 19.5852C14.74 18.0721 13.5133 16.8454 12.0002 16.8454Z" fill="#1F2723"/>
<path fill-rule="evenodd" clip-rule="evenodd" d="M14.1984 1.75241C13.0236 1.68619 11.6171 1.61474 9.60193 1.7593C8.99036 1.80317 8.45246 2.18656 8.22651 2.75521C7.21145 5.30984 6.73395 7.66763 6.53417 8.89381C6.41065 9.65185 6.97837 10.3031 7.72286 10.3532C8.41565 10.3998 9.45501 10.4494 10.6727 10.4419C10.5434 11.4487 10.4084 12.8052 10.2746 14.2607C10.1604 15.5026 11.6615 16.171 12.5261 15.285C14.9903 12.7596 16.2557 9.9247 17.4717 8.34385C18.1237 7.49626 17.5384 6.33828 16.4838 6.31028C15.9388 6.29579 15.6142 6.2872 14.8059 6.29435C15.0339 5.34064 15.2396 4.30256 15.4284 3.30248C15.5765 2.51796 14.996 1.79736 14.1984 1.75241Z" fill="#1F2723"/>
</g>
<defs>
<clipPath id="clip0_2002_1830">
<rect width="24" height="24" fill="white"/>
</clipPath>
</defs>
</svg>
