<svg width="24" height="24" viewBox="0 0 24 24" fill="none" xmlns="http://www.w3.org/2000/svg">
<path d="M12 8C14.2092 8 16 9.79086 16 12C16 14.2091 14.2092 16 12 16C9.79087 16 8.00001 14.2091 8.00001 12C8.00001 11.4411 8.1143 10.9089 8.3213 10.4258C8.59594 10.775 9.0213 11 9.50001 11C10.3284 11 11 10.3284 11 9.5C11 9.02128 10.775 8.59593 10.4258 8.32129C10.9089 8.11428 11.4411 8 12 8Z" fill="#1F2723"/>
<path fill-rule="evenodd" clip-rule="evenodd" d="M12 2.75C17.5367 2.75 22.2228 6.36496 23.6533 11.3242C23.7798 11.7627 23.7804 12.2284 23.6543 12.667C22.2268 17.6307 17.538 21.25 11.9981 21.25C6.46139 21.2499 1.7752 17.635 0.344739 12.6758C0.218248 12.2372 0.218593 11.7717 0.344739 11.333C1.77224 6.36934 6.46013 2.75011 12 2.75ZM12 6.5C8.96246 6.5 6.50001 8.96245 6.50001 12C6.50001 15.0375 8.96246 17.5 12 17.5C15.0376 17.5 17.5 15.0375 17.5 12C17.5 8.96245 15.0376 6.5 12 6.5Z" fill="#1F2723"/>
</svg>
