<svg width="24" height="24" viewBox="0 0 24 24" fill="none" xmlns="http://www.w3.org/2000/svg">
<g clip-path="url(#clip0_2002_1866)">
<path d="M0.823438 0.793466C1.40922 0.207679 2.35875 0.207679 2.94453 0.793466L23.4504 21.2993C24.0362 21.8851 24.0362 22.8346 23.4504 23.4204C22.8646 24.0062 21.9151 24.0062 21.3293 23.4204L0.823438 2.91456C0.237666 2.32879 0.237693 1.37926 0.823438 0.793466Z" fill="#1F2723"/>
<path d="M6.77559 10.2808C6.59765 10.8218 6.5002 11.3999 6.5002 12.0005C6.50046 15.0378 8.96281 17.5005 12.0002 17.5005C12.6006 17.5005 13.178 17.402 13.7189 17.2241L16.7863 20.2915C15.3165 20.9072 13.6979 21.2505 11.9982 21.2505C6.46175 21.2504 1.77554 17.6353 0.344923 12.6763C0.218472 12.2379 0.218898 11.772 0.344923 11.3335C0.862411 9.53411 1.80984 7.91239 3.06953 6.57472L6.77559 10.2808Z" fill="#1F2723"/>
<path d="M12.0002 2.7505C17.5369 2.75054 22.223 6.36548 23.6535 11.3247C23.7799 11.7631 23.7806 12.229 23.6545 12.6675C23.141 14.4526 22.2032 16.0616 20.9582 17.3931L17.2395 13.6743C17.408 13.1465 17.5001 12.5842 17.5002 12.0005C17.5002 8.96298 15.0377 6.50055 12.0002 6.5005C11.4162 6.5005 10.8535 6.59162 10.3254 6.76026L7.25508 3.68995C8.71331 3.08564 10.3172 2.75053 12.0002 2.7505Z" fill="#1F2723"/>
<path d="M12.466 15.9712C12.3131 15.9889 12.1578 16.0005 12.0002 16.0005C9.79122 16.0005 8.00046 14.2094 8.0002 12.0005C8.0002 11.8424 8.00974 11.686 8.02754 11.5327L12.466 15.9712Z" fill="#1F2723"/>
<path d="M12.0002 8.0005C14.2093 8.00055 16.0002 9.79139 16.0002 12.0005C16.0002 12.1399 15.9927 12.2778 15.9787 12.4136L11.5861 8.021C11.7222 8.00705 11.8604 8.0005 12.0002 8.0005Z" fill="#1F2723"/>
</g>
<defs>
<clipPath id="clip0_2002_1866">
<rect width="24" height="24" fill="white"/>
</clipPath>
</defs>
</svg>
