<svg width="24" height="24" viewBox="0 0 24 24" fill="none" xmlns="http://www.w3.org/2000/svg">
<g clip-path="url(#clip0_2002_1825)">
<path fill-rule="evenodd" clip-rule="evenodd" d="M8.24943 1.96197C8.27038 2.65201 7.72803 3.22841 7.03798 3.2494L3.88261 3.34538C3.59181 3.36869 3.36887 3.59164 3.34553 3.88235L3.24941 7.03802C3.22839 7.72807 2.65197 8.27042 1.96193 8.24942C1.2719 8.22837 0.729553 7.65197 0.750568 6.96192L0.847383 3.78352C0.847748 3.77158 0.848283 3.75964 0.848988 3.74771C0.941698 2.18167 2.18222 0.941399 3.74817 0.848834C3.76008 0.848129 3.772 0.847594 3.78393 0.847234L6.96198 0.750559C7.65203 0.729569 8.22843 1.27194 8.24943 1.96197ZM16.962 3.2494C16.2719 3.22841 15.7296 2.65201 15.7506 1.96197C15.7716 1.27194 16.348 0.729569 17.038 0.750559L20.216 0.847234C20.228 0.847594 20.2399 0.848129 20.2518 0.848834C21.8178 0.941399 23.0583 2.18167 23.151 3.74771C23.1517 3.75964 23.1522 3.77158 23.1526 3.78352L23.2494 6.96192C23.2704 7.65197 22.7281 8.22837 22.038 8.24942C21.348 8.27042 20.7716 7.72807 20.7506 7.03802L20.6544 3.88235C20.6311 3.59164 20.4082 3.36869 20.1174 3.34538L16.962 3.2494ZM23.2494 17.038C23.2704 16.348 22.7281 15.7716 22.038 15.7506C21.348 15.7295 20.7716 16.2719 20.7506 16.9619L20.6544 20.1176C20.6311 20.4083 20.4082 20.6313 20.1174 20.6546L16.962 20.7506C16.2719 20.7716 15.7296 21.348 15.7506 22.038C15.7716 22.728 16.348 23.2704 17.038 23.2494L20.216 23.1527C20.228 23.1524 20.2399 23.1518 20.2518 23.1511C21.8178 23.0586 23.0583 21.8183 23.151 20.2523L23.1517 20.2401L23.1522 20.229L23.1526 20.2164L23.2494 17.038ZM0.750568 17.038C0.729553 16.348 1.2719 15.7716 1.96193 15.7506C2.65197 15.7295 3.22839 16.2719 3.24941 16.9619L3.34553 20.1176C3.36887 20.4083 3.59181 20.6313 3.88262 20.6546L7.03798 20.7506C7.72803 20.7716 8.27038 21.348 8.24943 22.038C8.22843 22.728 7.65203 23.2704 6.96198 23.2494L3.78393 23.1527C3.772 23.1524 3.76008 23.1518 3.74817 23.1511C2.18222 23.0586 0.941698 21.8183 0.848988 20.2523C0.848283 20.2403 0.847748 20.2284 0.847383 20.2164L0.750568 17.038ZM11.6711 5.79402C12.3371 5.61237 13.0243 6.00507 13.2059 6.67107L14.3614 10.908C14.7518 12.3393 13.6743 13.75 12.1907 13.75H10.5C9.80963 13.75 9.24998 13.1903 9.24998 12.5C9.24998 11.8096 9.80963 11.25 10.5 11.25H11.8634L10.794 7.32887C10.6124 6.66282 11.005 5.97567 11.6711 5.79402ZM6.99998 5.74997C7.69033 5.74997 8.24998 6.30962 8.24998 6.99997V7.99997C8.24998 8.69032 7.69033 9.24997 6.99998 9.24997C6.30963 9.24997 5.74998 8.69032 5.74998 7.99997V6.99997C5.74998 6.30962 6.30963 5.74997 6.99998 5.74997ZM7.32878 14.4454C7.91123 14.0747 8.68383 14.2464 9.05448 14.8289C9.65798 15.7772 10.7801 16.3124 11.9999 16.3124C13.2197 16.3124 14.3418 15.7772 14.9453 14.8289C15.3159 14.2464 16.0886 14.0747 16.671 14.4454C17.2534 14.816 17.4251 15.5886 17.0545 16.171C15.908 17.9727 13.9051 18.8125 11.9999 18.8125C10.0947 18.8125 8.09183 17.9727 6.94533 16.171C6.57468 15.5886 6.74638 14.816 7.32878 14.4454ZM15.75 6.99997C15.75 6.30962 16.3096 5.74997 17 5.74997C17.6903 5.74997 18.25 6.30962 18.25 6.99997V7.99997C18.25 8.69032 17.6903 9.24997 17 9.24997C16.3096 9.24997 15.75 8.69032 15.75 7.99997V6.99997Z" fill="#1F2723"/>
</g>
<defs>
<clipPath id="clip0_2002_1825">
<rect width="24" height="24" fill="white"/>
</clipPath>
</defs>
</svg>
