<svg width="24" height="24" viewBox="0 0 24 24" fill="none" xmlns="http://www.w3.org/2000/svg">
<g clip-path="url(#clip0_2002_1822)">
<g clip-path="url(#clip1_2002_1822)">
<path fill-rule="evenodd" clip-rule="evenodd" d="M11.9349 1.14307C11.5884 1.4529 11.3809 1.9035 11.3562 2.37649C11.289 3.66621 11.0377 4.94189 10.4663 5.71888C10.4136 5.79053 10.3425 5.82583 10.2861 5.83358C10.2376 5.84023 10.2079 5.82808 10.1818 5.80218C9.84805 5.47193 9.5429 4.89918 9.2867 4.18018C8.91325 3.1324 7.55705 2.48231 6.52045 3.31218C3.74644 5.53293 0.749054 9.03873 0.749054 13.8377C0.749054 17.0508 2.02541 19.445 4.12615 21.0127C6.1969 22.558 8.9984 23.2503 12 23.2503C15.0017 23.2503 17.8031 22.558 19.8739 21.0127C21.9746 19.445 23.251 17.0508 23.251 13.8377C23.251 10.5536 21.8435 7.87063 20.0733 5.80058C18.3075 3.73564 16.1541 2.24708 14.5753 1.32396C14.1861 1.09642 13.7758 0.92366 13.354 0.80639C12.807 0.65427 12.2934 0.822505 11.9349 1.14307ZM12.3635 11.6652C12.133 11.552 11.8671 11.552 11.6366 11.6652C10.6509 12.1496 8.00005 13.6943 8.00005 16.2993C8.00005 18.5084 9.7909 19.4993 12.0001 19.4993C14.2092 19.4993 16.0001 18.5084 16.0001 16.2993C16.0001 13.6943 13.3492 12.1496 12.3635 11.6652Z" fill="#1F2723"/>
</g>
</g>
<defs>
<clipPath id="clip0_2002_1822">
<rect width="24" height="24" fill="white"/>
</clipPath>
<clipPath id="clip1_2002_1822">
<rect width="24" height="24" fill="white"/>
</clipPath>
</defs>
</svg>
