<svg width="24" height="24" viewBox="0 0 24 24" fill="none" xmlns="http://www.w3.org/2000/svg">
<g clip-path="url(#clip0_2002_1879)">
<path fill-rule="evenodd" clip-rule="evenodd" d="M2.02875 1.60446C1.98483 3.02931 1.90903 6.31205 1.90903 12C1.90903 17.688 1.98482 20.9707 2.02875 22.3955C2.04755 23.0054 2.37618 23.644 3.09236 23.7216C3.25479 23.7392 3.44255 23.75 3.65903 23.75C3.8755 23.75 4.06327 23.7392 4.2257 23.7216C4.94188 23.644 5.27053 23.0054 5.28933 22.3955C5.33323 20.9707 5.40903 17.688 5.40903 12C5.40903 6.31205 5.33323 3.02931 5.28933 1.60446C5.27053 0.994655 4.94188 0.355948 4.2257 0.278334C4.06327 0.260731 3.8755 0.25 3.65903 0.25C3.44255 0.25 3.25479 0.260731 3.09237 0.278334C2.37618 0.355948 2.04755 0.994655 2.02875 1.60446ZM6.65923 12C6.65923 13.2688 6.65548 14.4185 6.64913 15.4551C7.63408 15.5964 8.49093 15.7938 9.35308 15.9925L9.35513 15.993C10.9834 16.3682 12.6308 16.7479 15.1592 16.7479C17.0649 16.7479 19.3482 16.1583 20.7879 15.7192C21.709 15.4383 22.0652 14.3772 21.6149 13.5626C21.2469 12.8967 20.8069 12.0537 20.4383 11.2136C20.082 10.4017 19.801 9.61125 19.7078 8.99205C20.9762 6.50245 21.6853 4.15223 22.0545 2.63782C22.2902 1.67112 21.3397 0.93632 20.4489 1.22364C19.0129 1.68686 16.9038 2.24993 15.1592 2.24993C13.3561 2.24993 11.9716 1.83625 10.4386 1.37819C10.3079 1.33912 10.176 1.29971 10.0427 1.26023C8.93318 0.931475 7.73623 0.60073 6.26208 0.411133C6.44513 0.805595 6.52828 1.22107 6.53893 1.56588C6.58328 3.00535 6.65923 6.30105 6.65923 12Z" fill="#1F2723"/>
</g>
<defs>
<clipPath id="clip0_2002_1879">
<rect width="24" height="24" fill="white"/>
</clipPath>
</defs>
</svg>
