<svg width="24" height="24" viewBox="0 0 24 24" fill="none" xmlns="http://www.w3.org/2000/svg">
<g clip-path="url(#clip0_2002_1741)">
<g clip-path="url(#clip1_2002_1741)">
<path d="M1.15226 21.6303C6.20035 21.0624 10.741 20.9935 14.0194 21.0658C15.6591 21.102 16.9851 21.1729 17.9032 21.2358C18.3623 21.2672 18.7201 21.2963 18.9638 21.3178C19.1021 21.33 19.2247 21.3421 19.3427 21.3539C19.8233 21.4023 20.171 21.8364 20.12 22.3168C20.0688 22.7972 19.6379 23.1423 19.1571 23.0941C19.0414 23.0826 18.9254 23.0711 18.8095 23.0609C18.5767 23.0404 18.2309 23.0124 17.7841 22.9818C16.8897 22.9206 15.5904 22.8504 13.9804 22.8149C10.7588 22.7439 6.29928 22.8125 1.34757 23.3695C0.867517 23.4235 0.43498 23.0781 0.380771 22.5981C0.326748 22.1179 0.672035 21.6843 1.15226 21.6303Z" fill="#1F2723"/>
<path d="M12.8886 18.2934C13.0075 18.2938 13.1274 18.2935 13.248 18.2943C13.6933 18.2974 14.1496 18.3033 14.6151 18.3129H14.6132C17.173 18.3657 20.0135 18.5257 22.8583 18.8813C23.3378 18.9412 23.678 19.3793 23.6181 19.8588C23.558 20.338 23.1208 20.6783 22.6415 20.6186C18.1986 20.0632 13.7444 19.9937 10.3935 20.0649C8.71992 20.1004 7.32567 20.1704 6.35147 20.2318C5.86457 20.2625 5.48271 20.2913 5.22354 20.3119C5.09298 20.3224 4.9624 20.3334 4.83194 20.3451C4.35065 20.3883 3.92421 20.0372 3.87882 19.5561C3.83353 19.075 4.18663 18.6461 4.66788 18.6029C4.79808 18.5912 4.93296 18.5799 5.08487 18.5678C5.35306 18.5464 5.74493 18.5171 6.2421 18.4858C7.14679 18.4288 8.40222 18.3649 9.90226 18.3266H9.9003C10.0499 18.3227 10.202 18.3181 10.3564 18.3149C10.7543 18.3064 11.168 18.3002 11.5956 18.2963C11.6697 18.2956 11.7443 18.2949 11.8192 18.2943C12.1672 18.2919 12.524 18.2921 12.8886 18.2934Z" fill="#1F2723"/>
<path d="M11.9726 15.5443C12.0728 15.5451 12.1725 15.5463 12.2714 15.5473C12.6783 15.5513 13.0739 15.5569 13.456 15.5649C15.1878 15.601 16.6527 15.6722 17.6855 15.7348C17.7643 15.7395 17.843 15.7462 17.9218 15.7514C18.2192 15.7706 18.5164 15.7909 18.8134 15.8139C18.8286 15.8151 18.844 15.8166 18.8593 15.8178C19.0156 15.8299 19.1709 15.842 19.3271 15.8549C19.8087 15.8948 20.1641 16.3208 20.121 16.8022C20.0779 17.2834 19.6533 17.6379 19.1718 17.5981C18.6416 17.5542 18.1112 17.5151 17.58 17.4828C16.9074 17.4421 16.0466 17.3976 15.0458 17.3617C14.5375 17.3436 13.9931 17.3268 13.4189 17.3149C11.6846 17.2787 9.68356 17.2795 7.58585 17.3608C5.55176 17.4397 3.42663 17.5948 1.36515 17.8676C0.886076 17.931 0.44613 17.5937 0.382724 17.1147C0.31937 16.6357 0.6558 16.1958 1.13468 16.1322C3.28708 15.8474 5.49893 15.6874 7.6044 15.6078C8.10628 15.5888 8.60216 15.5754 9.08976 15.5649C9.15239 15.5635 9.21489 15.5622 9.27726 15.5609C10.2128 15.5426 11.1165 15.5383 11.9726 15.5443Z" fill="#1F2723"/>
<path d="M9.17081 0.67911C9.57316 0.537767 9.95763 0.6888 10.1845 0.949618C10.4046 1.20288 10.4978 1.57818 10.3651 1.93985C10.0785 2.71965 9.92179 3.56364 9.92179 4.44474C9.92199 8.45378 13.1725 11.7035 17.1816 11.7035C18.0621 11.7035 18.9051 11.5475 19.6845 11.2611C20.0463 11.1283 20.4214 11.2215 20.6747 11.4418C20.9354 11.6687 21.0867 12.0532 20.9452 12.4555C20.6654 13.2513 20.2794 13.997 19.8046 14.6762C19.6842 14.644 19.5594 14.6195 19.4306 14.6088C18.8777 14.563 18.321 14.5216 17.7616 14.4877C16.7153 14.4243 15.2328 14.3514 13.4814 14.3149C10.9348 14.2618 7.78586 14.2846 4.55948 14.5268C3.57507 13.0585 2.99993 11.2925 2.99991 9.392C2.99998 5.36528 5.57742 1.94188 9.17081 0.67911Z" fill="#1F2723"/>
</g>
</g>
<defs>
<clipPath id="clip0_2002_1741">
<rect width="24" height="24" fill="white"/>
</clipPath>
<clipPath id="clip1_2002_1741">
<rect width="24" height="24" fill="white"/>
</clipPath>
</defs>
</svg>
