<svg width="24" height="24" viewBox="0 0 24 24" fill="none" xmlns="http://www.w3.org/2000/svg">
<g clip-path="url(#clip0_2002_1755)">
<path d="M1.7666 21.3606C7.39451 20.5567 13.2845 20.723 18.8789 21.095C19.3323 21.1254 19.6753 21.5176 19.6455 21.971C19.6153 22.4247 19.2232 22.7686 18.7695 22.7386C13.2039 22.3685 7.45239 22.2124 1.99902 22.9915C1.54882 23.0557 1.1317 22.7425 1.06738 22.2923C1.00357 21.8423 1.31663 21.4249 1.7666 21.3606Z" fill="#1F2723"/>
<path d="M5.12207 18.2718C10.7166 17.8998 16.6063 17.7334 22.2344 18.5374C22.6844 18.6017 22.9975 19.019 22.9336 19.469C22.8693 19.9193 22.4512 20.2326 22.001 20.1682C16.5477 19.3893 10.7969 19.5443 5.23145 19.9143C4.77766 19.9445 4.3857 19.6015 4.35547 19.1477C4.32556 18.6941 4.66843 18.302 5.12207 18.2718Z" fill="#1F2723"/>
<path d="M1.7666 15.7141C7.39453 14.9102 13.2845 15.0756 18.8789 15.4475C19.3324 15.478 19.6754 15.871 19.6455 16.3245C19.6151 16.778 19.2231 17.1211 18.7695 17.0911C13.2039 16.721 7.45239 16.565 1.99902 17.344C1.54886 17.4083 1.13178 17.0959 1.06738 16.6458C1.00334 16.1957 1.3165 15.7784 1.7666 15.7141Z" fill="#1F2723"/>
<path d="M11.2275 1.00027C12.399 1.00318 13.475 1.25056 14.4072 1.71121C14.0249 1.90012 13.7938 2.2899 13.7979 2.70242C13.4125 2.9251 13.1866 3.37116 13.2656 3.83524L13.3398 4.27176C13.393 4.58237 13.5737 4.83928 13.8174 5.00027C13.603 5.14195 13.4378 5.35782 13.3652 5.61941L13.3408 5.72879L13.2656 6.16531C13.1866 6.62918 13.4129 7.07436 13.7979 7.29715C13.793 7.74616 14.0663 8.17071 14.5107 8.33621L14.915 8.4866C15.2057 8.59473 15.5127 8.57008 15.7715 8.44559C15.7904 8.7322 15.9217 9.01155 16.1582 9.21121L16.4912 9.49246C16.8542 9.79836 17.3572 9.826 17.7451 9.60184C18.1332 9.82646 18.6368 9.79861 19 9.49246L19.333 9.21121C19.5695 9.01156 19.6998 8.7322 19.7188 8.44559C19.9778 8.57039 20.2852 8.59488 20.5762 8.4866L20.9805 8.33621C21.2414 8.23905 21.4403 8.05064 21.5615 7.82254C22.5298 8.83225 23.0585 10.2253 23.0586 11.8235C23.0585 13.4176 22.534 14.8088 21.5693 15.8186C21.4098 15.9856 21.2387 16.1404 21.0586 16.2835C21.0668 15.1097 20.1583 14.1182 18.9717 14.0393C13.3851 13.6678 7.41373 13.493 1.66699 14.302C1.20293 13.4539 0.941421 12.459 0.941406 11.3528C0.941579 8.80774 2.33491 6.8205 4.44043 5.88602C5.14752 2.92037 7.61724 1.00834 10.8906 1.00027H11.2275Z" fill="#1F2723"/>
<path d="M18.0273 1.12625C18.1496 0.977828 18.3696 0.95738 18.5166 1.08133L18.8496 1.36258C18.994 1.4845 19.0137 1.70002 18.8936 1.84598L18.3652 2.48758C18.3272 2.53384 18.3057 2.59175 18.3057 2.65164V4.01785L19.4736 3.33621C19.5258 3.30572 19.5663 3.25731 19.5869 3.20047L19.8701 2.42215C19.9358 2.24232 20.135 2.15034 20.3145 2.21707L20.7197 2.36746C20.8972 2.43367 20.9884 2.63077 20.9238 2.80887L20.7695 3.23367L21.2051 3.31082C21.3923 3.34355 21.5181 3.52097 21.4863 3.70828L21.4111 4.14578C21.3788 4.3341 21.2 4.4609 21.0117 4.42801L20.209 4.28738C20.1487 4.27685 20.0861 4.28776 20.0332 4.31863L18.8662 5.00027L20.0332 5.68191C20.0861 5.7128 20.1487 5.72371 20.209 5.71316L21.0117 5.57254C21.1999 5.53975 21.3788 5.66649 21.4111 5.85477L21.4863 6.29227C21.5181 6.4796 21.3923 6.65698 21.2051 6.68973L20.7686 6.76688L20.9238 7.19168C20.9595 7.2901 20.9452 7.39316 20.8975 7.47781C20.8936 7.48474 20.89 7.49167 20.8857 7.49832C20.8811 7.50537 20.8762 7.51212 20.8711 7.51883C20.8334 7.56879 20.7828 7.6095 20.7197 7.63309L20.3145 7.78348C20.135 7.85022 19.9349 7.75813 19.8691 7.5784L19.5869 6.80008C19.5663 6.74354 19.5256 6.69574 19.4736 6.66531L18.3057 5.9827V7.34891L18.3096 7.39285C18.3171 7.43582 18.3366 7.4767 18.3643 7.51102L18.3652 7.51297L18.8936 8.15457C18.9447 8.21676 18.9691 8.29167 18.9707 8.36649C18.9709 8.37432 18.971 8.3821 18.9707 8.38992C18.9702 8.40143 18.9685 8.41271 18.9668 8.4241C18.9658 8.43127 18.9653 8.43849 18.9639 8.44559C18.9614 8.4572 18.9578 8.46843 18.9541 8.47977C18.9502 8.49206 18.9457 8.50406 18.9404 8.5159C18.937 8.52347 18.9337 8.53102 18.9297 8.53836C18.9098 8.57526 18.8835 8.6093 18.8496 8.63797L18.5166 8.91922L18.458 8.95828C18.4395 8.96834 18.42 8.97631 18.4004 8.9827C18.3911 8.98572 18.3815 8.98732 18.3721 8.98953C18.3597 8.99242 18.3475 8.99487 18.335 8.99637C18.3275 8.99727 18.32 8.99791 18.3125 8.99832C18.3001 8.99899 18.2878 8.99899 18.2754 8.99832C18.2655 8.99779 18.2559 8.99675 18.2461 8.99539C18.2339 8.99369 18.2219 8.99155 18.21 8.98856C18.2027 8.98675 18.1956 8.98497 18.1885 8.9827C18.1734 8.97788 18.1589 8.97201 18.1445 8.96512C18.1395 8.96272 18.1348 8.95996 18.1299 8.95731C18.0919 8.93677 18.0565 8.90962 18.0273 8.8743L17.7461 8.5325L17.4639 8.8743C17.4027 8.94859 17.3173 8.99134 17.2285 8.9993C17.1398 9.00747 17.0481 8.98103 16.9746 8.91922L16.6416 8.63797C16.5154 8.53119 16.4847 8.35288 16.5596 8.21219C16.5702 8.19218 16.5827 8.17274 16.5977 8.15457L17.126 7.51297C17.1544 7.47831 17.174 7.43654 17.1816 7.39285L17.1855 7.34891V5.9827L16.0176 6.66531C15.9656 6.69573 15.925 6.7435 15.9043 6.80008L15.6221 7.5784L15.5908 7.6409C15.5791 7.65985 15.5655 7.67762 15.5508 7.69363C15.5478 7.69686 15.5441 7.69932 15.541 7.70242C15.5299 7.71364 15.5183 7.72416 15.5059 7.73367C15.4972 7.74028 15.4878 7.74551 15.4785 7.75125C15.4708 7.75607 15.4631 7.76073 15.4551 7.76492C15.4461 7.76957 15.4371 7.77377 15.4277 7.77762C15.4133 7.78358 15.3989 7.78927 15.3838 7.79324C15.3806 7.79408 15.3773 7.79445 15.374 7.7952C15.3557 7.79944 15.3373 7.80278 15.3184 7.80399C15.3154 7.80417 15.3125 7.80388 15.3096 7.80399C15.2888 7.80477 15.268 7.80414 15.2471 7.80106C15.2461 7.80091 15.2451 7.80024 15.2441 7.80008C15.2216 7.79657 15.1989 7.79172 15.1768 7.78348L14.7725 7.63309C14.6974 7.60511 14.6395 7.55301 14.6006 7.48953C14.5719 7.44306 14.5532 7.39125 14.5488 7.33621C14.5486 7.33296 14.548 7.32972 14.5479 7.32645C14.5456 7.28184 14.5522 7.23627 14.5684 7.19168L14.7227 6.76688L14.2861 6.68973C14.2626 6.68562 14.2401 6.67958 14.2188 6.67117C14.07 6.6126 13.9773 6.45591 14.0049 6.29227L14.0801 5.85477C14.0841 5.83131 14.0903 5.80873 14.0986 5.78738C14.1321 5.70154 14.198 5.63433 14.2793 5.59793C14.2993 5.58893 14.3202 5.58151 14.3418 5.57645C14.3636 5.57135 14.3862 5.56836 14.4092 5.56766C14.4323 5.56693 14.4558 5.56843 14.4795 5.57254L15.2822 5.71316C15.3275 5.72105 15.3744 5.71715 15.417 5.70145L15.458 5.68191L16.625 5.00027L15.458 4.31863C15.4185 4.29563 15.3734 4.28362 15.3281 4.28348C15.3129 4.28341 15.2974 4.28474 15.2822 4.28738L14.4795 4.42801C14.4558 4.43214 14.4323 4.43359 14.4092 4.43289C14.3872 4.43222 14.3657 4.42885 14.3447 4.4241C14.3388 4.42277 14.333 4.42086 14.3271 4.41922C14.3121 4.41495 14.2975 4.40984 14.2832 4.40359C14.2782 4.40144 14.2734 4.39914 14.2686 4.39676C14.254 4.38954 14.24 4.38153 14.2266 4.37234C14.2219 4.36919 14.2174 4.36596 14.2129 4.36258C14.2013 4.35377 14.1901 4.34449 14.1797 4.33426C14.1742 4.32895 14.1692 4.32333 14.1641 4.31766C14.1554 4.308 14.1472 4.29803 14.1396 4.28738C14.1344 4.27997 14.1287 4.27278 14.124 4.26492C14.1028 4.22937 14.0876 4.18897 14.0801 4.14578L14.0049 3.70828C13.9891 3.61459 14.0125 3.52326 14.0635 3.45145C14.1143 3.37949 14.1925 3.32718 14.2861 3.31082L14.7227 3.23367L14.5674 2.80887C14.5513 2.76433 14.5446 2.71866 14.5469 2.6741C14.5503 2.60634 14.5747 2.54174 14.6143 2.48758C14.6528 2.43502 14.706 2.39191 14.7715 2.36746L15.1768 2.21707C15.1951 2.21026 15.2138 2.20502 15.2324 2.20145C15.3954 2.17065 15.5623 2.26107 15.6211 2.42215L15.9043 3.20047C15.9242 3.25529 15.9622 3.30172 16.0117 3.33231C16.0137 3.33355 16.0155 3.33502 16.0176 3.33621L16.7646 3.77176L17.1855 4.01785V2.65164C17.1855 2.59171 17.164 2.53385 17.126 2.48758L16.5977 1.84598C16.4776 1.70004 16.4973 1.4845 16.6416 1.36258L16.9746 1.08133C17.1216 0.957393 17.3416 0.977874 17.4639 1.12625L17.7461 1.46805L18.0273 1.12625Z" fill="#1F2723"/>
</g>
<defs>
<clipPath id="clip0_2002_1755">
<rect width="24" height="24" fill="white"/>
</clipPath>
</defs>
</svg>
