<svg width="24" height="24" viewBox="0 0 24 24" fill="none" xmlns="http://www.w3.org/2000/svg">
<g clip-path="url(#clip0_2002_1797)">
<path d="M7.56738 20.5996C7.85042 20.0336 8.53947 19.804 9.10547 20.0869C9.67128 20.37 9.90011 21.0591 9.61719 21.625L9.2666 22.3662C8.98358 22.9322 8.29549 23.1619 7.72949 22.8789C7.16362 22.5958 6.93483 21.9077 7.21777 21.3418L7.56738 20.5996Z" fill="#1F2723"/>
<path d="M15.4512 20.5996C15.7342 20.0338 16.4224 19.8041 16.9883 20.0869C17.5542 20.3699 17.7839 21.059 17.501 21.625L17.1504 22.3662C16.8674 22.9321 16.1793 23.1617 15.6133 22.8789C15.0474 22.5959 14.8177 21.9077 15.1006 21.3418L15.4512 20.5996Z" fill="#1F2723"/>
<path d="M4.00879 18.5918C4.29177 18.0259 4.97995 17.7964 5.5459 18.0791C6.11183 18.3621 6.34147 19.0502 6.05859 19.6162L5.70801 20.3584C5.42491 20.9242 4.73684 21.1531 4.1709 20.8701C3.60513 20.587 3.37524 19.8989 3.6582 19.333L4.00879 18.5918Z" fill="#1F2723"/>
<path d="M11.8926 18.5918C12.1756 18.0258 12.8637 17.7962 13.4297 18.0791C13.9954 18.3621 14.2251 19.0503 13.9424 19.6162L13.5918 20.3584C13.3088 20.9243 12.6207 21.153 12.0547 20.8701C11.4887 20.5871 11.259 19.899 11.542 19.333L11.8926 18.5918Z" fill="#1F2723"/>
<path d="M11.2471 1C12.4087 1.00284 13.4743 1.25237 14.3936 1.7168C14.019 1.90817 13.7937 2.29422 13.7979 2.70215C13.4123 2.92486 13.1864 3.3707 13.2656 3.83497L13.3398 4.27149C13.393 4.58238 13.5735 4.83894 13.8174 5C13.6028 5.14174 13.4378 5.35734 13.3652 5.61915L13.3408 5.72852L13.2656 6.16504C13.1864 6.62914 13.4127 7.07405 13.7979 7.29688C13.7928 7.74611 14.066 8.17042 14.5107 8.33594L14.915 8.48633C15.2058 8.59454 15.5126 8.56988 15.7715 8.44532C15.7903 8.73217 15.9214 9.01116 16.1582 9.21094L16.4912 9.49219C16.8543 9.79831 17.3571 9.82587 17.7451 9.60157C18.1333 9.82636 18.6367 9.79855 19 9.49219L19.333 9.21094C19.5698 9.01118 19.6999 8.73215 19.7188 8.44532C19.9778 8.57021 20.2851 8.59467 20.5762 8.48633L20.9805 8.33594C21.2174 8.24775 21.403 8.08447 21.5264 7.88477C22.3326 8.844 22.7705 10.1078 22.7705 11.542C22.7704 13.0945 22.2589 14.4491 21.3193 15.4326C20.3957 16.3992 19.103 16.9608 17.6055 17.0332C17.5711 17.0385 17.5358 17.041 17.5 17.041H11.0518C9.53448 17.0365 8.25275 17.0103 7.17773 16.9736C3.82564 16.8593 1.22949 14.5263 1.22949 11.083C1.2296 8.60402 2.58685 6.6689 4.6377 5.75879C5.32627 2.87014 7.7316 1.0078 10.9199 1H11.2471Z" fill="#1F2723"/>
<path d="M16.9746 1.08106C17.1216 0.957138 17.3416 0.977654 17.4639 1.12598L17.7461 1.46778L18.0273 1.12598C18.1496 0.97761 18.3696 0.957132 18.5166 1.08106L18.8496 1.36231C18.9941 1.48421 19.0136 1.69974 18.8936 1.84571L18.3652 2.48731C18.3272 2.53356 18.3058 2.59149 18.3057 2.65137V4.01758L19.4736 3.33594C19.5258 3.30545 19.5663 3.25704 19.5869 3.2002L19.8701 2.42286C19.9356 2.2427 20.1348 2.15003 20.3145 2.2168L20.7197 2.36719C20.8972 2.43338 20.9883 2.63051 20.9238 2.8086L20.7695 3.23438L21.2051 3.31055C21.3923 3.34328 21.5181 3.52073 21.4863 3.70801L21.4111 4.14551C21.3788 4.33389 21.2 4.46064 21.0117 4.42774L20.209 4.28711C20.1487 4.27658 20.0861 4.28749 20.0332 4.31836L18.8662 5L20.0332 5.68165C20.0861 5.71253 20.1487 5.72344 20.209 5.7129L21.0117 5.57325C21.2 5.54037 21.3788 5.66622 21.4111 5.8545L21.4863 6.292C21.5182 6.47936 21.3923 6.65768 21.2051 6.69043L20.7686 6.76661L20.9238 7.19141C20.9575 7.28433 20.9474 7.38196 20.9062 7.46387C20.8993 7.47792 20.8906 7.49091 20.8818 7.50391C20.8779 7.50968 20.8735 7.51498 20.8691 7.52051C20.8601 7.53224 20.8504 7.54318 20.8398 7.55372C20.8362 7.55728 20.8329 7.56104 20.8291 7.56446C20.8163 7.57614 20.8028 7.58695 20.7881 7.59668C20.7845 7.59902 20.781 7.60131 20.7773 7.60352C20.7592 7.61456 20.7404 7.62509 20.7197 7.63282L20.3145 7.78321C20.2919 7.7916 20.269 7.79726 20.2461 7.80079C20.155 7.81479 20.0634 7.79236 19.9912 7.74024C19.937 7.70124 19.8937 7.64564 19.8691 7.57813L19.5869 6.79981C19.5663 6.74304 19.5258 6.69552 19.4736 6.66504L18.3057 5.98243V7.34864L18.3096 7.39258C18.3172 7.43651 18.3366 7.47788 18.3652 7.5127L18.8936 8.1543L18.9316 8.21192C18.9397 8.22701 18.9456 8.24297 18.9512 8.25879C18.9632 8.29282 18.9696 8.32784 18.9707 8.36329C18.971 8.3721 18.9711 8.38085 18.9707 8.38965C18.9702 8.40148 18.9685 8.4131 18.9668 8.42481C18.9658 8.43165 18.9653 8.43854 18.9639 8.44532C18.9613 8.45754 18.958 8.46954 18.9541 8.48145C18.9503 8.49312 18.9455 8.50437 18.9404 8.51563C18.9373 8.52254 18.9342 8.52942 18.9307 8.53614C18.9107 8.57371 18.8841 8.60857 18.8496 8.6377L18.5166 8.91895C18.4981 8.93451 18.4784 8.94794 18.458 8.95899C18.4395 8.96899 18.4199 8.97606 18.4004 8.98243C18.3911 8.98545 18.3815 8.98705 18.3721 8.98926C18.3597 8.99215 18.3475 8.99459 18.335 8.9961C18.3275 8.997 18.32 8.99764 18.3125 8.99805C18.3001 8.99873 18.2878 8.99871 18.2754 8.99805C18.2655 8.99752 18.2559 8.99649 18.2461 8.99512C18.2339 8.99343 18.2219 8.99127 18.21 8.98829C18.2027 8.98648 18.1956 8.9847 18.1885 8.98243C18.1735 8.97762 18.1589 8.97174 18.1445 8.96485C18.1395 8.96245 18.1348 8.95969 18.1299 8.95704C18.1164 8.94974 18.1034 8.9418 18.0908 8.93262C18.085 8.92836 18.0788 8.92459 18.0732 8.91993C18.0569 8.9063 18.0414 8.89107 18.0273 8.87403L17.7461 8.53223L17.4639 8.87403C17.4333 8.91119 17.3966 8.94013 17.3564 8.96094C17.3163 8.9818 17.2729 8.99494 17.2285 8.99903C17.1996 9.00163 17.1705 8.99888 17.1416 8.99415C17.0821 8.98453 17.0241 8.96065 16.9746 8.91895L16.6416 8.6377C16.4973 8.51577 16.4776 8.30021 16.5977 8.1543L17.126 7.5127C17.1546 7.47788 17.174 7.43652 17.1816 7.39258L17.1855 7.34864V5.98243L16.0176 6.66504C16.0044 6.67274 15.992 6.68167 15.9805 6.69141C15.9579 6.71058 15.9386 6.73317 15.9238 6.75879C15.9162 6.77183 15.9095 6.78546 15.9043 6.79981L15.6221 7.57813C15.6138 7.60078 15.603 7.62187 15.5908 7.64161C15.5798 7.6594 15.5664 7.67523 15.5527 7.69043C15.5464 7.6975 15.5391 7.7035 15.5322 7.70997C15.5236 7.71808 15.5152 7.72626 15.5059 7.7334C15.4972 7.74001 15.4878 7.74524 15.4785 7.75098C15.471 7.75564 15.4639 7.76058 15.4561 7.76465C15.4458 7.76999 15.4355 7.77501 15.4248 7.7793C15.4156 7.78299 15.406 7.7852 15.3965 7.78809C15.3861 7.79123 15.3759 7.79374 15.3652 7.7959C15.3549 7.79802 15.3446 7.79963 15.334 7.80079C15.3232 7.80195 15.3126 7.80357 15.3018 7.80372C15.2861 7.80393 15.2706 7.80275 15.2549 7.80079C15.251 7.8003 15.2471 7.80043 15.2432 7.79981C15.221 7.79626 15.1986 7.79135 15.1768 7.78321L14.7725 7.63282C14.6768 7.59722 14.607 7.52358 14.5723 7.43555C14.5424 7.35983 14.5384 7.27389 14.5684 7.19141L14.7227 6.76661L14.2861 6.69043C14.1689 6.66993 14.0757 6.5922 14.0303 6.49122C14.0212 6.47122 14.0139 6.45032 14.0088 6.42872C13.9986 6.38519 13.9969 6.33882 14.0049 6.292L14.0801 5.8545C14.1062 5.70281 14.2275 5.59265 14.3721 5.57227C14.3844 5.57052 14.3966 5.56779 14.4092 5.56739H14.4141C14.4356 5.56701 14.4575 5.56844 14.4795 5.57227L15.2822 5.7129C15.3275 5.7208 15.3744 5.71691 15.417 5.70118L15.458 5.68165L16.625 5L15.458 4.31836C15.4185 4.29531 15.3735 4.28336 15.3281 4.28321C15.3129 4.28314 15.2974 4.28447 15.2822 4.28711L14.4795 4.42774C14.4558 4.43187 14.4323 4.43332 14.4092 4.43262C14.3869 4.43195 14.365 4.42868 14.3438 4.42383C14.3397 4.42292 14.336 4.42098 14.332 4.41993C14.3157 4.41557 14.2996 4.41095 14.2842 4.4043C14.2761 4.40084 14.2685 4.39663 14.2607 4.39258C14.2513 4.3876 14.2424 4.38181 14.2334 4.37598C14.2236 4.36962 14.2142 4.3628 14.2051 4.35547C14.198 4.34981 14.1912 4.3441 14.1846 4.3379C14.1772 4.33095 14.1699 4.324 14.1631 4.31641C14.156 4.30842 14.1499 4.29968 14.1436 4.29102C14.125 4.26587 14.108 4.23915 14.0967 4.20899C14.0891 4.18886 14.0838 4.16747 14.0801 4.14551L14.0049 3.70801C13.9811 3.56774 14.0456 3.4329 14.1582 3.36036C14.1959 3.33599 14.2391 3.31877 14.2861 3.31055L14.292 3.30957L14.7227 3.2334L14.5674 2.8086C14.5271 2.69728 14.5479 2.57881 14.6123 2.48926C14.6251 2.47152 14.6392 2.45462 14.6553 2.43946C14.6878 2.40873 14.727 2.38381 14.7715 2.36719L15.1768 2.2168C15.1857 2.21347 15.1951 2.21154 15.2041 2.20899C15.3763 2.16048 15.5589 2.2517 15.6211 2.42286L15.6836 2.59571L15.6846 2.59668L15.9043 3.2002C15.9249 3.25702 15.9654 3.30545 16.0176 3.33594L17.1855 4.01758V2.65137C17.1855 2.59145 17.1641 2.53357 17.126 2.48731L16.5977 1.84571C16.4777 1.69976 16.4972 1.48421 16.6416 1.36231L16.9746 1.08106Z" fill="#1F2723"/>
</g>
<defs>
<clipPath id="clip0_2002_1797">
<rect width="24" height="24" fill="white"/>
</clipPath>
</defs>
</svg>
