<svg width="24" height="24" viewBox="0 0 24 24" fill="none" xmlns="http://www.w3.org/2000/svg">
<g clip-path="url(#clip0_2002_1748)">
<path d="M8.22559 18.5918C8.50858 18.0259 9.19674 17.7963 9.7627 18.0791C10.3286 18.3621 10.5582 19.0503 10.2754 19.6162L8.90039 22.3662C8.61742 22.9322 7.92925 23.1618 7.36328 22.8789C6.79739 22.596 6.56779 21.9078 6.85059 21.3418L8.22559 18.5918Z" fill="#1F2723"/>
<path d="M16.4756 18.5918C16.7586 18.0259 17.4467 17.7963 18.0127 18.0791C18.5786 18.3621 18.8082 19.0503 18.5254 19.6162L17.1504 22.3662C16.8674 22.9321 16.1793 23.1617 15.6133 22.8789C15.0474 22.5959 14.8177 21.9078 15.1006 21.3418L16.4756 18.5918Z" fill="#1F2723"/>
<path d="M4.00879 18.5918C4.29177 18.026 4.97995 17.7964 5.5459 18.0791C6.11183 18.3621 6.34147 19.0502 6.05859 19.6162L5.70801 20.3584C5.42491 20.9242 4.73684 21.1531 4.1709 20.8702C3.60513 20.587 3.37524 19.8989 3.6582 19.333L4.00879 18.5918Z" fill="#1F2723"/>
<path d="M12.2588 18.5918C12.5418 18.0259 13.2299 17.7964 13.7959 18.0791C14.3618 18.3621 14.5914 19.0503 14.3086 19.6162L13.958 20.3584C13.6749 20.9242 12.9868 21.1531 12.4209 20.8702C11.8551 20.5871 11.6252 19.8989 11.9082 19.333L12.2588 18.5918Z" fill="#1F2723"/>
<path d="M11.2471 1.00004C12.4087 1.00287 13.4743 1.2524 14.3936 1.71683C14.019 1.9082 13.7937 2.29425 13.7979 2.70218C13.4123 2.92489 13.1864 3.37073 13.2656 3.835L13.3398 4.27152C13.393 4.58241 13.5735 4.83897 13.8174 5.00004C13.6028 5.14177 13.4378 5.35736 13.3652 5.61918L13.3408 5.72855L13.2656 6.16507C13.1864 6.62917 13.4127 7.07408 13.7979 7.29691C13.7928 7.74613 14.066 8.17045 14.5107 8.33597L14.915 8.48636C15.2058 8.59457 15.5126 8.56991 15.7715 8.44535C15.7903 8.7322 15.9214 9.0112 16.1582 9.21097L16.4912 9.49222C16.8543 9.79834 17.3571 9.8259 17.7451 9.6016C18.1333 9.82638 18.6367 9.79857 19 9.49222L19.333 9.21097C19.5698 9.01121 19.6999 8.73218 19.7188 8.44535C19.9778 8.57024 20.2851 8.5947 20.5762 8.48636L20.9805 8.33597C21.2174 8.24778 21.403 8.0845 21.5264 7.8848C22.3326 8.84403 22.7705 10.1078 22.7705 11.542C22.7704 13.0945 22.2589 14.4491 21.3193 15.4327C20.3957 16.3993 19.103 16.9608 17.6055 17.0332C17.5711 17.0385 17.5358 17.041 17.5 17.041H11.0518C9.53448 17.0365 8.25275 17.0103 7.17773 16.9737C3.82564 16.8593 1.22949 14.5263 1.22949 11.083C1.2296 8.60405 2.58685 6.66893 4.6377 5.75882C5.32627 2.87017 7.7316 1.00783 10.9199 1.00004H11.2471Z" fill="#1F2723"/>
<path d="M16.9746 1.08109C17.1216 0.957169 17.3416 0.977685 17.4639 1.12601L17.7461 1.46781L18.0273 1.12601C18.1496 0.97764 18.3696 0.957162 18.5166 1.08109L18.8496 1.36234C18.9941 1.48424 19.0136 1.69977 18.8936 1.84574L18.3652 2.48734C18.3272 2.53359 18.3058 2.59152 18.3057 2.6514V4.01761L19.4736 3.33597C19.5258 3.30548 19.5663 3.25707 19.5869 3.20023L19.8701 2.42289C19.9356 2.24273 20.1348 2.15006 20.3145 2.21683L20.7197 2.36722C20.8972 2.43341 20.9883 2.63054 20.9238 2.80863L20.7695 3.23441L21.2051 3.31058C21.3923 3.34331 21.5181 3.52076 21.4863 3.70804L21.4111 4.14554C21.3788 4.33392 21.2 4.46067 21.0117 4.42777L20.209 4.28714C20.1487 4.27661 20.0861 4.28752 20.0332 4.31839L18.8662 5.00004L20.0332 5.68168C20.0861 5.71256 20.1487 5.72348 20.209 5.71293L21.0117 5.57328C21.2 5.5404 21.3788 5.66625 21.4111 5.85453L21.4863 6.29203C21.5182 6.47939 21.3923 6.65771 21.2051 6.69046L20.7686 6.76664L20.9238 7.19144C20.9575 7.28436 20.9474 7.38199 20.9062 7.4639C20.8993 7.47795 20.8906 7.49094 20.8818 7.50394C20.8779 7.50971 20.8735 7.51501 20.8691 7.52054C20.8601 7.53227 20.8504 7.54321 20.8398 7.55375C20.8362 7.55731 20.8329 7.56107 20.8291 7.56449C20.8163 7.57617 20.8028 7.58698 20.7881 7.59671C20.7845 7.59905 20.781 7.60134 20.7773 7.60355C20.7592 7.61459 20.7404 7.62512 20.7197 7.63285L20.3145 7.78324C20.2919 7.79164 20.269 7.7973 20.2461 7.80082C20.155 7.81486 20.0635 7.79222 19.9912 7.74027C19.9551 7.71422 19.9236 7.68087 19.8994 7.64164C19.8873 7.62204 19.8773 7.60065 19.8691 7.57816L19.5869 6.79984C19.5817 6.78549 19.575 6.77186 19.5674 6.75882C19.5526 6.7332 19.5333 6.71061 19.5107 6.69144C19.4992 6.6817 19.4868 6.67277 19.4736 6.66507L18.3057 5.98246V7.34867L18.3096 7.39261C18.3139 7.41753 18.3227 7.44133 18.334 7.4639C18.3427 7.4811 18.3528 7.49765 18.3652 7.51273L18.8936 8.15433L18.9316 8.21195C18.957 8.25952 18.9691 8.31135 18.9707 8.36332C18.971 8.37214 18.9711 8.38088 18.9707 8.38968C18.9702 8.40151 18.9685 8.41313 18.9668 8.42484C18.9658 8.43169 18.9653 8.43857 18.9639 8.44535C18.9613 8.45757 18.958 8.46957 18.9541 8.48148C18.9503 8.49315 18.9455 8.5044 18.9404 8.51566C18.9373 8.52257 18.9342 8.52945 18.9307 8.53617C18.9107 8.57374 18.8841 8.6086 18.8496 8.63773L18.5166 8.91898C18.4866 8.94432 18.4527 8.96218 18.418 8.97562C18.4121 8.97791 18.4064 8.98051 18.4004 8.98246C18.3911 8.98548 18.3815 8.98708 18.3721 8.98929C18.3597 8.99218 18.3475 8.99462 18.335 8.99613C18.3275 8.99703 18.32 8.99768 18.3125 8.99808C18.3001 8.99876 18.2878 8.99874 18.2754 8.99808C18.2655 8.99755 18.2559 8.99652 18.2461 8.99515C18.2339 8.99346 18.2219 8.9913 18.21 8.98832C18.2027 8.98651 18.1956 8.98473 18.1885 8.98246C18.1735 8.97765 18.1589 8.97177 18.1445 8.96488C18.1395 8.96248 18.1348 8.95972 18.1299 8.95707C18.1164 8.94977 18.1034 8.94183 18.0908 8.93265C18.085 8.9284 18.0788 8.92462 18.0732 8.91996C18.0569 8.90633 18.0414 8.8911 18.0273 8.87406L17.7461 8.53226L17.4639 8.87406C17.4181 8.9296 17.3591 8.9676 17.2949 8.98636C17.2732 8.99275 17.2509 8.99699 17.2285 8.99906L17.1621 8.99808C17.1398 8.99579 17.1174 8.99207 17.0957 8.98539C17.0525 8.9722 17.0113 8.94993 16.9746 8.91898L16.6416 8.63773C16.5875 8.59199 16.5505 8.53319 16.5322 8.46976C16.52 8.42736 16.5161 8.3828 16.5205 8.3389C16.5271 8.27339 16.5527 8.20894 16.5977 8.15433L17.126 7.51273C17.1427 7.49236 17.1553 7.46944 17.165 7.44535C17.1721 7.42827 17.1785 7.41087 17.1816 7.39261L17.1855 7.34867V5.98246L16.0176 6.66507C15.9786 6.68785 15.9463 6.72029 15.9238 6.75882C15.9163 6.77186 15.9095 6.78553 15.9043 6.79984L15.6221 7.57816C15.6138 7.60081 15.603 7.6219 15.5908 7.64164C15.5798 7.65943 15.5664 7.67526 15.5527 7.69046C15.5464 7.69753 15.5391 7.70353 15.5322 7.71C15.5236 7.71811 15.5152 7.72629 15.5059 7.73343C15.4972 7.74004 15.4878 7.74527 15.4785 7.75101C15.471 7.75567 15.4639 7.76061 15.4561 7.76468C15.4458 7.77002 15.4355 7.77504 15.4248 7.77933C15.4156 7.78303 15.406 7.78523 15.3965 7.78812C15.3861 7.79126 15.3759 7.79377 15.3652 7.79593C15.3549 7.79805 15.3446 7.79966 15.334 7.80082C15.3232 7.80198 15.3126 7.8036 15.3018 7.80375C15.2861 7.80397 15.2706 7.80278 15.2549 7.80082C15.251 7.80033 15.2471 7.80046 15.2432 7.79984C15.221 7.7963 15.1986 7.79138 15.1768 7.78324L14.7725 7.63285C14.6768 7.59725 14.607 7.52361 14.5723 7.43558C14.5424 7.35986 14.5384 7.27392 14.5684 7.19144L14.7227 6.76664L14.2861 6.69046C14.0989 6.65771 13.9731 6.47939 14.0049 6.29203L14.0801 5.85453C14.1124 5.66631 14.2913 5.53954 14.4795 5.5723L15.2822 5.71293C15.3072 5.71729 15.3327 5.71682 15.3574 5.7139C15.3777 5.71161 15.3979 5.70827 15.417 5.70121L15.458 5.68168L16.625 5.00004L15.458 4.31839C15.4449 4.31072 15.4312 4.30405 15.417 4.29886C15.3743 4.28309 15.3276 4.27922 15.2822 4.28714L14.4795 4.42777C14.4558 4.4319 14.4323 4.43335 14.4092 4.43265C14.3869 4.43198 14.365 4.42871 14.3438 4.42386C14.3397 4.42295 14.336 4.42101 14.332 4.41996C14.3157 4.4156 14.2996 4.41098 14.2842 4.40433C14.2761 4.40087 14.2685 4.39666 14.2607 4.39261C14.2513 4.38763 14.2424 4.38184 14.2334 4.37601C14.2236 4.36965 14.2142 4.36283 14.2051 4.3555C14.198 4.34984 14.1912 4.34413 14.1846 4.33793C14.1772 4.33098 14.1699 4.32404 14.1631 4.31644C14.156 4.30845 14.1499 4.29971 14.1436 4.29105C14.125 4.2659 14.108 4.23918 14.0967 4.20902C14.0891 4.18889 14.0839 4.1675 14.0801 4.14554L14.0049 3.70804C13.9969 3.66117 13.9985 3.61484 14.0088 3.57132C14.019 3.52781 14.0381 3.48718 14.0635 3.45121C14.0838 3.42259 14.1095 3.3984 14.1377 3.37699C14.1802 3.34463 14.2299 3.32042 14.2861 3.31058L14.292 3.30961L14.7227 3.23343L14.71 3.20023L14.5674 2.80863C14.5271 2.69731 14.5479 2.57877 14.6123 2.48929C14.6251 2.47154 14.6392 2.45466 14.6553 2.43949C14.6878 2.40879 14.727 2.38383 14.7715 2.36722L15.1768 2.21683C15.1857 2.2135 15.1951 2.21157 15.2041 2.20902C15.3763 2.16051 15.5589 2.25173 15.6211 2.42289L15.6836 2.59574L15.6846 2.59671L15.9043 3.20023C15.9249 3.25704 15.9654 3.30549 16.0176 3.33597L17.1855 4.01761V2.6514C17.1855 2.59148 17.1641 2.5336 17.126 2.48734L16.5977 1.84574C16.4777 1.69979 16.4972 1.48424 16.6416 1.36234L16.9746 1.08109Z" fill="#1F2723"/>
</g>
<defs>
<clipPath id="clip0_2002_1748">
<rect width="24" height="24" fill="white"/>
</clipPath>
</defs>
</svg>
