<svg width="24" height="24" viewBox="0 0 24 24" fill="none" xmlns="http://www.w3.org/2000/svg">
<path fill-rule="evenodd" clip-rule="evenodd" d="M7.74982 0.25C9.68282 0.25 11.2498 1.81701 11.2498 3.75C11.2498 5.683 9.68282 7.25 7.74982 7.25C5.81682 7.25 4.24982 5.683 4.24982 3.75C4.24982 1.81701 5.81682 0.25 7.74982 0.25ZM13.5582 7.88885C13.0584 7.8799 12.5291 7.875 11.9696 7.875C8.84182 7.875 6.67417 8.0289 5.30727 8.17815C4.06054 8.3143 3.10703 9.2498 2.88382 10.4726C2.65386 11.7324 2.3838 13.4869 2.28683 15.2056C2.23908 16.052 2.84165 16.7719 3.65664 16.9349L4.75049 17.1537C4.76335 19.1893 4.96385 21.1207 5.10737 22.2532C5.19962 22.9811 5.75647 23.5654 6.49662 23.6525C6.93337 23.7039 7.46532 23.7485 7.99982 23.7485C8.55852 23.7485 9.11447 23.6999 9.56197 23.6455C10.2666 23.5599 10.807 23.0232 10.9371 22.3373C11.1788 21.0634 11.6093 18.5779 12.0052 15.1833C12.1284 13.8734 12.2728 12.4465 12.4411 10.9311C12.5946 9.5499 13.014 8.5712 13.5582 7.88885ZM16.2498 0.25C14.3168 0.25 12.7498 1.81701 12.7498 3.75C12.7498 5.683 14.3168 7.25 16.2498 7.25C18.1828 7.25 19.7498 5.683 19.7498 3.75C19.7498 1.81701 18.1828 0.25 16.2498 0.25ZM12.8607 19.8994L13.126 22.1931C13.2129 22.9442 13.7781 23.5707 14.5505 23.659C14.9767 23.7078 15.487 23.7488 15.9998 23.7488C16.5299 23.7488 17.0574 23.705 17.492 23.6541C18.2388 23.5667 18.7978 22.9735 18.8879 22.2404C19.0313 21.075 19.2353 19.0922 19.2491 17.1539L20.343 16.9351C21.158 16.7721 21.7606 16.0522 21.7128 15.2058C21.6162 13.4922 21.3475 11.7429 21.118 10.4839C20.894 9.2548 19.9329 8.316 18.6805 8.1802C18.0486 8.11165 17.2476 8.042 16.2639 7.9866C16.0063 7.9721 15.7362 7.95855 15.4533 7.9463C14.7654 8.2598 13.9104 9.0271 13.6835 11.0694C13.2881 14.628 13.0255 17.6971 12.8607 19.8994Z" fill="#1F2723"/>
</svg>
