<svg width="24" height="24" viewBox="0 0 24 24" fill="none" xmlns="http://www.w3.org/2000/svg">
<path fill-rule="evenodd" clip-rule="evenodd" d="M13 22.2008C14.8954 22.1516 19.3512 22.0725 20.4058 21.9967C22.0389 21.8795 23.3344 20.6446 23.4823 18.9965C23.6019 17.6633 23.7213 15.6918 23.7455 13H14.1135C14.3564 13.4734 14.6069 13.7969 14.9179 14.0641C15.2729 14.3689 15.805 14.4419 16.1775 14.4419C16.7298 14.4419 17.1775 14.8897 17.1775 15.4419C17.1775 15.9942 16.7298 16.4419 16.1775 16.4419C15.6791 16.4419 14.5314 16.3686 13.6147 15.5812C13.3856 15.3843 13.1827 15.174 13 14.949V22.2008ZM13 6.44405V1.79922C14.8954 1.84846 19.3512 1.92756 20.4058 2.00326C22.0389 2.12047 23.3344 3.35541 23.4823 5.00345C23.6019 6.3367 23.7213 8.3082 23.7455 11H17.4531C17.7441 10.486 17.8864 9.93325 17.8647 9.3651C17.8309 8.4818 17.4061 7.70785 16.816 7.1177C16.2259 6.5276 15.4519 6.1029 14.5686 6.06905C14.0248 6.0482 13.495 6.1777 13 6.44405ZM13 9.9056C13.0314 9.67685 13.0753 9.4558 13.1346 9.2538C13.2379 8.9012 13.3668 8.67885 13.4879 8.55775C13.8975 8.14815 14.2427 8.058 14.4921 8.0676C14.7599 8.07785 15.08 8.21015 15.4018 8.53195C15.7236 8.8537 15.8559 9.17385 15.8661 9.44165C15.8757 9.6911 15.7856 10.0362 15.376 10.4458C15.2548 10.5669 15.0325 10.6958 14.68 10.7992C14.3364 10.8999 13.9378 10.9565 13.5397 10.9824C13.3618 10.9939 13.1895 10.9991 13.0292 11H13V9.9056ZM11 1.76169V6.51925C10.4674 6.20225 9.89125 6.04635 9.29845 6.06905C8.41515 6.1029 7.6412 6.5276 7.0511 7.1177C6.461 7.70785 6.03625 8.4818 6.0024 9.3651C5.98065 9.93325 6.123 10.486 6.414 11H0.254395C0.278594 8.3082 0.397964 6.3367 0.51761 5.00345C0.665505 3.35541 1.96102 2.12047 3.59407 2.00326C5.2966 1.88106 5.04455 1.75 8.99995 1.75C9.70465 1.75 10.371 1.75416 11 1.76169ZM11 14.7782C10.7839 15.0684 10.5386 15.3354 10.2523 15.5812C9.3357 16.3686 8.188 16.4419 7.6896 16.4419C7.1373 16.4419 6.6896 15.9942 6.6896 15.4419C6.6896 14.8897 7.1373 14.4419 7.6896 14.4419C8.0621 14.4419 8.59425 14.3689 8.94915 14.0641C9.2602 13.7969 9.5107 13.4734 9.7536 13H0.254395C0.278594 15.6917 0.397963 17.6633 0.51761 18.9965C0.665505 20.6446 1.96101 21.8795 3.59406 21.9967C5.2966 22.1189 5.04455 22.25 8.99995 22.25C9.70465 22.25 10.371 22.2458 11 22.2383V14.7782ZM10.9157 10.394C10.9296 10.6077 10.9342 10.8134 10.9334 11H10.8378C10.6775 10.9991 10.5052 10.9939 10.3274 10.9824C9.9293 10.9565 9.53075 10.8999 9.18715 10.7992C8.8346 10.6958 8.61225 10.5669 8.4911 10.4458C8.0815 10.0362 7.9914 9.6911 8.00095 9.44165C8.0112 9.17385 8.1435 8.8537 8.4653 8.53195C8.7871 8.21015 9.10725 8.07785 9.37505 8.0676C9.62445 8.058 9.9696 8.14815 10.3792 8.55775C10.5003 8.67885 10.6292 8.9012 10.7325 9.2538C10.8333 9.5974 10.8898 9.99595 10.9157 10.394Z" fill="#1F2723"/>
</svg>
