<svg width="24" height="24" viewBox="0 0 24 24" fill="none" xmlns="http://www.w3.org/2000/svg">
<g clip-path="url(#clip0_2002_1817)">
<path fill-rule="evenodd" clip-rule="evenodd" d="M8.74806 8.99726C8.74836 8.85811 8.74876 8.72111 8.74921 8.58631C8.75606 6.56226 8.78006 5.02066 8.80471 3.93201C8.81166 3.62381 8.81871 3.35196 8.82536 3.11571C8.85491 2.07011 9.62551 1.15086 10.7264 1.05121C11.1036 1.01706 11.5424 0.990662 12 0.990662C12.4576 0.990662 12.8965 1.01706 13.2736 1.05121C14.3745 1.15086 15.1451 2.07011 15.1747 3.11571C15.1813 3.35191 15.1884 3.62376 15.1953 3.93196C15.1974 4.02286 15.1994 4.11696 15.2015 4.21421C15.2255 5.35896 15.2476 6.94381 15.252 8.99671C15.2529 9.41126 15.5889 9.74811 16.0034 9.74811C16.418 9.74811 16.7542 9.41126 16.7533 8.99671C16.7493 7.12736 16.7306 5.64231 16.7092 4.52066C20.1105 6.17121 22.3549 9.65131 22.157 13.7929C22.1127 14.7192 22.0596 15.5668 22.0099 16.2718C21.9791 16.2673 21.948 16.2637 21.9169 16.2608L21.9128 16.2604L21.9037 16.2596L21.8743 16.2571L21.872 16.2569L21.8265 16.2532L21.7607 16.248C21.664 16.2406 21.5215 16.2303 21.3304 16.2181C20.9482 16.1937 20.3713 16.1617 19.5764 16.1299C17.9867 16.0663 15.5237 16.0034 12 16.0034C8.47641 16.0034 6.01336 16.0663 4.42366 16.1299C3.62871 16.1617 3.05186 16.1937 2.66971 16.2181C2.47861 16.2303 2.33611 16.2406 2.23936 16.248C2.19096 16.2518 2.15401 16.2548 2.12811 16.2569L2.10041 16.2593L2.08976 16.2602L2.08491 16.2607L2.08316 16.2608C2.05211 16.2636 2.02116 16.2673 1.99036 16.2718C1.94066 15.5668 1.88761 14.7192 1.84336 13.793C1.64536 9.65141 3.88971 6.17136 7.29086 4.52076C7.26941 5.64241 7.25076 7.12746 7.24676 8.99671C7.24586 9.41126 7.58206 9.74811 7.99661 9.74811C8.41116 9.74811 8.74716 9.41181 8.74806 8.99726ZM21.8375 17.7678C21.8192 17.7617 21.8002 17.7577 21.781 17.756L21.7785 17.7557L21.772 17.7552L21.7466 17.753C21.7242 17.7511 21.6906 17.7484 21.6456 17.7449C21.5556 17.738 21.4196 17.7282 21.2348 17.7163C20.8652 17.6927 20.3002 17.6613 19.5164 17.63C17.9489 17.5673 15.506 17.5047 12 17.5047C8.49411 17.5047 6.05116 17.5673 4.48366 17.63C3.69986 17.6613 3.13491 17.6927 2.76531 17.7163C2.58051 17.7281 2.44456 17.738 2.35451 17.7449C2.30946 17.7484 2.27591 17.7511 2.25346 17.753L2.22811 17.7552L2.22156 17.7557L2.21911 17.756C2.19986 17.7577 2.18091 17.7617 2.16261 17.7678C1.96761 17.8327 1.78586 17.9761 1.62706 18.1351C1.46426 18.2981 1.30541 18.4984 1.15871 18.7058C0.865055 19.1208 0.604706 19.5863 0.442956 19.8928C0.303806 20.1565 0.240005 20.4474 0.240005 20.7373C0.240005 21.7304 0.988655 22.5662 1.98586 22.6449C3.86801 22.7935 7.39476 23.0094 12 23.0094C16.6053 23.0094 20.132 22.7935 22.0142 22.6449C23.0114 22.5662 23.76 21.7304 23.76 20.7373C23.76 20.4474 23.6962 20.1565 23.5571 19.8928C23.3953 19.5863 23.135 19.1208 22.8413 18.7058C22.6947 18.4984 22.5358 18.2981 22.373 18.1351C22.2143 17.9761 22.0325 17.8328 21.8375 17.7678Z" fill="#1F2723"/>
</g>
<defs>
<clipPath id="clip0_2002_1817">
<rect width="24" height="24" fill="white"/>
</clipPath>
</defs>
</svg>
