<svg width="24" height="24" viewBox="0 0 24 24" fill="none" xmlns="http://www.w3.org/2000/svg">
<g clip-path="url(#clip0_2002_1832)">
<g clip-path="url(#clip1_2002_1832)">
<path fill-rule="evenodd" clip-rule="evenodd" d="M6.2025 1.02179C6.53565 0.58132 7.16285 0.494342 7.6033 0.827515C8.04375 1.1607 8.13075 1.78786 7.79755 2.22833C7.59545 2.49554 7.5055 2.75672 7.50025 3.02268C7.4949 3.29497 7.57725 3.65218 7.85315 4.10335C8.28285 4.80603 8.51385 5.5346 8.49945 6.26675C8.4849 7.0052 8.2221 7.6671 7.79755 8.2283C7.4644 8.6688 6.83725 8.75575 6.39675 8.4226C5.9563 8.0894 5.8693 7.46225 6.2025 7.0218C6.4046 6.75455 6.4946 6.4934 6.4998 6.22745C6.50515 5.95515 6.4228 5.59795 6.1469 5.14675C5.7172 4.44409 5.48625 3.71552 5.50065 2.98337C5.51515 2.2449 5.778 1.583 6.2025 1.02179ZM11.2025 1.02179C11.5357 0.58132 12.1629 0.494342 12.6033 0.827515C13.0437 1.1607 13.1308 1.78786 12.7976 2.22833C12.5955 2.49554 12.5055 2.75672 12.5002 3.02268C12.4949 3.29497 12.5773 3.65218 12.8532 4.10335C13.2829 4.80603 13.5138 5.5346 13.4994 6.26675C13.4849 7.0052 13.2221 7.6671 12.7976 8.2283C12.4644 8.6688 11.8373 8.75575 11.3968 8.4226C10.9563 8.0894 10.8693 7.46225 11.2025 7.0218C11.4046 6.75455 11.4946 6.4934 11.4998 6.22745C11.5051 5.95515 11.4228 5.59795 11.1469 5.14675C10.7172 4.44409 10.4863 3.71552 10.5007 2.98337C10.5152 2.2449 10.778 1.583 11.2025 1.02179ZM17.6033 0.827515C17.1628 0.494342 16.5357 0.58132 16.2025 1.02179C15.778 1.583 15.5152 2.2449 15.5007 2.98337C15.4863 3.71552 15.7172 4.44409 16.1469 5.14675C16.4228 5.59795 16.5051 5.95515 16.4998 6.22745C16.4946 6.4934 16.4046 6.75455 16.2025 7.0218C15.8693 7.46225 15.9563 8.0894 16.3967 8.4226C16.8372 8.75575 17.4644 8.6688 17.7976 8.2283C18.2221 7.6671 18.4849 7.0052 18.4995 6.26675C18.5138 5.5346 18.2829 4.80603 17.8531 4.10335C17.5772 3.65218 17.4949 3.29497 17.5002 3.02268C17.5055 2.75672 17.5954 2.49554 17.7976 2.22833C18.1308 1.78786 18.0438 1.1607 17.6033 0.827515ZM23.75 16.375C23.75 14.6507 23.6617 13.3206 23.5554 12.3447C23.3786 10.7196 22.0417 9.6209 20.4863 9.5459C18.7988 9.4645 16.0273 9.375 12 9.375C7.97265 9.375 5.2012 9.4645 3.51368 9.5459C1.95827 9.6209 0.62147 10.7196 0.444597 12.3447C0.338373 13.3206 0.25 14.6507 0.25 16.375C0.25 18.0993 0.338373 19.4294 0.444597 20.4053C0.62147 22.0304 1.95827 23.1291 3.51367 23.2041C5.2012 23.2855 7.97265 23.375 12 23.375C16.0273 23.375 18.7988 23.2855 20.4863 23.2041C22.0417 23.1291 23.3786 22.0304 23.5554 20.4053C23.6617 19.4294 23.75 18.0993 23.75 16.375ZM5 12.375C4.0335 12.375 3.25 13.1585 3.25 14.125C3.25 15.0915 4.0335 15.875 5 15.875C5.9665 15.875 6.75 15.0915 6.75 14.125C6.75 13.1585 5.9665 12.375 5 12.375ZM14.75 16.375C14.75 15.1785 14.7337 14.3079 14.7165 13.7241C14.6971 13.0576 14.2585 12.4444 13.5338 12.393C13.3763 12.3818 13.1987 12.375 13 12.375C12.8013 12.375 12.6237 12.3818 12.4662 12.393C11.7415 12.4444 11.3029 13.0576 11.2835 13.7241C11.2663 14.3079 11.25 15.1785 11.25 16.375C11.25 17.5714 11.2663 18.4421 11.2835 19.0259C11.3029 19.6924 11.7415 20.3056 12.4662 20.357C12.6237 20.3682 12.8013 20.375 13 20.375C13.1987 20.375 13.3763 20.3682 13.5338 20.357C14.2585 20.3056 14.6971 19.6924 14.7165 19.0259C14.7337 18.4421 14.75 17.5714 14.75 16.375ZM20.25 16.375C20.25 15.1785 20.2337 14.3079 20.2166 13.7241C20.1971 13.0576 19.7585 12.4444 19.0338 12.393C18.8764 12.3818 18.6987 12.375 18.5 12.375C18.3013 12.375 18.1236 12.3818 17.9662 12.393C17.2415 12.4444 16.8029 13.0576 16.7834 13.7241C16.7663 14.3079 16.75 15.1785 16.75 16.375C16.75 17.5714 16.7663 18.4421 16.7834 19.0259C16.8029 19.6924 17.2415 20.3056 17.9662 20.357C18.1236 20.3682 18.3013 20.375 18.5 20.375C18.6987 20.375 18.8764 20.3682 19.0338 20.357C19.7585 20.3056 20.1971 19.6924 20.2166 19.0259C20.2337 18.4421 20.25 17.5714 20.25 16.375Z" fill="#1F2723"/>
</g>
</g>
<defs>
<clipPath id="clip0_2002_1832">
<rect width="24" height="24" fill="white"/>
</clipPath>
<clipPath id="clip1_2002_1832">
<rect width="24" height="24" fill="white"/>
</clipPath>
</defs>
</svg>
