<svg width="24" height="24" viewBox="0 0 24 24" fill="none" xmlns="http://www.w3.org/2000/svg">
<g clip-path="url(#clip0_2002_1867)">
<g clip-path="url(#clip1_2002_1867)">
<path fill-rule="evenodd" clip-rule="evenodd" d="M10.9655 17.4991C9.3102 17.4941 7.91195 17.4663 6.73915 17.4263C3.08223 17.3016 0.25 14.7562 0.25 10.9999C0.25 8.29532 1.73052 6.18412 3.96793 5.19122C4.71908 2.03987 7.343 0.00856703 10.8212 6.50886e-05C10.8803 -7.92144e-05 10.9398 -0.000152588 11 -0.000152588C11.0602 -0.000152588 11.1197 -7.92144e-05 11.1788 6.50286e-05C13.0754 0.00470096 14.7379 0.60966 15.9807 1.70638C17.0692 2.66694 17.8029 3.97601 18.1005 5.50792C19.6938 5.58192 21.0761 6.16242 22.0818 7.16812C23.1604 8.24682 23.75 9.75892 23.75 11.4999C23.75 13.1938 23.192 14.6715 22.1668 15.7445C21.1592 16.7992 19.7488 17.4121 18.1149 17.4911C18.0774 17.4969 18.039 17.4999 18 17.4999H11C10.9885 17.4999 10.9769 17.4996 10.9655 17.4991ZM5.6183 20.3089C5.92705 19.6914 5.67675 18.9406 5.0593 18.6318C4.44182 18.3231 3.69098 18.5734 3.38224 19.1909L1.88224 22.1909C1.57351 22.8083 1.82379 23.5592 2.44126 23.8679C3.05873 24.1767 3.80957 23.9264 4.11831 23.3089L5.6183 20.3089ZM10.1183 20.3089C10.4271 19.6914 10.1768 18.9406 9.5593 18.6318C8.9418 18.3231 8.191 18.5734 7.88225 19.1909L6.38225 22.1909C6.0735 22.8083 6.3238 23.5592 6.94125 23.8679C7.55875 24.1767 8.30955 23.9264 8.6183 23.3089L10.1183 20.3089ZM14.6183 20.3089C14.9271 19.6914 14.6768 18.9406 14.0593 18.6318C13.4418 18.3231 12.691 18.5734 12.3822 19.1909L10.8822 22.1909C10.5735 22.8083 10.8238 23.5592 11.4412 23.8679C12.0588 24.1767 12.8096 23.9264 13.1183 23.3089L14.6183 20.3089ZM19.1183 20.3089C19.427 19.6914 19.1768 18.9406 18.5593 18.6318C17.9418 18.3231 17.191 18.5734 16.8822 19.1909L15.3822 22.1909C15.0735 22.8083 15.3238 23.5592 15.9412 23.8679C16.5588 24.1767 17.3095 23.9264 17.6183 23.3089L19.1183 20.3089Z" fill="#1F2723"/>
</g>
</g>
<defs>
<clipPath id="clip0_2002_1867">
<rect width="24" height="24" fill="white"/>
</clipPath>
<clipPath id="clip1_2002_1867">
<rect width="24" height="24" fill="white"/>
</clipPath>
</defs>
</svg>
