<svg width="24" height="24" viewBox="0 0 24 24" fill="none" xmlns="http://www.w3.org/2000/svg">
<g clip-path="url(#clip0_2002_1846)">
<g clip-path="url(#clip1_2002_1846)">
<path fill-rule="evenodd" clip-rule="evenodd" d="M15.6 0H8.4C3 0 0 3 0 8.4V15.6C0 21 3 24 8.4 24H15.6C21 24 24 21 24 15.6V8.4C24 3 21 0 15.6 0ZM11.8 21.2933C10.64 21.2933 9.69333 20.3467 9.69333 19.1867C9.69333 18.0267 10.64 17.08 11.8 17.08C12.96 17.08 13.9067 18.0267 13.9067 19.1867C13.9067 20.3467 12.96 21.2933 11.8 21.2933ZM14.1333 13.56L13.8667 13.6667V13.88C13.8667 15.04 12.92 15.9867 11.76 15.9867C10.6 15.9867 9.65333 15.04 9.65333 13.88V13.5867C9.65333 11.8933 10.6667 10.4 12.2533 9.77333L12.6 9.64C13.2133 9.4 13.5733 8.77333 13.48 8.12C13.3867 7.42667 12.7733 6.90667 12.08 6.90667C11.1867 6.90667 10.5067 7.57333 10.5067 8.4V8.92C10.5067 10.08 9.56 11.0267 8.4 11.0267C7.24 11.0267 6.29333 10.08 6.29333 8.92V8.4C6.29333 5.25333 8.85333 2.69333 12 2.69333C14.84 2.69333 17.24 4.76 17.64 7.50667C18.0133 10.1067 16.5733 12.5867 14.1333 13.5467V13.56Z" fill="#1F2723"/>
</g>
</g>
<defs>
<clipPath id="clip0_2002_1846">
<rect width="24" height="24" fill="white"/>
</clipPath>
<clipPath id="clip1_2002_1846">
<rect width="24" height="24" fill="white"/>
</clipPath>
</defs>
</svg>
