<svg width="24" height="24" viewBox="0 0 24 24" fill="none" xmlns="http://www.w3.org/2000/svg">
<g clip-path="url(#clip0_2002_1864)">
<path fill-rule="evenodd" clip-rule="evenodd" d="M10.4379 2.21445C11.3648 1.54757 12.6365 1.54757 13.5634 2.21447L14.7224 3.0484C18.1252 5.49678 21.0429 8.50154 23.337 11.9233L23.7088 12.4778C24.5094 13.6721 23.5465 15.0898 22.2556 15.0898H21.0222C21.0902 16.6138 21.0013 18.1421 20.7556 19.6531C20.504 21.2014 19.1169 22.2857 17.5552 22.2857H14.572V16.7679C14.572 15.3477 13.4207 14.1964 12.0005 14.1964C10.5804 14.1964 9.42911 15.3477 9.42911 16.7679V22.2857H6.44601C4.88432 22.2857 3.49737 21.2014 3.24566 19.6531C3.00002 18.1421 2.91114 16.6138 2.97918 15.0898H1.74541C0.454603 15.0898 -0.508407 13.6721 0.292322 12.4778L0.664202 11.9231C2.95833 8.50149 5.87593 5.4968 9.27872 3.04849L10.4379 2.21445Z" fill="#1F2723"/>
</g>
<defs>
<clipPath id="clip0_2002_1864">
<rect width="24" height="24" fill="white"/>
</clipPath>
</defs>
</svg>
