<svg width="24" height="24" viewBox="0 0 24 24" fill="none" xmlns="http://www.w3.org/2000/svg">
<g clip-path="url(#clip0_2002_1874)">
<path d="M21.072 2.39999H2.928C1.32 2.39999 0 3.70799 0 5.32799V18.672C0 20.292 1.32 21.6 2.928 21.6H21.072C22.692 21.6 24 20.292 24 18.672V5.32799C24 3.70799 22.692 2.39999 21.072 2.39999ZM7.884 18.564C4.26 18.564 1.32 15.624 1.32 12C1.32 8.37599 4.26 5.43599 7.884 5.43599C11.508 5.43599 14.448 8.37599 14.448 12C14.448 15.624 11.508 18.564 7.884 18.564ZM21.6 15.708C21.6 16.308 21.108 16.8 20.508 16.8H16.704C16.092 16.8 15.6 16.308 15.6 15.708V15.492C15.6 14.892 16.092 14.4 16.704 14.4H20.508C21.108 14.4 21.6 14.892 21.6 15.492V15.708ZM21.6 12.108C21.6 12.708 21.108 13.2 20.508 13.2H16.704C16.092 13.2 15.6 12.708 15.6 12.108V11.892C15.6 11.292 16.092 10.8 16.704 10.8H20.508C21.108 10.8 21.6 11.292 21.6 11.892V12.108ZM21.6 8.50799C21.6 9.10799 21.108 9.59999 20.508 9.59999H16.704C16.092 9.59999 15.6 9.10799 15.6 8.50799V8.29199C15.6 7.69199 16.092 7.19999 16.704 7.19999H20.508C21.108 7.19999 21.6 7.69199 21.6 8.29199V8.50799Z" fill="#1F2723"/>
<path d="M9.08017 11.7611C9.45217 11.6291 10.0762 11.5451 10.6642 11.8811C11.6842 12.4451 12.6322 11.5811 12.5002 10.6331C12.3682 9.79307 11.8522 8.94107 11.1922 8.59307C10.2082 8.07707 9.46417 8.36507 8.88817 8.98907C8.50417 9.40907 8.10817 10.1291 8.07217 10.8251C8.06017 11.1491 7.68817 11.1251 7.59217 10.8731C7.46017 10.5011 7.37617 9.87707 7.71217 9.28907C8.27617 8.26907 7.41217 7.32107 6.46417 7.45307C5.62417 7.57307 4.77217 8.10107 4.42417 8.76107C3.90817 9.74507 4.19617 10.4891 4.82017 11.0651C5.24017 11.4491 5.96017 11.8451 6.64417 11.8691C6.98017 11.8931 6.95617 12.2651 6.70417 12.3611C6.33217 12.4931 5.70817 12.5771 5.10817 12.2411C4.10017 11.6771 3.15217 12.5411 3.28417 13.4891C3.40417 14.3291 3.93217 15.1811 4.59217 15.5291C5.57617 16.0451 6.32017 15.7571 6.89617 15.1331C7.28017 14.7131 7.67617 13.9931 7.70017 13.2971C7.71217 12.9731 8.09617 12.9971 8.18017 13.2491C8.32417 13.6211 8.40817 14.2451 8.07217 14.8331C7.50817 15.8531 8.37217 16.8011 9.32017 16.6691C10.1602 16.5491 11.0122 16.0211 11.3602 15.3611C11.8762 14.3771 11.5882 13.6331 10.9522 13.0571C10.5442 12.6731 9.82417 12.2771 9.12817 12.2531C8.80417 12.2291 8.82817 11.8571 9.08017 11.7611ZM7.89217 12.5291C7.62817 12.5291 7.42417 12.3251 7.42417 12.0611C7.42417 11.7971 7.62817 11.5931 7.89217 11.5931C8.15617 11.5931 8.36017 11.7971 8.36017 12.0611C8.36017 12.3251 8.14417 12.5291 7.89217 12.5291Z" fill="#1F2723"/>
</g>
<defs>
<clipPath id="clip0_2002_1874">
<rect width="24" height="24" fill="white"/>
</clipPath>
</defs>
</svg>
