<svg width="24" height="24" viewBox="0 0 24 24" fill="none" xmlns="http://www.w3.org/2000/svg">
<g clip-path="url(#clip0_2002_1857)">
<g clip-path="url(#clip1_2002_1857)">
<path fill-rule="evenodd" clip-rule="evenodd" d="M0.29008 3.53903C0.148309 5.28389 0 8.05259 0 12C0 15.9474 0.148304 18.7161 0.290075 20.461C0.432544 22.2145 1.78551 23.5675 3.53903 23.7099C5.28389 23.8517 8.05259 24 12 24C15.9474 24 18.7161 23.8517 20.461 23.7099C22.2145 23.5675 23.5675 22.2145 23.7099 20.461C23.8517 18.7161 24 15.9474 24 12C24 8.05259 23.8517 5.28389 23.7099 3.53905C23.5675 1.78553 22.2145 0.432549 20.461 0.29008C18.7161 0.148309 15.9475 0 12 0C8.05259 0 5.28389 0.148304 3.53905 0.290075C1.78553 0.432544 0.432549 1.78551 0.29008 3.53903ZM12 3.73333C10.8218 3.73333 9.86667 4.68848 9.86667 5.86667C9.86667 7.04485 10.8218 8 12 8C13.1782 8 14.1333 7.04485 14.1333 5.86667C14.1333 4.68848 13.1782 3.73333 12 3.73333ZM12.5033 9.34693C13.1103 9.38219 13.4987 9.85392 13.5363 10.4608C13.5702 11.008 13.6 11.8385 13.6 13.0667V16.2818C14.2773 16.2958 14.7826 16.3178 15.1532 16.3405C15.7366 16.3762 16.2049 16.7352 16.2479 17.3181C16.2595 17.475 16.2667 17.6568 16.2667 17.8667C16.2667 18.0765 16.2595 18.2583 16.2479 18.4152C16.2049 18.9981 15.7366 19.3572 15.1532 19.3929C14.5348 19.4307 13.5415 19.4667 12 19.4667C10.4585 19.4667 9.46523 19.4307 8.84683 19.3929C8.26341 19.3572 7.79515 18.9981 7.75205 18.4152C7.74048 18.2583 7.73333 18.0765 7.73333 17.8667C7.73333 17.6568 7.74048 17.475 7.75205 17.3181C7.79515 16.7352 8.26341 16.3762 8.84683 16.3405C9.21744 16.3178 9.72272 16.2958 10.4 16.2818V13.0667C10.4 12.8791 10.4007 12.7007 10.402 12.5313C10.317 12.5326 10.2275 12.5333 10.1333 12.5333C9.82107 12.5333 9.56027 12.5256 9.34331 12.5136C8.71045 12.4785 8.28773 12.0117 8.27189 11.3781C8.26859 11.2462 8.26667 11.0985 8.26667 10.9333C8.26667 10.7682 8.26859 10.6205 8.27189 10.4886C8.28773 9.85493 8.71045 9.38821 9.34331 9.35307C9.56027 9.34107 9.82107 9.33333 10.1333 9.33333H12C12.19 9.33333 12.357 9.33845 12.5033 9.34693Z" fill="#1F2723"/>
</g>
</g>
<defs>
<clipPath id="clip0_2002_1857">
<rect width="24" height="24" fill="white"/>
</clipPath>
<clipPath id="clip1_2002_1857">
<rect width="24" height="24" fill="white"/>
</clipPath>
</defs>
</svg>
