<svg width="24" height="24" viewBox="0 0 24 24" fill="none" xmlns="http://www.w3.org/2000/svg">
<g clip-path="url(#clip0_2002_1760)">
<g clip-path="url(#clip1_2002_1760)">
<path fill-rule="evenodd" clip-rule="evenodd" d="M8.9608 7.76975C8.9608 3.75477 12.2156 0.5 16.2306 0.5C20.2455 0.5 23.5003 3.75477 23.5003 7.76975C23.5003 11.7847 20.2455 15.0394 16.2306 15.0394C15.6198 15.0394 15.026 14.964 14.4582 14.8217C14.0072 15.313 13.4584 15.8952 12.7925 16.5806C12.6983 16.6775 12.569 16.7322 12.4338 16.7322H10.3783L10.3783 18.3244C10.3783 18.8768 9.9304 19.3243 9.3782 19.3243H7.84965L7.84955 21.1643C7.84955 21.307 7.7886 21.4429 7.68205 21.5378C7.2928 21.8843 6.97985 22.1513 6.73295 22.355C6.15745 22.8299 5.43855 23.0276 4.72893 22.9999L2.52273 22.914C1.74023 22.8835 1.11267 22.2564 1.0821 21.4738L0.995952 19.2679C0.968237 18.5582 1.16589 17.8393 1.64103 17.2638C2.28888 16.4791 3.57936 15.0237 6.03875 12.5649C7.3563 11.2478 8.3856 10.2661 9.1778 9.5392C9.036 8.97235 8.9608 8.3795 8.9608 7.76975ZM17.7437 8C16.7807 8 16 7.21935 16 6.25635C16 5.29335 16.7807 4.51269 17.7437 4.51269C18.7067 4.51269 19.4873 5.29335 19.4873 6.25635C19.4873 7.21935 18.7067 8 17.7437 8Z" fill="#1F2723"/>
</g>
</g>
<defs>
<clipPath id="clip0_2002_1760">
<rect width="24" height="24" fill="white"/>
</clipPath>
<clipPath id="clip1_2002_1760">
<rect width="24" height="24" fill="white"/>
</clipPath>
</defs>
</svg>
