<svg width="24" height="24" viewBox="0 0 24 24" fill="none" xmlns="http://www.w3.org/2000/svg">
<g clip-path="url(#clip0_2002_1824)">
<path fill-rule="evenodd" clip-rule="evenodd" d="M15.3724 0.176807C12.1208 0.309772 8.02098 1.16926 5.00133 4.18892C1.16228 8.02798 0.626991 13.9594 3.90706 17.6994C3.24163 19.2541 2.82456 20.9019 2.82456 22.5928C2.82456 23.2831 3.3842 23.8428 4.07456 23.8428C4.76493 23.8428 5.32453 23.2831 5.32453 22.5928C5.32453 21.5362 5.54028 20.4577 5.93353 19.371C6.36408 19.6339 6.85753 19.8935 7.36363 20.0822C10.8914 21.3989 15.1901 20.4348 18.2186 17.4063C21.2383 14.3866 22.0978 10.2868 22.2308 7.03518C22.2976 5.39928 22.1822 3.94858 22.0502 2.90666C21.9841 2.38498 21.9137 1.96387 21.8593 1.67099C21.8321 1.5245 21.8088 1.40994 21.7921 1.33076C21.7837 1.29117 21.777 1.2604 21.7722 1.23891L21.7665 1.21366L21.7648 1.20634L21.7643 1.20403C21.7642 1.20371 21.7639 1.20262 21.0346 1.3736L21.7639 1.20262C21.6989 0.925227 21.4823 0.708641 21.2049 0.643611L21.0346 1.3736C21.2058 0.643402 21.2052 0.643687 21.2049 0.643611L21.2035 0.643282L21.2012 0.642742L21.1939 0.641056L21.1687 0.635356C21.1472 0.630561 21.1164 0.623822 21.0768 0.615457C20.9976 0.598732 20.8831 0.575487 20.7366 0.548267C20.4437 0.493847 20.0226 0.423411 19.5009 0.357347C18.459 0.225401 17.0083 0.109911 15.3724 0.176807ZM14.0287 5.10553C14.0783 4.23039 13.0402 3.70786 12.38 4.33261C10.2002 6.39543 8.16408 8.86783 7.29103 9.96318C6.84838 10.5186 7.11778 11.3473 7.82533 11.5119C8.36948 11.6385 9.20053 11.8113 10.2601 11.9693C10.1604 12.9628 10.0575 14.2069 9.97243 15.7088C9.92278 16.5839 10.9609 17.1065 11.6211 16.4817C13.8009 14.4189 15.8371 11.9465 16.7101 10.8511C17.1528 10.2958 16.8833 9.46708 16.1758 9.30243C15.6316 9.17578 14.8006 9.00303 13.741 8.84498C13.8407 7.85153 13.9436 6.60743 14.0287 5.10553Z" fill="#1F2723"/>
</g>
<defs>
<clipPath id="clip0_2002_1824">
<rect width="24" height="24" fill="white"/>
</clipPath>
</defs>
</svg>
