<svg width="24" height="24" viewBox="0 0 24 24" fill="none" xmlns="http://www.w3.org/2000/svg">
<g clip-path="url(#clip0_2002_1880)">
<path fill-rule="evenodd" clip-rule="evenodd" d="M20.8274 3.17302C17.5968 -0.0576704 12.3587 -0.0576713 9.12805 3.17301L7.9185 4.38258C7.2351 5.066 7.2351 6.17405 7.9185 6.85745L8.6363 7.57525C9.30965 8.2486 10.3952 8.2585 11.0807 7.60505L12.3254 6.36035C13.0708 5.61495 14.0522 5.2508 15.0293 5.26505C15.9743 5.27865 16.9155 5.64635 17.6348 6.3657C19.0975 7.8284 19.1063 10.2081 17.6401 11.6743L16.4252 12.8892C15.7417 13.5726 15.7417 14.6807 16.4251 15.3641L17.143 16.0819C17.8264 16.7654 18.9345 16.7654 19.6178 16.0819L20.8274 14.8723C24.0581 11.6416 24.0581 6.4037 20.8274 3.17302ZM7.59435 11.0913C8.2586 10.4065 8.25225 9.31285 7.57525 8.6359L6.85745 7.9181C6.17405 7.23465 5.066 7.23465 4.38258 7.9181L3.17301 9.12765C-0.0576713 12.3584 -0.0576704 17.5963 3.17302 20.827C6.4037 24.0576 11.6416 24.0576 14.8723 20.827L16.0819 19.6174C16.7654 18.934 16.7654 17.8259 16.0819 17.1425L15.3641 16.4247C14.6807 15.7413 13.5726 15.7413 12.8892 16.4247L11.6743 17.6397C11.0035 18.3105 10.1414 18.6726 9.26335 18.7278C8.22235 18.7935 7.1589 18.4279 6.36535 17.6343C4.90264 16.1716 4.89383 13.7919 6.36 12.3257L7.59435 11.0913ZM8.6359 12.1714C8.64465 12.1627 8.65335 12.1538 8.66195 12.1451C9.45015 11.3568 10.2384 10.5688 11.0267 9.78065C11.8134 8.99415 12.6001 8.2076 13.3868 7.421C13.8329 6.9749 14.422 6.7562 15.0092 6.7649C15.576 6.77345 16.141 6.99395 16.5734 7.4263C17.4538 8.30675 17.4556 9.7367 16.5787 10.6137L10.6133 16.579C10.2169 16.9755 9.7074 17.1923 9.1867 17.2295C8.55585 17.2746 7.90865 17.056 7.42635 16.5737C6.5459 15.6932 6.54405 14.2633 7.421 13.3863L8.6359 12.1714Z" fill="#1F2723"/>
</g>
<defs>
<clipPath id="clip0_2002_1880">
<rect width="24" height="24" fill="white"/>
</clipPath>
</defs>
</svg>
