<svg width="24" height="24" viewBox="0 0 24 24" fill="none" xmlns="http://www.w3.org/2000/svg">
<path fill-rule="evenodd" clip-rule="evenodd" d="M3.59411 21.9967C5.29665 22.1189 8.0446 22.25 12 22.25C15.9554 22.25 18.7033 22.1189 20.4059 21.9967C22.0389 21.8795 23.3344 20.6446 23.4823 18.9965C23.6164 17.5033 23.75 13.7095 23.75 10.5C23.75 10.23 23.7491 9.96645 23.7472 9.70935C23.5348 9.80335 23.2776 9.91615 22.9839 10.043C22.1077 10.4215 20.9032 10.9268 19.5931 11.4328C18.2852 11.938 16.8594 12.4488 15.5433 12.8346C14.2534 13.2128 12.975 13.5 12 13.5C11.0249 13.5 9.74655 13.2128 8.4567 12.8346C7.14045 12.4488 5.71465 11.938 4.40684 11.4328C3.09669 10.9268 1.89231 10.4215 1.01614 10.043C0.722375 9.91615 0.465136 9.80335 0.252758 9.7094C0.250946 9.9665 0.25 10.23 0.25 10.5C0.25 13.7095 0.383651 17.5033 0.51765 18.9965C0.665545 20.6446 1.96106 21.8795 3.59411 21.9967ZM0.290998 7.5432C0.34079 5.8252 0.429146 5.9897 0.517655 5.00345C0.665545 3.35541 1.96106 2.12047 3.59411 2.00326C5.29665 1.88106 8.0446 1.75 12 1.75C15.9554 1.75 18.7033 1.88106 20.4059 2.00326C22.0389 2.12047 23.3344 3.35541 23.4823 5.00345C23.5708 5.9897 23.6592 5.8252 23.709 7.54315C23.6665 7.55615 23.6243 7.57215 23.5828 7.5912L23.5817 7.5917L23.5774 7.59365L23.5597 7.6017L23.4884 7.63415C23.4253 7.6628 23.3317 7.705 23.2111 7.75895C22.9698 7.86685 22.6205 8.02135 22.1908 8.207C21.3306 8.5785 20.1514 9.0732 18.8725 9.56715C17.5913 10.062 16.2225 10.5512 14.9805 10.9154C13.7122 11.2872 12.6687 11.5 12 11.5C11.3313 11.5 10.2877 11.2872 9.01935 10.9154C7.77735 10.5513 6.40865 10.062 5.12745 9.5672C3.84855 9.0732 2.66935 8.57855 1.80921 8.207C1.37948 8.0214 1.03021 7.86685 0.788915 7.759C0.668285 7.70505 0.574695 7.6628 0.51159 7.6342L0.440244 7.60175L0.422537 7.59365L0.418317 7.59175L0.417383 7.5913C0.375854 7.5722 0.333526 7.5562 0.290998 7.5432Z" fill="#1F2723"/>
</svg>
