<svg width="24" height="24" viewBox="0 0 24 24" fill="none" xmlns="http://www.w3.org/2000/svg">
<g clip-path="url(#clip0_2002_1883)">
<path fill-rule="evenodd" clip-rule="evenodd" d="M17.3118 4.25972C16.3581 3.44832 15.0345 3.15351 13.75 3.05117V1.58099C13.75 0.935345 13.3331 0.359533 12.6913 0.288624C12.4815 0.26543 12.2484 0.25 12 0.25C11.7516 0.25 11.5185 0.26543 11.3087 0.288624C10.6669 0.359532 10.25 0.93534 10.25 1.58099V3.16752C7.5598 3.62936 5 5.0998 5 8.23485C5 11.6061 8.0549 12.7466 10.7339 13.6351C10.905 13.6899 11.1206 13.745 11.3591 13.8057C12.4366 14.0803 13.98 14.4735 13.98 15.5107C13.98 16.777 12.1564 17 11.25 17C9.98535 17 8.6109 16.6869 7.49545 16.0992C6.8956 15.7831 6.1584 15.6578 5.6845 16.1455C5.3281 16.5123 5 17.0487 5 17.7807C5 18.4713 5.28135 19.0591 5.84405 19.5443C7.01945 20.5578 8.68855 20.8849 10.25 20.9723V22.419C10.25 23.0647 10.6669 23.6404 11.3087 23.7114C11.5185 23.7345 11.7516 23.75 12 23.75C12.2484 23.75 12.4815 23.7345 12.6913 23.7114C13.3331 23.6404 13.75 23.0647 13.75 22.419V20.7733C16.4478 20.2543 19 18.7745 19 15.6252C19 12.3081 16.0715 10.7886 13.2727 9.9386C13.1113 9.8888 12.8842 9.8376 12.6237 9.7789C11.5682 9.54095 9.965 9.1795 9.965 8.28695C9.965 7.1502 11.9873 7 12.75 7C13.7009 7 14.7118 7.2788 15.6384 7.66075C16.3507 7.9544 17.2153 7.95 17.6182 7.28795C17.8905 6.84055 18.0686 6.33115 18.0686 5.85535C18.0686 5.2022 17.8163 4.67029 17.3118 4.25972Z" fill="#1F2723"/>
</g>
<defs>
<clipPath id="clip0_2002_1883">
<rect width="24" height="24" fill="white"/>
</clipPath>
</defs>
</svg>
