<svg width="24" height="24" viewBox="0 0 24 24" fill="none" xmlns="http://www.w3.org/2000/svg">
<g clip-path="url(#clip0_2002_1878)">
<path fill-rule="evenodd" clip-rule="evenodd" d="M12.7857 0.879344C12.2694 0.749224 11.7303 0.749224 11.214 0.879344C7.37205 1.84755 3.26186 4.39884 1.72778 5.40885C1.09997 5.82215 0.74995 6.51795 0.75003 7.2449L0.75 8.299C0.74988 9.20825 1.45099 9.97565 2.3773 10.0252C3.77393 10.0999 6.8067 10.2182 11.9998 10.2182C17.1932 10.2182 20.2261 10.0999 21.6226 10.0252C22.5487 9.97565 23.2498 9.20855 23.2498 8.29935V7.24435C23.2498 6.51755 22.8997 5.8222 22.2723 5.4091C20.7385 4.39931 16.6279 1.84764 12.7857 0.879344ZM14 5.96825C14 7.07285 13.1046 7.96825 12 7.96825C10.8954 7.96825 10 7.07285 10 5.96825C10 4.86371 10.8954 3.96828 12 3.96828C13.1046 3.96828 14 4.86371 14 5.96825ZM14.75 11.4564C13.9093 11.4639 12.9937 11.4682 11.9998 11.4682C11.006 11.4682 10.0906 11.4639 9.25 11.4564V17.4766C10.085 17.4713 10.9998 17.4683 12 17.4683C13.0028 17.4683 13.9174 17.4713 14.75 17.4766V11.4564ZM16.25 11.4387V17.4894C18.7313 17.5162 20.3142 17.5636 21.25 17.6019V11.2956C20.2183 11.3448 18.5886 11.4039 16.25 11.4387ZM2.75 11.2956C3.78177 11.3449 5.41145 11.404 7.75 11.4387V17.4892C5.3263 17.515 3.72798 17.5602 2.75 17.5977V11.2956ZM12 23.2183C6.07685 23.2183 3.25828 23.1124 2.21166 23.0589C1.61342 23.0283 1.05659 22.6286 0.8978 21.9942C0.829755 21.7224 0.75 21.3343 0.75 20.9683C0.75 20.7062 0.77028 20.4207 0.792515 20.1834C0.861135 19.4512 1.45794 18.9072 2.17185 18.8734C3.32474 18.8188 6.2302 18.7183 12 18.7183C17.9231 18.7183 20.7417 18.8242 21.7883 18.8777C22.3866 18.9083 22.9434 19.308 23.1022 19.9424C23.1702 20.2142 23.25 20.6023 23.25 20.9683C23.25 21.3343 23.1702 21.7224 23.1022 21.9942C22.9434 22.6286 22.3866 23.0283 21.7883 23.0589C20.7417 23.1124 17.9231 23.2183 12 23.2183Z" fill="#1F2723"/>
</g>
<defs>
<clipPath id="clip0_2002_1878">
<rect width="24" height="24" fill="white"/>
</clipPath>
</defs>
</svg>
