<svg width="24" height="24" viewBox="0 0 24 24" fill="none" xmlns="http://www.w3.org/2000/svg">
<g clip-path="url(#clip0_2002_1858)">
<path d="M12.021 19.9529C12.3936 19.9529 12.7566 19.9542 13.1099 19.9568C13.3436 19.9585 13.5731 19.9609 13.7983 19.9636C13.934 19.9653 14.0681 19.9665 14.2007 19.9685C14.7954 19.9773 15.3592 19.9899 15.8921 20.0047C15.9254 20.0056 15.9586 20.0066 15.9917 20.0076H15.9897C17.6405 20.0544 18.9903 20.1246 20.0386 20.1961C20.9363 20.2573 21.6131 20.3194 22.0688 20.366C22.2965 20.3893 22.469 20.4086 22.5864 20.4226C22.645 20.4296 22.6901 20.4353 22.7212 20.4392L22.7573 20.4441L22.7681 20.4451L22.771 20.4461H22.7729L22.8989 20.4695C23.5149 20.618 23.9306 21.212 23.8433 21.8533C23.75 22.537 23.1198 23.0164 22.436 22.9236L22.4302 22.9226L22.4048 22.9187C22.3806 22.9156 22.3423 22.9112 22.2905 22.905C22.187 22.8927 22.0286 22.8741 21.8149 22.8523C21.3871 22.8086 20.7381 22.7495 19.8686 22.6902C18.1295 22.5716 15.5066 22.4529 12.0005 22.4529C10.9382 22.4529 9.95623 22.4636 9.05615 22.4822C6.98559 22.525 5.34345 22.6076 4.13134 22.6902C3.26191 22.7495 2.61286 22.8086 2.18505 22.8523C1.9714 22.8741 1.81291 22.8927 1.70947 22.905C1.65771 22.9112 1.61936 22.9156 1.59521 22.9187L1.56982 22.9226L1.56396 22.9236C0.880177 23.0165 0.249979 22.5371 0.156731 21.8533C0.0636125 21.1695 0.543333 20.5396 1.22704 20.4461H1.229L1.23193 20.4451L1.24267 20.4441L1.2788 20.4392C1.30987 20.4353 1.35506 20.4296 1.41357 20.4226C1.53097 20.4086 1.70351 20.3893 1.93115 20.366C2.38695 20.3194 3.06371 20.2573 3.96142 20.1961C4.94301 20.1291 6.18895 20.064 7.69872 20.0174C7.81215 20.0138 7.92705 20.0099 8.04345 20.0066C8.31742 19.9989 8.59965 19.9924 8.89013 19.9861C9.0111 19.9835 9.13349 19.9806 9.25732 19.9783C9.58425 19.9721 9.92116 19.9667 10.2681 19.9627C10.3697 19.9615 10.4723 19.9597 10.5757 19.9588C11.032 19.9545 11.5049 19.9529 11.9946 19.9529H12.021Z" fill="#1F2723"/>
<path d="M7.72216 8.33376C8.00897 8.16707 8.32526 8.22712 8.53661 8.39333C8.74159 8.55483 8.86763 8.82818 8.81884 9.1238C8.71364 9.76117 8.71681 10.4284 8.84521 11.1013C9.42981 14.1641 12.3868 16.174 15.4497 15.5896C16.1225 15.4612 16.7436 15.2179 17.2974 14.8855C17.5544 14.7313 17.8549 14.7482 18.0806 14.8797C18.3127 15.0149 18.4843 15.2863 18.4351 15.614C18.2599 16.7767 17.7994 17.8662 17.1177 18.7947C15.6783 18.7407 13.972 18.7029 11.9995 18.7029C9.39662 18.7029 7.25792 18.7675 5.58349 18.8504C4.94773 18.0029 4.48981 17.0011 4.27782 15.8904C3.69086 12.8141 5.16104 9.82239 7.72216 8.33376Z" fill="#1F2723"/>
<path d="M11.2895 1.28688C11.7269 0.990892 12.2731 0.990867 12.7104 1.28688C13.1286 1.56994 13.7096 2.04128 14.3931 2.80739C14.9711 3.45533 15.3623 3.97234 15.6226 4.35719C15.9063 4.77726 15.6456 5.26402 15.1401 5.30446C14.758 5.33505 14.2527 5.36547 13.6079 5.38552C13.5783 6.55407 13.527 7.49347 13.4868 8.10427C13.4552 8.58397 13.1322 8.98671 12.6538 9.03395C12.4681 9.05228 12.2499 9.06422 12.0005 9.06423C11.7508 9.06423 11.532 9.0523 11.3462 9.03395C10.868 8.98654 10.5457 8.58384 10.5142 8.10427C10.474 7.49352 10.4227 6.55412 10.3931 5.38552C9.7479 5.36552 9.24222 5.33505 8.85986 5.30446C8.35442 5.26402 8.09372 4.77729 8.37743 4.35719C8.63763 3.97236 9.02908 3.45522 9.60693 2.80739C10.2904 2.0412 10.8713 1.56991 11.2895 1.28688Z" fill="#1F2723"/>
</g>
<defs>
<clipPath id="clip0_2002_1858">
<rect width="24" height="24" fill="white"/>
</clipPath>
</defs>
</svg>
