<svg width="24" height="24" viewBox="0 0 24 24" fill="none" xmlns="http://www.w3.org/2000/svg">
<g clip-path="url(#clip0_2002_1765)">
<path d="M16.32 7.29999C14.6079 7.29999 13.22 8.68791 13.22 10.4C13.22 11.4318 13.7241 12.3455 14.4988 12.9088C13.5049 13.386 12.757 14.2452 12.5085 15.2867C12.3665 15.8814 12.7828 16.3964 13.3386 16.4931C13.9147 16.5933 14.8687 16.7 16.32 16.7C17.7713 16.7 18.7253 16.5933 19.3014 16.4931C19.8572 16.3964 20.2734 15.8814 20.1315 15.2867C19.883 14.2452 19.1351 13.386 18.1412 12.9088C18.9159 12.3455 19.42 11.4318 19.42 10.4C19.42 8.68791 18.0321 7.29999 16.32 7.29999Z" fill="#1F2723"/>
<path d="M7.68001 7.29999C5.96793 7.29999 4.58 8.68791 4.58 10.4C4.58 11.4318 5.08409 12.3455 5.85877 12.9088C4.8649 13.386 4.11704 14.2452 3.86848 15.2867C3.72655 15.8814 4.14279 16.3964 4.6986 16.4931C5.27473 16.5933 6.22867 16.7 7.68001 16.7C9.13133 16.7 10.0853 16.5933 10.6614 16.4931C11.2172 16.3964 11.6334 15.8814 11.4915 15.2867C11.243 14.2452 10.4951 13.386 9.50125 12.9088C10.2759 12.3455 10.78 11.4318 10.78 10.4C10.78 8.68791 9.39209 7.29999 7.68001 7.29999Z" fill="#1F2723"/>
</g>
<defs>
<clipPath id="clip0_2002_1765">
<rect width="24" height="24" fill="white"/>
</clipPath>
</defs>
</svg>
