<svg width="24" height="24" viewBox="0 0 24 24" fill="none" xmlns="http://www.w3.org/2000/svg">
<g clip-path="url(#clip0_2002_1791)">
<path d="M11.9999 9.81995C10.2879 9.81995 8.89993 11.2079 8.89993 12.92C8.89993 13.9518 9.40402 14.8654 10.1787 15.4288C9.18483 15.9059 8.43697 16.7652 8.18841 17.8067C8.04648 18.4014 8.46273 18.9164 9.01853 19.0131C9.59466 19.1133 10.5486 19.22 11.9999 19.22C13.4513 19.22 14.4052 19.1133 14.9813 19.0131C15.5371 18.9164 15.9534 18.4014 15.8115 17.8067C15.5629 16.7652 14.815 15.9059 13.8212 15.4288C14.5958 14.8654 15.0999 13.9518 15.0999 12.92C15.0999 11.2079 13.712 9.81995 11.9999 9.81995Z" fill="#1F2723"/>
<path d="M7.68003 8.37999C8.67878 8.38002 9.56653 8.85284 10.1335 9.58632C8.96772 10.2404 8.17995 11.4883 8.17995 12.9201C8.17998 13.8232 8.49404 14.6528 9.01714 15.306C8.27003 15.8884 7.71356 16.6948 7.48807 17.6397C7.47692 17.6864 7.46817 17.7329 7.46089 17.7789C6.13191 17.7688 5.24517 17.6682 4.69854 17.5731C4.14277 17.4764 3.72653 16.9615 3.86839 16.3668C4.11694 15.3253 4.86484 14.466 5.8587 13.9888C5.08405 13.4255 4.57999 12.5118 4.57995 11.4801C4.57995 9.76799 5.96795 8.37999 7.68003 8.37999Z" fill="#1F2723"/>
<path d="M16.3199 8.37999C18.032 8.37999 19.42 9.76799 19.42 11.4801C19.4199 12.5118 18.9158 13.4255 18.1412 13.9888C19.135 14.466 19.883 15.3253 20.1315 16.3668C20.2734 16.9615 19.8571 17.4764 19.3014 17.5731C18.7547 17.6682 17.868 17.7688 16.539 17.7789C16.5317 17.7329 16.5232 17.6864 16.5121 17.6397C16.2866 16.6948 15.7299 15.8884 14.9828 15.306C15.5059 14.6528 15.8202 13.8233 15.8202 12.9201C15.8202 11.4882 15.0321 10.2404 13.8662 9.58632C14.4331 8.85278 15.3211 8.38001 16.3199 8.37999Z" fill="#1F2723"/>
<path d="M19.6799 6.45999C21.392 6.45999 22.78 7.84799 22.78 9.56007C22.7799 10.5918 22.2758 11.5055 21.5012 12.0688C22.495 12.546 23.243 13.4053 23.4915 14.4468C23.6334 15.0415 23.2171 15.5564 22.6614 15.6531C22.2374 15.7269 21.6087 15.8038 20.7278 15.8394C20.4588 15.0495 19.9529 14.3729 19.3025 13.866C19.8257 13.2127 20.1399 12.3833 20.14 11.4801C20.14 9.65951 18.8664 8.13639 17.1615 7.75304C17.7242 6.9702 18.6422 6.46001 19.6799 6.45999Z" fill="#1F2723"/>
<path d="M4.31988 6.45999C5.35748 6.45999 6.27532 6.97028 6.838 7.75304C5.13337 8.13653 3.8598 9.65966 3.8598 11.4801C3.85983 12.3832 4.17392 13.2128 4.69699 13.866C4.04673 14.3729 3.54106 15.0496 3.27222 15.8394C2.3913 15.8038 1.76265 15.7269 1.33863 15.6531C0.782852 15.5564 0.366606 15.0415 0.508472 14.4468C0.757028 13.4053 1.50491 12.546 2.49878 12.0688C1.72413 11.5055 1.22007 10.5918 1.22003 9.56007C1.22003 7.84801 2.60783 6.46003 4.31988 6.45999Z" fill="#1F2723"/>
<path d="M15.3598 4.78003C16.4353 4.78003 17.3827 5.32787 17.9387 6.15956C17.3963 6.43804 16.9296 6.84226 16.577 7.33284L16.3414 7.66026C16.3342 7.66022 16.327 7.66003 16.3198 7.66003C15.0884 7.66007 13.9938 8.24396 13.2966 9.14597L13.1865 9.28823C12.9737 9.21876 12.7527 9.16796 12.5253 9.13659C12.3548 8.75258 12.26 8.32747 12.26 7.88011C12.26 6.16805 13.6478 4.78006 15.3598 4.78003Z" fill="#1F2723"/>
<path d="M8.15991 4.78003C9.87199 4.78003 11.26 6.16803 11.26 7.88011C11.26 8.37161 11.145 8.83608 10.9415 9.24886C10.8984 9.26125 10.8557 9.27438 10.8133 9.28823L10.7034 9.14597C10.028 8.27224 8.97969 7.69684 7.79523 7.66167L7.68015 7.66003C7.67282 7.66003 7.66543 7.66022 7.65812 7.66026L7.4228 7.33284C6.99373 6.73596 6.39543 6.26718 5.6978 5.9969C6.26436 5.25726 7.15625 4.78003 8.15991 4.78003Z" fill="#1F2723"/>
</g>
<defs>
<clipPath id="clip0_2002_1791">
<rect width="24" height="24" fill="white"/>
</clipPath>
</defs>
</svg>
