<svg width="24" height="24" viewBox="0 0 24 24" fill="none" xmlns="http://www.w3.org/2000/svg">
<g clip-path="url(#clip0_2002_1733)">
<path d="M11.9999 10.8999C10.2879 10.8999 8.89994 12.2878 8.89994 13.9999C8.89994 15.0317 9.40403 15.9454 10.1787 16.5087C9.18484 16.9859 8.43698 17.8451 8.18842 18.8866C8.04649 19.4814 8.46273 19.9963 9.01854 20.093C9.59467 20.1932 10.5486 20.2999 11.9999 20.2999C13.4513 20.2999 14.4052 20.1932 14.9813 20.093C15.5371 19.9963 15.9534 19.4814 15.8115 18.8866C15.5629 17.8451 14.815 16.9859 13.8212 16.5087C14.5958 15.9454 15.0999 15.0317 15.0999 13.9999C15.0999 12.2878 13.712 10.8999 11.9999 10.8999Z" fill="#1F2723"/>
<path d="M7.68004 9.45994C8.67879 9.45996 9.56654 9.93279 10.1335 10.6663C8.96773 11.3204 8.17996 12.5682 8.17996 14C8.17998 14.9032 8.49405 15.7327 9.01715 16.386C8.27004 16.9683 7.71357 17.7748 7.48808 18.7196C7.47692 18.7664 7.46818 18.8129 7.4609 18.8588C6.13192 18.8488 5.24518 18.7481 4.69855 18.6531C4.14278 18.5564 3.72654 18.0414 3.86839 17.4467C4.11695 16.4052 4.86485 15.5459 5.85871 15.0688C5.08406 14.5055 4.57999 13.5918 4.57996 12.56C4.57996 10.8479 5.96796 9.45994 7.68004 9.45994Z" fill="#1F2723"/>
<path d="M16.3199 9.45994C18.032 9.45994 19.42 10.8479 19.42 12.56C19.4199 13.5918 18.9158 14.5055 18.1412 15.0688C19.135 15.5459 19.883 16.4052 20.1315 17.4467C20.2734 18.0414 19.8571 18.5564 19.3014 18.6531C18.7548 18.7481 17.868 18.8488 16.539 18.8588C16.5317 18.8129 16.5232 18.7664 16.5121 18.7196C16.2866 17.7748 15.7299 16.9683 14.9828 16.386C15.5059 15.7327 15.8202 14.9032 15.8202 14C15.8202 12.5681 15.0321 11.3203 13.8662 10.6663C14.4331 9.93273 15.3211 9.45996 16.3199 9.45994Z" fill="#1F2723"/>
<path d="M19.6799 7.53994C21.392 7.53994 22.78 8.92793 22.78 10.64C22.7799 11.6718 22.2758 12.5855 21.5012 13.1488C22.4951 13.6259 23.243 14.4852 23.4915 15.5267C23.6334 16.1214 23.2171 16.6364 22.6614 16.7331C22.2374 16.8068 21.6087 16.8837 20.7278 16.9194C20.4589 16.1295 19.9529 15.4529 19.3025 14.946C19.8257 14.2927 20.1399 13.4632 20.14 12.56C20.14 10.7395 18.8664 9.21634 17.1615 8.83298C17.7242 8.05015 18.6422 7.53996 19.6799 7.53994Z" fill="#1F2723"/>
<path d="M4.31989 7.53994C5.35749 7.53994 6.27532 8.05023 6.83801 8.83298C5.13338 9.21648 3.85981 10.7396 3.85981 12.56C3.85984 13.4631 4.17393 14.2927 4.697 14.946C4.04674 15.4528 3.54107 16.1295 3.27223 16.9194C2.39131 16.8837 1.76265 16.8068 1.33864 16.7331C0.782859 16.6364 0.366614 16.1214 0.50848 15.5267C0.757036 14.4852 1.50492 13.6259 2.49879 13.1488C1.72414 12.5855 1.22008 11.6718 1.22004 10.64C1.22004 8.92795 2.60784 7.53997 4.31989 7.53994Z" fill="#1F2723"/>
<path d="M11.9999 6.33997C13.5461 6.33997 14.8277 7.47204 15.0615 8.95255C14.3555 9.19912 13.7442 9.64692 13.2967 10.2259L13.1865 10.3682C12.8131 10.2462 12.4143 10.18 12.0001 10.18C11.5858 10.18 11.1868 10.2462 10.8133 10.3682L10.7033 10.2259C10.2558 9.64685 9.64429 9.19889 8.93802 8.95232C9.17192 7.47191 10.4537 6.33999 11.9999 6.33997Z" fill="#1F2723"/>
<path d="M16.3198 6.10001C17.1737 6.10001 17.9469 6.4453 18.5075 7.00376C17.7218 7.25719 17.0476 7.75796 16.577 8.41282L16.3414 8.74025C16.3343 8.74021 16.327 8.74001 16.3198 8.74001C16.1305 8.74002 15.9444 8.75368 15.7625 8.78032C15.6153 7.93559 15.1906 7.18654 14.5862 6.6297C15.081 6.29526 15.6776 6.10003 16.3198 6.10001Z" fill="#1F2723"/>
<path d="M7.19985 6.10001C7.96472 6.10001 8.66454 6.37748 9.20516 6.83665C8.71172 7.36633 8.36666 8.0362 8.23696 8.78032C8.09219 8.75914 7.94476 8.74609 7.79516 8.74165L7.68008 8.74001C7.67274 8.74001 7.66539 8.7402 7.65805 8.74025L7.42274 8.41282C6.87875 7.65607 6.06299 7.10484 5.11719 6.90368C5.66751 6.40426 6.39817 6.10003 7.19985 6.10001Z" fill="#1F2723"/>
<path d="M15.1198 3.70001C16.4804 3.70001 17.6363 4.57658 18.0535 5.79579C17.5606 5.54425 17.0058 5.39607 16.4183 5.38118L16.3198 5.38001C15.5295 5.38004 14.7932 5.62082 14.183 6.03322L13.9779 6.1715C13.4678 5.862 12.8792 5.66879 12.249 5.62822C12.7111 4.49705 13.8224 3.70005 15.1198 3.70001Z" fill="#1F2723"/>
<path d="M8.87982 3.70001C10.1774 3.70001 11.2886 4.49732 11.7507 5.62868C11.0046 5.67676 10.3171 5.93839 9.74865 6.35384L9.6713 6.28798C9.02653 5.74036 8.19595 5.40157 7.28795 5.38095L7.19982 5.38001C6.79487 5.38003 6.40433 5.44306 6.03779 5.56001C6.51613 4.46515 7.60864 3.70005 8.87982 3.70001Z" fill="#1F2723"/>
</g>
<defs>
<clipPath id="clip0_2002_1733">
<rect width="24" height="24" fill="white"/>
</clipPath>
</defs>
</svg>
