<svg width="24" height="24" viewBox="0 0 24 24" fill="none" xmlns="http://www.w3.org/2000/svg">
<g clip-path="url(#clip0_2002_1762)">
<path d="M11.9999 9.17088C13.7119 9.17088 15.0999 10.5587 15.1 12.2707C15.1 13.3025 14.5959 14.2164 13.8212 14.7797C14.815 15.2569 15.563 16.116 15.8115 17.1574C15.9534 17.7522 15.5372 18.2673 14.9814 18.364C14.4052 18.4642 13.4512 18.5707 11.9999 18.5707C10.5487 18.5707 9.59476 18.4642 9.01863 18.364C8.46282 18.2673 8.04654 17.7522 8.18847 17.1574C8.43705 16.116 9.18495 15.2569 10.1788 14.7797C9.40411 14.2164 8.90004 13.3025 8.90004 12.2707C8.90008 10.5587 10.2879 9.17091 11.9999 9.17088Z" fill="#1F2723"/>
<path d="M7.68011 7.73088C8.67883 7.73094 9.56664 8.20376 10.1336 8.93721C8.96781 9.59132 8.18004 10.8392 8.18004 12.271C8.18007 13.1741 8.49413 14.0037 9.01722 14.6569C8.27012 15.2393 7.71364 16.0457 7.48816 16.9906C7.47701 17.0373 7.46826 17.0838 7.46097 17.1298C6.13208 17.1197 5.24527 17.0191 4.69863 16.924C4.14286 16.8273 3.72663 16.3124 3.86847 15.7177C4.11703 14.6762 4.86493 13.8169 5.85879 13.3397C5.08414 12.7764 4.58009 11.8627 4.58004 10.831C4.58004 9.11888 5.96803 7.73088 7.68011 7.73088Z" fill="#1F2723"/>
<path d="M16.3199 7.73088C18.0319 7.73091 19.42 9.1189 19.42 10.831C19.4199 11.8627 18.9158 12.7764 18.1412 13.3397C19.135 13.8169 19.883 14.6762 20.1315 15.7177C20.2733 16.3123 19.8571 16.8273 19.3014 16.924C18.7548 17.0191 17.868 17.1197 16.539 17.1298C16.5317 17.0838 16.5232 17.0373 16.5121 16.9906C16.2866 16.0457 15.7299 15.2393 14.9828 14.6569C15.5059 14.0037 15.8202 13.1742 15.8202 12.271C15.8202 10.8391 15.0321 9.5913 13.8662 8.93721C14.4331 8.20368 15.3211 7.7309 16.3199 7.73088Z" fill="#1F2723"/>
<path d="M11.9999 5.42932C13.3093 5.42932 14.4291 6.24127 14.8834 7.38917C14.2526 7.64564 13.7061 8.06554 13.2967 8.59526L13.1865 8.73752C12.813 8.61557 12.4141 8.54932 11.9999 8.54932C11.5856 8.54934 11.1867 8.61532 10.8132 8.73729L10.7033 8.59526C10.2938 8.06548 9.74705 7.64566 9.11611 7.38917C9.57033 6.24122 10.6904 5.42935 11.9999 5.42932Z" fill="#1F2723"/>
</g>
<defs>
<clipPath id="clip0_2002_1762">
<rect width="24" height="24" fill="white"/>
</clipPath>
</defs>
</svg>
