<svg width="24" height="24" viewBox="0 0 24 24" fill="none" xmlns="http://www.w3.org/2000/svg">
<g clip-path="url(#clip0_2002_1734)">
<path d="M11.9999 9.57994C10.2879 9.57994 8.89994 10.9679 8.89994 12.6799C8.89994 13.7118 9.40403 14.6254 10.1787 15.1887C9.18484 15.6659 8.43698 16.5251 8.18842 17.5667C8.04649 18.1614 8.46273 18.6764 9.01854 18.7731C9.59467 18.8733 10.5486 18.9799 11.9999 18.9799C13.4513 18.9799 14.4052 18.8733 14.9813 18.7731C15.5371 18.6764 15.9534 18.1614 15.8115 17.5667C15.5629 16.5251 14.815 15.6659 13.8212 15.1887C14.5958 14.6254 15.0999 13.7118 15.0999 12.6799C15.0999 10.9679 13.712 9.57994 11.9999 9.57994Z" fill="#1F2723"/>
<path d="M7.68004 8.13998C8.67879 8.14001 9.56654 8.61283 10.1335 9.34631C8.96773 10.0004 8.17996 11.2483 8.17996 12.6801C8.17998 13.5832 8.49405 14.4128 9.01715 15.066C8.27004 15.6484 7.71357 16.4548 7.48808 17.3997C7.47692 17.4464 7.46818 17.4929 7.4609 17.5389C6.13192 17.5288 5.24518 17.4282 4.69855 17.3331C4.14278 17.2364 3.72654 16.7215 3.86839 16.1268C4.11695 15.0853 4.86485 14.226 5.85871 13.7488C5.08406 13.1855 4.57999 12.2718 4.57996 11.2401C4.57996 9.52798 5.96796 8.13998 7.68004 8.13998Z" fill="#1F2723"/>
<path d="M16.3199 8.13998C18.032 8.13998 19.42 9.52798 19.42 11.2401C19.4199 12.2718 18.9158 13.1855 18.1412 13.7488C19.135 14.226 19.883 15.0853 20.1315 16.1268C20.2734 16.7215 19.8571 17.2364 19.3014 17.3331C18.7548 17.4282 17.868 17.5288 16.539 17.5389C16.5317 17.4929 16.5232 17.4464 16.5121 17.3997C16.2866 16.4548 15.7299 15.6484 14.9828 15.066C15.5059 14.4128 15.8202 13.5833 15.8202 12.6801C15.8202 11.2482 15.0321 10.0004 13.8662 9.34631C14.4331 8.61277 15.3211 8.14 16.3199 8.13998Z" fill="#1F2723"/>
<path d="M19.6799 6.21998C21.392 6.21998 22.78 7.60798 22.78 9.32006C22.7799 10.3518 22.2758 11.2655 21.5012 11.8288C22.4951 12.306 23.243 13.1653 23.4915 14.2068C23.6334 14.8015 23.2171 15.3164 22.6614 15.4131C22.2374 15.4868 21.6087 15.5638 20.7278 15.5994C20.4589 14.8095 19.9529 14.1329 19.3025 13.626C19.8257 12.9727 20.1399 12.1433 20.14 11.2401C20.14 9.4195 18.8664 7.89638 17.1615 7.51303C17.7242 6.73019 18.6422 6.22 19.6799 6.21998Z" fill="#1F2723"/>
<path d="M4.31989 6.21998C5.35749 6.21998 6.27532 6.73027 6.83801 7.51303C5.13338 7.89652 3.85981 9.41965 3.85981 11.2401C3.85984 12.1432 4.17393 12.9728 4.697 13.626C4.04674 14.1329 3.54107 14.8096 3.27223 15.5994C2.39131 15.5638 1.76265 15.4868 1.33864 15.4131C0.782859 15.3164 0.366614 14.8015 0.50848 14.2068C0.757036 13.1653 1.50492 12.306 2.49879 11.8288C1.72414 11.2655 1.22008 10.3518 1.22004 9.32006C1.22004 7.608 2.60784 6.22002 4.31989 6.21998Z" fill="#1F2723"/>
<path d="M11.9999 5.02002C13.5461 5.02002 14.8277 6.15209 15.0615 7.6326C14.3555 7.87917 13.7442 8.32697 13.2967 8.90596L13.1865 9.04822C12.8131 8.92629 12.4143 8.86003 12.0001 8.86002C11.5858 8.86002 11.1868 8.92622 10.8133 9.04822L10.7033 8.90596C10.2558 8.32689 9.64429 7.87893 8.93802 7.63236C9.17192 6.15195 10.4537 5.02003 11.9999 5.02002Z" fill="#1F2723"/>
</g>
<defs>
<clipPath id="clip0_2002_1734">
<rect width="24" height="24" fill="white"/>
</clipPath>
</defs>
</svg>
