<svg width="24" height="24" viewBox="0 0 24 24" fill="none" xmlns="http://www.w3.org/2000/svg">
<g clip-path="url(#clip0_2002_1735)">
<path d="M11.9999 11.26C10.2879 11.26 8.89994 12.6479 8.89994 14.36C8.89994 15.3918 9.40403 16.3055 10.1787 16.8688C9.18484 17.346 8.43698 18.2052 8.18842 19.2467C8.04649 19.8414 8.46273 20.3564 9.01854 20.4531C9.59467 20.5533 10.5486 20.66 11.9999 20.66C13.4513 20.66 14.4052 20.5533 14.9813 20.4531C15.5371 20.3564 15.9534 19.8414 15.8115 19.2467C15.5629 18.2052 14.815 17.346 13.8212 16.8688C14.5958 16.3055 15.0999 15.3918 15.0999 14.36C15.0999 12.6479 13.712 11.26 11.9999 11.26Z" fill="#1F2723"/>
<path d="M7.68004 9.82001C8.67879 9.82004 9.56654 10.2929 10.1335 11.0263C8.96773 11.6805 8.17996 12.9283 8.17996 14.3601C8.17998 15.2633 8.49405 16.0928 9.01715 16.746C8.27004 17.3284 7.71357 18.1349 7.48808 19.0797C7.47692 19.1265 7.46818 19.1729 7.4609 19.2189C6.13192 19.2088 5.24518 19.1082 4.69855 19.0131C4.14278 18.9165 3.72654 18.4015 3.86839 17.8068C4.11695 16.7653 4.86485 15.906 5.85871 15.4288C5.08406 14.8655 4.57999 13.9519 4.57996 12.9201C4.57996 11.208 5.96796 9.82001 7.68004 9.82001Z" fill="#1F2723"/>
<path d="M16.3199 9.82001C18.032 9.82001 19.42 11.208 19.42 12.9201C19.4199 13.9519 18.9158 14.8655 18.1412 15.4288C19.135 15.906 19.883 16.7653 20.1315 17.8068C20.2734 18.4015 19.8571 18.9165 19.3014 19.0131C18.7548 19.1082 17.868 19.2088 16.539 19.2189C16.5317 19.173 16.5232 19.1265 16.5121 19.0797C16.2866 18.1348 15.7299 17.3284 14.9828 16.746C15.5059 16.0928 15.8202 15.2633 15.8202 14.3601C15.8202 12.9282 15.0321 11.6804 13.8662 11.0263C14.4331 10.2928 15.3211 9.82003 16.3199 9.82001Z" fill="#1F2723"/>
<path d="M19.6799 7.90001C21.392 7.90001 22.78 9.28801 22.78 11.0001C22.7799 12.0319 22.2758 12.9455 21.5012 13.5088C22.4951 13.986 23.243 14.8453 23.4915 15.8868C23.6334 16.4815 23.2171 16.9965 22.6614 17.0931C22.2374 17.1669 21.6087 17.2438 20.7278 17.2795C20.4589 16.4896 19.9529 15.8129 19.3025 15.306C19.8257 14.6528 20.1399 13.8233 20.14 12.9201C20.14 11.0995 18.8664 9.57642 17.1615 9.19306C17.7242 8.41022 18.6422 7.90003 19.6799 7.90001Z" fill="#1F2723"/>
<path d="M4.31989 7.90001C5.35749 7.90001 6.27532 8.4103 6.83801 9.19306C5.13338 9.57655 3.85981 11.0997 3.85981 12.9201C3.85984 13.8232 4.17393 14.6528 4.697 15.306C4.04674 15.8129 3.54107 16.4896 3.27223 17.2795C2.39131 17.2438 1.76265 17.1669 1.33864 17.0931C0.782859 16.9965 0.366614 16.4815 0.50848 15.8868C0.757036 14.8453 1.50492 13.986 2.49879 13.5088C1.72414 12.9455 1.22008 12.0319 1.22004 11.0001C1.22004 9.28803 2.60784 7.90005 4.31989 7.90001Z" fill="#1F2723"/>
<path d="M11.9999 6.70005C13.5461 6.70005 14.8277 7.83212 15.0615 9.31263C14.3555 9.5592 13.7442 10.007 13.2967 10.586L13.1865 10.7283C12.8131 10.6063 12.4143 10.5401 12.0001 10.5401C11.5858 10.5401 11.1868 10.6063 10.8133 10.7283L10.7033 10.586C10.2558 10.0069 9.64429 9.55896 8.93802 9.31239C9.17192 7.83198 10.4537 6.70006 11.9999 6.70005Z" fill="#1F2723"/>
<path d="M16.3198 6.46009C17.1737 6.46009 17.9469 6.80538 18.5075 7.36384C17.7218 7.61726 17.0476 8.11804 16.577 8.7729L16.3414 9.10032C16.3343 9.10028 16.327 9.10009 16.3198 9.10009C16.1305 9.10009 15.9444 9.11376 15.7625 9.1404C15.6153 8.29567 15.1906 7.54661 14.5862 6.98978C15.081 6.65533 15.6776 6.4601 16.3198 6.46009Z" fill="#1F2723"/>
<path d="M7.19985 6.46009C7.96472 6.46009 8.66454 6.73756 9.20516 7.19673C8.71172 7.7264 8.36666 8.39628 8.23696 9.1404C8.09219 9.11921 7.94476 9.10617 7.79516 9.10173L7.68008 9.10009C7.67274 9.10009 7.66539 9.10028 7.65805 9.10032L7.42274 8.7729C6.87875 8.01615 6.06299 7.46492 5.11719 7.26376C5.66751 6.76433 6.39817 6.4601 7.19985 6.46009Z" fill="#1F2723"/>
<path fill-rule="evenodd" clip-rule="evenodd" d="M12 3.34009C13.6355 3.34013 15.0307 4.36807 15.5754 5.81298C15.0683 5.91327 14.5966 6.11373 14.183 6.39329L13.9779 6.53157C13.4011 6.18165 12.724 5.98009 11.9998 5.98009C11.1578 5.98012 10.3798 6.2526 9.74861 6.71392L9.67126 6.64806C9.29731 6.33046 8.86071 6.0836 8.3829 5.92782C8.89556 4.42272 10.3215 3.34009 12 3.34009Z" fill="#1F2723"/>
</g>
<defs>
<clipPath id="clip0_2002_1735">
<rect width="24" height="24" fill="white"/>
</clipPath>
</defs>
</svg>
