<svg width="24" height="24" viewBox="0 0 24 24" fill="none" xmlns="http://www.w3.org/2000/svg">
<g clip-path="url(#clip0_2002_1736)">
<path d="M12 7.29999C10.2879 7.29999 8.89999 8.68791 8.89999 10.4C8.89999 11.4318 9.40408 12.3455 10.1788 12.9088C9.18489 13.386 8.43703 14.2452 8.18847 15.2867C8.04654 15.8814 8.46279 16.3964 9.01859 16.4931C9.59472 16.5933 10.5487 16.7 12 16.7C13.4513 16.7 14.4053 16.5933 14.9814 16.4931C15.5372 16.3964 15.9534 15.8814 15.8115 15.2867C15.563 14.2452 14.8151 13.386 13.8212 12.9088C14.5959 12.3455 15.1 11.4318 15.1 10.4C15.1 8.68791 13.7121 7.29999 12 7.29999Z" fill="#1F2723"/>
</g>
<defs>
<clipPath id="clip0_2002_1736">
<rect width="24" height="24" fill="white"/>
</clipPath>
</defs>
</svg>
