<svg width="24" height="24" viewBox="0 0 24 24" fill="none" xmlns="http://www.w3.org/2000/svg">
<g clip-path="url(#clip0_2002_1729)">
<path d="M11.9999 9.69991C10.2879 9.69991 8.89993 11.0878 8.89993 12.7999C8.89993 13.8317 9.40402 14.7454 10.1787 15.3087C9.18483 15.7859 8.43697 16.6451 8.18841 17.6866C8.04648 18.2814 8.46273 18.7964 9.01853 18.893C9.59466 18.9932 10.5486 19.0999 11.9999 19.0999C13.4513 19.0999 14.4052 18.9932 14.9813 18.893C15.5371 18.7964 15.9534 18.2814 15.8115 17.6866C15.5629 16.6451 14.815 15.7859 13.8212 15.3087C14.5958 14.7454 15.0999 13.8317 15.0999 12.7999C15.0999 11.0878 13.712 9.69991 11.9999 9.69991Z" fill="#1F2723"/>
<path d="M7.68003 8.25995C8.67878 8.25998 9.56653 8.7328 10.1335 9.46628C8.96772 10.1204 8.17995 11.3682 8.17995 12.8C8.17998 13.7032 8.49404 14.5327 9.01714 15.186C8.27003 15.7683 7.71356 16.5748 7.48807 17.5196C7.47692 17.5664 7.46817 17.6129 7.46089 17.6589C6.13191 17.6488 5.24517 17.5481 4.69854 17.4531C4.14277 17.3564 3.72653 16.8414 3.86839 16.2467C4.11694 15.2052 4.86484 14.346 5.8587 13.8688C5.08405 13.3055 4.57999 12.3918 4.57995 11.36C4.57995 9.64795 5.96795 8.25995 7.68003 8.25995Z" fill="#1F2723"/>
<path d="M16.3199 8.25995C18.032 8.25995 19.42 9.64795 19.42 11.36C19.4199 12.3918 18.9158 13.3055 18.1412 13.8688C19.135 14.346 19.883 15.2052 20.1315 16.2467C20.2734 16.8414 19.8571 17.3564 19.3014 17.4531C18.7547 17.5481 17.868 17.6488 16.539 17.6589C16.5317 17.6129 16.5232 17.5664 16.5121 17.5196C16.2866 16.5748 15.7299 15.7683 14.9828 15.186C15.5059 14.5327 15.8202 13.7032 15.8202 12.8C15.8202 11.3681 15.0321 10.1204 13.8662 9.46628C14.4331 8.73274 15.3211 8.25997 16.3199 8.25995Z" fill="#1F2723"/>
<path d="M19.6799 6.33995C21.392 6.33995 22.78 7.72795 22.78 9.44003C22.7799 10.4718 22.2758 11.3855 21.5012 11.9488C22.495 12.426 23.243 13.2852 23.4915 14.3267C23.6334 14.9214 23.2171 15.4364 22.6614 15.5331C22.2374 15.6068 21.6087 15.6837 20.7278 15.7194C20.4588 14.9295 19.9529 14.2529 19.3025 13.746C19.8257 13.0927 20.1399 12.2632 20.14 11.36C20.14 9.53947 18.8664 8.01635 17.1615 7.633C17.7242 6.85016 18.6422 6.33997 19.6799 6.33995Z" fill="#1F2723"/>
<path d="M4.31988 6.33995C5.35748 6.33995 6.27532 6.85024 6.838 7.633C5.13337 8.01649 3.8598 9.53962 3.8598 11.36C3.85983 12.2632 4.17392 13.0927 4.69699 13.746C4.04673 14.2529 3.54106 14.9295 3.27222 15.7194C2.3913 15.6838 1.76265 15.6068 1.33863 15.5331C0.782852 15.4364 0.366606 14.9214 0.508472 14.3267C0.757028 13.2852 1.50491 12.426 2.49878 11.9488C1.72413 11.3855 1.22007 10.4718 1.22003 9.44003C1.22003 7.72797 2.60783 6.33998 4.31988 6.33995Z" fill="#1F2723"/>
<path d="M11.9999 5.13999C13.5461 5.13999 14.8277 6.27205 15.0615 7.75257C14.3554 7.99913 13.7442 8.44694 13.2967 9.02592L13.1865 9.16819C12.813 9.04625 12.4143 8.98 12.0001 8.97999C11.5858 8.97999 11.1868 9.04619 10.8132 9.16819L10.7033 9.02592C10.2557 8.44686 9.64428 7.9989 8.93801 7.75233C9.17191 6.27192 10.4537 5.14 11.9999 5.13999Z" fill="#1F2723"/>
<path d="M16.3198 4.90002C17.1737 4.90002 17.9469 5.24532 18.5075 5.80377C17.7218 6.0572 17.0476 6.55798 16.577 7.21284L16.3414 7.54026C16.3342 7.54022 16.327 7.54002 16.3198 7.54002C16.1305 7.54003 15.9444 7.5537 15.7625 7.58034C15.6152 6.7356 15.1906 5.98655 14.5862 5.42971C15.081 5.09527 15.6776 4.90004 16.3198 4.90002Z" fill="#1F2723"/>
<path d="M7.19984 4.90002C7.96472 4.90002 8.66453 5.1775 9.20516 5.63667C8.71172 6.16634 8.36666 6.83621 8.23695 7.58034C8.09218 7.55915 7.94475 7.5461 7.79516 7.54167L7.68008 7.54002C7.67273 7.54002 7.66538 7.54022 7.65805 7.54026L7.42273 7.21284C6.87874 6.45609 6.06298 5.90485 5.11719 5.7037C5.6675 5.20427 6.39816 4.90004 7.19984 4.90002Z" fill="#1F2723"/>
</g>
<defs>
<clipPath id="clip0_2002_1729">
<rect width="24" height="24" fill="white"/>
</clipPath>
</defs>
</svg>
