<svg width="24" height="24" viewBox="0 0 24 24" fill="none" xmlns="http://www.w3.org/2000/svg">
<g clip-path="url(#clip0_2002_1836)">
<g clip-path="url(#clip1_2002_1836)">
<path fill-rule="evenodd" clip-rule="evenodd" d="M17.3243 3.93958C14.3414 6.97885 11.3681 10.1616 10.376 11.2288C10.146 11.4762 9.95898 11.7787 10.0305 12.1088C10.0942 12.4022 10.2749 12.8043 10.7351 13.2646C11.1955 13.7249 11.5977 13.9056 11.8911 13.9692C12.2211 14.0408 12.5235 13.8538 12.7709 13.6239C13.8382 12.6319 17.0213 9.6587 20.0608 6.6758L20.1384 9.30065C20.1509 9.72425 20.4275 10.1045 20.8446 10.1793C21.4766 10.2926 22.1012 10.2756 22.6575 10.0848C22.9659 9.9791 23.1476 9.6773 23.1681 9.35195C23.293 7.3688 23.2891 4.16375 23.063 2.34139C22.969 1.58431 22.416 1.0313 21.6589 0.937379C19.9141 0.720934 16.9019 0.708119 14.9082 0.817054C14.42 0.843724 13.9589 1.11725 13.8427 1.59209C13.7487 1.97621 13.7293 2.38681 13.7718 2.80581C13.8359 3.43815 14.4177 3.85363 15.0531 3.87242L17.3243 3.93958ZM11.8154 2.06065C11.8442 1.35017 11.2742 0.749464 10.553 0.756904C7.61238 0.787234 5.48213 0.906659 4.06859 1.02151C2.42466 1.15507 1.15625 2.42349 1.02268 4.06741C0.889772 5.70325 0.750732 8.29885 0.750732 11.9995C0.750732 15.7003 0.889767 18.2959 1.02268 19.9317C1.15624 21.5756 2.42465 22.844 4.06858 22.9776C5.70438 23.1105 8.30003 23.2495 12.0007 23.2495C15.7014 23.2495 18.2971 23.1105 19.9329 22.9776C21.5768 22.844 22.8452 21.5756 22.9788 19.9317C23.0936 18.5181 23.2131 16.3878 23.2434 13.4469C23.2508 12.7258 22.6501 12.1558 21.9396 12.1846C21.7833 12.1909 21.6215 12.1969 21.4542 12.2026C20.7854 12.225 20.2503 12.7694 20.2421 13.4404C20.2126 15.8538 20.1122 17.5931 20.0182 18.7354C19.9606 19.4343 19.435 19.96 18.7361 20.0175C17.3779 20.1293 15.176 20.25 12.0007 20.25C8.82543 20.25 6.62353 20.1293 5.26538 20.0175C4.56643 19.96 4.04081 19.4343 3.98327 18.7354C3.87148 17.3772 3.75073 15.1753 3.75073 12C3.75074 8.82475 3.87148 6.62285 3.98328 5.2647C4.04081 4.56574 4.56643 4.04012 5.26538 3.98259C6.40758 3.88857 8.14663 3.78822 10.5596 3.75868C11.2305 3.75047 11.7749 3.21541 11.7974 2.54656C11.803 2.37907 11.809 2.21713 11.8154 2.06065Z" fill="#1F2723"/>
</g>
</g>
<defs>
<clipPath id="clip0_2002_1836">
<rect width="24" height="24" fill="white"/>
</clipPath>
<clipPath id="clip1_2002_1836">
<rect width="24" height="24" fill="white"/>
</clipPath>
</defs>
</svg>
