<svg width="24" height="24" viewBox="0 0 24 24" fill="none" xmlns="http://www.w3.org/2000/svg">
<g clip-path="url(#clip0_2002_1744)">
<g clip-path="url(#clip1_2002_1744)">
<path fill-rule="evenodd" clip-rule="evenodd" d="M18 0.25C15.2278 0.25 12.9138 2.21178 12.3706 4.82278C14.1212 5.03575 15.7079 5.71525 16.9732 6.83185C18.052 7.7839 18.8367 9.0014 19.291 10.3856C19.8892 10.494 20.4634 10.667 21.0042 10.9037C22.6514 9.89245 23.75 8.0745 23.75 6C23.75 5.53445 23.4248 5.22555 23.0965 5.12775C22.7824 5.0341 22.3904 5.10345 22.1236 5.4052C21.6645 5.9244 20.9958 6.25 20.25 6.25C18.8693 6.25 17.75 5.1307 17.75 3.75C17.75 3.00426 18.0756 2.3355 18.5948 1.87636C18.8966 1.60952 18.9658 1.2176 18.8722 0.903465C18.7745 0.57526 18.4655 0.25 18 0.25ZM10.9655 23.7492C9.3102 23.7443 7.91195 23.7165 6.73915 23.6765C3.08223 23.5518 0.25 21.0063 0.25 17.25C0.25 14.5455 1.73052 12.4342 3.96793 11.4413C4.71908 8.29 7.343 6.2587 10.8212 6.2502C10.8803 6.25005 10.9398 6.25 11 6.25C11.0602 6.25 11.1197 6.25005 11.1788 6.2502C13.0754 6.25485 14.7379 6.8598 15.9807 7.95655C17.0692 8.9171 17.8029 10.2261 18.1005 11.7581C19.6938 11.8321 21.0761 12.4125 22.0818 13.4183C23.1604 14.497 23.75 16.0091 23.75 17.75C23.75 19.4439 23.192 20.9216 22.1668 21.9946C21.1592 23.0494 19.7488 23.6623 18.1149 23.7412C18.0774 23.747 18.039 23.75 18 23.75H11C10.9885 23.75 10.9769 23.7498 10.9655 23.7492Z" fill="#1F2723"/>
</g>
</g>
<defs>
<clipPath id="clip0_2002_1744">
<rect width="24" height="24" fill="white"/>
</clipPath>
<clipPath id="clip1_2002_1744">
<rect width="24" height="24" fill="white"/>
</clipPath>
</defs>
</svg>
