<svg width="24" height="24" viewBox="0 0 24 24" fill="none" xmlns="http://www.w3.org/2000/svg">
<g clip-path="url(#clip0_2002_1804)">
<g clip-path="url(#clip1_2002_1804)">
<path fill-rule="evenodd" clip-rule="evenodd" d="M18.3407 0.78522C16.7982 -0.198598 15.0054 0.364407 13.872 1.49772L13.0647 2.305C13.3048 2.4222 13.5932 2.57498 13.9242 2.77149C14.9344 3.37128 16.3387 4.37654 17.979 6.01681C19.6192 7.65706 20.6255 9.06236 21.2264 10.0736C21.4238 10.4059 21.5772 10.6952 21.6949 10.936L22.5026 10.1282C23.636 8.99485 24.1991 7.20191 23.2151 5.65931C22.7285 4.89639 22.0272 3.9806 21.0235 2.97694C20.0196 1.97318 19.1037 1.27186 18.3407 0.78522ZM1.69411 13.675L11.9298 3.43967C12.3614 3.59719 12.7644 3.8274 13.1583 4.06124C14.0594 4.59621 15.3649 5.52411 16.9181 7.07736C18.4714 8.63066 19.4005 9.93736 19.9367 10.8398C20.1691 11.231 20.4011 11.6403 20.56 12.0706L10.3247 22.3054C10.1951 22.1205 10.0513 21.9195 9.89387 21.7048C9.07582 20.5893 7.88452 19.0998 6.39232 17.6076C4.9001 16.1154 3.41063 14.9241 2.29509 14.1061C2.08027 13.9485 1.87907 13.8047 1.69411 13.675ZM0.412153 15.6816C0.44904 15.3637 0.550608 15.0703 0.697198 14.8083C0.909458 14.9555 1.14821 15.125 1.40825 15.3157C2.48021 16.1018 3.90741 17.2438 5.33187 18.6683C6.75632 20.0928 7.89837 21.5199 8.68447 22.5919C8.87502 22.8517 9.04437 23.0903 9.19147 23.3025C8.92957 23.449 8.63617 23.5505 8.31837 23.5874C7.36757 23.6978 5.34622 23.8299 2.01799 23.574C1.16783 23.5086 0.490939 22.8318 0.425561 21.9816C0.169633 18.6536 0.301821 16.6323 0.412153 15.6816Z" fill="#1F2723"/>
</g>
</g>
<defs>
<clipPath id="clip0_2002_1804">
<rect width="24" height="24" fill="white"/>
</clipPath>
<clipPath id="clip1_2002_1804">
<rect width="24" height="24" fill="white"/>
</clipPath>
</defs>
</svg>
