<svg width="24" height="24" viewBox="0 0 24 24" fill="none" xmlns="http://www.w3.org/2000/svg">
<g clip-path="url(#clip0_2002_1801)">
<path fill-rule="evenodd" clip-rule="evenodd" d="M17.5 0.75C20.6756 0.75 23.25 3.32436 23.25 6.5V7.16615C23.25 7.20385 23.2472 7.24125 23.2417 7.27805C22.9627 16.1466 15.686 23.25 6.75 23.25H6.5C3.32436 23.25 0.75 20.6756 0.75 17.5V17.2155C0.75 16.2955 1.31014 15.4682 2.16437 15.1265L5.247 13.8934C6.2684 13.4848 7.435 13.7243 8.21285 14.5022L9.7511 16.0404C9.8191 16.1084 9.89545 16.1165 9.94205 16.1024C12.8853 15.2086 15.2086 12.8853 16.1024 9.94205C16.1165 9.89545 16.1084 9.8191 16.0404 9.7511L14.5022 8.21285C13.7243 7.435 13.4848 6.2684 13.8934 5.247L15.1265 2.16437C15.4682 1.31014 16.2955 0.75 17.2155 0.75H17.5Z" fill="#1F2723"/>
</g>
<defs>
<clipPath id="clip0_2002_1801">
<rect width="24" height="24" fill="white"/>
</clipPath>
</defs>
</svg>
