<svg width="24" height="24" viewBox="0 0 24 24" fill="none" xmlns="http://www.w3.org/2000/svg">
<g clip-path="url(#clip0_2002_1805)">
<path fill-rule="evenodd" clip-rule="evenodd" d="M16.4815 2.38757C17.1649 1.70415 18.273 1.70415 18.9564 2.38757C19.6398 3.07098 19.6398 4.17902 18.9564 4.86244L16.6517 7.16715C15.6146 6.196 14.7062 5.46711 13.9457 4.92339L16.4815 2.38757ZM20.5814 11.5591L23.117 9.02355C23.8005 8.34015 23.8005 7.2321 23.117 6.5487C22.4336 5.86528 21.3256 5.86528 20.6422 6.5487L18.3377 8.85315C19.3088 9.89025 20.0377 10.7986 20.5814 11.5591ZM9.58589 6.11015L9.50744 6.1886C6.88569 8.81035 5.98204 12.7442 7.85649 15.6704L7.31944 16.2077C6.81179 16.7153 5.95309 17.4534 4.95789 18.0613C3.95431 18.6744 2.86085 19.125 1.87064 19.125C1.04221 19.125 0.370636 19.7966 0.370636 20.625C0.370636 21.4534 1.04221 22.125 1.87064 22.125C3.6769 22.125 5.34024 21.3433 6.52184 20.6214C7.75509 19.8681 8.79744 18.9723 9.44079 18.329L10.0116 17.7579C12.9178 19.4865 16.7473 18.5673 19.3167 15.9979L19.3951 15.9194C20.1652 15.1494 20.4061 14.0155 19.816 13.1003C19.1967 12.1397 18.155 10.7651 16.4476 9.0577C14.7402 7.3503 13.3656 6.3086 12.405 5.68926C11.4898 5.09918 10.3559 5.34012 9.58589 6.11015Z" fill="#1F2723"/>
</g>
<defs>
<clipPath id="clip0_2002_1805">
<rect width="24" height="24" fill="white"/>
</clipPath>
</defs>
</svg>
