<svg width="24" height="24" viewBox="0 0 24 24" fill="none" xmlns="http://www.w3.org/2000/svg">
<g clip-path="url(#clip0_2002_1757)">
<g clip-path="url(#clip1_2002_1757)">
<path fill-rule="evenodd" clip-rule="evenodd" d="M12 23.625C18.4203 23.625 23.625 18.4203 23.625 12C23.625 5.5797 18.4203 0.375 12 0.375C5.5797 0.375 0.375 5.5797 0.375 12C0.375 18.4203 5.5797 23.625 12 23.625ZM9.40505 7.06875C9.42795 7.4663 9.4529 8.157 9.4529 9.2783C9.4529 10.3997 9.42795 11.0904 9.40505 11.4879C9.38275 11.8754 9.10005 12.196 8.69335 12.2251C8.49685 12.2391 8.2301 12.25 7.8744 12.25C7.5187 12.25 7.25195 12.2391 7.05545 12.2251C6.64875 12.196 6.36605 11.8754 6.34375 11.4879C6.32085 11.0904 6.2959 10.3997 6.2959 9.2783C6.2959 8.157 6.32085 7.4663 6.34375 7.06875C6.36605 6.68125 6.64875 6.36065 7.05545 6.33155C7.25195 6.3175 7.5187 6.30665 7.8744 6.30665C8.2301 6.30665 8.49685 6.3175 8.69335 6.33155C9.10005 6.36065 9.38275 6.68125 9.40505 7.06875ZM17.4051 7.06875C17.4279 7.4663 17.4529 8.157 17.4529 9.2783C17.4529 10.3997 17.4279 11.0904 17.4051 11.4879C17.3827 11.8754 17.1 12.196 16.6933 12.2251C16.4968 12.2391 16.2301 12.25 15.8744 12.25C15.5187 12.25 15.252 12.2391 15.0555 12.2251C14.6488 12.196 14.366 11.8754 14.3438 11.4879C14.3209 11.0904 14.2959 10.3997 14.2959 9.2783C14.2959 8.157 14.3209 7.4663 14.3438 7.06875C14.366 6.68125 14.6488 6.36065 15.0555 6.33155C15.252 6.3175 15.5187 6.30665 15.8744 6.30665C16.2301 6.30665 16.4968 6.3175 16.6933 6.33155C17.1 6.36065 17.3827 6.68125 17.4051 7.06875ZM13.384 19.6897C13.0394 19.7213 12.543 19.75 11.8753 19.75C11.2076 19.75 10.7112 19.7213 10.3666 19.6897C9.8911 19.646 9.50525 19.2954 9.45195 18.8064C9.3474 17.8476 9.36365 16.3022 9.5069 15.5249C9.539 15.3507 9.60195 15.184 9.6972 15.0315C9.9448 14.6351 10.6349 13.75 11.8753 13.75C13.1157 13.75 13.8058 14.6351 14.0534 15.0315C14.1487 15.184 14.2116 15.3507 14.2437 15.5249C14.387 16.3022 14.4031 17.8476 14.2986 18.8064C14.2453 19.2954 13.8594 19.646 13.384 19.6897Z" fill="#1F2723"/>
</g>
</g>
<defs>
<clipPath id="clip0_2002_1757">
<rect width="24" height="24" fill="white"/>
</clipPath>
<clipPath id="clip1_2002_1757">
<rect width="24" height="24" fill="white"/>
</clipPath>
</defs>
</svg>
