<svg width="24" height="24" viewBox="0 0 24 24" fill="none" xmlns="http://www.w3.org/2000/svg">
<g clip-path="url(#clip0_2002_1834)">
<g clip-path="url(#clip1_2002_1834)">
<path fill-rule="evenodd" clip-rule="evenodd" d="M6.25 0.250122C3.76472 0.250122 1.75 2.26484 1.75 4.75012V5.72757C1.75 6.28267 2.07548 6.86247 2.70272 6.95852C2.86585 6.98352 3.04963 7.00012 3.25 7.00012C3.45037 7.00012 3.63415 6.98352 3.79728 6.95852C4.42452 6.86247 4.75 6.28267 4.75 5.72757V4.75012C4.75 3.9217 5.42155 3.25012 6.25 3.25012C7.07845 3.25012 7.75 3.9217 7.75 4.75012V20.898C7.99605 20.9661 8.2483 20.9998 8.5 20.9998C9.1453 20.9998 9.79405 20.7783 10.3331 20.3238C10.4644 20.2131 10.6041 20.1175 10.75 20.0371V17.7501H19.25V19.7267C19.7383 19.7729 20.2113 19.9544 20.6056 20.2575C21.0115 20.5695 21.6425 20.8083 22.25 20.9235V4.75012C22.25 2.26484 20.2353 0.250122 17.75 0.250122C15.2647 0.250122 13.25 2.26484 13.25 4.75012V5.72757C13.25 6.28267 13.5755 6.86247 14.2027 6.95852C14.3658 6.98352 14.5497 7.00012 14.75 7.00012C14.9503 7.00012 15.1342 6.98352 15.2973 6.95852C15.9245 6.86247 16.25 6.28267 16.25 5.72757V4.75012C16.25 3.9217 16.9216 3.25012 17.75 3.25012C18.5784 3.25012 19.25 3.9217 19.25 4.75012V9.75012H10.75V4.75012C10.75 2.26484 8.7353 0.250122 6.25 0.250122ZM10.75 12.2501V15.2501H19.25V12.2501H10.75ZM18.1388 21.2795C18.6376 20.8591 19.3535 20.8716 19.8436 21.2484C20.688 21.8977 22.0144 22.2498 23 22.2498C23.4142 22.2498 23.75 22.5856 23.75 22.9998C23.75 23.414 23.4142 23.7498 23 23.7498H1C0.585785 23.7498 0.25 23.414 0.25 22.9998C0.25 22.5856 0.585785 22.2498 1 22.2498C1.98558 22.2498 3.31198 21.8977 4.15638 21.2484C4.64646 20.8716 5.36245 20.8591 5.8612 21.2795C6.63015 21.9278 7.5657 22.2498 8.5 22.2498C9.4343 22.2498 10.3699 21.9278 11.1388 21.2795C11.6343 20.8618 12.3657 20.8618 12.8612 21.2795C13.6301 21.9278 14.5657 22.2498 15.5 22.2498C16.4343 22.2498 17.3699 21.9278 18.1388 21.2795Z" fill="#1F2723"/>
</g>
</g>
<defs>
<clipPath id="clip0_2002_1834">
<rect width="24" height="24" fill="white"/>
</clipPath>
<clipPath id="clip1_2002_1834">
<rect width="24" height="24" fill="white"/>
</clipPath>
</defs>
</svg>
