<svg width="24" height="24" viewBox="0 0 24 24" fill="none" xmlns="http://www.w3.org/2000/svg">
<g clip-path="url(#clip0_2002_1763)">
<path fill-rule="evenodd" clip-rule="evenodd" d="M11.3964 5C11.8354 5.00048 12.5745 5.68048 12.373 6.33887C11.7848 8.25702 10.831 11.8478 10.831 14.5C10.831 17.1357 11.9059 20.6982 12.5614 22.625C12.7881 23.2912 12.2964 24 11.5927 24H2.5253C1.82028 23.9997 1.32735 23.2879 1.55655 22.6211C2.21956 20.6934 3.30557 17.134 3.30557 14.5C3.30557 11.8478 2.32729 8.25699 1.73916 6.33887C1.53748 5.6804 2.0271 5.00031 2.71573 5H11.3964ZM8.25772 12.4043C8.27567 11.9422 7.75788 11.6862 7.43447 11.9951L5.07022 14.2422C4.73402 14.562 4.94929 15.148 5.40127 15.1484H5.75381C5.86146 15.1486 5.95096 15.2391 5.95889 15.3525L6.03506 16.6553C6.0616 17.099 6.56954 17.3049 6.87197 16.9961L9.05947 14.752C9.37753 14.427 9.15985 13.8589 8.71572 13.8584H8.41104C8.2956 13.8581 8.19988 13.7551 8.20498 13.6338L8.25772 12.4043Z" fill="#1F2723"/>
<path d="M20.1474 8C20.8346 8.00035 21.325 8.67914 21.1288 9.33789C20.635 10.9948 19.8827 13.8601 19.8827 16C19.8827 18.1 20.8211 20.8987 21.4638 22.5684C21.7244 23.2458 21.2296 23.9996 20.5038 24H13.8915C14.1436 23.4361 14.1968 22.7776 13.9804 22.1416C13.8054 21.6273 13.6089 21.0134 13.412 20.3457C13.8486 18.9246 14.2226 17.3236 14.2226 16C14.2226 13.8601 13.4703 10.9948 12.9765 9.33789C12.7801 8.679 13.2704 8.00012 13.9579 8H20.1474Z" fill="#1F2723"/>
<path d="M21.0526 4C21.8808 4.00027 22.5526 4.67174 22.5526 5.5C22.5526 6.32826 21.8808 6.99973 21.0526 7H16.0526C15.7766 6.9999 15.5526 6.77608 15.5526 6.5C15.5526 6.22392 15.7766 6.0001 16.0526 6H18.5526C18.5526 5.44778 19.0004 5.0001 19.5526 5C19.5807 5.00002 19.6091 5.00162 19.6366 5.00391C19.8416 4.41962 20.3984 4.00008 21.0526 4Z" fill="#1F2723"/>
<path d="M13.5526 0C14.657 0.000274402 15.5526 0.8956 15.5526 2C15.5526 3.1044 14.657 3.99973 13.5526 4H7.05264C6.77658 3.9999 6.55166 3.77608 6.55166 3.5C6.55166 3.22392 6.77658 3.0001 7.05264 3H9.6376C9.58236 2.84366 9.55264 2.67525 9.55264 2.5C9.55264 1.67163 10.2243 1.0001 11.0526 1C11.2982 1.00008 11.5307 1.05936 11.7353 1.16406C12.0519 0.47716 12.7467 7.11213e-05 13.5526 0Z" fill="#1F2723"/>
</g>
<defs>
<clipPath id="clip0_2002_1763">
<rect width="24" height="24" fill="white"/>
</clipPath>
</defs>
</svg>
