<svg width="24" height="24" viewBox="0 0 24 24" fill="none" xmlns="http://www.w3.org/2000/svg">
<g clip-path="url(#clip0_2002_1842)">
<path fill-rule="evenodd" clip-rule="evenodd" d="M0.753345 11.4281C0.771275 11.2 0.78928 10.9739 0.807325 10.75H1.4682C1.47874 10.7495 1.48935 10.7493 1.5 10.7493H8.52235C9.84105 9.27205 11.9675 7.34735 14.9392 6.0431C15.6741 5.72055 16.5304 6.18065 16.6199 7.0103C16.6674 7.4503 16.7196 8.11995 16.7405 9.0488C17.9624 7.9803 19.5254 6.8831 21.4393 6.0431C22.1741 5.7206 23.0304 6.1807 23.1199 7.0103C23.1811 7.5767 23.25 8.5235 23.25 9.914V11.4993V13.4993V16.9993C23.25 18.4009 23.1782 19.5089 23.0872 20.3505C22.9123 21.9683 21.5709 23.0345 20.0392 23.1017C18.4234 23.1725 15.7964 23.2493 12 23.2493C8.2036 23.2493 5.5766 23.1725 3.96082 23.1017C2.42908 23.0345 1.08771 21.9683 0.912745 20.3505C0.821725 19.5089 0.75 18.4009 0.75 16.9993V11.5C0.75 11.476 0.75113 11.4515 0.753345 11.4281ZM0.93141 9.25H8.0686C7.9596 7.96505 7.85245 6.7814 7.75535 5.75H1.24464C1.14757 6.7814 1.04039 7.96505 0.93141 9.25ZM7.61115 4.25C7.5318 3.44184 7.46535 2.79326 7.41875 2.34709C7.3434 1.62505 6.8128 0.98518 6.03215 0.867615C5.63255 0.80743 5.09615 0.75 4.5 0.75C3.90383 0.75 3.36746 0.80743 2.96783 0.867615C2.18722 0.98518 1.65661 1.62505 1.58124 2.34709C1.53466 2.79326 1.4682 3.44184 1.38885 4.25H7.61115ZM7 14.75C6.40705 14.75 5.97185 14.8107 5.65685 14.8891C5.0806 15.0325 4.82257 15.5627 4.79951 16.069C4.77495 16.6083 4.75 17.5201 4.75 19C4.75 19.5565 4.75353 20.0327 4.75923 20.4389C4.76486 20.8393 5.08525 21.1625 5.48455 21.1737C6.3372 21.1978 7.33435 21.2187 8.48385 21.2325C8.89435 21.2375 9.2338 20.9105 9.2399 20.4981C9.2461 20.0792 9.25 19.5838 9.25 19C9.25 17.5201 9.22505 16.6083 9.2005 16.069C9.17745 15.5627 8.9194 15.0325 8.34315 14.8891C8.02815 14.8107 7.59295 14.75 7 14.75ZM12.75 16C12.75 15.5858 13.0858 15.25 13.5 15.25H18.5C18.9142 15.25 19.25 15.5858 19.25 16C19.25 16.4142 18.9142 16.75 18.5 16.75H13.5C13.0858 16.75 12.75 16.4142 12.75 16ZM13.5 18.75C13.0858 18.75 12.75 19.0858 12.75 19.5C12.75 19.9142 13.0858 20.25 13.5 20.25H18.5C18.9142 20.25 19.25 19.9142 19.25 19.5C19.25 19.0858 18.9142 18.75 18.5 18.75H13.5Z" fill="#1F2723"/>
</g>
<defs>
<clipPath id="clip0_2002_1842">
<rect width="24" height="24" fill="white"/>
</clipPath>
</defs>
</svg>
