<svg width="24" height="24" viewBox="0 0 24 24" fill="none" xmlns="http://www.w3.org/2000/svg">
<g clip-path="url(#clip0_2002_1771)">
<path fill-rule="evenodd" clip-rule="evenodd" d="M22.7505 11.999C22.7505 17.9361 17.9375 22.749 12.0005 22.749C6.06345 22.749 1.25049 17.9361 1.25049 11.999C1.25049 7.6804 3.79709 3.95704 7.46945 2.2478C8.05845 1.97367 8.8285 2.00646 9.26845 2.59184C9.5858 3.01408 9.8882 3.647 9.9177 4.53315C9.94045 5.21505 9.4398 5.72375 8.91625 5.9932C6.73885 7.11375 5.2505 9.38275 5.2505 11.999C5.2505 15.7269 8.27255 18.749 12.0005 18.749C15.7284 18.749 18.7505 15.7269 18.7505 11.999C18.7505 10.2811 18.109 8.7136 17.0522 7.522C16.5803 7.9551 16.1767 8.30305 15.8376 8.58095C15.4395 8.90715 14.9583 8.96715 14.5587 8.79365C14.1598 8.6205 13.8732 8.22815 13.8321 7.7171C13.709 6.1867 13.743 4.49016 13.8168 3.09276C13.8638 2.20163 14.5733 1.49214 15.4644 1.44515C16.8521 1.37199 18.5348 1.33795 20.0568 1.458C20.5739 1.4988 20.9694 1.7909 21.1435 2.19476C21.3178 2.59907 21.2576 3.08645 20.9276 3.48831C20.6507 3.82562 20.3066 4.22481 19.8821 4.68851C21.6619 6.6065 22.7505 9.1759 22.7505 11.999Z" fill="#1F2723"/>
</g>
<defs>
<clipPath id="clip0_2002_1771">
<rect width="24" height="24" fill="white"/>
</clipPath>
</defs>
</svg>
