<svg width="24" height="24" viewBox="0 0 24 24" fill="none" xmlns="http://www.w3.org/2000/svg">
<g clip-path="url(#clip0_2002_1873)">
<g clip-path="url(#clip1_2002_1873)">
<path d="M7.8252 19.1943C8.2383 18.781 8.90434 18.7809 9.31738 19.1943L9.33105 19.1807C9.53093 19.3808 9.63672 19.6346 9.63672 19.9014C9.65004 20.1948 9.54416 20.4751 9.33105 20.6885L6.33203 23.6895C5.90561 24.103 5.23926 24.103 4.82617 23.6895C4.4135 23.2759 4.41322 22.6087 4.82617 22.1953L7.8252 19.1943ZM5.58594 16.9385C5.99903 16.5249 6.66601 16.5249 7.0791 16.9385H7.06543C7.4783 17.352 7.47833 18.0182 7.06543 18.4316L1.81543 23.6875C1.40234 24.101 0.736335 24.101 0.323242 23.6875C-0.0898421 23.274 -0.08983 22.6079 0.323242 22.1943L5.58594 16.9385ZM17.0332 1.03809C19.2451 0.317791 22.5895 -0.535961 23.5625 0.4375C24.5353 1.4113 23.6825 4.76021 22.9629 6.97461C22.5098 8.33509 21.7099 9.53511 20.6973 10.5488L18.1924 13.0703C17.3663 13.8973 17.4065 15.3112 17.5664 16.4717C17.5797 16.5784 17.5928 16.6993 17.5928 16.8193V17.166C17.5795 17.2192 17.5796 17.2724 17.5664 17.3389C17.5398 17.619 17.4728 17.926 17.3662 18.2461C16.8598 19.6735 15.1544 20.5145 13.9951 20.9414C13.3155 21.1815 12.5825 20.9675 12.0762 20.4473L3.57422 11.9365C3.06792 11.4296 2.84156 10.6959 3.09473 10.0156C3.50783 8.85507 4.34763 7.14753 5.77344 6.64062C6.10626 6.52072 6.42582 6.46773 6.71875 6.42773C7.02521 6.40106 7.29211 6.41409 7.55859 6.4541C8.71792 6.60084 10.1308 6.65388 10.957 5.81348L13.4482 3.30566C14.461 2.29184 15.674 1.4783 17.0332 1.03809ZM3.32129 14.6973C3.73433 14.2838 4.40037 14.2839 4.81348 14.6973C5.22657 15.1108 5.22657 15.7779 4.81348 16.1914L1.81543 19.1924C1.40234 19.6059 0.735989 19.6059 0.30957 19.1924C-0.103233 18.7788 -0.103426 18.1117 0.30957 17.6982L3.30762 14.6973H3.32129ZM16.8203 7.1875C15.9941 6.36043 14.6475 6.36043 13.8213 7.1875C12.9953 8.01457 12.9952 9.36243 13.8213 10.1895C14.6475 11.0165 15.9941 11.0165 16.8203 10.1895C17.6465 9.36242 17.6464 8.01458 16.8203 7.1875Z" fill="#1F2723"/>
</g>
</g>
<defs>
<clipPath id="clip0_2002_1873">
<rect width="24" height="24" fill="white"/>
</clipPath>
<clipPath id="clip1_2002_1873">
<rect width="24" height="24" fill="white"/>
</clipPath>
</defs>
</svg>
