<svg width="24" height="24" viewBox="0 0 24 24" fill="none" xmlns="http://www.w3.org/2000/svg">
<g clip-path="url(#clip0_2002_1827)">
<g clip-path="url(#clip1_2002_1827)">
<path fill-rule="evenodd" clip-rule="evenodd" d="M10.7273 1.81952C10.7273 1.11671 11.2971 0.546967 11.9999 0.546967C12.7027 0.546967 13.2725 1.11671 13.2725 1.81952V3.2982C17.2775 2.41391 19.2381 2.01383 20.0212 1.85927C20.2335 1.81738 20.506 1.7998 20.7818 1.8772C21.0783 1.96042 21.3852 2.15971 21.5559 2.52473C21.6186 2.6589 21.6705 2.81077 21.7086 2.98203C21.7468 3.15329 21.7643 3.31279 21.7644 3.4609C21.7648 3.86386 21.5715 4.17459 21.3383 4.37579C21.1215 4.56291 20.8673 4.66269 20.6573 4.71484C20.3813 4.7834 19.9567 4.8872 19.3434 5.03309C19.6564 5.93849 20.0766 7.16849 20.5145 8.49312C21.196 10.5544 21.9401 12.9026 22.3791 14.6052C23.029 14.8736 23.5109 15.5385 23.3625 16.3502C22.8877 18.9472 20.5981 20.9079 17.8532 20.9079C15.1084 20.9079 12.8188 18.9472 12.344 16.3502C12.1956 15.5379 12.6782 14.8728 13.3287 14.6047C13.7677 12.9021 14.5118 10.5542 15.1931 8.49312C15.5194 7.50628 15.8358 6.57202 16.1054 5.78532C15.0625 6.02334 13.8215 6.3034 12.3521 6.63071C10.4193 7.06124 8.87918 7.39801 7.66404 7.6597C7.97383 8.5567 8.38206 9.7529 8.807 11.0382C9.48848 13.0995 10.2326 15.4477 10.6716 17.1503C11.3215 17.4187 11.8034 18.0836 11.655 18.8954C11.1802 21.4923 8.89058 23.453 6.14572 23.453C3.40089 23.453 1.11129 21.4923 0.636528 18.8954C0.488021 18.083 0.970656 17.4179 1.62117 17.1498C2.06021 15.4472 2.80424 13.0993 3.48563 11.0382C3.80965 10.0582 4.12396 9.12986 4.39233 8.34652C4.24607 8.37599 4.12229 8.40068 4.019 8.42104C3.80675 8.46293 3.5342 8.4805 3.25844 8.40312C2.96195 8.3199 2.65501 8.12062 2.48431 7.7556C2.42156 7.62142 2.36976 7.46953 2.33161 7.29829C2.29347 7.12705 2.2759 6.96753 2.27577 6.8194C2.2754 6.41646 2.46873 6.10575 2.70187 5.90453C2.91871 5.71742 3.17295 5.61765 3.38292 5.56547C4.19671 5.36334 6.30235 4.8549 10.7273 3.86417V1.81952ZM3.79691 16.8976C4.46788 16.8613 5.25575 16.8357 6.14572 16.8357C7.03626 16.8357 7.82453 16.8613 8.49573 16.8977C8.07441 15.3855 7.46537 13.4666 6.87383 11.6774C6.61947 10.908 6.37102 10.1704 6.14633 9.51061C5.9216 10.1704 5.67315 10.908 5.41879 11.6774C4.82728 13.4666 4.21825 15.3855 3.79691 16.8976ZM15.5045 14.3525C16.1754 14.3161 16.9633 14.2906 17.8532 14.2906C18.7438 14.2906 19.5321 14.3161 20.2033 14.3526C19.7819 12.8404 19.1729 10.9215 18.5814 9.13225C18.327 8.36291 18.0785 7.62529 17.8539 6.96549C17.6291 7.62529 17.3807 8.36291 17.1264 9.13225C16.5348 10.9215 15.9258 12.8404 15.5045 14.3525Z" fill="#1F2723"/>
</g>
</g>
<defs>
<clipPath id="clip0_2002_1827">
<rect width="24" height="24" fill="white"/>
</clipPath>
<clipPath id="clip1_2002_1827">
<rect width="24" height="24" fill="white"/>
</clipPath>
</defs>
</svg>
