<svg width="24" height="24" viewBox="0 0 24 24" fill="none" xmlns="http://www.w3.org/2000/svg">
<g clip-path="url(#clip0_2002_1793)">
<path fill-rule="evenodd" clip-rule="evenodd" d="M10.5 0.248932C4.83908 0.248932 0.25 4.83801 0.25 10.4989C0.25 16.1598 4.83908 20.7489 10.5 20.7489C12.3851 20.7489 14.1514 20.24 15.669 19.3521C15.9807 19.7182 16.2841 20.0837 16.5878 20.4502L16.6436 20.5175C17.271 21.2745 17.9036 22.0379 18.5991 22.7931C19.6567 23.9415 21.3674 24.1268 22.5545 22.9684C22.6215 22.903 22.6908 22.8346 22.7625 22.7629C22.8342 22.6912 22.9026 22.6218 22.968 22.5548C24.126 21.3675 23.9408 19.6569 22.7927 18.5989C22.0378 17.9033 21.2746 17.2706 20.5177 16.6431L20.4503 16.5873C20.0841 16.2836 19.7187 15.9802 19.3528 15.6685C20.2409 14.1508 20.75 12.3843 20.75 10.4989C20.75 4.83801 16.1609 0.248932 10.5 0.248932ZM10.5 2.49893C6.0817 2.49893 2.5 6.08063 2.5 10.4989C2.5 14.9172 6.0817 18.4989 10.5 18.4989C14.9183 18.4989 18.5 14.9172 18.5 10.4989C18.5 6.08063 14.9183 2.49893 10.5 2.49893Z" fill="#1F2723"/>
<path d="M11.5001 5.49888C11.5001 4.94659 11.0523 4.4989 10.5 4.49893C9.94775 4.49896 9.50005 4.94671 9.5001 5.49898L9.50015 5.84378C8.9324 5.95173 8.3895 6.14953 7.92615 6.42533C7.22095 6.84513 6.5001 7.58243 6.5001 8.62393C6.5001 9.16098 6.65585 9.64353 6.9594 10.0462C7.25105 10.4331 7.63555 10.6889 8.00765 10.8661C8.6937 11.1927 9.5569 11.3466 10.2526 11.4706L10.3243 11.4834L10.5 11.5149C11.2063 11.6427 11.7488 11.7547 12.1327 11.9375C12.3231 12.0281 12.4073 12.1072 12.4438 12.1556C12.4684 12.1882 12.5001 12.2413 12.5001 12.3739C12.5001 12.4039 12.4709 12.604 12.0511 12.8539C11.6576 13.0881 11.0874 13.2489 10.5 13.2489C9.74845 13.2489 9.12075 13.0809 8.6825 12.9132C8.46415 12.8296 8.2963 12.7475 8.18795 12.6894C8.1339 12.6605 8.0951 12.6378 8.0727 12.6242L8.06175 12.6175L8.05175 12.6112C7.5934 12.3085 6.9753 12.4318 6.6692 12.8889C6.3619 13.3478 6.4848 13.969 6.9437 14.2763L6.9449 14.2771L6.94615 14.2779L6.9491 14.2799L6.95635 14.2846L6.9763 14.2975C6.992 14.3075 7.0125 14.3203 7.03765 14.3355C7.0879 14.3659 7.15695 14.406 7.2435 14.4524C7.4164 14.545 7.66105 14.6637 7.9677 14.7811C8.3726 14.936 8.89155 15.0908 9.50015 15.1778L9.5002 15.499C9.5002 16.0513 9.94795 16.499 10.5002 16.4989C11.0525 16.4989 11.5002 16.0511 11.5002 15.4989L11.5001 15.1541C12.0679 15.0461 12.6107 14.8483 13.0741 14.5725C13.7793 14.1527 14.5001 13.4154 14.5001 12.3739C14.5001 11.8369 14.3443 11.3543 14.0408 10.9516C13.7492 10.5648 13.3647 10.309 12.9925 10.1318C12.3065 9.80513 11.4433 9.65128 10.7477 9.52728L10.6759 9.51448L10.5001 9.48293C9.79385 9.35518 9.25145 9.24318 8.86755 9.06038C8.6772 8.96973 8.5929 8.89068 8.55645 8.84228C8.53185 8.80968 8.5001 8.75653 8.5001 8.62393C8.5001 8.59398 8.5293 8.39383 8.9491 8.14393C9.3426 7.90973 9.91275 7.74893 10.5 7.74893C11.2517 7.74893 11.8795 7.91698 12.3177 8.08468C12.5361 8.16823 12.7039 8.25038 12.8123 8.30843C12.8663 8.33738 12.9051 8.36008 12.9275 8.37363L12.9386 8.38043L12.9485 8.38663C13.4068 8.68938 14.0249 8.56603 14.331 8.10893C14.6383 7.65003 14.5154 7.02888 14.0565 6.72158L14.0554 6.72078L14.0541 6.71993L14.0511 6.71798L14.0438 6.71323L14.0239 6.70033C14.0082 6.69033 13.9877 6.67753 13.9626 6.66233C13.9123 6.63193 13.8433 6.59183 13.7567 6.54548C13.5838 6.45283 13.3392 6.33413 13.0325 6.21678C12.6277 6.06183 12.1087 5.90708 11.5001 5.82013V5.49888Z" fill="#1F2723"/>
</g>
<defs>
<clipPath id="clip0_2002_1793">
<rect width="24" height="24" fill="white"/>
</clipPath>
</defs>
</svg>
