<svg width="24" height="24" viewBox="0 0 24 24" fill="none" xmlns="http://www.w3.org/2000/svg">
<g clip-path="url(#clip0_2002_1798)">
<path fill-rule="evenodd" clip-rule="evenodd" d="M0.75 11C0.75 5.3391 5.3391 0.75 11 0.75C16.6609 0.75 21.25 5.3391 21.25 11C21.25 12.9993 20.6776 14.8648 19.6877 16.4418C19.7891 16.526 19.8903 16.61 19.9914 16.6939L20.0248 16.7215C20.8419 17.3993 21.653 18.0721 22.4541 18.815C23.4157 19.7067 23.5483 21.0936 22.6139 22.0602C22.5282 22.1488 22.4369 22.2417 22.3396 22.339C22.2423 22.4363 22.1495 22.5277 22.0609 22.6134C21.0949 23.5487 19.7087 23.4159 18.8176 22.4536C18.0753 21.6519 17.403 20.8403 16.7257 20.0226L16.698 19.9891C16.6141 19.8879 16.5302 19.7866 16.446 19.6851C14.8681 20.6766 13.001 21.25 11 21.25C5.3391 21.25 0.75 16.6609 0.75 11ZM3.25 11C3.25 6.7198 6.7198 3.25 11 3.25C15.2802 3.25 18.75 6.7198 18.75 11C18.75 15.2802 15.2802 18.75 11 18.75C6.7198 18.75 3.25 15.2802 3.25 11Z" fill="#1F2723"/>
</g>
<defs>
<clipPath id="clip0_2002_1798">
<rect width="24" height="24" fill="white"/>
</clipPath>
</defs>
</svg>
