<svg width="24" height="24" viewBox="0 0 24 24" fill="none" xmlns="http://www.w3.org/2000/svg">
<g clip-path="url(#clip0_2002_1796)">
<path fill-rule="evenodd" clip-rule="evenodd" d="M22.6203 1.37921C21.6292 0.388091 20.6783 0.199777 20.0189 0.260166C19.4038 0.316496 19.0189 0.74659 18.819 1.0663L17.9272 2.49333C13.9023 -0.0689335 8.7801 0.234471 5.0545 3.13055C4.09799 3.87411 3.89196 5.17555 4.47294 6.1916C5.34295 7.71325 7.14885 10.4543 10.3471 13.6526C13.5454 16.8509 16.2863 18.6568 17.8079 19.5269C18.824 20.1079 20.1255 19.9018 20.8691 18.9453C23.7653 15.2196 24.069 10.0974 21.5063 6.07235L22.9333 5.18055C23.253 4.98072 23.6831 4.59574 23.7394 3.98063C23.7998 3.32121 23.6115 2.37033 22.6203 1.37921ZM18.5 11.25C18.9142 11.25 19.25 10.9142 19.25 10.5C19.25 10.0858 18.9142 9.75 18.5 9.75C18.3517 9.75 18.3065 9.7067 18.2999 9.70005C18.2933 9.69345 18.25 9.64825 18.25 9.5C18.25 9.0858 17.9142 8.75 17.5 8.75C17.0858 8.75 16.75 9.0858 16.75 9.5C16.75 9.96615 16.8995 10.4209 17.2393 10.7607C17.5791 11.1005 18.0338 11.25 18.5 11.25ZM15.75 11C15.75 11.4142 15.4142 11.75 15 11.75C14.5338 11.75 14.0791 11.6005 13.7393 11.2607C13.3995 10.9209 13.25 10.4662 13.25 10C13.25 9.5858 13.5858 9.25 14 9.25C14.4142 9.25 14.75 9.5858 14.75 10C14.75 10.1482 14.7933 10.1934 14.7999 10.2001C14.8066 10.2067 14.8518 10.25 15 10.25C15.4142 10.25 15.75 10.5858 15.75 11ZM18.75 14C18.75 14.4142 18.4142 14.75 18 14.75C17.5338 14.75 17.0791 14.6005 16.7393 14.2607C16.3995 13.9209 16.25 13.4662 16.25 13C16.25 12.5858 16.5858 12.25 17 12.25C17.4142 12.25 17.75 12.5858 17.75 13C17.75 13.1482 17.7933 13.1934 17.7999 13.2001C17.8065 13.2067 17.8517 13.25 18 13.25C18.4142 13.25 18.75 13.5858 18.75 14ZM3.38808 6.81205L3.38555 6.8076L2.57601 7.887C1.43821 9.40405 0.613535 11.1865 0.421041 13.1353C0.325813 14.0994 0.25 15.2534 0.25 16.486C0.25 17.7423 0.328767 18.9171 0.426587 19.8923C0.623355 21.8541 2.14615 23.3769 4.1079 23.5737C5.08315 23.6715 6.2579 23.7502 7.5143 23.7502C8.7469 23.7502 9.90085 23.6744 10.865 23.5792C12.8138 23.3867 14.5962 22.562 16.1133 21.4242L17.1926 20.6147L17.1877 20.612C15.5805 19.6929 12.7485 17.8215 9.46355 14.5365C6.17855 11.2514 4.30711 8.41935 3.38808 6.81205Z" fill="#1F2723"/>
</g>
<defs>
<clipPath id="clip0_2002_1796">
<rect width="24" height="24" fill="white"/>
</clipPath>
</defs>
</svg>
