<svg width="24" height="24" viewBox="0 0 24 24" fill="none" xmlns="http://www.w3.org/2000/svg">
<g clip-path="url(#clip0_2002_1792)">
<path fill-rule="evenodd" clip-rule="evenodd" d="M9.49585 0.719453C9.8348 0.537538 10.5939 0.250008 11.9996 0.250008C13.4053 0.250008 14.1643 0.537538 14.5032 0.719453C14.6816 0.815163 14.7963 0.969648 14.8688 1.12067C14.9698 1.33102 15.1448 1.70456 15.3345 2.14993C15.6161 2.8109 16.1437 3.35167 16.7823 3.72139C17.4209 4.09114 18.1468 4.27379 18.8618 4.18693C19.3429 4.12848 19.7544 4.09323 19.9873 4.07548C20.1543 4.06275 20.3455 4.08488 20.5175 4.19146C20.8445 4.39404 21.473 4.9076 22.1759 6.12496C22.8787 7.34236 23.0092 8.14346 23.0212 8.52796C23.0274 8.73026 22.951 8.90686 22.8565 9.04516C22.7245 9.23821 22.4877 9.57766 22.196 9.96576C21.7641 10.5404 21.5586 11.2631 21.5586 12C21.5586 12.7369 21.7641 13.4595 22.196 14.0341C22.4878 14.4224 22.7247 14.7619 22.8567 14.955C22.9512 15.0933 23.0277 15.2699 23.0214 15.4722C23.0094 15.8567 22.8789 16.6578 22.1761 17.8752C21.4732 19.0926 20.8447 19.6061 20.5177 19.8087C20.3457 19.9153 20.1545 19.9374 19.9875 19.9247C19.7545 19.9069 19.3428 19.8717 18.8615 19.8132C18.1466 19.7263 17.4207 19.9089 16.7822 20.2786C16.1437 20.6483 15.6162 21.189 15.3346 21.8499C15.1448 22.2954 14.9698 22.669 14.8688 22.8794C14.7963 23.0304 14.6816 23.1849 14.5032 23.2806C14.1643 23.4625 13.4053 23.75 11.9996 23.75C10.5939 23.75 9.8348 23.4625 9.49585 23.2806C9.31755 23.1849 9.2028 23.0304 9.1303 22.8794C9.0294 22.6692 8.8546 22.296 8.665 21.8511C8.38325 21.1898 7.8553 20.6488 7.21635 20.2789C6.5776 19.9091 5.8515 19.7264 5.13635 19.8132C4.65609 19.8715 4.24535 19.9067 4.01279 19.9244C3.84576 19.9372 3.6546 19.915 3.48255 19.8085C3.15553 19.6059 2.52702 19.0923 1.82416 17.8749C1.12131 16.6576 0.990811 15.8565 0.978876 15.472C0.972601 15.2697 1.04901 15.0931 1.14356 14.9548C1.27514 14.7623 1.51084 14.4244 1.80134 14.0378C2.23388 13.4621 2.43953 12.7381 2.43953 12C2.43953 11.2618 2.23389 10.5379 1.80134 9.96216C1.5109 9.57566 1.27524 9.23776 1.14368 9.04536C1.04914 8.90706 0.972726 8.73046 0.979006 8.52816C0.990936 8.14366 1.12143 7.34256 1.82429 6.12516C2.52715 4.90779 3.15565 4.39424 3.48268 4.19166C3.65473 4.08508 3.84589 4.06294 4.01292 4.07568C4.24542 4.0934 4.65603 4.12857 5.13615 4.18686C5.85135 4.27368 6.5775 4.09094 7.2163 3.72112C7.8553 3.3512 8.38325 2.81015 8.66505 2.14879C8.8546 1.70393 9.0294 1.33085 9.1303 1.12067C9.2028 0.969648 9.31755 0.815163 9.49585 0.719453ZM7.5 12C7.5 9.51471 9.5147 7.50001 12 7.50001C14.4853 7.50001 16.5 9.51471 16.5 12C16.5 14.4853 14.4853 16.5 12 16.5C9.5147 16.5 7.5 14.4853 7.5 12Z" fill="#1F2723"/>
</g>
<defs>
<clipPath id="clip0_2002_1792">
<rect width="24" height="24" fill="white"/>
</clipPath>
</defs>
</svg>
