<svg width="24" height="24" viewBox="0 0 24 24" fill="none" xmlns="http://www.w3.org/2000/svg">
<g clip-path="url(#clip0_2002_1788)">
<path fill-rule="evenodd" clip-rule="evenodd" d="M4.14086 0.250007L1.89569 0.25C1.04868 0.249998 0.282173 0.86809 0.253989 1.75616C0.251435 1.83658 0.25 1.91816 0.25 1.99999C0.25 2.08183 0.251435 2.16341 0.253989 2.24384C0.282175 3.13191 1.04867 3.74999 1.89569 3.74999H3.31178C3.79445 5.4445 4.21134 7.37505 4.63694 9.35155L4.64962 9.41045C5.08548 11.4347 5.53105 13.5039 6.0643 15.3941C6.38815 16.542 7.3631 17.3706 8.5519 17.4918C9.79295 17.6184 11.6489 17.75 14 17.75C16.3936 17.75 18.2168 17.6136 19.4042 17.4848C20.4991 17.3661 21.4181 16.6312 21.7338 15.5676C22.4272 13.2319 23.039 9.9236 23.4388 7.27505C23.6416 5.9317 22.59 4.75 21.2405 4.75H7.4429L6.8009 2.30231C6.48375 1.09314 5.39095 0.250011 4.14086 0.250007ZM11.25 21.5C11.25 20.2574 10.2427 19.25 9 19.25C7.75735 19.25 6.75 20.2574 6.75 21.5C6.75 22.7426 7.75735 23.75 9 23.75C10.2427 23.75 11.25 22.7426 11.25 21.5ZM19 19.25C20.2426 19.25 21.25 20.2574 21.25 21.5C21.25 22.7426 20.2426 23.75 19 23.75C17.7574 23.75 16.75 22.7426 16.75 21.5C16.75 20.2574 17.7574 19.25 19 19.25Z" fill="#1F2723"/>
</g>
<defs>
<clipPath id="clip0_2002_1788">
<rect width="24" height="24" fill="white"/>
</clipPath>
</defs>
</svg>
