<svg width="24" height="24" viewBox="0 0 24 24" fill="none" xmlns="http://www.w3.org/2000/svg">
<g clip-path="url(#clip0_2002_1887)">
<path fill-rule="evenodd" clip-rule="evenodd" d="M6.1438 23.2626C7.4081 23.3861 9.2515 23.5 11.75 23.5C14.2485 23.5 16.0919 23.3861 17.3562 23.2626C19.0015 23.1019 20.1876 21.7831 20.2854 20.173C20.3886 18.4755 20.5 15.7227 20.5 11.75C20.5 7.77735 20.3886 5.02455 20.2854 3.32701C20.1876 1.71689 19.0015 0.39806 17.3562 0.237377C16.0919 0.113908 14.2485 0 11.75 0C9.2515 0 7.4081 0.113907 6.1438 0.237375C4.49844 0.39806 3.31242 1.71689 3.21457 3.32701C3.11141 5.02455 3 7.77735 3 11.75C3 15.7227 3.1114 18.4755 3.21457 20.173C3.31242 21.7831 4.49844 23.1019 6.1438 23.2626ZM11.75 21.25C9.19515 21.25 7.42965 21.1189 6.3481 20.9989C5.8761 20.9464 5.5148 20.5704 5.48125 20.0566C5.38155 18.5287 5.25 15.7542 5.25 11.75C5.25 7.74585 5.38155 4.97135 5.48125 3.4434C5.5148 2.92961 5.8761 2.55353 6.3481 2.50112C7.42965 2.38103 9.19515 2.25 11.75 2.25C14.3048 2.25 16.0703 2.38103 17.1519 2.50112C17.6239 2.55353 17.9852 2.92961 18.0187 3.4434C18.1184 4.97135 18.25 7.74585 18.25 11.75C18.25 15.7542 18.1184 18.5287 18.0187 20.0566C17.9852 20.5704 17.6239 20.9464 17.1519 20.9989C16.0703 21.1189 14.3048 21.25 11.75 21.25ZM10.75 18.25C10.1977 18.25 9.75 18.6977 9.75 19.25C9.75 19.8023 10.1977 20.25 10.75 20.25H12.75C13.3023 20.25 13.75 19.8023 13.75 19.25C13.75 18.6977 13.3023 18.25 12.75 18.25H10.75Z" fill="#1F2723"/>
</g>
<defs>
<clipPath id="clip0_2002_1887">
<rect width="24" height="24" fill="white"/>
</clipPath>
</defs>
</svg>
