<svg width="24" height="24" viewBox="0 0 24 24" fill="none" xmlns="http://www.w3.org/2000/svg">
<g clip-path="url(#clip0_2002_1851)">
<path d="M11.9992 1.77003L11.1841 0.78031C10.8301 0.350499 10.1932 0.292608 9.76755 0.65155L8.8029 1.46495C8.38415 1.81806 8.3274 2.44235 8.67565 2.86518L10.205 4.72222C10.3156 4.85651 10.3761 5.02505 10.3761 5.19905V9.15515L6.99375 7.17915C6.84255 7.09085 6.727 6.9524 6.6672 6.7878L5.84815 4.53475C5.65845 4.0129 5.07995 3.74552 4.55954 3.9392L3.3874 4.37544C2.87259 4.56704 2.60871 5.138 2.79637 5.65425L3.24366 6.88475L1.98023 7.1057C1.43772 7.20055 1.07405 7.71625 1.16678 8.2591L1.38288 9.52425C1.47613 10.0702 1.99532 10.4363 2.54087 10.341L4.86618 9.93425C5.0408 9.90375 5.2206 9.93605 5.3737 10.0254L8.75295 11.9996L5.3742 13.9734C5.22115 14.0628 5.04135 14.0951 4.8667 14.0646L2.54136 13.658C1.99581 13.5626 1.47662 13.9287 1.38337 14.4746L1.16727 15.7397C1.07454 16.2826 1.43822 16.7983 1.98073 16.8932L3.24413 17.1141L2.79685 18.3446C2.60918 18.8609 2.87307 19.4318 3.38788 19.6234L4.56001 20.0597C5.0804 20.2534 5.65895 19.986 5.84865 19.4641L6.66765 17.2111C6.72745 17.0465 6.843 16.9081 6.9942 16.8197L10.3761 14.8441V18.7997C10.3761 18.9737 10.3156 19.1423 10.205 19.2766L8.6756 21.1336C8.3274 21.5564 8.38415 22.1807 8.8029 22.5338L9.76755 23.3472C10.1932 23.7062 10.8301 23.6483 11.1841 23.2185L11.9992 22.2288L12.8143 23.2185C13.1683 23.6483 13.8051 23.7062 14.2308 23.3472L15.1955 22.5338C15.6142 22.1807 15.671 21.5564 15.3228 21.1336L13.7933 19.2766C13.6827 19.1423 13.6222 18.9737 13.6222 18.7997V14.8442L17.0039 16.8197C17.1551 16.9081 17.2707 17.0465 17.3305 17.2111L18.1495 19.4641C18.3392 19.986 18.9178 20.2534 19.4382 20.0597L20.6103 19.6234C21.125 19.4318 21.389 18.8609 21.2013 18.3446L20.754 17.1141L22.0174 16.8932C22.5599 16.7983 22.9236 16.2826 22.8309 15.7397L22.6147 14.4746C22.5215 13.9287 22.0023 13.5626 21.4568 13.658L19.1315 14.0646C18.9568 14.0951 18.777 14.0628 18.6239 13.9734L15.2452 11.9996L18.6245 10.0254C18.7775 9.93605 18.9573 9.90375 19.132 9.93425L21.4573 10.341C22.0028 10.4363 22.522 10.0702 22.6152 9.52425L22.8314 8.2591C22.9241 7.71625 22.5604 7.20055 22.0179 7.1057L20.7545 6.88475L21.2017 5.65425C21.3895 5.138 21.1255 4.56704 20.6108 4.37544L19.4386 3.9392C18.9182 3.74552 18.3396 4.0129 18.15 4.53475L17.3309 6.7878C17.2712 6.9524 17.1556 7.09085 17.0044 7.17915L13.6222 9.155V5.1991C13.6222 5.02515 13.6827 4.85658 13.7933 4.72229L15.3228 2.86518C15.671 2.44235 15.6143 1.81806 15.1955 1.46495L14.2308 0.651555C13.8052 0.292617 13.1683 0.350511 12.8143 0.780325L11.9992 1.77003Z" fill="#1F2723"/>
</g>
<defs>
<clipPath id="clip0_2002_1851">
<rect width="24" height="24" fill="white"/>
</clipPath>
</defs>
</svg>
