<svg width="24" height="24" viewBox="0 0 24 24" fill="none" xmlns="http://www.w3.org/2000/svg">
<g clip-path="url(#clip0_2002_1752)">
<g clip-path="url(#clip1_2002_1752)">
<path d="M18.715 10.1504C19.5721 9.33114 20.9451 10.0101 20.8967 11.2354L20.757 14.4922C20.7431 14.8143 20.9943 15.0879 21.301 15.0879H22.1095C23.2872 15.088 23.8659 16.5937 23.0226 17.4551L17.2238 23.4004C16.4224 24.2195 15.0778 23.6734 15.008 22.4971L14.8058 19.044C14.7848 18.743 14.5475 18.5049 14.2619 18.5049H13.3283C13.0194 18.5049 12.7534 18.4002 12.5422 18.2324C12.5034 18.2017 12.4667 18.1687 12.4318 18.1338C12.4188 18.1208 12.4062 18.1074 12.3937 18.0938C12.3654 18.063 12.338 18.0314 12.3127 17.9981C12.2931 17.9724 12.2748 17.946 12.257 17.919C12.2434 17.8982 12.2305 17.877 12.2179 17.8555C12.1948 17.8159 12.1738 17.7752 12.1545 17.7334C12.1457 17.7144 12.1371 17.6952 12.1291 17.6758C12.1136 17.6384 12.1004 17.6002 12.0881 17.5615C12.0787 17.5321 12.0692 17.5027 12.0617 17.4727C12.0545 17.4442 12.0476 17.4157 12.0422 17.3867C12.0359 17.3535 12.0315 17.3199 12.0275 17.2862C11.9787 16.8737 12.1015 16.434 12.4504 16.1026L16.8117 11.958L16.8127 11.9571L18.715 10.1504Z" fill="#1F2723"/>
<path d="M10.7092 0.524439C11.0167 0.151009 11.5708 0.101259 11.9406 0.41311L12.7785 1.11917C13.1422 1.42598 13.1914 1.96867 12.8888 2.33596L11.5597 3.94924C11.4638 4.0658 11.4114 4.21237 11.4113 4.36331V7.80081L14.3498 6.08401C14.4811 6.00734 14.582 5.88706 14.634 5.74416L15.3449 3.78616C15.5098 3.33289 16.0129 3.10033 16.465 3.26858L17.4836 3.64846C17.9303 3.81516 18.1592 4.31055 17.9963 4.75881L17.6076 5.82815L18.7053 6.02053C19.1765 6.103 19.4929 6.55089 19.4123 7.02249L19.2248 8.12112C19.2124 8.19332 19.1906 8.26209 19.1623 8.3262C18.7639 8.38782 18.37 8.53908 18.0099 8.79397L16.1984 8.47756C16.0467 8.45107 15.89 8.47899 15.757 8.55667L12.8215 10.2725L15.0431 11.5703L12.8957 13.6104L11.4113 12.7432V15.0215C10.4832 15.908 10.3375 17.1574 10.6965 18.1377C10.9572 18.8491 11.5217 19.5039 12.3146 19.8145L11.9406 20.1309C11.5708 20.4426 11.0167 20.3927 10.7092 20.0196L10.0012 19.1592L9.29314 20.0196C8.9856 20.3927 8.43244 20.4424 8.06267 20.1309L7.22381 19.4248C6.86014 19.1181 6.81121 18.5753 7.11345 18.208L8.44256 16.5948C8.5386 16.4782 8.59094 16.3308 8.59099 16.1797V12.7432L5.65252 14.46C5.52135 14.5367 5.42124 14.657 5.36931 14.7998L4.6574 16.7578C4.49237 17.2107 3.99008 17.4424 3.53826 17.2744L2.5197 16.8955C2.07264 16.7291 1.84343 16.2335 2.00603 15.7852L2.3947 14.7158L1.29705 14.5235C0.825797 14.441 0.509594 13.9931 0.590017 13.5215L0.778494 12.4219C0.859763 11.9479 1.31055 11.6301 1.78435 11.7129L3.80486 12.0664C3.95632 12.0928 4.11255 12.0648 4.24529 11.9873L7.18084 10.2725L4.24529 8.55667C4.11229 8.479 3.95558 8.45108 3.80388 8.47756L1.78338 8.83108C1.3096 8.91375 0.858631 8.59516 0.777517 8.12112L0.590017 7.02249C0.509452 6.55085 0.825706 6.10294 1.29705 6.02053L2.3947 5.82815L2.00603 4.75881C1.84315 4.3105 2.07185 3.81511 2.51873 3.64846L3.53728 3.26858C3.98936 3.10033 4.49252 3.33288 4.6574 3.78616L5.36834 5.74416C5.42033 5.88704 5.52125 6.00735 5.65252 6.08401L8.59099 7.80081V4.36331C8.59092 4.21232 8.53848 4.0658 8.44256 3.94924L7.11345 2.33596C6.81104 1.96868 6.86023 1.42596 7.22381 1.11917L8.06267 0.41311C8.43252 0.101265 8.98558 0.151042 9.29314 0.524439L10.0012 1.38479L10.7092 0.524439Z" fill="#1F2723"/>
</g>
</g>
<defs>
<clipPath id="clip0_2002_1752">
<rect width="24" height="24" fill="white"/>
</clipPath>
<clipPath id="clip1_2002_1752">
<rect width="24" height="24" fill="white"/>
</clipPath>
</defs>
</svg>
