<svg width="24" height="24" viewBox="0 0 24 24" fill="none" xmlns="http://www.w3.org/2000/svg">
<g clip-path="url(#clip0_2002_1869)">
<g clip-path="url(#clip1_2002_1869)">
<path fill-rule="evenodd" clip-rule="evenodd" d="M12 0.5C12.5523 0.5 13 0.947715 13 1.5V3C13 3.55228 12.5523 4 12 4C11.4477 4 11 3.55228 11 3V1.5C11 0.947715 11.4477 0.5 12 0.5ZM12 4.75C8.04665 4.75 4.83247 7.91405 4.75153 11.8483C4.74075 12.3728 5.1868 12.776 5.6929 12.7371C6.3054 12.6899 8.9642 12.5 12 12.5C15.0357 12.5 17.6946 12.6899 18.3071 12.7371C18.8132 12.776 19.2592 12.3728 19.2484 11.8483C19.1675 7.91405 15.9534 4.75 12 4.75ZM22.5 12.5C23.0523 12.5 23.5 12.0523 23.5 11.5C23.5 10.9477 23.0523 10.5 22.5 10.5H21C20.4477 10.5 20 10.9477 20 11.5C20 12.0523 20.4477 12.5 21 12.5H22.5ZM4 11.5C4 12.0523 3.55228 12.5 3 12.5H1.5C0.947715 12.5 0.5 12.0523 0.5 11.5C0.5 10.9477 0.947715 10.5 1.5 10.5H3C3.55228 10.5 4 10.9477 4 11.5ZM4.92898 6.34335C5.3195 6.73385 5.95265 6.73385 6.3432 6.34335C6.7337 5.9528 6.7337 5.31965 6.3432 4.92912L5.28255 3.86846C4.892 3.47794 4.25884 3.47794 3.86831 3.86846C3.47779 4.25899 3.47779 4.89215 3.86831 5.2827L4.92898 6.34335ZM17.6568 6.34335C18.0473 6.73385 18.6805 6.73385 19.0711 6.34335L20.1317 5.2827C20.5222 4.89215 20.5222 4.25899 20.1317 3.86846C19.7411 3.47794 19.108 3.47794 18.7174 3.86846L17.6568 4.92912C17.2663 5.31965 17.2663 5.9528 17.6568 6.34335ZM8.82195 17.4999C8.8687 17.1313 8.9156 16.7794 8.96165 16.4466C9.10115 15.4391 9.23285 14.6103 9.3295 14.0343C9.34615 13.9352 9.36175 13.8435 9.37615 13.7598C10.1589 13.7536 11.0304 13.75 12 13.75C12.9696 13.75 13.8411 13.7536 14.6238 13.7598C14.6382 13.8435 14.6538 13.9352 14.6705 14.0343C14.7671 14.6103 14.8989 15.4391 15.0384 16.4466C15.0844 16.7794 15.1313 17.1313 15.1781 17.4999H8.82195ZM7.8502 13.7861L7.8518 13.7765C5.90905 13.8042 4.67495 13.8493 3.91775 13.8884C3.15709 13.9277 2.4947 14.3871 2.21764 15.105C1.99213 15.6893 1.7085 16.5085 1.45083 17.4999H7.31015C7.3655 17.0561 7.4213 16.635 7.47585 16.2409C7.6176 15.2172 7.7515 14.3742 7.8502 13.7861ZM0.78733 21.5949C0.844535 20.6735 0.963365 19.8013 1.11454 18.9999H7.13545C6.99475 20.3013 6.86885 21.7323 6.78785 23.2117C4.6396 23.1781 3.10939 23.1287 2.16156 23.0907C1.36845 23.059 0.73728 22.4009 0.78733 21.5949ZM12 23.25C10.6303 23.25 9.39445 23.2429 8.28905 23.2313C8.3719 21.7432 8.50095 20.3036 8.6443 18.9999H15.3557C15.499 20.3036 15.6281 21.7432 15.7109 23.2313C14.6056 23.2429 13.3698 23.25 12 23.25ZM21.8385 23.0907C20.8906 23.1287 19.3604 23.1781 17.2122 23.2117C17.1312 21.7323 17.0052 20.3013 16.8645 18.9999H22.8855C23.0367 19.8013 23.1555 20.6735 23.2127 21.5949C23.2628 22.4009 22.6316 23.059 21.8385 23.0907ZM21.7824 15.105C22.0079 15.6893 22.2915 16.5085 22.5492 17.4999H16.6898C16.6345 17.0561 16.5787 16.635 16.5242 16.2409C16.3824 15.2172 16.2485 14.3742 16.1498 13.7861L16.1482 13.7765C18.091 13.8042 19.3251 13.8493 20.0823 13.8884C20.843 13.9277 21.5054 14.3871 21.7824 15.105Z" fill="#1F2723"/>
</g>
</g>
<defs>
<clipPath id="clip0_2002_1869">
<rect width="24" height="24" fill="white"/>
</clipPath>
<clipPath id="clip1_2002_1869">
<rect width="24" height="24" fill="white"/>
</clipPath>
</defs>
</svg>
