<svg width="24" height="24" viewBox="0 0 24 24" fill="none" xmlns="http://www.w3.org/2000/svg">
<g clip-path="url(#clip0_2002_1789)">
<g clip-path="url(#clip1_2002_1789)">
<path fill-rule="evenodd" clip-rule="evenodd" d="M23.9668 14.038L21.5045 1.73627C21.3075 0.726526 20.421 0 19.3869 0H4.30505C3.25856 0 2.3598 0.751155 2.18744 1.78553L0.0328975 14.0872C-0.0779076 14.7152 0.0944558 15.3556 0.500741 15.8481C0.907027 16.3407 1.5103 16.6116 2.15051 16.6116H9.8453V19.6901H4.61284C3.41861 19.6901 2.4583 20.6506 2.4583 21.845C2.4583 23.0395 3.41861 24 4.61284 24H19.3869C20.5811 24 21.5414 23.0395 21.5414 21.845C21.5414 20.6506 20.5811 19.6901 19.3869 19.6901H14.1544V16.6116H21.8492C22.4894 16.6116 23.105 16.3284 23.5113 15.8235C23.9176 15.3186 24.0899 14.666 23.9545 14.038H23.9668ZM17.9956 6.14469H14.1544V4.29759H17.6263L17.9956 6.14469ZM9.8453 4.29759V6.14469H5.79476L6.11487 4.29759H9.8453ZM4.71134 12.3017L5.03144 10.4546H9.83299V12.3017H4.71134ZM14.1544 12.3017V10.4546H18.8575L19.2268 12.3017H14.1544Z" fill="#1F2723"/>
</g>
</g>
<defs>
<clipPath id="clip0_2002_1789">
<rect width="24" height="24" fill="white"/>
</clipPath>
<clipPath id="clip1_2002_1789">
<rect width="24" height="24" fill="white"/>
</clipPath>
</defs>
</svg>
