<svg width="24" height="24" viewBox="0 0 24 24" fill="none" xmlns="http://www.w3.org/2000/svg">
<g clip-path="url(#clip0_2002_1737)">
<g clip-path="url(#clip1_2002_1737)">
<path fill-rule="evenodd" clip-rule="evenodd" d="M15.1933 20.4585L15.007 6.43457L13.6285 7.78672C13.1902 8.21662 12.5419 8.40087 12.0272 8.06617C11.8298 7.93777 11.6263 7.77492 11.4474 7.57162C11.2469 7.34377 11.0728 7.09057 10.9298 6.85447C10.6146 6.33367 10.703 5.68247 11.0837 5.20742C12.6231 3.28666 14.3291 1.67651 15.7011 0.721352C16.4695 0.186461 17.469 0.241421 18.2295 0.787367C19.6074 1.77643 21.3297 3.29597 22.8827 5.20907C23.2664 5.68187 23.3544 6.33377 23.039 6.85467C22.896 7.09072 22.722 7.34387 22.5216 7.57162C22.3427 7.77482 22.1393 7.93757 21.9419 8.06597C21.4271 8.40072 20.7786 8.21652 20.3402 7.78652L18.9621 6.43482L18.7758 20.4584C18.7677 21.0704 18.3823 21.6126 17.7745 21.6842C17.5456 21.7111 17.2809 21.7295 16.9845 21.7295C16.6881 21.7295 16.4234 21.7112 16.1945 21.6842C15.5867 21.6126 15.2014 21.0704 15.1933 20.4585ZM8.7761 3.50055L8.9674 17.8996L10.3576 16.6161C10.7883 16.2185 11.4037 16.0478 11.9074 16.3476C12.1156 16.4716 12.3326 16.6314 12.522 16.834C12.6964 17.0206 12.8509 17.2253 12.9822 17.4216C13.3383 17.954 13.241 18.645 12.8241 19.1312C11.2805 20.931 9.5769 22.4342 8.21385 23.3168C7.4695 23.7987 6.52665 23.7472 5.7903 23.2532C4.42238 22.3355 2.70444 20.918 1.14867 19.1291C0.728268 18.6457 0.631558 17.9539 0.987718 17.4214C1.11904 17.2251 1.27347 17.0205 1.44783 16.834C1.63713 16.6316 1.85402 16.4717 2.06217 16.3478C2.56598 16.0479 3.18157 16.2186 3.6124 16.6163L5.0023 17.8994L5.19355 3.50063C5.2017 2.88867 5.58705 2.34641 6.19485 2.27485C6.42375 2.2479 6.6885 2.22952 6.9849 2.22952C7.28125 2.22952 7.54595 2.2479 7.77485 2.27485C8.38265 2.3464 8.76795 2.88863 8.7761 3.50055Z" fill="#1F2723"/>
</g>
</g>
<defs>
<clipPath id="clip0_2002_1737">
<rect width="24" height="24" fill="white"/>
</clipPath>
<clipPath id="clip1_2002_1737">
<rect width="24" height="24" fill="white"/>
</clipPath>
</defs>
</svg>
