<svg width="24" height="24" viewBox="0 0 24 24" fill="none" xmlns="http://www.w3.org/2000/svg">
<g clip-path="url(#clip0_2002_1742)">
<path fill-rule="evenodd" clip-rule="evenodd" d="M12 3.11749C18.4949 3.11749 23.76 8.38259 23.76 14.8775C23.76 16.5314 23.4181 18.1074 22.8005 19.5372C22.2884 20.7226 20.9343 21.0162 19.9213 20.6061C18.7791 20.1437 17.2834 19.6749 15.4658 19.3936C15.4903 19.2262 15.503 19.055 15.503 18.8809C15.503 18.2776 15.3505 17.7099 15.0819 17.2144L19.2133 13.083C19.6041 12.6922 19.6041 12.0585 19.2133 11.6676C18.8224 11.2768 18.1887 11.2768 17.7979 11.6676L13.6665 15.799C13.171 15.5304 12.6033 15.3779 12 15.3779C10.0654 15.3779 8.49701 16.9462 8.49701 18.8809C8.49701 19.055 8.50976 19.2262 8.53426 19.3935C6.71661 19.6749 5.22086 20.1437 4.07851 20.606C3.06551 21.016 1.71146 20.7223 1.19946 19.537C0.581863 18.1073 0.240013 16.5313 0.240013 14.8775C0.240013 8.38264 5.50516 3.11749 12 3.11749ZM12 4.86899C12.5528 4.86899 13.0009 5.31709 13.0009 5.86984V6.37024C13.0009 6.92304 12.5528 7.37109 12 7.37109C11.4473 7.37109 10.9992 6.92304 10.9992 6.37024V5.86984C10.9992 5.31709 11.4473 4.86899 12 4.86899ZM19.0774 7.80014C18.6865 7.40924 18.0528 7.40924 17.6619 7.80014L17.3081 8.15399C16.9173 8.54479 16.9173 9.17854 17.3081 9.56939C17.699 9.96024 18.3327 9.96024 18.7235 9.56939L19.0774 9.21554C19.4682 8.82464 19.4682 8.19094 19.0774 7.80014ZM4.92291 7.80059C5.31376 7.40974 5.94746 7.40974 6.33831 7.80059L6.69221 8.15449C7.08301 8.54529 7.08301 9.17899 6.69221 9.56989C6.30131 9.96069 5.66761 9.96069 5.27676 9.56989L4.92291 9.21604C4.53206 8.82514 4.53206 8.19144 4.92291 7.80059ZM2.99236 13.8766C2.43961 13.8766 1.99151 14.3247 1.99151 14.8775C1.99151 15.4302 2.43961 15.8783 2.99236 15.8783H3.49276C4.04551 15.8783 4.49361 15.4302 4.49361 14.8775C4.49361 14.3247 4.04551 13.8766 3.49276 13.8766H2.99236ZM22.0085 14.8775C22.0085 14.3247 21.5605 13.8766 21.0077 13.8766H20.5073C19.9545 13.8766 19.5064 14.3247 19.5064 14.8775C19.5064 15.4302 19.9545 15.8783 20.5073 15.8783H21.0077C21.5605 15.8783 22.0085 15.4302 22.0085 14.8775ZM12 20.8826C13.1055 20.8826 14.0017 19.9864 14.0017 18.8809C14.0017 17.7754 13.1055 16.8792 12 16.8792C10.8945 16.8792 9.99831 17.7754 9.99831 18.8809C9.99831 19.9864 10.8945 20.8826 12 20.8826Z" fill="#1F2723"/>
</g>
<defs>
<clipPath id="clip0_2002_1742">
<rect width="24" height="24" fill="white"/>
</clipPath>
</defs>
</svg>
