<svg width="24" height="24" viewBox="0 0 24 24" fill="none" xmlns="http://www.w3.org/2000/svg">
<g clip-path="url(#clip0_2002_1803)">
<g clip-path="url(#clip1_2002_1803)">
<path fill-rule="evenodd" clip-rule="evenodd" d="M12 24C18.6274 24 24 18.6274 24 12C24 5.37258 18.6274 0 12 0C5.37258 0 0 5.37258 0 12C0 18.6274 5.37258 24 12 24ZM18.3364 6.97608C17.4617 6.10132 16.0411 6.10132 15.1664 6.97608L9.88037 12.2621L8.82617 11.2079C7.9514 10.3331 6.53084 10.3331 5.65607 11.2079C4.78131 12.0826 4.78131 13.5032 5.65607 14.378L8.3028 17.0247C9.17757 17.8994 10.5981 17.8994 11.4729 17.0247L18.3439 10.1537C19.2187 9.27889 19.2187 7.85833 18.3439 6.98356L18.3364 6.97608Z" fill="#1F2723"/>
</g>
</g>
<defs>
<clipPath id="clip0_2002_1803">
<rect width="24" height="24" fill="white"/>
</clipPath>
<clipPath id="clip1_2002_1803">
<rect width="24" height="24" fill="white"/>
</clipPath>
</defs>
</svg>
