<svg width="24" height="24" viewBox="0 0 24 24" fill="none" xmlns="http://www.w3.org/2000/svg">
<g clip-path="url(#clip0_2002_1785)">
<g clip-path="url(#clip1_2002_1785)">
<path fill-rule="evenodd" clip-rule="evenodd" d="M11.5732 0.256887C11.7011 0.252516 11.8429 0.25 12 0.25C12.1571 0.25 12.2989 0.252516 12.4268 0.256887C13.2086 0.283618 13.7172 0.900395 13.7404 1.64254C13.7463 1.82733 13.75 2.03138 13.75 2.25C13.75 2.46863 13.7463 2.67267 13.7404 2.85746C13.7172 3.59961 13.2086 4.21638 12.4268 4.24311C12.2989 4.24748 12.1571 4.25 12 4.25C11.8429 4.25 11.7011 4.24748 11.5732 4.24311C10.7914 4.21638 10.2828 3.59961 10.2596 2.85746C10.2537 2.67267 10.25 2.46863 10.25 2.25C10.25 2.03138 10.2537 1.82733 10.2596 1.64254C10.2828 0.90039 10.7914 0.283618 11.5732 0.256887ZM3.99814 3.39459C4.56984 2.86069 5.36565 2.93715 5.90685 3.44548C6.04165 3.57205 6.18855 3.71368 6.34315 3.86826C6.49775 4.02285 6.63935 4.16979 6.76595 4.30455C7.27425 4.84578 7.3507 5.6416 6.8168 6.2133C6.7295 6.30675 6.631 6.40885 6.51995 6.5199C6.40885 6.631 6.3068 6.7295 6.2133 6.8168C5.6416 7.3507 4.84579 7.27425 4.30456 6.76595C4.1698 6.63935 4.02287 6.49775 3.86828 6.34315C3.71369 6.18855 3.57206 6.0416 3.44549 5.90685C2.93716 5.36565 2.8607 4.56983 3.39461 3.99812C3.48191 3.90463 3.58042 3.80257 3.6915 3.69149C3.80258 3.5804 3.90464 3.4819 3.99814 3.39459ZM20.0021 3.39461C19.4304 2.8607 18.6346 2.93716 18.0933 3.44549C17.9586 3.57206 17.8117 3.71369 17.6571 3.86827C17.5025 4.02287 17.3609 4.1698 17.2343 4.30456C16.726 4.84579 16.6495 5.6416 17.1834 6.2133C17.2707 6.3068 17.3692 6.40885 17.4803 6.51995C17.5914 6.631 17.6934 6.7295 17.7869 6.8168C18.3586 7.3507 19.1544 7.27425 19.6957 6.76595C19.8305 6.63935 19.9774 6.49775 20.132 6.34315C20.2866 6.18855 20.4282 6.04165 20.5548 5.90685C21.0631 5.36565 21.1395 4.56984 20.6056 3.99814C20.5183 3.90464 20.4198 3.80258 20.3088 3.6915C20.1977 3.58042 20.0956 3.48192 20.0021 3.39461ZM1.64254 10.2596C1.82733 10.2537 2.03138 10.25 2.25 10.25C2.46863 10.25 2.67267 10.2537 2.85746 10.2596C3.59961 10.2828 4.21638 10.7914 4.24311 11.5732C4.24748 11.7011 4.25 11.8429 4.25 12C4.25 12.1571 4.24748 12.2989 4.24311 12.4268C4.21638 13.2086 3.59961 13.7172 2.85746 13.7404C2.67267 13.7463 2.46863 13.75 2.25 13.75C2.03138 13.75 1.82733 13.7463 1.64254 13.7404C0.90039 13.7172 0.283618 13.2086 0.256887 12.4268C0.252516 12.2989 0.25 12.1571 0.25 12C0.25 11.8429 0.252516 11.7011 0.256887 11.5732C0.283618 10.7914 0.90039 10.2828 1.64254 10.2596ZM21.75 10.25C21.5314 10.25 21.3273 10.2537 21.1425 10.2596C20.4004 10.2828 19.7836 10.7914 19.7569 11.5732C19.7525 11.7011 19.75 11.8429 19.75 12C19.75 12.1571 19.7525 12.2989 19.7569 12.4268C19.7836 13.2086 20.4004 13.7172 21.1425 13.7404C21.3273 13.7463 21.5314 13.75 21.75 13.75C21.9686 13.75 22.1727 13.7463 22.3575 13.7404C23.0996 13.7172 23.7164 13.2086 23.7431 12.4268C23.7475 12.2989 23.75 12.1571 23.75 12C23.75 11.8429 23.7475 11.7011 23.7431 11.5732C23.7164 10.7914 23.0996 10.2828 22.3575 10.2596C22.1727 10.2537 21.9686 10.25 21.75 10.25ZM17.7869 17.1832C18.3586 16.6493 19.1544 16.7257 19.6957 17.2341C19.8305 17.3607 19.9774 17.5023 20.132 17.6569C20.2866 17.8115 20.4282 17.9583 20.5548 18.0931C21.0631 18.6343 21.1395 19.4302 20.6056 20.0019C20.5183 20.0954 20.4198 20.1974 20.3088 20.3085C20.1977 20.4196 20.0956 20.5181 20.0021 20.6054C19.4304 21.1393 18.6346 21.0629 18.0933 20.5545C17.9586 20.4279 17.8117 20.2863 17.6571 20.1317C17.5025 19.9771 17.3609 19.8302 17.2343 19.6954C16.726 19.1542 16.6495 18.3584 17.1834 17.7867C17.2707 17.6932 17.3692 17.5911 17.4803 17.48C17.5914 17.369 17.6934 17.2705 17.7869 17.1832ZM6.2133 17.1832C5.6416 16.6493 4.84579 16.7257 4.30456 17.2341C4.1698 17.3607 4.02287 17.5023 3.86828 17.6569C3.71369 17.8115 3.57206 17.9584 3.44549 18.0931C2.93716 18.6343 2.8607 19.4302 3.39461 20.0019C3.48192 20.0954 3.58042 20.1975 3.6915 20.3085C3.80258 20.4196 3.90464 20.5181 3.99814 20.6054C4.56984 21.1393 5.36565 21.0629 5.90685 20.5546C6.04165 20.4279 6.18855 20.2864 6.34315 20.1318C6.49775 19.9771 6.63935 19.8302 6.76595 19.6954C7.27425 19.1542 7.3507 18.3584 6.8168 17.7867C6.7295 17.6932 6.631 17.5912 6.51995 17.4801C6.40885 17.369 6.3068 17.2705 6.2133 17.1832ZM11.5732 19.7569C11.7011 19.7525 11.8429 19.75 12 19.75C12.1571 19.75 12.2989 19.7525 12.4268 19.7569C13.2086 19.7836 13.7172 20.4004 13.7404 21.1425C13.7463 21.3273 13.75 21.5314 13.75 21.75C13.75 21.9686 13.7463 22.1727 13.7404 22.3575C13.7172 23.0996 13.2086 23.7164 12.4268 23.7431C12.2989 23.7475 12.1571 23.75 12 23.75C11.8429 23.75 11.7011 23.7475 11.5732 23.7431C10.7914 23.7164 10.2828 23.0996 10.2596 22.3575C10.2537 22.1727 10.25 21.9686 10.25 21.75C10.25 21.5314 10.2537 21.3273 10.2596 21.1425C10.2828 20.4004 10.7914 19.7836 11.5732 19.7569ZM6 12C6 8.6863 8.6863 6 12 6C15.3137 6 18 8.6863 18 12C18 15.3137 15.3137 18 12 18C8.6863 18 6 15.3137 6 12Z" fill="#1F2723"/>
</g>
</g>
<defs>
<clipPath id="clip0_2002_1785">
<rect width="24" height="24" fill="white"/>
</clipPath>
<clipPath id="clip1_2002_1785">
<rect width="24" height="24" fill="white"/>
</clipPath>
</defs>
</svg>
