<svg width="24" height="24" viewBox="0 0 24 24" fill="none" xmlns="http://www.w3.org/2000/svg">
<g clip-path="url(#clip0_2002_1750)">
<g clip-path="url(#clip1_2002_1750)">
<path fill-rule="evenodd" clip-rule="evenodd" d="M6.7786 17.0759C6.729 17.2708 6.7013 17.4635 6.6935 17.6521C3.05868 17.5078 0.25 14.968 0.25 11.2273C0.25 8.52279 1.73052 6.41154 3.96793 5.41864C4.71908 2.26731 7.343 0.236014 10.8212 0.227512C10.8803 0.227368 10.9398 0.227295 11 0.227295C11.0602 0.227295 11.1197 0.227368 11.1788 0.227512C13.0754 0.232148 14.7379 0.837105 15.9807 1.93383C17.0692 2.89439 17.8029 4.20346 18.1005 5.73539C19.6938 5.80939 21.0761 6.38989 22.0818 7.39555C23.1604 8.47429 23.75 9.98639 23.75 11.7273C23.75 13.4212 23.192 14.8989 22.1668 15.9719C21.4652 16.7064 20.5682 17.2266 19.5364 17.5015C19.9662 16.1384 19.2019 14.654 17.8797 14.1532C18.4785 12.4027 17.4663 10.2154 15.2381 10.0413C14.7567 10.0037 14.1774 9.97729 13.5002 9.97729C12.5715 9.97729 11.8268 10.027 11.2665 10.0871C9.8314 10.2408 8.73215 11.2103 8.26085 12.4207C7.53255 14.2912 7.041 16.0448 6.7786 17.0759ZM11.4263 11.5785C11.9338 11.5242 12.6252 11.4773 13.5002 11.4773C14.1383 11.4773 14.6786 11.5022 15.1213 11.5368C16.2554 11.6254 16.8228 12.7671 16.4326 13.7426L15.7388 15.4772H16.9058C17.9574 15.4772 18.5489 16.7064 17.8347 17.5152C16.5548 18.9645 14.2497 21.4625 11.8309 23.5298C11.1098 24.1461 10.0737 23.4986 10.2324 22.6059C10.4266 21.5139 10.6207 20.4585 10.7663 19.6762C10.8166 19.406 10.8611 19.1684 10.8978 18.973C10.3499 18.9701 9.84225 18.9704 9.4367 18.9717C8.6443 18.9742 8.02985 18.2414 8.2323 17.4458C8.48585 16.4495 8.9601 14.7591 9.65865 12.965C9.9468 12.225 10.6016 11.6669 11.4263 11.5785Z" fill="#1F2723"/>
</g>
</g>
<defs>
<clipPath id="clip0_2002_1750">
<rect width="24" height="24" fill="white"/>
</clipPath>
<clipPath id="clip1_2002_1750">
<rect width="24" height="24" fill="white"/>
</clipPath>
</defs>
</svg>
