<svg width="24" height="24" viewBox="0 0 24 24" fill="none" xmlns="http://www.w3.org/2000/svg">
<g clip-path="url(#clip0_2002_1818)">
<path fill-rule="evenodd" clip-rule="evenodd" d="M2.52672 4.58583L3.50001 5.43745V12.2692C3.22777 12.2767 2.98585 12.286 2.77189 12.2963C1.70598 12.3474 0.872935 13.1375 0.74035 14.1868C0.62276 15.1174 0.5 16.4578 0.5 18C0.5 18.5568 0.516 19.0871 0.541955 19.5811C0.669265 22.0042 2.59462 23.75 5 23.75C7.4054 23.75 9.33075 22.0042 9.45805 19.5811C9.484 19.0871 9.5 18.5568 9.5 18C9.5 16.4578 9.37725 15.1174 9.25965 14.1868C9.12705 13.1375 8.294 12.3474 7.2281 12.2963C7.01415 12.286 6.77225 12.2767 6.5 12.2692V5.43745L7.4733 4.58583C7.78955 4.3091 7.89905 3.86416 7.74735 3.47226L6.6237 0.569455C6.54915 0.376886 6.3639 0.24995 6.1574 0.24995H3.84261C3.63612 0.24995 3.45086 0.376886 3.37632 0.569455L2.25266 3.47226C2.10096 3.86416 2.21046 4.3091 2.52672 4.58583ZM13.6691 0.346066C14.3573 0.0414506 15.0218 0.60014 15.0122 1.26088C14.9902 2.78616 14.9911 4.56063 15.0728 5.79725C15.3042 6.0217 15.84 6.4808 16.5435 6.725C17.2323 6.4859 17.7605 6.0407 18 5.81095V1.25035C18 0.592545 18.6652 0.049648 19.3447 0.352214C21.7921 1.44197 23.5 3.89593 23.5 6.7499C23.5 9.4425 21.9796 11.7792 19.7528 12.9497C19.7448 12.9539 19.7393 12.9595 19.7363 12.9643C19.7349 12.9665 19.7341 12.9688 19.7341 12.9688C19.6777 17.6245 19.4847 20.5197 19.3589 21.9587C19.2831 22.826 18.6667 23.5937 17.7273 23.6905C17.39 23.7253 16.9809 23.75 16.5 23.75C16.0191 23.75 15.61 23.7253 15.2727 23.6905C14.3333 23.5937 13.7169 22.826 13.6411 21.9587C13.5153 20.5197 13.3224 17.6251 13.266 12.9694C13.266 12.9694 13.2651 12.9665 13.2637 12.9643C13.2606 12.9595 13.2552 12.9539 13.2472 12.9497C11.0204 11.7792 9.5 9.4425 9.5 6.7499C9.5 3.89056 11.2143 1.43272 13.6691 0.346066Z" fill="#1F2723"/>
</g>
<defs>
<clipPath id="clip0_2002_1818">
<rect width="24" height="24" fill="white"/>
</clipPath>
</defs>
</svg>
