<svg width="24" height="24" viewBox="0 0 24 24" fill="none" xmlns="http://www.w3.org/2000/svg">
<path fill-rule="evenodd" clip-rule="evenodd" d="M7.9318 3.04757C8.67795 1.50859 10.2477 0.5 12.0001 0.5C13.7526 0.5 15.3224 1.50859 16.0685 3.04757C17.8613 3.08991 19.2477 3.15182 20.0944 3.19625C20.805 3.23353 21.5761 3.53998 21.9791 4.26685C22.1598 4.59269 22.3411 5.007 22.4566 5.4972C22.4888 5.63395 22.5 5.7676 22.5 5.8912C22.5 6.86175 21.7719 7.68855 20.7819 7.75865C19.319 7.86225 16.5232 8 12.0004 8C7.4773 8 4.68117 7.8622 3.21807 7.75865C2.22809 7.68855 1.5 6.86175 1.5 5.8912C1.5 5.7676 1.51118 5.63395 1.54341 5.4972C1.65892 5.007 1.84022 4.5927 2.02088 4.26685C2.4239 3.53998 3.19499 3.23353 3.90554 3.19625C4.7523 3.15182 6.13885 3.0899 7.9318 3.04757ZM3.56895 9.03025C3.4296 9.0211 3.29276 9.0706 3.19156 9.16685C3.09036 9.2631 3.03403 9.3973 3.0362 9.53695C3.10472 13.9475 3.25685 17.7187 3.36847 20.0441C3.44933 21.7286 4.7383 23.1044 6.43165 23.246C7.94245 23.3724 9.9697 23.5 12.0006 23.5C14.0313 23.5 16.0582 23.3724 17.5687 23.246C19.262 23.1043 20.5509 21.7287 20.6318 20.0442C20.7434 17.7187 20.8955 13.9475 20.9641 9.53695C20.9662 9.3973 20.9099 9.26315 20.8087 9.1669C20.7075 9.07065 20.5707 9.0211 20.4313 9.03025C18.9279 9.1292 16.2265 9.25 12.0006 9.25C7.7743 9.25 5.07255 9.12915 3.56895 9.03025ZM8.97515 11.7504C9.3891 11.7366 9.7359 12.0611 9.7497 12.475L9.9997 19.975C10.0135 20.389 9.6891 20.7358 9.2751 20.7496C8.8611 20.7634 8.51435 20.4389 8.50055 20.025L8.25055 12.525C8.23675 12.111 8.56115 11.7642 8.97515 11.7504ZM15.0251 11.7504C15.4391 11.7642 15.7635 12.111 15.7497 12.525L15.4997 20.025C15.4859 20.4389 15.1391 20.7634 14.7252 20.7496C14.3112 20.7358 13.9868 20.389 14.0006 19.975L14.2506 12.475C14.2643 12.0611 14.6111 11.7366 15.0251 11.7504Z" fill="#1F2723"/>
</svg>
