<svg width="24" height="24" viewBox="0 0 24 24" fill="none" xmlns="http://www.w3.org/2000/svg">
<g clip-path="url(#clip0_2002_1892)">
<path fill-rule="evenodd" clip-rule="evenodd" d="M13.9791 6.28662L13.7748 15.178C13.7595 15.8415 13.3073 16.4171 12.646 16.4732C12.4479 16.4899 12.2303 16.5008 11.9994 16.5008C11.7683 16.5008 11.5507 16.4899 11.3525 16.4731C10.6911 16.4171 10.2388 15.8414 10.2236 15.1779L10.0194 6.28662C9.27237 6.24872 8.62117 6.19262 8.07282 6.13202C7.04937 6.01897 6.65247 4.95767 7.35472 4.20465C7.71702 3.81617 8.16817 3.35001 8.72647 2.79866C9.86212 1.67712 10.7021 1.05589 11.2467 0.717993C11.7171 0.426064 12.2813 0.426026 12.7518 0.717923C13.2963 1.05581 14.1364 1.67704 15.2719 2.79866C15.8302 3.35007 16.2813 3.81627 16.6435 4.20477C17.3456 4.95778 16.9487 6.01897 15.9254 6.13202C15.3771 6.19262 14.726 6.24867 13.9791 6.28662ZM3.49902 14.4644C3.49902 12.2849 3.5904 10.6696 3.69007 9.55607C3.73453 9.05932 4.12067 8.65852 4.71027 8.62382C4.82878 8.61682 4.9523 8.60982 5.08077 8.60277C5.90797 8.55762 6.54197 7.85042 6.49677 7.02322C6.45162 6.19607 5.74442 5.56207 4.91724 5.60727C4.78446 5.61452 4.65667 5.62177 4.53389 5.62897C2.55365 5.74562 0.887048 7.22127 0.702013 9.28862C0.593908 10.4965 0.499023 12.2012 0.499023 14.4644C0.499023 16.7532 0.596063 18.4708 0.705683 19.6809C0.890323 21.7193 2.52171 23.1892 4.49078 23.3076C6.06467 23.4022 8.52362 23.4989 11.999 23.4989C15.4744 23.4989 17.9334 23.4022 19.5073 23.3076C21.4763 23.1892 23.1077 21.7193 23.2924 19.6809C23.402 18.4708 23.499 16.7532 23.499 14.4644C23.499 12.2012 23.4041 10.4965 23.296 9.28862C23.111 7.22127 21.4444 5.74562 19.4642 5.62897C19.3414 5.62177 19.2136 5.61452 19.0808 5.60727C18.2536 5.56207 17.5464 6.19607 17.5013 7.02322C17.4561 7.85042 18.0901 8.55762 18.9172 8.60277C19.0457 8.60982 19.1693 8.61682 19.2878 8.62382C19.8774 8.65852 20.2635 9.05932 20.308 9.55602C20.4076 10.6696 20.499 12.2849 20.499 14.4644C20.499 16.6685 20.4056 18.2956 20.3046 19.4103C20.2604 19.8982 19.8902 20.2792 19.3273 20.313C17.8177 20.4037 15.419 20.4989 11.999 20.4989C8.57907 20.4989 6.18032 20.4037 4.67077 20.313C4.10783 20.2791 3.73765 19.8982 3.69345 19.4103C3.59248 18.2956 3.49902 16.6685 3.49902 14.4644Z" fill="#1F2723"/>
</g>
<defs>
<clipPath id="clip0_2002_1892">
<rect width="24" height="24" fill="white"/>
</clipPath>
</defs>
</svg>
