<svg width="24" height="24" viewBox="0 0 24 24" fill="none" xmlns="http://www.w3.org/2000/svg">
<path d="M11.9993 0.25C7.71912 0.25 4.24931 3.7198 4.24931 8C4.24931 10.5795 5.50952 12.8637 7.44622 14.272C4.96155 15.465 3.09189 17.613 2.4705 20.2168C2.11567 21.7037 3.15629 22.9911 4.5458 23.2328C5.98612 23.4833 8.37097 23.75 11.9993 23.75C15.6276 23.75 18.0125 23.4833 19.4528 23.2328C20.8423 22.9911 21.8829 21.7037 21.5281 20.2168C20.9067 17.613 19.0371 15.465 16.5524 14.272C18.4891 12.8637 19.7493 10.5795 19.7493 8C19.7493 3.7198 16.2795 0.25 11.9993 0.25Z" fill="#1F2723"/>
</svg>
