<svg width="24" height="24" viewBox="0 0 24 24" fill="none" xmlns="http://www.w3.org/2000/svg">
<g clip-path="url(#clip0_2002_1890)">
<path fill-rule="evenodd" clip-rule="evenodd" d="M12 0.25C18.4893 0.25 23.75 5.51065 23.75 12C23.75 18.4893 18.4893 23.75 12 23.75C5.51065 23.75 0.25 18.4893 0.25 12C0.25 5.51065 5.51065 0.25 12 0.25ZM9.39165 16.3757C7.527 15.4249 6.25 13.4866 6.25 11.25C6.25 8.07435 8.82435 5.5 12 5.5C15.1756 5.5 17.75 8.07435 17.75 11.25C17.75 13.4866 16.4731 15.4249 14.6086 16.3757C16.5814 16.9784 17.8748 18.1909 18.6332 19.146C16.8931 20.7619 14.5619 21.75 12 21.75C9.4381 21.75 7.107 20.7619 5.36695 19.146C6.12535 18.191 7.4188 16.9785 9.39165 16.3757Z" fill="#1F2723"/>
</g>
<defs>
<clipPath id="clip0_2002_1890">
<rect width="24" height="24" fill="white"/>
</clipPath>
</defs>
</svg>
