<svg width="24" height="24" viewBox="0 0 24 24" fill="none" xmlns="http://www.w3.org/2000/svg">
<g clip-path="url(#clip0_2002_1888)">
<path fill-rule="evenodd" clip-rule="evenodd" d="M11.2499 0.261742C5.358 0.632884 0.64458 5.3463 0.273438 11.2382H0.999885C6.6608 11.2382 11.2499 6.6491 11.2499 0.988189V0.261742ZM0.273438 12.7383C0.6602 18.8781 5.76245 23.7383 11.9999 23.7383C18.2373 23.7383 23.3396 18.8781 23.7264 12.7383H22.9999C17.9676 12.7383 13.6742 9.57475 11.9999 5.12795C10.3256 9.57475 6.03215 12.7383 0.999885 12.7383H0.273438ZM7.5884 16.3612C7.9347 16.134 8.39965 16.2305 8.6269 16.5768C9.3347 17.6553 10.6332 18.2383 11.9999 18.2383C13.3666 18.2383 14.6651 17.6553 15.3729 16.5768C15.6001 16.2305 16.0651 16.134 16.4114 16.3612C16.7577 16.5885 16.8542 17.0534 16.6269 17.3997C15.5847 18.9879 13.7582 19.7383 11.9999 19.7383C10.2416 19.7383 8.41505 18.9879 7.37285 17.3997C7.1456 17.0534 7.2421 16.5885 7.5884 16.3612ZM8.4999 11.2383C8.9141 11.2383 9.2499 11.574 9.2499 11.9883V12.9883C9.2499 13.4025 8.9141 13.7383 8.4999 13.7383C8.08565 13.7383 7.7499 13.4025 7.7499 12.9883V11.9883C7.7499 11.574 8.08565 11.2383 8.4999 11.2383ZM14.7499 11.9883C14.7499 11.574 15.0856 11.2383 15.4999 11.2383C15.9141 11.2383 16.2499 11.574 16.2499 11.9883V12.9883C16.2499 13.4025 15.9141 13.7383 15.4999 13.7383C15.0856 13.7383 14.7499 13.4025 14.7499 12.9883V11.9883ZM12.7499 0.261742C18.6418 0.632884 23.3552 5.3463 23.7264 11.2382H22.9999C17.339 11.2382 12.7499 6.6491 12.7499 0.988189V0.261742Z" fill="#1F2723"/>
</g>
<defs>
<clipPath id="clip0_2002_1888">
<rect width="24" height="24" fill="white"/>
</clipPath>
</defs>
</svg>
