<svg width="24" height="24" viewBox="0 0 24 24" fill="none" xmlns="http://www.w3.org/2000/svg">
<g clip-path="url(#clip0_2002_1816)">
<g clip-path="url(#clip1_2002_1816)">
<path fill-rule="evenodd" clip-rule="evenodd" d="M9.55527 1.31735C10.8335 -0.439115 13.1665 -0.439115 14.4447 1.31735C15.7584 3.12255 17.6772 6.08384 19.9924 10.6091C22.1419 14.8105 23.2591 17.6744 23.8406 19.5269C24.1509 20.5155 23.9959 21.4938 23.4817 22.2488C22.9736 22.9947 22.152 23.4707 21.2091 23.5665C19.1748 23.7731 16.0254 24 12 24C7.97455 24 4.82516 23.7731 2.79089 23.5665C1.84798 23.4707 1.02644 22.9947 0.51832 22.2488C0.00409236 21.4938 -0.150929 20.5155 0.159365 19.5269C0.740821 17.6744 1.85809 14.8105 4.00758 10.6091C6.32279 6.08384 8.24154 3.12255 9.55527 1.31735ZM10.043 8.76828C9.99037 8.04319 10.3109 7.33622 10.984 7.18063C11.2648 7.1157 11.6035 7.06986 12.0001 7.06986C12.3967 7.06986 12.7354 7.1157 13.0161 7.18063C13.6892 7.33622 14.0098 8.04319 13.9572 8.76828C13.8595 10.1135 13.6836 12.3096 13.4928 13.5967C13.4222 14.0731 13.1411 14.4735 12.6892 14.5451C12.5055 14.5742 12.2781 14.5942 12.0001 14.5942C11.7221 14.5942 11.4947 14.5742 11.3109 14.5451C10.8591 14.4735 10.5779 14.0731 10.5073 13.5967C10.3166 12.3096 10.1406 10.1135 10.043 8.76828ZM13.7824 18.0877C13.7824 19.1266 12.9844 19.9688 12.0001 19.9688C11.0157 19.9688 10.2177 19.1266 10.2177 18.0877C10.2177 17.0488 11.0157 16.2066 12.0001 16.2066C12.9844 16.2066 13.7824 17.0488 13.7824 18.0877Z" fill="#1F2723"/>
</g>
</g>
<defs>
<clipPath id="clip0_2002_1816">
<rect width="24" height="24" fill="white"/>
</clipPath>
<clipPath id="clip1_2002_1816">
<rect width="24" height="24" fill="white"/>
</clipPath>
</defs>
</svg>
