<svg width="24" height="24" viewBox="0 0 24 24" fill="none" xmlns="http://www.w3.org/2000/svg">
<path fill-rule="evenodd" clip-rule="evenodd" d="M12 0.25C8.93665 0.25 6.63865 0.379434 5.11215 0.507915C3.42738 0.649715 2.14362 1.97184 2.0201 3.64682C1.97685 4.23319 1.93237 4.93425 1.8923 5.75H22.1077C22.0676 4.93425 22.0231 4.23319 21.9799 3.64682C21.8563 1.97184 20.5726 0.64971 18.8878 0.50791C17.3614 0.379434 15.0633 0.25 12 0.25ZM1.82936 7.25C1.78193 8.5998 1.75 10.1832 1.75 12C1.75 15.8128 1.8906 18.5973 2.0201 20.3532C2.14363 22.0282 3.42739 23.3503 5.11215 23.4921C6.63865 23.6206 8.9367 23.75 12 23.75C15.0633 23.75 17.3614 23.6206 18.8878 23.4921C20.5726 23.3503 21.8563 22.0282 21.9799 20.3532C22.1094 18.5973 22.25 15.8128 22.25 12C22.25 10.1832 22.2181 8.5998 22.1707 7.25H1.82936ZM17.75 15.5C17.75 12.3244 15.1756 9.75 12 9.75C8.82435 9.75 6.25 12.3244 6.25 15.5C6.25 18.6756 8.82435 21.25 12 21.25C15.1756 21.25 17.75 18.6756 17.75 15.5ZM17.25 3.25C17.25 2.83578 17.5858 2.5 18 2.5H18.5C18.9142 2.5 19.25 2.83578 19.25 3.25C19.25 3.66422 18.9142 4 18.5 4H18C17.5858 4 17.25 3.66422 17.25 3.25ZM15 2.5C14.5858 2.5 14.25 2.83578 14.25 3.25C14.25 3.66422 14.5858 4 15 4H15.5C15.9142 4 16.25 3.66422 16.25 3.25C16.25 2.83578 15.9142 2.5 15.5 2.5H15ZM11.25 3.25C11.25 2.83578 11.5858 2.5 12 2.5H12.5C12.9142 2.5 13.25 2.83578 13.25 3.25C13.25 3.66422 12.9142 4 12.5 4H12C11.5858 4 11.25 3.66422 11.25 3.25ZM12 19.75C14.1701 19.75 15.9604 18.1234 16.2181 16.0229C15.37 16.4352 13.8818 16.7546 12 15.5002C10.1182 14.2458 8.6299 14.565 7.78185 14.9772C7.7608 15.1486 7.75 15.323 7.75 15.5C7.75 17.8472 9.6528 19.75 12 19.75Z" fill="#1F2723"/>
</svg>
