<svg width="24" height="24" viewBox="0 0 24 24" fill="none" xmlns="http://www.w3.org/2000/svg">
<g clip-path="url(#clip0_2002_1783)">
<path fill-rule="evenodd" clip-rule="evenodd" d="M10.0481 0.937703C11.2106 0.0469389 12.7894 0.0469404 13.952 0.937703C15.2633 1.94254 17.1992 3.62143 18.8127 5.82517C20.4254 8.02787 21.75 10.8024 21.75 13.9804C21.75 19.3946 17.4142 23.7304 12 23.7304C6.5858 23.7304 2.25 19.3946 2.25 13.9804C2.25 10.8024 3.57462 8.02787 5.18735 5.82517C6.80085 3.62143 8.7367 1.94254 10.0481 0.937703ZM19.25 13.9804C19.25 13.29 18.6903 12.7304 18 12.7304C17.3097 12.7304 16.75 13.29 16.75 13.9804C16.75 16.6234 14.643 18.7304 12 18.7304C11.3097 18.7304 10.75 19.29 10.75 19.9804C10.75 20.6707 11.3097 21.2304 12 21.2304C16.0237 21.2304 19.25 18.0041 19.25 13.9804Z" fill="#1F2723"/>
</g>
<defs>
<clipPath id="clip0_2002_1783">
<rect width="24" height="24" fill="white"/>
</clipPath>
</defs>
</svg>
