<svg width="24" height="24" viewBox="0 0 24 24" fill="none" xmlns="http://www.w3.org/2000/svg">
<g clip-path="url(#clip0_2002_1870)">
<g clip-path="url(#clip1_2002_1870)">
<path fill-rule="evenodd" clip-rule="evenodd" d="M12 4.25C12 2.04086 13.7908 0.25 16 0.25C18.2092 0.25 20 2.04086 20 4.25V4.37891C20 6.78615 18.2222 8.8584 15.7721 9.09565C12.7659 9.3867 7.80235 9.75 1.75 9.75C1.05964 9.75 0.5 9.19035 0.5 8.5C0.5 7.80965 1.05964 7.25 1.75 7.25C7.7052 7.25 12.5865 6.8924 15.5311 6.60725C16.6462 6.4993 17.5 5.5534 17.5 4.37891V4.25C17.5 3.42158 16.8284 2.75 16 2.75C15.1715 2.75 14.5 3.42158 14.5 4.25V4.5C14.5 5.19035 13.9403 5.75 13.25 5.75C12.5597 5.75 12 5.19035 12 4.5V4.25ZM6.23695 19.8685C6.23695 22.0121 7.9748 23.75 10.1185 23.75C12.2622 23.75 14.0001 22.0121 14.0001 19.8685V19.5047C14.0001 17.2939 12.291 15.4224 10.034 15.3308C7.5706 15.2309 4.34169 15.168 1.12589 15.4892C0.438945 15.5578 -0.062319 16.1703 0.00627975 16.8573C0.0748785 17.5441 0.687365 18.0455 1.3743 17.9769C4.4117 17.6735 7.49995 17.7301 9.93265 17.8288C10.8017 17.864 11.5001 18.5868 11.5001 19.5047V19.8685C11.5001 20.6315 10.8815 21.25 10.1185 21.25C9.3555 21.25 8.73695 20.6315 8.73695 19.8685V19.3544C8.73695 18.664 8.1773 18.1044 7.48695 18.1044C6.7966 18.1044 6.23695 18.664 6.23695 19.3544V19.8685ZM19.75 19.2502C17.4028 19.2502 15.5 17.3473 15.5 15.0001C15.5 14.3098 16.0597 13.7501 16.75 13.7501C17.4404 13.7501 18 14.3098 18 15.0001C18 15.9667 18.7835 16.7502 19.75 16.7502C20.7119 16.7502 21.5 15.9627 21.5 14.9916C21.5 14.0498 20.7824 13.3131 19.9252 13.282C17.3498 13.1883 15.2914 13.3091 11.8246 13.5125C9.7758 13.6327 7.23495 13.7818 3.80489 13.9325C3.1152 13.9628 2.53153 13.4282 2.50122 12.7385C2.47093 12.0489 3.00547 11.4651 3.69515 11.4348C6.9759 11.2907 9.46995 11.145 11.5188 11.0253C15.1044 10.8157 17.3267 10.6859 20.0161 10.7837C22.3009 10.8667 24 12.7893 24 14.9916C24 17.3342 22.1019 19.2502 19.75 19.2502Z" fill="#1F2723"/>
</g>
</g>
<defs>
<clipPath id="clip0_2002_1870">
<rect width="24" height="24" fill="white"/>
</clipPath>
<clipPath id="clip1_2002_1870">
<rect width="24" height="24" fill="white"/>
</clipPath>
</defs>
</svg>
