<svg width="24" height="24" viewBox="0 0 24 24" fill="none" xmlns="http://www.w3.org/2000/svg">
<g clip-path="url(#clip0_2002_1751)">
<path d="M9.6665 18.8799C9.89545 18.4228 10.4514 18.2373 10.9087 18.4658C11.3663 18.6946 11.5514 19.2514 11.3228 19.709L9.93408 22.4873C9.70531 22.9448 9.14844 23.1309 8.69092 22.9023C8.23335 22.6735 8.04811 22.1167 8.27686 21.6592L9.6665 18.8799Z" fill="#1F2723"/>
<path d="M19.6235 18.8799C19.8524 18.4225 20.4093 18.2371 20.8667 18.4658C21.3243 18.6946 21.5095 19.2514 21.2808 19.709L19.8911 22.4873C19.6624 22.9448 19.1064 23.1308 18.6489 22.9023C18.1914 22.6735 18.0061 22.1167 18.2349 21.6592L19.6235 18.8799Z" fill="#1F2723"/>
<path d="M14.5151 18.4951C14.6739 18.385 14.8838 18.3851 15.0425 18.4951H15.0444L15.0454 18.497L15.0503 18.5L15.0659 18.5107C15.0784 18.5197 15.0954 18.5327 15.1167 18.5488C15.1597 18.5812 15.2195 18.6282 15.2905 18.6875C15.4319 18.8056 15.6215 18.977 15.812 19.1904C16.1795 19.6021 16.6186 20.2434 16.6187 21.0039C16.6187 21.9892 15.7198 22.6416 14.7788 22.6416C13.8379 22.6415 12.9399 21.9891 12.9399 21.0039C12.94 20.2434 13.3781 19.6021 13.7456 19.1904C13.9362 18.977 14.1257 18.8057 14.2671 18.6875C14.3381 18.6281 14.3979 18.5813 14.4409 18.5488C14.4624 18.5326 14.4801 18.5198 14.4927 18.5107L14.5073 18.5L14.5122 18.497L14.5151 18.4951Z" fill="#1F2723"/>
<path d="M4.8208 18.3681C4.96995 18.3681 5.10618 18.416 5.20557 18.4609C5.31207 18.509 5.41865 18.5727 5.51904 18.6416C5.72017 18.7797 5.93043 18.9622 6.12061 19.1523C6.3108 19.3426 6.49319 19.5536 6.63135 19.7549C6.70022 19.8553 6.76391 19.9618 6.81201 20.0683C6.85684 20.1676 6.9047 20.3032 6.90479 20.4521C6.90479 20.6013 6.85688 20.7375 6.81201 20.8369C6.76391 20.9434 6.70021 21.05 6.63135 21.1504C6.49321 21.3515 6.31076 21.5627 6.12061 21.7529C5.93057 21.9429 5.72003 22.1246 5.51904 22.2627C5.41872 22.3315 5.312 22.3952 5.20557 22.4433C5.10617 22.4882 4.96997 22.5371 4.8208 22.5371C4.67179 22.5371 4.53635 22.4882 4.43701 22.4433C4.3305 22.3952 4.22393 22.3315 4.12354 22.2627C3.92237 22.1246 3.71115 21.943 3.521 21.7529C3.33079 21.5627 3.14839 21.3516 3.01025 21.1504C2.94134 21.0499 2.87769 20.9434 2.82959 20.8369C2.78472 20.7375 2.73682 20.6013 2.73682 20.4521C2.7369 20.3032 2.78478 20.1676 2.82959 20.0683C2.87766 19.9619 2.94139 19.8552 3.01025 19.7549C3.14839 19.5536 3.33078 19.3426 3.521 19.1523C3.7112 18.9621 3.9223 18.7797 4.12354 18.6416C4.22384 18.5728 4.33061 18.509 4.43701 18.4609C4.53633 18.4161 4.67192 18.3682 4.8208 18.3681Z" fill="#1F2723"/>
<path d="M11.2388 0.999974C12.4286 1.00288 13.5191 1.26139 14.4565 1.74314C14.1131 1.94269 13.9096 2.31334 13.9136 2.70212C13.528 2.92483 13.3021 3.37066 13.3813 3.83493L13.4556 4.27146C13.5087 4.58235 13.6893 4.83891 13.9331 4.99997C13.7185 5.14171 13.5535 5.35731 13.481 5.61911L13.4565 5.72849L13.3813 6.16501C13.3021 6.62911 13.5284 7.07402 13.9136 7.29685C13.9086 7.74608 14.1818 8.17039 14.6265 8.33591L15.0308 8.4863C15.3215 8.59451 15.6283 8.56985 15.8872 8.44529C15.906 8.73214 16.0372 9.01113 16.2739 9.21091L16.6069 9.49216C16.97 9.79828 17.4728 9.82584 17.8608 9.60154C18.249 9.82633 18.7524 9.79852 19.1157 9.49216L19.4487 9.21091C19.6855 9.01115 19.8156 8.73212 19.8345 8.44529C20.0936 8.57018 20.4008 8.59464 20.6919 8.4863L21.0962 8.33591C21.3125 8.25536 21.487 8.11262 21.6099 7.9365C22.4354 8.90824 22.8842 10.193 22.8843 11.6523C22.8843 13.2212 22.3669 14.59 21.4175 15.584C20.4842 16.5609 19.1779 17.1289 17.6646 17.2021C17.63 17.2074 17.5941 17.2099 17.5581 17.2099H11.0415C9.50833 17.2053 8.21279 17.1796 7.12646 17.1426C3.73915 17.0269 1.11576 14.6689 1.11572 11.1894C1.11576 8.68427 2.48756 6.72829 4.56006 5.80857C5.25595 2.88974 7.68603 1.00794 10.9077 0.999974H11.2388Z" fill="#1F2723"/>
<path d="M17.0903 1.08103C17.2373 0.957108 17.4573 0.977624 17.5796 1.12595L17.8618 1.46775L18.1431 1.12595C18.2653 0.977579 18.4854 0.957101 18.6323 1.08103L18.9653 1.36228C19.1098 1.48418 19.1293 1.69971 19.0093 1.84568L18.481 2.48728C18.4429 2.53353 18.4215 2.59146 18.4214 2.65134V4.01755L19.5894 3.33591C19.6416 3.30542 19.682 3.25701 19.7026 3.20017L19.9858 2.42283C20.0513 2.24267 20.2505 2.15 20.4302 2.21677L20.8354 2.36716C21.0129 2.43335 21.104 2.63048 21.0396 2.80857L20.8853 3.23435L21.3208 3.31052C21.508 3.34325 21.6338 3.5207 21.6021 3.70798L21.5269 4.14548C21.4946 4.33386 21.3157 4.46061 21.1274 4.42771L20.3247 4.28708C20.2644 4.27655 20.2018 4.28746 20.1489 4.31833L18.9819 4.99997L20.1489 5.68161C20.2018 5.7125 20.2644 5.72341 20.3247 5.71286L21.1274 5.57322C21.3157 5.54034 21.4945 5.66619 21.5269 5.85447L21.6021 6.29197C21.6339 6.47933 21.508 6.65765 21.3208 6.6904L20.8843 6.76658L21.0396 7.19138C21.0816 7.30727 21.0556 7.42987 20.9849 7.52048C20.9788 7.52837 20.9721 7.53558 20.9653 7.54294C20.9538 7.55529 20.9416 7.56648 20.9282 7.57712C20.9208 7.58309 20.9137 7.58933 20.9058 7.5947C20.8839 7.6093 20.8611 7.6232 20.8354 7.63279L20.4302 7.78318C20.273 7.8417 20.0997 7.77902 20.0151 7.64158C20.003 7.62198 19.9931 7.60059 19.9849 7.5781L19.7026 6.79978C19.6974 6.78543 19.6907 6.7718 19.6831 6.75876C19.6683 6.73314 19.649 6.71055 19.6265 6.69138C19.6149 6.68164 19.6025 6.67271 19.5894 6.66501L18.4214 5.9824V7.34861L18.4253 7.39255C18.4329 7.43652 18.4523 7.47783 18.481 7.51267L19.0093 8.15427C19.0605 8.21645 19.0848 8.29138 19.0864 8.36619C19.0866 8.37402 19.0868 8.3818 19.0864 8.38962C19.0859 8.40145 19.0843 8.41307 19.0825 8.42478C19.0815 8.43162 19.081 8.43851 19.0796 8.44529C19.077 8.45751 19.0737 8.46951 19.0698 8.48142C19.066 8.49309 19.0612 8.50434 19.0562 8.5156C19.053 8.52251 19.05 8.52939 19.0464 8.53611C19.0355 8.5565 19.0234 8.5765 19.0083 8.5947L18.9653 8.63767L18.6323 8.91892C18.6023 8.94426 18.5684 8.96212 18.5337 8.97556C18.5278 8.97784 18.5221 8.98045 18.5161 8.9824C18.5068 8.98542 18.4973 8.98702 18.4878 8.98923C18.4755 8.99212 18.4632 8.99456 18.4507 8.99607C18.4432 8.99697 18.4358 8.99761 18.4282 8.99802C18.4158 8.9987 18.4035 8.99868 18.3911 8.99802C18.3813 8.99749 18.3716 8.99645 18.3618 8.99509C18.3496 8.9934 18.3376 8.99124 18.3257 8.98826C18.3185 8.98645 18.3113 8.98467 18.3042 8.9824C18.2892 8.97759 18.2746 8.9717 18.2603 8.96482C18.2553 8.96242 18.2505 8.95966 18.2456 8.95701C18.2332 8.95027 18.2211 8.9429 18.2095 8.93454C18.2027 8.92967 18.1955 8.92532 18.189 8.9199C18.1726 8.90627 18.1571 8.89104 18.1431 8.874L17.8618 8.5322L17.5796 8.874C17.4878 8.98543 17.3411 9.02525 17.2114 8.98533C17.1683 8.97214 17.1271 8.94987 17.0903 8.91892L16.7573 8.63767C16.7032 8.59193 16.6662 8.53313 16.6479 8.4697C16.6358 8.4273 16.6318 8.38274 16.6362 8.33884C16.6428 8.27332 16.6684 8.20888 16.7134 8.15427L17.2417 7.51267C17.2585 7.4923 17.271 7.46938 17.2808 7.44529C17.2878 7.42821 17.2942 7.41081 17.2974 7.39255L17.3013 7.34861V5.9824L16.1333 6.66501C16.1201 6.67271 16.1077 6.68164 16.0962 6.69138C16.0622 6.72031 16.0354 6.75734 16.02 6.79978L15.7378 7.5781C15.7258 7.61101 15.707 7.63938 15.687 7.66599C15.6808 7.67423 15.6753 7.68282 15.6685 7.6904C15.6621 7.69747 15.6548 7.70347 15.6479 7.70994C15.6393 7.71805 15.6309 7.72623 15.6216 7.73337C15.6129 7.73998 15.6035 7.74521 15.5942 7.75095C15.5868 7.75561 15.5796 7.76055 15.5718 7.76462C15.5615 7.76996 15.5513 7.77498 15.5405 7.77927C15.5313 7.78296 15.5217 7.78517 15.5122 7.78806C15.5019 7.7912 15.4916 7.79371 15.481 7.79587C15.4706 7.79799 15.4603 7.7996 15.4497 7.80076C15.439 7.80192 15.4284 7.80354 15.4175 7.80369C15.4019 7.8039 15.3864 7.80272 15.3706 7.80076C15.3667 7.80027 15.3628 7.8004 15.3589 7.79978C15.3367 7.79623 15.3144 7.79132 15.2925 7.78318L14.8882 7.63279C14.7926 7.59719 14.7227 7.52355 14.688 7.43552C14.6581 7.3598 14.6541 7.27386 14.6841 7.19138L14.8384 6.76658L14.4019 6.6904C14.2146 6.65765 14.0888 6.47933 14.1206 6.29197L14.1958 5.85447C14.2282 5.66625 14.407 5.53948 14.5952 5.57224L15.3979 5.71286C15.4229 5.71723 15.4484 5.71676 15.4731 5.71384C15.4934 5.71155 15.5136 5.70821 15.5327 5.70115L15.5737 5.68161L16.7407 4.99997L15.5737 4.31833C15.5606 4.31066 15.5469 4.30398 15.5327 4.2988C15.49 4.28303 15.4433 4.27916 15.3979 4.28708L14.5952 4.42771C14.5716 4.43184 14.548 4.43329 14.5249 4.43259C14.5026 4.43191 14.4808 4.42865 14.4595 4.4238C14.4555 4.42289 14.4517 4.42095 14.4478 4.4199C14.4314 4.41554 14.4153 4.41092 14.3999 4.40427C14.3918 4.40081 14.3842 4.3966 14.3765 4.39255C14.367 4.38757 14.3581 4.38178 14.3491 4.37595C14.3393 4.36959 14.3299 4.36277 14.3208 4.35544C14.3138 4.34978 14.3069 4.34407 14.3003 4.33786C14.2929 4.33092 14.2856 4.32397 14.2788 4.31638C14.2717 4.30839 14.2656 4.29965 14.2593 4.29099C14.2407 4.26584 14.2237 4.23912 14.2124 4.20896C14.2049 4.18883 14.1996 4.16744 14.1958 4.14548L14.1206 3.70798C14.1127 3.66111 14.1142 3.61478 14.1245 3.57126C14.1399 3.50606 14.1744 3.44724 14.2222 3.40134C14.238 3.38617 14.2553 3.37234 14.2739 3.36033C14.3116 3.33596 14.3549 3.31874 14.4019 3.31052L14.4077 3.30954L14.8384 3.23337L14.8257 3.20017L14.6831 2.80857C14.6186 2.63049 14.7097 2.43336 14.8872 2.36716L15.2925 2.21677C15.4722 2.14998 15.6713 2.24266 15.7368 2.42283L16.02 3.20017C16.0407 3.25701 16.0811 3.30542 16.1333 3.33591L17.3013 4.01755V2.65134C17.3012 2.59142 17.2798 2.53354 17.2417 2.48728L16.7134 1.84568C16.5934 1.69973 16.613 1.48417 16.7573 1.36228L17.0903 1.08103Z" fill="#1F2723"/>
</g>
<defs>
<clipPath id="clip0_2002_1751">
<rect width="24" height="24" fill="white"/>
</clipPath>
</defs>
</svg>
