<svg width="24" height="24" viewBox="0 0 24 24" fill="none" xmlns="http://www.w3.org/2000/svg">
<g clip-path="url(#clip0_2002_1812)">
<path d="M21.0517 16.2745L16.7647 11.9902L20.9844 7.77317C22.2974 6.46096 22.2974 4.33002 20.9844 3.0178C19.6713 1.70559 17.539 1.70559 16.226 3.0178L12.0063 7.23482L7.7193 2.95051C6.43993 1.68316 4.36376 1.68316 3.09561 2.95051L2.96094 3.0851C1.68156 4.36366 1.68156 6.43852 2.94971 7.71709L7.23673 12.0014L3.01705 16.2184C1.70401 17.5306 1.70401 19.6616 3.01705 20.9738C4.33009 22.286 6.46237 22.286 7.77541 20.9738L11.9951 16.7568L16.2821 21.0411C17.5615 22.3196 19.6264 22.3196 20.9058 21.0411L21.0405 20.9065C22.3198 19.6279 22.3198 17.5643 21.0405 16.2857L21.0517 16.2745Z" fill="#1F2723"/>
</g>
<defs>
<clipPath id="clip0_2002_1812">
<rect width="24" height="24" fill="white"/>
</clipPath>
</defs>
</svg>
